<svg width="40" height="28" viewBox="0 0 40 28" fill="none" xmlns="http://www.w3.org/2000/svg">
<rect width="40" height="28" rx="4" fill="#112B55"/>
<path fill-rule="evenodd" clip-rule="evenodd" d="M19.8143 13.2379C19.8024 14.2129 20.6525 14.7571 21.293 15.0806C21.951 15.4126 22.172 15.6254 22.1695 15.9223C22.1645 16.3766 21.6446 16.5771 21.158 16.5849C20.3091 16.5986 19.8155 16.3473 19.4231 16.1572L19.1173 17.6407C19.511 17.8288 20.24 17.9928 20.996 18C22.7704 18 23.9314 17.092 23.9376 15.684C23.9445 13.8972 21.5535 13.7983 21.5699 12.9996C21.5755 12.7575 21.7984 12.4991 22.2869 12.4333C22.5287 12.4001 23.1961 12.3747 23.9527 12.736L24.2497 11.3007C23.8428 11.1471 23.3198 11 22.6687 11C20.9985 11 19.8237 11.9204 19.8143 13.2379ZM27.1033 11.1234C26.7793 11.1234 26.5062 11.3193 26.3844 11.62L23.8496 17.8942H25.6227L25.9756 16.8834H28.1425L28.3472 17.8942H29.91L28.5462 11.1234H27.1033ZM27.3513 12.9526L27.8631 15.4951H26.4616L27.3513 12.9526ZM17.6643 11.1234L16.2666 17.8942H17.9563L19.3533 11.1234H17.6643ZM15.1646 11.1234L13.4059 15.7319L12.6945 11.8133C12.611 11.3759 12.2813 11.1234 11.9153 11.1234H9.04018L9 11.3199C9.59021 11.4527 10.2608 11.6669 10.667 11.896C10.9157 12.036 10.9866 12.1583 11.0683 12.491L12.4157 17.8942H14.2014L16.939 11.1234H15.1646Z" fill="white"/>
</svg>
