<svg width="40" height="41" viewBox="0 0 40 41" fill="none" xmlns="http://www.w3.org/2000/svg">
    <circle opacity="0.04" cx="20" cy="20.5293" r="20" fill="#035BA8" />
    <path fill-rule="evenodd" clip-rule="evenodd"
        d="M26.6876 26.1142C26.6923 26.11 26.6967 26.1059 26.7008 26.1019C26.6996 26.103 26.698 26.105 26.6962 26.1081L26.6876 26.1142ZM25.8385 23.3815C25.1549 22.0144 23.0973 20.115 22.7429 20.115C22.763 20.115 22.7356 20.1265 22.657 20.1761C22.7239 20.1339 22.3119 20.4055 22.1606 20.492C21.5848 20.821 20.9408 21.0007 20.0857 21.0007C17.5411 21.0007 16.0429 18.9577 16.0429 15.6293C16.0429 13.5101 17.6718 12.0293 20.0857 12.0293C22.4996 12.0293 24.1286 13.5101 24.1286 15.6293C24.1286 16.8809 23.9691 17.8377 23.6329 18.51C23.5094 18.757 23.2091 18.8571 22.9621 18.7337C22.7151 18.6102 22.615 18.3098 22.7385 18.0628C22.9928 17.5543 23.1286 16.7396 23.1286 15.6293C23.1286 14.0848 21.9675 13.0293 20.0857 13.0293C18.2039 13.0293 17.0429 14.0848 17.0429 15.6293C17.0429 18.4606 18.1723 20.0007 20.0857 20.0007C20.7622 20.0007 21.2362 19.8684 21.6644 19.6237C21.783 19.556 22.1656 19.3037 22.123 19.3307C22.3498 19.1874 22.523 19.115 22.7429 19.115C23.5694 19.115 25.8981 21.2646 26.7329 22.9343C27.4773 24.423 27.6714 25.2967 27.6714 26.2579C27.6714 27.3729 24.0372 28.5293 20.0857 28.5293C16.1343 28.5293 12.5 27.3729 12.5 26.2579C12.5 25.2967 12.6942 24.423 13.4385 22.9343C14.0648 21.6818 15.0015 20.5889 16.2429 19.6579C16.4638 19.4922 16.7772 19.537 16.9429 19.7579C17.1085 19.9788 17.0638 20.2922 16.8429 20.4579C15.7223 21.2983 14.8876 22.2721 14.3329 23.3815C13.6958 24.6557 13.5184 25.3695 13.5014 26.1296C13.5549 26.1747 13.6349 26.2301 13.7375 26.2903C14.0433 26.4698 14.4913 26.6606 15.0337 26.8332C16.3961 27.2667 18.1378 27.5293 20.0857 27.5293C22.0337 27.5293 23.7753 27.2667 25.1377 26.8332C25.6801 26.6606 26.1282 26.4698 26.434 26.2903C26.5365 26.2301 26.6166 26.1747 26.67 26.1296C26.653 25.3695 26.4756 24.6557 25.8385 23.3815Z"
        fill="#035BA8" />
</svg>
