<svg width="16" height="22" viewBox="0 0 16 22" fill="none" xmlns="http://www.w3.org/2000/svg">
<path fill-rule="evenodd" clip-rule="evenodd" d="M14 1.66634C14.3682 1.66634 14.6667 1.96482 14.6667 2.33301V18.9997L13.9589 18.056C13.6938 17.7025 13.1924 17.6309 12.8389 17.896L12.8389 17.896C12.7943 17.9311 12.7943 17.9311 12.7532 17.9703L10.6667 20.0569L8.56569 17.9559C8.25327 17.6435 7.74673 17.6435 7.43431 17.9559L5.33333 20.0569L3.24678 17.9703C2.93436 17.6579 2.42783 17.6579 2.11541 17.9703C2.09581 17.9909 2.08602 18.0011 2.07673 18.0118C2.06744 18.0225 2.05866 18.0337 2.04109 18.056L1.33333 18.9997V6.33301C1.33333 5.96482 1.03486 5.66634 0.666667 5.66634C0.298477 5.66634 0 5.96482 0 6.33301V20.5997C0 20.8515 0.118555 21.0886 0.32 21.2397C0.673462 21.5048 1.1749 21.4331 1.44 21.0797L2.7388 19.3479L4.76765 21.3768C5.08007 21.6892 5.5866 21.6892 5.89902 21.3768L8 19.2758L10.101 21.3768C10.4134 21.6892 10.9199 21.6892 11.2324 21.3768L13.2612 19.3479L14.56 21.0797C14.7111 21.2811 14.9482 21.3997 15.2 21.3997C15.6418 21.3997 16 21.0415 16 20.5997V2.33301C16 1.22844 15.1046 0.333008 14 0.333008H2C0.895431 0.333008 0 1.22844 0 2.33301V3.66634C0 4.03453 0.298477 4.33301 0.666667 4.33301C1.03486 4.33301 1.33333 4.03453 1.33333 3.66634V2.33301C1.33333 1.96482 1.63181 1.66634 2 1.66634H14ZM4.5 5.66634C4.22386 5.66634 4 5.8902 4 6.16634V6.49967C4 6.77582 4.22386 6.99967 4.5 6.99967H11.5C11.7761 6.99967 12 6.77582 12 6.49967V6.16634C12 5.8902 11.7761 5.66634 11.5 5.66634H4.5ZM4.5 8.33301C4.22386 8.33301 4 8.55686 4 8.83301V9.16634C4 9.44248 4.22386 9.66634 4.5 9.66634H11.5C11.7761 9.66634 12 9.44248 12 9.16634V8.83301C12 8.55686 11.7761 8.33301 11.5 8.33301H4.5ZM4 11.4997C4 11.2235 4.22386 10.9997 4.5 10.9997H8.83333C9.10948 10.9997 9.33333 11.2235 9.33333 11.4997V11.833C9.33333 12.1092 9.10948 12.333 8.83333 12.333H4.5C4.22386 12.333 4 12.1091 4 11.833V11.4997Z" fill="#1B7BBD"/>
</svg>
