<svg width="24" height="24" viewBox="0 0 24 24" fill="none" xmlns="http://www.w3.org/2000/svg">
<path fill-rule="evenodd" clip-rule="evenodd" d="M12 24C18.6274 24 24 18.6274 24 12C24 5.37258 18.6274 0 12 0C5.37258 0 0 5.37258 0 12C0 18.6274 5.37258 24 12 24ZM18.5303 7.46967C18.2374 7.17678 17.7626 7.17678 17.4697 7.46967L10 14.9393L6.53033 11.4697C6.23744 11.1768 5.76256 11.1768 5.46967 11.4697C5.17678 11.7626 5.17678 12.2374 5.46967 12.5303L9.46967 16.5303C9.76256 16.8232 10.2374 16.8232 10.5303 16.5303L18.5303 8.53033C18.8232 8.23744 18.8232 7.76256 18.5303 7.46967Z" fill="black"/>
</svg>
