<svg width="44" height="44" viewBox="0 0 44 44" fill="none" xmlns="http://www.w3.org/2000/svg">
<path d="M29.2 21.9999C29.6875 21.9999 30.1094 22.178 30.4657 22.5343C30.8219 22.8905 31 23.3124 31 23.7999C31 24.2874 30.8219 24.7093 30.4657 25.0655C30.1094 25.4218 29.6875 25.5999 29.2 25.5999C28.7125 25.5999 28.2907 25.4218 27.9344 25.0655C27.5782 24.7093 27.4 24.2874 27.4 23.7999C27.4 23.3124 27.5782 22.8905 27.9344 22.5343C28.2907 22.178 28.7125 21.9999 29.2 21.9999Z" fill="#1B7BBD"/>
<path fill-rule="evenodd" clip-rule="evenodd" d="M33.7 12.9999C34.45 12.9999 35.0875 13.2624 35.6125 13.7874C36.1375 14.3124 36.4 14.9499 36.4 15.6999V30.9999C36.4 32.0123 36.0532 32.8655 35.3594 33.5592C34.6657 34.253 33.8125 34.5998 32.8 34.5998H13.0001C11.5001 34.5998 10.2251 34.0748 9.17509 33.0248C8.1251 31.9748 7.6001 30.6999 7.6001 29.1999V14.7999C7.6001 13.2999 8.1251 12.0249 9.17509 10.9749C10.2251 9.9249 11.5001 9.3999 13.0001 9.3999H30.1C30.85 9.3999 31.4875 9.6624 32.0125 10.1874C32.5375 10.7124 32.8 11.3499 32.8 12.0999V12.9999H33.7ZM34.0657 32.2655C34.4219 31.9092 34.6 31.4874 34.6 30.9999V15.6999C34.6 15.4374 34.5157 15.2218 34.3469 15.053C34.1782 14.8843 33.9625 14.7999 33.7 14.7999H13.9001C13.6376 14.7999 13.422 14.7155 13.2532 14.5468C13.0845 14.378 13.0001 14.1624 13.0001 13.8999C13.0001 13.6374 13.0845 13.4218 13.2532 13.253C13.422 13.0843 13.6376 12.9999 13.9001 12.9999H31V12.0999C31 11.8374 30.9157 11.6218 30.7469 11.453C30.5782 11.2843 30.3625 11.1999 30.1 11.1999H13.0001C12.0251 11.1999 11.1813 11.5561 10.4688 12.2686C9.75634 12.9811 9.40009 13.8249 9.40009 14.7999V29.1999C9.40009 30.1749 9.75634 31.0186 10.4688 31.7311C11.1813 32.4436 12.0251 32.7998 13.0001 32.7998H32.8C33.2875 32.7998 33.7094 32.6217 34.0657 32.2655Z" fill="#1B7BBD"/>
</svg>
