<svg width="33" height="32" viewBox="0 0 33 32" fill="none" xmlns="http://www.w3.org/2000/svg">
<path d="M24.4333 8.06635C24.1209 7.75393 23.6144 7.75393 23.3019 8.06635L16.5003 14.868L9.69869 8.06635C9.38627 7.75393 8.87974 7.75393 8.56732 8.06635C8.2549 8.37877 8.2549 8.8853 8.56732 9.19772L15.3689 15.9993L8.56732 22.801C8.2549 23.1134 8.2549 23.6199 8.56732 23.9323C8.87974 24.2448 9.38627 24.2448 9.69869 23.9323L16.5003 17.1307L23.3019 23.9323C23.6144 24.2448 24.1209 24.2448 24.4333 23.9323C24.7457 23.6199 24.7457 23.1134 24.4333 22.801L17.6317 15.9993L24.4333 9.19772C24.7457 8.8853 24.7457 8.37877 24.4333 8.06635Z" fill="#1B7BBD"/>
</svg>
