<svg width="24" height="24" viewBox="0 0 24 24" fill="none" xmlns="http://www.w3.org/2000/svg">
<path fill-rule="evenodd" clip-rule="evenodd" d="M21.3262 9.79514C21.258 9.71663 21.162 9.66773 21.0585 9.6588L14.81 9.11999L12.3685 3.36808C12.2821 3.16473 12.0473 3.06985 11.844 3.15617C11.7485 3.1967 11.6725 3.27276 11.632 3.36828L9.18999 9.12999L2.94464 9.65984C2.72452 9.67852 2.56121 9.8721 2.57988 10.0922C2.5887 10.1961 2.63773 10.2925 2.71654 10.3607L7.45999 14.47L6.03535 20.5768C5.98516 20.7919 6.11888 21.007 6.33402 21.0572C6.43555 21.0809 6.54232 21.064 6.63159 21.0101L12 17.77L17.3699 21.0111C17.559 21.1252 17.8049 21.0644 17.9191 20.8753C17.9728 20.7862 17.9898 20.6796 17.9663 20.5783L16.55 14.47L21.2863 10.3594C21.4531 10.2146 21.471 9.96198 21.3262 9.79514ZM12.0007 5.06095L14.1246 10.0646L19.5602 10.5333L15.4398 14.1094L16.6715 19.4215L12 16.602L7.33225 19.4192L8.57096 14.1094L4.44615 10.536L9.87539 10.0754L12.0007 5.06095Z" fill="black"/>
</svg>
