<svg width="23" height="15" viewBox="0 0 23 15" fill="none" xmlns="http://www.w3.org/2000/svg">
<path fill-rule="evenodd" clip-rule="evenodd" d="M13.6103 8.73527L20.833 2.5444V12.333L16.5663 9.13301C16.2718 8.91209 15.8539 8.97179 15.633 9.26634C15.4121 9.56089 15.4718 9.97876 15.7663 10.1997L20.2463 13.5597C20.4541 13.7155 20.7067 13.7997 20.9663 13.7997C21.6291 13.7997 22.1663 13.2624 22.1663 12.5997V2.33301C22.1663 1.22844 21.2709 0.333008 20.1663 0.333008H4.16634C3.79815 0.333008 3.49967 0.631485 3.49967 0.999674C3.49967 1.36786 3.79815 1.66634 4.16634 1.66634H19.8086L12.7426 7.72293C12.0131 8.34825 10.9419 8.3664 10.1916 7.76615L2.78264 1.83897C2.26513 1.42495 1.50998 1.50886 1.09597 2.02637C0.925745 2.23915 0.833008 2.50352 0.833008 2.77601V12.9997C0.833008 14.1042 1.72844 14.9997 2.83301 14.9997H18.833C19.2012 14.9997 19.4997 14.7012 19.4997 14.333C19.4997 13.9648 19.2012 13.6663 18.833 13.6663H2.83301C2.76815 13.6663 2.70545 13.6571 2.64617 13.6398L7.23301 10.1997C7.52756 9.97876 7.58726 9.56089 7.36634 9.26634C7.14543 8.97179 6.72756 8.9121 6.43301 9.13301L2.16634 12.333V3.05343L9.3587 8.80731C10.6092 9.80772 12.3944 9.77747 13.6103 8.73527Z" fill="#1B7BBD"/>
</svg>
