<svg width="24" height="25" viewBox="0 0 24 25" fill="none" xmlns="http://www.w3.org/2000/svg">
<path d="M17 13.1289C17 13.405 16.7761 13.6289 16.5 13.6289C16.2239 13.6289 16 13.405 16 13.1289C16 12.8528 16.2239 12.6289 16.5 12.6289C16.7761 12.6289 17 12.8528 17 13.1289Z" fill="black"/>
<path fill-rule="evenodd" clip-rule="evenodd" d="M4.99649 7.62891C4.24276 7.6284 4 7.46604 4 7.12891C4 6.79125 4.24352 6.62891 5 6.62891H18C18.2761 6.62891 18.5 6.40505 18.5 6.12891C18.5 5.85276 18.2761 5.62891 18 5.62891H5C3.79883 5.62891 3.05208 6.09947 3.00262 7.02891H3V18.729C3 19.226 3.40294 19.629 3.9 19.629H19.1C19.5971 19.629 20 19.226 20 18.729L20 16.6289C20 16.3528 19.7761 16.1289 19.5 16.1289C19.2239 16.1289 19 16.3528 19 16.6289L19 18.629H4V8.62891L19 8.6289L19 10.6289L14.9 10.6289C14.4029 10.6289 14 11.0318 14 11.5289V14.7289C14 15.226 14.4029 15.6289 14.9 15.6289H20.1C20.5971 15.6289 21 15.226 21 14.7289V11.5289C21 11.0318 20.5971 10.6289 20.1 10.6289H20L20 8.5289C20 8.03185 19.5971 7.6289 19.1 7.6289L4.99649 7.62891ZM15 11.6289V14.6289H20V11.6289H15Z" fill="black"/>
</svg>
