<svg width="28" height="28" viewBox="0 0 28 28" fill="none" xmlns="http://www.w3.org/2000/svg">
<path d="M0 14C0 6.26801 6.26801 0 14 0C21.732 0 28 6.26801 28 14C28 21.732 21.732 28 14 28C6.26801 28 0 21.732 0 14Z" fill="white"/>
<path d="M5.6001 8.07104L8.1432 12.6167V15.3894L5.60307 19.9261L5.6001 8.07104Z" fill="#5B57A2"/>
<path d="M15.3645 10.9624L17.7475 9.50186L22.6244 9.49731L15.3645 13.9448V10.9624Z" fill="#D90751"/>
<path d="M15.351 8.04423L15.3645 14.0625L12.8154 12.4962V3.5L15.3512 8.04423H15.351Z" fill="#FAB718"/>
<path d="M22.6244 9.49743L17.7473 9.50198L15.351 8.04423L12.8154 3.5L22.6242 9.49743H22.6244Z" fill="#ED6F26"/>
<path d="M15.3645 19.9512V17.0314L12.8154 15.4949L12.8168 24.5L15.3645 19.9512Z" fill="#63B22F"/>
<path d="M17.7416 18.504L8.14302 12.6167L5.6001 8.07104L22.6141 18.4981L17.7414 18.504H17.7416Z" fill="#1487C9"/>
<path d="M12.8171 24.5L15.3644 19.9512L17.7415 18.504L22.614 18.498L12.8171 24.5Z" fill="#017F36"/>
<path d="M5.60303 19.926L12.8363 15.495L10.4045 14.0029L8.14315 15.3893L5.60303 19.926Z" fill="#984995"/>
</svg>
