<svg fill="none" height="16" viewBox="0 0 20 16" width="20" xmlns="http://www.w3.org/2000/svg">
    <path
        d="M11 5.5V4.5C11 4.25 10.75 4 10.5 4H6.4375L7.0625 1.5H8.5C8.75 1.5 9 1.28125 9 1V0.5C9 0.25 8.75 0 8.5 0H6.875C6.34375 0 5.78125 0.4375 5.65625 0.96875L4.90625 4H0.5C0.21875 4 0 4.25 0 4.5V5.5C0 5.78125 0.21875 6 0.5 6H10.5C10.75 6 11 5.78125 11 5.5ZM8.21875 9.96875C8.09375 9.71875 8 9.28125 8 9C8 8.65625 8.15625 8.15625 8.34375 7.875C8.5625 7.5625 8.8125 7.28125 9.09375 7H1.1875L2 15.0938C2.03125 15.5938 2.46875 16 2.96875 16H3H8C8.09375 16 8.3125 15.9688 8.40625 15.9062C8.1875 15.5625 8 14.9375 8 14.5312V14.5C8 14.125 8.21875 13.625 8.53125 13.375C8.21875 13.0625 8 12.4375 8 12C8 11.5312 8.28125 10.8438 8.65625 10.5312C8.5 10.375 8.3125 10.125 8.21875 9.96875ZM19.5 14H9.5C9.21875 14 9 14.25 9 14.5C9 15.3438 9.65625 16 10.5 16H18.5C19.3125 16 20 15.3438 20 14.5C20 14.25 19.75 14 19.5 14ZM19 11H10C9.4375 11 9 11.4688 9 12C9 12.5625 9.4375 13 10 13H19C19.5312 13 20 12.5625 20 12C20 11.4688 19.5312 11 19 11ZM9.15625 8.4375C8.71875 9.09375 9.15625 10 9.96875 10H19C19.8125 10 20.25 9.09375 19.8125 8.4375C18.875 7.09375 16.8438 6.03125 14.5 6C12.125 6 10.0938 7.09375 9.15625 8.4375ZM17 7.5C17.25 7.5 17.5 7.75 17.5 8C17.5 8.28125 17.25 8.5 17 8.5C16.7188 8.5 16.5 8.28125 16.5 8C16.5 7.75 16.7188 7.5 17 7.5ZM14.5 7C14.75 7 15 7.25 15 7.5C15 7.78125 14.75 8 14.5 8C14.2188 8 14 7.78125 14 7.5C14 7.25 14.2188 7 14.5 7ZM12 7.5C12.25 7.5 12.5 7.75 12.5 8C12.5 8.28125 12.25 8.5 12 8.5C11.7188 8.5 11.5 8.28125 11.5 8C11.5 7.75 11.7188 7.5 12 7.5Z"
        fill="white" />
</svg>
