<svg fill="none" height="14" viewBox="0 0 18 14" width="18" xmlns="http://www.w3.org/2000/svg">
    <path
        d="M18 5.75C18 5.34375 17.6562 5 17.25 5H15.125L11.7812 0.4375C11.4688 -0.03125 10.8438 -0.125 10.4062 0.21875C9.9375 0.53125 9.84375 1.15625 10.1875 1.59375L12.6562 5H5.3125L7.78125 1.59375C8.125 1.15625 8.03125 0.53125 7.5625 0.21875C7.125 -0.125 6.5 -0.03125 6.1875 0.4375L2.84375 5H0.75C0.3125 5 0 5.34375 0 5.75V6.25C0 6.6875 0.3125 7 0.75 7H1L1.8125 12.7188C1.90625 13.4688 2.53125 14 3.28125 14H14.6875C15.4375 14 16.0625 13.4688 16.1562 12.7188L17 7H17.25C17.6562 7 18 6.6875 18 6.25V5.75ZM9.75 11.25C9.75 11.6875 9.40625 12 9 12C8.5625 12 8.25 11.6875 8.25 11.25V7.75C8.25 7.34375 8.5625 7 9 7C9.40625 7 9.75 7.34375 9.75 7.75V11.25ZM13.25 11.25C13.25 11.6875 12.9062 12 12.5 12C12.0625 12 11.75 11.6875 11.75 11.25V7.75C11.75 7.34375 12.0625 7 12.5 7C12.9062 7 13.25 7.34375 13.25 7.75V11.25ZM6.25 11.25C6.25 11.6875 5.90625 12 5.5 12C5.0625 12 4.75 11.6875 4.75 11.25V7.75C4.75 7.34375 5.0625 7 5.5 7C5.90625 7 6.25 7.34375 6.25 7.75V11.25Z"
        fill="white" />
</svg>
