<svg width="44" height="44" viewBox="0 0 44 44" fill="none" xmlns="http://www.w3.org/2000/svg">
<path d="M29.1996 22C29.6871 22 30.1089 22.1781 30.4652 22.5344C30.8214 22.8906 30.9996 23.3125 30.9996 23.8C30.9996 24.2875 30.8214 24.7094 30.4652 25.0656C30.1089 25.4219 29.6871 25.6 29.1996 25.6C28.7121 25.6 28.2902 25.4219 27.9339 25.0656C27.5777 24.7094 27.3996 24.2875 27.3996 23.8C27.3996 23.3125 27.5777 22.8906 27.9339 22.5344C28.2902 22.1781 28.7121 22 29.1996 22Z" fill="#1B7BBD"/>
<path fill-rule="evenodd" clip-rule="evenodd" d="M33.6995 13C34.4495 13 35.087 13.2625 35.612 13.7875C36.137 14.3125 36.3995 14.95 36.3995 15.7V31C36.3995 32.0125 36.0527 32.8656 35.3589 33.5593C34.6652 34.2531 33.812 34.6 32.7995 34.6H12.9996C11.4996 34.6 10.2246 34.075 9.17461 33.025C8.12461 31.975 7.59961 30.7 7.59961 29.2V14.8C7.59961 13.3 8.12461 12.025 9.17461 10.975C10.2246 9.92502 11.4996 9.40002 12.9996 9.40002H30.0996C30.8496 9.40002 31.4871 9.66252 32.0121 10.1875C32.537 10.7125 32.7995 11.35 32.7995 12.1V13H33.6995ZM34.0652 32.2656C34.4214 31.9093 34.5995 31.4875 34.5995 31V15.7C34.5995 15.4375 34.5152 15.2219 34.3464 15.0531C34.1777 14.8844 33.962 14.8 33.6995 14.8H13.8996C13.6371 14.8 13.4215 14.7156 13.2527 14.5469C13.084 14.3781 12.9996 14.1625 12.9996 13.9C12.9996 13.6375 13.084 13.4219 13.2527 13.2531C13.4215 13.0844 13.6371 13 13.8996 13H30.9996V12.1C30.9996 11.8375 30.9152 11.6219 30.7464 11.4531C30.5777 11.2844 30.3621 11.2 30.0996 11.2H12.9996C12.0246 11.2 11.1809 11.5563 10.4684 12.2688C9.75585 12.9813 9.39961 13.825 9.39961 14.8V29.2C9.39961 30.175 9.75585 31.0187 10.4684 31.7312C11.1809 32.4437 12.0246 32.8 12.9996 32.8H32.7996C33.287 32.8 33.7089 32.6218 34.0652 32.2656Z" fill="#1B7BBD"/>
</svg>
