<svg fill="none" height="13" viewBox="0 0 13 13" width="13" xmlns="http://www.w3.org/2000/svg">
    <path
        d="M4.40625 3.4375C5.1875 2.65625 5.1875 1.375 4.40625 0.59375C3.625 -0.1875 2.34375 -0.1875 1.5625 0.59375C0.78125 1.375 0.78125 2.65625 1.5625 3.4375C2.34375 4.21875 3.625 4.21875 4.40625 3.4375ZM12.4062 8.59375C11.625 7.8125 10.3438 7.8125 9.5625 8.59375C8.78125 9.375 8.78125 10.6562 9.5625 11.4375C10.3438 12.2188 11.625 12.2188 12.4062 11.4375C13.1875 10.6562 13.1875 9.375 12.4062 8.59375ZM12.3438 1.375L11.625 0.65625C11.25 0.28125 10.5938 0.28125 10.2188 0.65625L1.625 9.25C1.25 9.625 1.25 10.2812 1.625 10.6562L2.34375 11.375C2.71875 11.75 3.375 11.75 3.75 11.375L12.3438 2.78125C12.7188 2.40625 12.7188 1.75 12.3438 1.375Z"
        fill="white" />
</svg>
