<svg fill="none" height="16" viewBox="0 0 18 16" width="18" xmlns="http://www.w3.org/2000/svg">
    <path
        d="M14 7V6C14 5.46875 13.5312 5 13 5H10V3C10 1.375 8.625 0 7 0C5.34375 0 4 1.375 4 3V5H1C0.4375 5 0 5.46875 0 6V14C0 14.5625 0.4375 15 1 15H5V8C5 7.46875 5.4375 7 6 7H14ZM5.5 3C5.5 2.1875 6.15625 1.5 7 1.5C7.8125 1.5 8.5 2.1875 8.5 3V5H5.5V3ZM17 8H7C6.4375 8 6 8.46875 6 9V15C6 15.5625 6.4375 16 7 16H17C17.5312 16 18 15.5625 18 15V9C18 8.46875 17.5312 8 17 8ZM15 11C14.9688 12.6562 13.625 14.0312 11.9688 14.0312C11.875 14.0312 11.6875 14 11.5938 14C10.0938 13.7812 9 12.4375 9 10.9062V10.25C9 10.125 9.09375 10 9.25 10H9.75C9.875 10 10 10.125 10 10.25V10.9375C10 11.9688 10.75 12.9062 11.7812 13C11.8438 13 11.9375 13.0312 11.9688 13.0312C13.0938 13.0312 13.9688 12.125 14 11V10.25C14 10.125 14.0938 10 14.25 10H14.75C14.875 10 15 10.125 15 10.25V11Z"
        fill="white" />
</svg>
