<svg fill="none" height="6" viewBox="0 0 16 6" width="16" xmlns="http://www.w3.org/2000/svg">
    <path
        d="M10.25 3C10.25 1.78125 9.21875 0.75 8 0.75C6.75 0.75 5.75 1.78125 5.75 3C5.75 4.25 6.75 5.25 8 5.25C9.21875 5.25 10.25 4.25 10.25 3ZM13.5 0.75C12.25 0.75 11.25 1.78125 11.25 3C11.25 4.25 12.25 5.25 13.5 5.25C14.7188 5.25 15.75 4.25 15.75 3C15.75 1.78125 14.7188 0.75 13.5 0.75ZM2.5 0.75C1.25 0.75 0.25 1.78125 0.25 3C0.25 4.25 1.25 5.25 2.5 5.25C3.71875 5.25 4.75 4.25 4.75 3C4.75 1.78125 3.71875 0.75 2.5 0.75Z"
        fill="white" />
</svg>
