<svg width="12" height="64" viewBox="0 0 12 64" fill="none" xmlns="http://www.w3.org/2000/svg">
<circle cx="6" cy="10" r="2" stroke="black" stroke-linecap="round"/>
<path d="M5.5 12.2597C5.5 12.5359 5.72386 12.7597 6 12.7597C6.27614 12.7597 6.5 12.5359 6.5 12.2597L5.5 12.2597ZM6.5 15.3766C6.5 15.1005 6.27614 14.8766 6 14.8766C5.72386 14.8766 5.5 15.1005 5.5 15.3766L6.5 15.3766ZM5.5 15.8961C5.5 16.1722 5.72386 16.3961 6 16.3961C6.27614 16.3961 6.5 16.1722 6.5 15.8961L5.5 15.8961ZM6.5 19.013C6.5 18.7368 6.27614 18.513 6 18.513C5.72386 18.513 5.5 18.7368 5.5 19.013L6.5 19.013ZM5.5 19.5325C5.5 19.8086 5.72386 20.0325 6 20.0325C6.27614 20.0325 6.5 19.8086 6.5 19.5325L5.5 19.5325ZM6.5 22.6494C6.5 22.3732 6.27614 22.1494 6 22.1494C5.72386 22.1494 5.5 22.3732 5.5 22.6494L6.5 22.6494ZM5.5 23.1688C5.5 23.445 5.72386 23.6688 6 23.6688C6.27614 23.6688 6.5 23.445 6.5 23.1688L5.5 23.1688ZM6.5 26.2857C6.5 26.0096 6.27614 25.7857 6 25.7857C5.72386 25.7857 5.5 26.0096 5.5 26.2857L6.5 26.2857ZM5.5 26.8052C5.5 27.0813 5.72386 27.3052 6 27.3052C6.27614 27.3052 6.5 27.0813 6.5 26.8052L5.5 26.8052ZM6.5 29.9221C6.5 29.6459 6.27614 29.4221 6 29.4221C5.72386 29.4221 5.5 29.6459 5.5 29.9221L6.5 29.9221ZM5.5 30.4416C5.5 30.7177 5.72386 30.9416 6 30.9416C6.27614 30.9416 6.5 30.7177 6.5 30.4416L5.5 30.4416ZM6.5 33.5584C6.5 33.2823 6.27614 33.0584 6 33.0584C5.72386 33.0584 5.5 33.2823 5.5 33.5584L6.5 33.5584ZM5.5 34.0779C5.5 34.3541 5.72386 34.5779 6 34.5779C6.27614 34.5779 6.5 34.3541 6.5 34.0779L5.5 34.0779ZM6.5 37.1948C6.5 36.9187 6.27614 36.6948 6 36.6948C5.72386 36.6948 5.5 36.9187 5.5 37.1948L6.5 37.1948ZM5.5 37.7143C5.5 37.9904 5.72386 38.2143 6 38.2143C6.27614 38.2143 6.5 37.9904 6.5 37.7143L5.5 37.7143ZM6.5 40.8312C6.5 40.555 6.27614 40.3312 6 40.3312C5.72386 40.3312 5.5 40.555 5.5 40.8312L6.5 40.8312ZM5.5 41.3506C5.5 41.6268 5.72386 41.8506 6 41.8506C6.27614 41.8506 6.5 41.6268 6.5 41.3506L5.5 41.3506ZM6.5 44.4675C6.5 44.1914 6.27614 43.9675 6 43.9675C5.72386 43.9675 5.5 44.1914 5.5 44.4675L6.5 44.4675ZM5.5 44.987C5.5 45.2632 5.72386 45.487 6 45.487C6.27614 45.487 6.5 45.2632 6.5 44.987L5.5 44.987ZM6.5 48.1039C6.5 47.8278 6.27614 47.6039 6 47.6039C5.72386 47.6039 5.5 47.8278 5.5 48.1039L6.5 48.1039ZM5.5 48.6234C5.5 48.8995 5.72386 49.1234 6 49.1234C6.27614 49.1234 6.5 48.8995 6.5 48.6234L5.5 48.6234ZM6.5 51.7403C6.5 51.4641 6.27614 51.2403 6 51.2403C5.72386 51.2403 5.5 51.4641 5.5 51.7403L6.5 51.7403ZM5.5 12L5.5 12.2597L6.5 12.2597L6.5 12L5.5 12ZM5.5 15.3766L5.5 15.8961L6.5 15.8961L6.5 15.3766L5.5 15.3766ZM5.5 19.013L5.5 19.5325L6.5 19.5325L6.5 19.013L5.5 19.013ZM5.5 22.6494L5.5 23.1688L6.5 23.1688L6.5 22.6494L5.5 22.6494ZM5.5 26.2857L5.5 26.8052L6.5 26.8052L6.5 26.2857L5.5 26.2857ZM5.5 29.9221L5.5 30.4416L6.5 30.4416L6.5 29.9221L5.5 29.9221ZM5.5 33.5584L5.5 34.0779L6.5 34.0779L6.5 33.5584L5.5 33.5584ZM5.5 37.1948L5.5 37.7143L6.5 37.7143L6.5 37.1948L5.5 37.1948ZM5.5 40.8312L5.5 41.3506L6.5 41.3506L6.5 40.8312L5.5 40.8312ZM5.5 44.4675L5.5 44.987L6.5 44.987L6.5 44.4675L5.5 44.4675ZM5.5 48.1039L5.5 48.6234L6.5 48.6234L6.5 48.1039L5.5 48.1039ZM5.5 51.7403L5.5 52L6.5 52L6.5 51.7403L5.5 51.7403Z" fill="black"/>
<path d="M6 52V56M6 56L8 54.1176M6 56L4 54.1176" stroke="black" stroke-linecap="round"/>
</svg>
