<svg width="36" height="36" viewBox="0 0 36 36" fill="none" xmlns="http://www.w3.org/2000/svg">
<path d="M0 18C0 8.05888 8.05888 0 18 0C27.9411 0 36 8.05888 36 18C36 27.9411 27.9411 36 18 36C8.05888 36 0 27.9411 0 18Z" fill="#CFCFCF"/>
<path d="M18 0C21.1935 0 24.2419 0.870968 27 2.46774C29.7581 4.06452 31.9355 6.24194 33.5323 9C35.129 11.7581 36 14.8065 36 18C36 21.2661 35.129 24.2419 33.5323 27C31.9355 29.7581 29.7581 32.0081 27 33.6048C24.2419 35.2016 21.1935 36 18 36C14.7339 36 11.7581 35.2016 9 33.6048C6.24194 32.0081 3.99194 29.7581 2.39516 27C0.798387 24.2419 0 21.2661 0 18C0 14.8065 0.798387 11.7581 2.39516 9C3.99194 6.24194 6.24194 4.06452 9 2.46774C11.7581 0.870968 14.7339 0 18 0ZM18 6.96774C16.2581 6.96774 14.7339 7.62097 13.5 8.85484C12.1935 10.1613 11.6129 11.6129 11.6129 13.3548C11.6129 15.0968 12.1935 16.621 13.5 17.8548C14.7339 19.1613 16.2581 19.7419 18 19.7419C19.7419 19.7419 21.1935 19.1613 22.5 17.8548C23.7339 16.621 24.3871 15.0968 24.3871 13.3548C24.3871 11.6129 23.7339 10.1613 22.5 8.85484C21.1935 7.62097 19.7419 6.96774 18 6.96774ZM18 31.9355C20.0323 31.9355 21.9919 31.5 23.879 30.629C25.7661 29.7581 27.3629 28.5968 28.6694 27C27.9435 25.6935 26.9274 24.6774 25.6935 23.879C24.3871 23.0806 23.0081 22.6452 21.4839 22.6452C21.3387 22.6452 21.121 22.7177 20.9758 22.7177C19.9597 23.0806 18.9435 23.2258 18 23.2258C16.9839 23.2258 16.0403 23.0806 15.0242 22.7177C14.8065 22.7177 14.6613 22.6452 14.5161 22.6452C12.9194 22.6452 11.5403 23.0806 10.3065 23.879C9 24.6774 8.05645 25.6935 7.33065 27C8.6371 28.5968 10.1613 29.7581 12.0484 30.629C13.9355 31.5 15.8952 31.9355 18 31.9355Z" fill="#E5E8ED"/>
</svg>
