<svg width="40" height="40" viewBox="0 0 40 40" fill="none" xmlns="http://www.w3.org/2000/svg">
<g clip-path="url(#clip0_2557_111675)">
<rect width="40" height="40" rx="20" fill="#014EA2"/>
<path d="M19.5 19.5C18.5625 19.5 17.7422 19.3047 16.9609 18.8359C16.1797 18.4062 15.5938 17.8203 15.1641 17.0391C14.6953 16.2578 14.5 15.4375 14.5 14.5C14.5 13.6016 14.6953 12.7812 15.1641 12C15.5938 11.2188 16.1797 10.6328 16.9609 10.1641C17.7422 9.73438 18.5625 9.5 19.5 9.5C20.3984 9.5 21.2188 9.73438 22 10.1641C22.7812 10.6328 23.3672 11.2188 23.8359 12C24.2656 12.7812 24.5 13.6016 24.5 14.5C24.5 15.4375 24.2656 16.2578 23.8359 17.0391C23.3672 17.8203 22.7812 18.4062 22 18.8359C21.2188 19.3047 20.3984 19.5 19.5 19.5ZM23.0156 20.75C23.9531 20.75 24.8125 20.9844 25.6328 21.4531C26.4141 21.9219 27.0781 22.5859 27.5469 23.3672C28.0156 24.1875 28.25 25.0469 28.25 25.9844V27.625C28.25 28.1719 28.0547 28.6016 27.7031 28.9531C27.3125 29.3438 26.8828 29.5 26.375 29.5H12.625C12.0781 29.5 11.6484 29.3438 11.2969 28.9531C10.9062 28.6016 10.75 28.1719 10.75 27.625V25.9844C10.75 25.0469 10.9844 24.1875 11.4531 23.3672C11.9219 22.5859 12.5469 21.9219 13.3672 21.4531C14.1484 20.9844 15.0469 20.75 15.9844 20.75H16.6484C17.5469 21.1797 18.4844 21.375 19.5 21.375C20.4766 21.375 21.4141 21.1797 22.3516 20.75H23.0156Z" fill="white"/>
</g>
<defs>
<clipPath id="clip0_2557_111675">
<rect width="40" height="40" rx="20" fill="white"/>
</clipPath>
</defs>
</svg>
