<svg width="36" height="36" viewBox="0 0 36 36" fill="none" xmlns="http://www.w3.org/2000/svg">
<rect width="36" height="36" rx="18" fill="white"/>
<rect width="36" height="36" rx="18" fill="#FFE3F6"/>
<path fill-rule="evenodd" clip-rule="evenodd" d="M10 16H19.1C19.0344 15.6769 19 15.3425 19 15C19 14.2889 19.1484 13.6125 19.416 13H10.4C10.1791 13 10 13.1791 10 13.4V16ZM10.4 12H19.9996C20.9118 10.7856 22.3642 10 24 10C26.7614 10 29 12.2386 29 15C29 16.6358 28.2144 18.0882 27 19.0004V22.6C27 23.3732 26.3732 24 25.6 24H10.4C9.6268 24 9 23.3732 9 22.6V18.1719C9 17.8958 9.22386 17.6719 9.5 17.6719C9.77614 17.6719 10 17.8958 10 18.1719V22.6C10 22.8209 10.1791 23 10.4 23H25.6C25.8209 23 26 22.8209 26 22.6V19.584C25.3875 19.8516 24.7111 20 24 20C21.9497 20 20.1876 18.7659 19.416 17H9.5C9.22386 17 9 16.7761 9 16.5V13.4C9 12.6268 9.6268 12 10.4 12ZM10.5 19.5C10.5 19.7761 10.7239 20 11 20H18C18.2761 20 18.5 19.7761 18.5 19.5C18.5 19.2239 18.2761 19 18 19H11C10.7239 19 10.5 19.2239 10.5 19.5ZM24 11C21.7909 11 20 12.7909 20 15C20 17.2091 21.7909 19 24 19C26.2091 19 28 17.2091 28 15C28 12.7909 26.2091 11 24 11ZM21.8787 15.5H24.9142L23.6464 16.7678C23.4512 16.963 23.4512 17.2796 23.6464 17.4749C23.8417 17.6701 24.1583 17.6701 24.3536 17.4749L26.4749 15.3536C26.5228 15.3056 26.559 15.2504 26.5834 15.1914C26.6075 15.1333 26.6209 15.0697 26.6213 15.003V14.997C26.6209 14.9303 26.6075 14.8667 26.5834 14.8086C26.559 14.7496 26.5228 14.6944 26.4749 14.6464L24.3536 12.5251C24.1583 12.3299 23.8417 12.3299 23.6464 12.5251C23.4512 12.7204 23.4512 13.037 23.6464 13.2322L24.9142 14.5H21.8787C21.6025 14.5 21.3787 14.7239 21.3787 15C21.3787 15.2761 21.6025 15.5 21.8787 15.5Z" fill="#AA4488"/>
</svg>
