<svg width="22" height="19" viewBox="0 0 22 19" fill="none" xmlns="http://www.w3.org/2000/svg">
<path d="M10.9999 4.29297L3.30072 11.0781C3.23041 11.1484 3.1601 11.1484 3.12494 11.2188V17.6875C3.12494 18.0039 3.37103 18.25 3.68744 18.25H8.18744C8.46869 18.25 8.74994 18.0039 8.74994 17.6875V13.1875C8.74994 12.9062 8.99603 12.625 9.31244 12.625H12.6874C12.9687 12.625 13.2499 12.9062 13.2499 13.1875V17.6875C13.2499 18.0039 13.496 18.25 13.8124 18.25H18.3124C18.5937 18.25 18.8749 18.0039 18.8749 17.6875V11.2188C18.8046 11.1484 18.7343 11.1484 18.664 11.0781L10.9999 4.29297ZM20.914 8.58203L11.914 0.636719C11.7031 0.425781 11.2812 0.25 10.9999 0.25C10.6835 0.25 10.2617 0.425781 10.0507 0.636719L1.05072 8.58203C0.945251 8.65234 0.839783 8.86328 0.839783 9.00391C0.839783 9.10938 0.910095 9.28516 1.01556 9.35547L1.75385 10.1992C1.85931 10.3047 2.0351 10.4102 2.17572 10.4102C2.28119 10.4102 2.45697 10.3398 2.56244 10.2344L10.6132 3.13281C10.6835 3.0625 10.8593 2.99219 10.9999 2.99219C11.1054 2.99219 11.2812 3.0625 11.3515 3.13281L19.4023 10.2344C19.5078 10.3398 19.6835 10.375 19.789 10.375C19.9296 10.375 20.1054 10.3047 20.2109 10.1992L20.9492 9.35547C21.0546 9.28516 21.1249 9.10938 21.1249 9.00391C21.1249 8.86328 21.0195 8.65234 20.914 8.58203Z" fill="#CB11AB"/>
</svg>
