<svg width="24" height="24" viewBox="0 0 24 24" fill="none" xmlns="http://www.w3.org/2000/svg">
<path fill-rule="evenodd" clip-rule="evenodd" d="M4 2.96838C3.17157 2.96838 2.5 3.63996 2.5 4.46838V16.4684C2.5 17.2968 3.17157 17.9684 4 17.9684H4.63801C4.91415 17.9684 5.13801 17.7445 5.13801 17.4684C5.13801 17.1922 4.91415 16.9684 4.63801 16.9684H4C3.72386 16.9684 3.5 16.7445 3.5 16.4684V4.46838C3.5 4.19224 3.72386 3.96838 4 3.96838H20C20.2761 3.96838 20.5 4.19224 20.5 4.46838V16.4684C20.5 16.7445 20.2761 16.9684 20 16.9684H19.3704C19.0943 16.9684 18.8704 17.1922 18.8704 17.4684C18.8704 17.7445 19.0943 17.9684 19.3704 17.9684H20C20.8284 17.9684 21.5 17.2968 21.5 16.4684V4.46838C21.5 3.63996 20.8284 2.96838 20 2.96838H4ZM5.61944 11.375C4.79101 11.375 4.11944 12.0465 4.11944 12.875V15.6367C4.11944 15.9128 4.3433 16.1367 4.61944 16.1367C4.89558 16.1367 5.11944 15.9128 5.11944 15.6367V12.875C5.11944 12.5988 5.3433 12.375 5.61944 12.375H18.3806C18.6567 12.375 18.8806 12.5988 18.8806 12.875V15.6367C18.8806 15.9128 19.1044 16.1367 19.3806 16.1367C19.6567 16.1367 19.8806 15.9128 19.8806 15.6367V12.875C19.8806 12.0465 19.209 11.375 18.3806 11.375H5.61944ZM5.92593 14.6713C5.92593 13.8429 6.59751 13.1713 7.42593 13.1713H16.5741C17.4025 13.1713 18.0741 13.8429 18.0741 14.6713V19.5317C18.0741 20.3601 17.4025 21.0317 16.5741 21.0317H7.42593C6.59751 21.0317 5.92593 20.3601 5.92593 19.5317V14.6713ZM7.42593 14.1713C7.14979 14.1713 6.92593 14.3951 6.92593 14.6713V19.5317C6.92593 19.8078 7.14979 20.0317 7.42593 20.0317H16.5741C16.8502 20.0317 17.0741 19.8078 17.0741 19.5317V14.6713C17.0741 14.3951 16.8502 14.1713 16.5741 14.1713H7.42593ZM12 15.3151C11.0134 15.3151 10.2137 16.1148 10.2137 17.1014C10.2137 18.088 11.0134 18.8877 12 18.8877C12.9866 18.8877 13.7863 18.088 13.7863 17.1014C13.7863 16.1148 12.9866 15.3151 12 15.3151ZM11.2137 17.1014C11.2137 16.6671 11.5657 16.3151 12 16.3151C12.4343 16.3151 12.7863 16.6671 12.7863 17.1014C12.7863 17.5357 12.4343 17.8877 12 17.8877C11.5657 17.8877 11.2137 17.5357 11.2137 17.1014ZM15.859 14.9576C15.859 14.7208 16.0509 14.5288 16.2877 14.5288C16.5246 14.5288 16.7165 14.7208 16.7165 14.9576C16.7165 15.1944 16.5246 15.3864 16.2877 15.3864C16.0509 15.3864 15.859 15.1944 15.859 14.9576ZM7.71225 18.8165C7.47545 18.8165 7.28348 19.0085 7.28348 19.2453C7.28348 19.4821 7.47545 19.6741 7.71225 19.6741C7.94906 19.6741 8.14103 19.4821 8.14103 19.2453C8.14103 19.0085 7.94906 18.8165 7.71225 18.8165Z" fill="black"/>
<path d="M17.4699 8.16355L17.4699 8.16355V8.16531V9.59876C17.4699 9.79326 17.6276 9.95093 17.8221 9.95093C18.0166 9.95093 18.1742 9.79326 18.1742 9.59876V5.91171C18.1742 5.62894 17.945 5.39972 17.6622 5.39972C17.453 5.39972 17.2648 5.52705 17.187 5.72128L15.9077 8.91397L14.6281 5.72014C14.5505 5.5266 14.363 5.39972 14.1545 5.39972C13.8727 5.39972 13.6443 5.62813 13.6443 5.90989V9.59876C13.6443 9.79326 13.802 9.95093 13.9965 9.95093C14.191 9.95093 14.3487 9.79326 14.3487 9.59876V8.16531H14.3487L14.3486 8.16344L14.3013 6.64513L15.5429 9.70621C15.6029 9.85415 15.7466 9.95093 15.9062 9.95093C16.0659 9.95093 16.2096 9.85412 16.2696 9.70615L17.5149 6.63456L17.4699 8.16355ZM6.61145 9.72647L6.94747 8.79443H8.71987L9.0616 9.72867C9.11043 9.86215 9.23743 9.95093 9.37957 9.95093C9.61691 9.95093 9.78059 9.71306 9.69579 9.49139L8.23657 5.67697C8.17269 5.50999 8.01243 5.39972 7.83365 5.39972C7.65477 5.39972 7.49445 5.51011 7.43064 5.67721L5.97462 9.49011C5.88971 9.71246 6.05391 9.95093 6.29192 9.95093C6.43509 9.95093 6.56289 9.86116 6.61145 9.72647ZM8.50263 8.19357H7.16743L7.83368 6.35666L8.50263 8.19357ZM12.8065 6.00058C12.9724 6.00058 13.1069 5.86607 13.1069 5.70015C13.1069 5.53422 12.9724 5.39972 12.8065 5.39972H9.86048C9.69456 5.39972 9.56005 5.53422 9.56005 5.70015C9.56005 5.86607 9.69456 6.00058 9.86048 6.00058H10.9813V9.60028C10.9813 9.79394 11.1383 9.95093 11.332 9.95093C11.5256 9.95093 11.6826 9.79394 11.6826 9.60028V6.00058H12.8065Z" fill="black" stroke="black" stroke-width="0.12"/>
</svg>
