<svg width="24" height="24" viewBox="0 0 24 24" fill="none" xmlns="http://www.w3.org/2000/svg">
<path fill-rule="evenodd" clip-rule="evenodd" d="M3 10.5C3 10.2239 3.22386 10 3.5 10C3.77614 10 4 10.2239 4 10.5C4 10.7761 3.77614 11 3.5 11C3.22386 11 3 10.7761 3 10.5ZM4 10.5V7.4C4 7.17909 4.17909 7 4.4 7H19.6C19.8209 7 20 7.17909 20 7.4V16.6C20 16.8209 19.8209 17 19.6 17H4.4C4.17909 17 4 16.8209 4 16.6V10.5ZM3 7.4V10.5V16.6C3 17.3732 3.6268 18 4.4 18H19.6C20.3732 18 21 17.3732 21 16.6V7.4C21 6.6268 20.3732 6 19.6 6H4.4C3.6268 6 3 6.6268 3 7.4ZM11.5 9H12.5V11.5H15V12.5H12.5V15H11.5V12.5H9V11.5H11.5V9Z" fill="black"/>
</svg>
