<svg width="24" height="24" viewBox="0 0 24 24" fill="none" xmlns="http://www.w3.org/2000/svg">
<path fill-rule="evenodd" clip-rule="evenodd" d="M3 12C3 16.9706 7.02944 21 12 21C16.9706 21 21 16.9706 21 12C21 7.02944 16.9706 3 12 3C7.02944 3 3 7.02944 3 12ZM19.9412 12C19.9412 16.3858 16.3858 19.9412 12 19.9412C7.61421 19.9412 4.05882 16.3858 4.05882 12C4.05882 7.61421 7.61421 4.05882 12 4.05882C16.3858 4.05882 19.9412 7.61421 19.9412 12ZM13.0588 16.2353C13.0588 16.8201 12.5848 17.2941 12 17.2941C11.4152 17.2941 10.9412 16.8201 10.9412 16.2353C10.9412 15.6505 11.4152 15.1765 12 15.1765C12.5848 15.1765 13.0588 15.6505 13.0588 16.2353ZM12.0331 6.17647C11.7224 6.17647 11.4706 6.4135 11.4706 6.70588V13.4739C11.4706 13.7663 11.7224 14.0033 12.0331 14.0033C12.3437 14.0033 12.5956 13.7663 12.5956 13.4739V6.70588C12.5956 6.4135 12.3437 6.17647 12.0331 6.17647Z" fill="black"/>
</svg>
