<svg width="25" height="24" viewBox="0 0 25 24" fill="none" xmlns="http://www.w3.org/2000/svg">
<path d="M3.49988 17.5244V19.001C3.49988 20.2666 6.52332 21.251 10.2499 21.251C13.9764 21.251 16.9999 20.2666 16.9999 19.001V17.5244C15.5233 18.5439 12.8866 19.001 10.2499 19.001C7.578 19.001 4.94128 18.5439 3.49988 17.5244ZM14.7499 7.75098C18.4764 7.75098 21.4999 6.7666 21.4999 5.50098C21.4999 4.27051 18.4764 3.25098 14.7499 3.25098C11.0233 3.25098 7.99988 4.27051 7.99988 5.50098C7.99988 6.7666 11.0233 7.75098 14.7499 7.75098ZM3.49988 13.833V15.626C3.49988 16.8916 6.52332 17.876 10.2499 17.876C13.9764 17.876 16.9999 16.8916 16.9999 15.626V13.833C15.5233 15.0283 12.8866 15.626 10.2499 15.626C7.578 15.626 4.94128 15.0283 3.49988 13.833ZM18.1249 14.2197C20.1288 13.833 21.4999 13.0947 21.4999 12.251V10.7744C20.6561 11.3369 19.4608 11.7236 18.1249 11.9697V14.2197ZM10.2499 8.87598C6.52332 8.87598 3.49988 10.1416 3.49988 11.6885C3.49988 13.2705 6.52332 14.501 10.2499 14.501C13.9764 14.501 16.9999 13.2705 16.9999 11.6885C16.9999 10.1416 13.9764 8.87598 10.2499 8.87598ZM17.9491 10.8799C20.0585 10.4932 21.4999 9.75488 21.4999 8.87598V7.39941C20.2343 8.27832 18.0897 8.73535 15.8397 8.87598C16.8593 9.36816 17.6327 10.0361 17.9491 10.8799Z" fill="#808080"/>
</svg>
