<svg width="24" height="24" viewBox="0 0 24 24" fill="none" xmlns="http://www.w3.org/2000/svg">
<path fill-rule="evenodd" clip-rule="evenodd" d="M7.20539 12.1811C6.90416 12.1811 6.65997 12.4253 6.65997 12.7265C6.65997 13.0278 6.90416 13.272 7.20539 13.272C7.50662 13.272 7.75082 13.0278 7.75082 12.7265C7.75082 12.4253 7.50662 12.1811 7.20539 12.1811ZM5.65997 12.7265C5.65997 11.873 6.35188 11.1811 7.20539 11.1811C8.05891 11.1811 8.75082 11.873 8.75082 12.7265C8.75082 13.5801 8.05891 14.272 7.20539 14.272C6.35188 14.272 5.65997 13.5801 5.65997 12.7265Z" fill="black"/>
<path fill-rule="evenodd" clip-rule="evenodd" d="M8.86367 8.46804C8.56244 8.46804 8.31824 8.71223 8.31824 9.01346C8.31824 9.31469 8.56244 9.55889 8.86367 9.55889C9.1649 9.55889 9.40909 9.31469 9.40909 9.01346C9.40909 8.71223 9.1649 8.46804 8.86367 8.46804ZM7.31824 9.01346C7.31824 8.15995 8.01016 7.46804 8.86367 7.46804C9.71718 7.46804 10.4091 8.15995 10.4091 9.01346C10.4091 9.86698 9.71718 10.5589 8.86367 10.5589C8.01016 10.5589 7.31824 9.86698 7.31824 9.01346Z" fill="black"/>
<path fill-rule="evenodd" clip-rule="evenodd" d="M8.86367 15.8939C8.56244 15.8939 8.31824 16.1381 8.31824 16.4394C8.31824 16.7406 8.56244 16.9848 8.86367 16.9848C9.1649 16.9848 9.40909 16.7406 9.40909 16.4394C9.40909 16.1381 9.1649 15.8939 8.86367 15.8939ZM7.31824 16.4394C7.31824 15.5859 8.01016 14.8939 8.86367 14.8939C9.71718 14.8939 10.4091 15.5859 10.4091 16.4394C10.4091 17.2929 9.71718 17.9848 8.86367 17.9848C8.01016 17.9848 7.31824 17.2929 7.31824 16.4394Z" fill="black"/>
<path fill-rule="evenodd" clip-rule="evenodd" d="M13.0014 10.6525C12.6044 10.3474 12.0353 10.4218 11.7302 10.8188C11.6737 10.8922 11.5766 11.1077 11.4636 11.4747C11.3581 11.8171 11.2577 12.2258 11.1699 12.6242C11.1268 12.82 11.0872 13.0116 11.0519 13.189C11.2143 13.1093 11.3892 13.0217 11.5673 12.9296C11.9297 12.7423 12.2988 12.5401 12.6025 12.3501C12.9281 12.1464 13.1113 11.9971 13.1677 11.9237C13.4728 11.5267 13.3984 10.9576 13.0014 10.6525ZM10.3846 14.0572L9.89109 13.9769L9.89261 13.9676L9.89687 13.942L9.91316 13.8457C9.92736 13.7629 9.94812 13.6443 9.9745 13.5002C10.0272 13.2124 10.1026 12.8211 10.1933 12.4091C10.2837 11.9987 10.3909 11.5601 10.5079 11.1804C10.6172 10.8254 10.757 10.444 10.9373 10.2094C11.5789 9.37457 12.7759 9.21794 13.6108 9.85959C14.4456 10.5013 14.6023 11.6982 13.9606 12.5331C13.7804 12.7676 13.4477 13.0009 13.1328 13.1979C12.796 13.4086 12.3998 13.625 12.0264 13.818C11.6517 14.0116 11.293 14.1852 11.0284 14.3102C10.8959 14.3728 10.7867 14.4233 10.7103 14.4584L10.6215 14.4989L10.5978 14.5096L10.5898 14.5132L10.3846 14.0572ZM10.3846 14.0572L10.5898 14.5132C10.422 14.5884 10.2257 14.5657 10.0799 14.4537C9.9341 14.3416 9.86159 14.1584 9.89109 13.9769L10.3846 14.0572Z" fill="black"/>
<path fill-rule="evenodd" clip-rule="evenodd" d="M14.4546 4.84714C13.6792 4.60584 12.8548 4.47585 12 4.47585C7.44329 4.47585 3.74934 8.1698 3.74934 12.7265C3.74934 17.2832 7.44329 20.9772 12 20.9772C12.6311 20.9772 13.2463 20.9062 13.8377 20.7716C14.4375 20.6352 14.8169 20.1874 14.9259 19.6741C15.0325 19.1714 14.8814 18.6137 14.4749 18.2071C13.4986 17.2308 13.4986 15.6479 14.4749 14.6716L14.8206 14.3259C15.7969 13.3496 17.3798 13.3496 18.3561 14.3259C18.6609 14.6306 19.083 14.7208 19.45 14.6127C19.8242 14.5025 20.1348 14.1857 20.1899 13.7328C20.23 13.4028 20.2507 13.0669 20.2507 12.7265C20.2507 10.7572 19.5607 8.94904 18.4094 7.53056L17.7805 8.34883C18.7031 9.56528 19.2507 11.082 19.2507 12.7265C19.2507 13.0265 19.2325 13.322 19.1972 13.612C19.1944 13.6345 19.1882 13.6414 19.1873 13.6424C19.1853 13.6447 19.1796 13.6498 19.1675 13.6534C19.1435 13.6605 19.1031 13.6587 19.0632 13.6188C17.6964 12.2519 15.4803 12.2519 14.1135 13.6188L13.7678 13.9645C12.4009 15.3313 12.4009 17.5474 13.7678 18.9142C13.9359 19.0824 13.9838 19.2962 13.9476 19.4665C13.9138 19.6261 13.8086 19.7527 13.6159 19.7966C13.0967 19.9147 12.556 19.9772 12 19.9772C7.99557 19.9772 4.74934 16.7309 4.74934 12.7265C4.74934 8.72208 7.99557 5.47585 12 5.47585C12.6209 5.47585 13.2235 5.55388 13.7986 5.70068L14.4546 4.84714Z" fill="black"/>
<path fill-rule="evenodd" clip-rule="evenodd" d="M17.3236 2.46142C17.8501 1.77634 18.8323 1.64781 19.5174 2.17434C20.2025 2.70087 20.331 3.68308 19.8045 4.36816L15.9222 9.41949C15.3957 10.1046 14.4135 10.2331 13.7284 9.70657C13.0433 9.18003 12.9148 8.19782 13.4413 7.51274L17.3236 2.46142ZM18.908 2.96722C18.6608 2.77724 18.3064 2.82361 18.1165 3.0708L14.2342 8.12212C14.0442 8.36931 14.0906 8.72371 14.3378 8.91369C14.585 9.10367 14.9393 9.05729 15.1293 8.8101L19.0116 3.75878C19.2016 3.5116 19.1552 3.1572 18.908 2.96722Z" fill="black"/>
</svg>
