<svg width="24" height="24" viewBox="0 0 24 24" fill="none" xmlns="http://www.w3.org/2000/svg">
<path d="M9.70711 12L13.3536 8.35355C13.5488 8.15829 13.5488 7.84171 13.3536 7.64645C13.1583 7.45118 12.8417 7.45118 12.6464 7.64645L8.64645 11.6464C8.45118 11.8417 8.45118 12.1583 8.64645 12.3536L12.6464 16.3536C12.8417 16.5488 13.1583 16.5488 13.3536 16.3536C13.5488 16.1583 13.5488 15.8417 13.3536 15.6464L9.70711 12Z" fill="black"/>
<mask id="mask0_244_1550" style="mask-type:alpha" maskUnits="userSpaceOnUse" x="8" y="7" width="6" height="10">
<path d="M9.70711 12L13.3536 8.35355C13.5488 8.15829 13.5488 7.84171 13.3536 7.64645C13.1583 7.45118 12.8417 7.45118 12.6464 7.64645L8.64645 11.6464C8.45118 11.8417 8.45118 12.1583 8.64645 12.3536L12.6464 16.3536C12.8417 16.5488 13.1583 16.5488 13.3536 16.3536C13.5488 16.1583 13.5488 15.8417 13.3536 15.6464L9.70711 12Z" fill="white"/>
</mask>
<g mask="url(#mask0_244_1550)">
</g>
</svg>
