<svg width="96" height="96" viewBox="0 0 96 96" fill="none" xmlns="http://www.w3.org/2000/svg">
<path d="M27.1003 16.2984L24.2519 13.45C25.5713 10.296 28.6863 8.07996 32.319 8.07996H41.0597C42.0251 8.07996 42.8078 8.86262 42.8078 9.82809C42.8078 10.7936 42.0251 11.5762 41.0597 11.5762H32.319C29.5988 11.5762 27.3624 13.6472 27.1003 16.2984Z" fill="black"/>
<path d="M39.1557 28.3538L36.5272 25.7253C39.6182 19.7962 45.9054 16.8206 55.0447 16.8206C68.2736 16.8206 75.5038 22.7362 76.0162 34.4473C75.139 44.9576 72.4529 52.5797 67.9625 57.1606L65.4859 54.684C69.3663 50.7786 71.7123 44.0501 72.5278 34.3805C72.1009 24.89 66.5115 20.3169 55.0447 20.3169C46.5853 20.3169 41.4005 22.9974 39.1557 28.3538Z" fill="black"/>
<path d="M43.6562 32.8543L46.8557 36.0538C51.5688 35.3924 56.0048 33.782 60.1495 31.224C61.7746 32.4426 64.4505 33.9668 68.248 35.8655C69.1115 36.2973 70.1616 35.9473 70.5933 35.0837C71.0251 34.2202 70.6751 33.1701 69.8115 32.7383C65.3214 30.4933 62.5106 28.8068 61.5252 27.8214L60.5118 26.808L59.3194 27.603C54.5282 30.7971 49.3174 32.5467 43.6562 32.8543Z" fill="black"/>
<path d="M81.141 70.3391L78.2927 67.4907C80.9439 67.2286 83.0148 64.9922 83.0148 62.272V53.5314C83.0148 52.5659 83.7975 51.7832 84.7629 51.7832C85.7284 51.7832 86.5111 52.5659 86.5111 53.5314V62.272C86.5111 65.9047 84.295 69.0198 81.141 70.3391Z" fill="black"/>
<path d="M86.5111 25.5613C86.5111 26.5267 85.7284 27.3094 84.7629 27.3094C83.7975 27.3094 83.0148 26.5267 83.0148 25.5613V16.8206C83.0148 13.9242 80.6668 11.5762 77.7704 11.5762H69.0297C68.0643 11.5762 67.2816 10.7936 67.2816 9.82809C67.2816 8.86262 68.0643 8.07996 69.0297 8.07996H77.7704C82.5977 8.07996 86.5111 11.9933 86.5111 16.8206V25.5613Z" fill="black"/>
<path fill-rule="evenodd" clip-rule="evenodd" d="M83.8333 82.2841C83.0997 83.0177 81.9102 83.0177 81.1766 82.2841L13.3862 14.4937C12.6526 13.7601 12.6526 12.5706 13.3862 11.837C14.1198 11.1034 15.3093 11.1034 16.0429 11.837L83.8333 79.6273C84.5669 80.361 84.5669 81.5504 83.8333 82.2841Z" fill="black"/>
<path d="M63.6175 70.6622C61.7898 72.2471 59.3621 73.2149 56.6993 73.2149C51.0206 73.2149 46.4109 68.8133 46.4109 63.4114C46.4109 59.8435 43.3043 56.9425 39.4628 56.9425C35.6214 56.9425 32.5148 59.8435 32.5148 63.4114C32.5148 69.1134 34.7195 74.4486 38.7613 78.45C41.9347 81.5844 44.9745 83.3184 49.6844 84.6188C50.5864 84.8522 51.0874 85.7859 50.8536 86.6529C50.6866 87.4198 49.9851 87.92 49.2836 87.92C49.15 87.92 48.983 87.8866 48.8493 87.8533C43.5381 86.3861 40.0641 84.4188 36.4231 80.8509C31.7465 76.2159 29.1744 70.0471 29.1744 63.4448C29.1744 58.0429 33.7842 53.6414 39.4628 53.6414C45.1415 53.6414 49.7513 58.0429 49.7513 63.4448C49.7513 67.0127 52.8578 69.9137 56.6993 69.9137C58.451 69.9137 60.0499 69.3105 61.2711 68.3158L63.6175 70.6622Z" fill="black"/>
<path d="M34.1722 41.2169L31.3988 38.4435C23.9474 40.6082 17.648 45.7204 14.343 52.641C12.8399 55.8088 12.0716 59.4434 12.0716 63.4448C12.0716 67.9464 12.8733 72.2812 14.5101 76.6494C14.8107 77.483 15.7794 77.9498 16.6479 77.6164C17.5164 77.3163 17.9507 76.3493 17.6166 75.4823C15.6124 70.1471 15.3786 66.0457 15.3786 63.4448C15.3786 59.9769 16.0467 56.8091 17.3494 54.1082C20.5203 47.48 26.8356 42.7614 34.1722 41.2169Z" fill="black"/>
<path d="M19.3234 26.3681C18.5697 26.8208 18.2964 27.8206 18.719 28.5993C19.1866 29.3996 20.1887 29.6997 20.9904 29.2662C21.2568 29.12 21.5244 28.9773 21.7932 28.8379L19.3234 26.3681Z" fill="black"/>
<path d="M25.1091 32.1537L27.6823 34.727C26.3603 35.202 25.0721 35.7603 23.8298 36.402C19.2868 38.7362 15.4788 42.0707 12.4724 46.2721C12.2052 46.739 11.7041 46.9724 11.1697 46.9724C10.8356 46.9724 10.5016 46.8723 10.201 46.6723C9.43267 46.1388 9.26565 45.1051 9.80011 44.3381C13.1071 39.6698 17.316 36.0019 22.3266 33.4343C23.2334 32.9673 24.1621 32.5405 25.1091 32.1537Z" fill="black"/>
<path d="M38.4576 45.5023L41.9307 48.9754C41.1585 48.8641 40.3678 48.8064 39.563 48.8064C30.9782 48.8064 23.9968 55.3753 23.9968 63.4448C23.9968 68.2465 25.0657 72.6813 27.1034 76.2826C29.2412 80.1173 30.711 81.7512 33.2831 84.3521C33.9178 85.019 33.9178 86.0527 33.2831 86.7196C32.9157 87.053 32.4814 87.2197 32.0472 87.2197C31.6129 87.2197 31.1786 87.053 30.878 86.7196C27.9719 83.8186 26.4019 81.9512 24.1638 77.9165C21.8589 73.8151 20.6564 68.8133 20.6564 63.4448C20.6564 53.8939 28.5476 46.0488 38.4576 45.5023Z" fill="black"/>
<path d="M57.7669 64.8116L55.0651 62.1098C55.1076 62.5495 55.1293 62.9948 55.1293 63.4448C55.1293 64.3784 55.8642 65.112 56.7995 65.112C57.1626 65.112 57.4955 65.0015 57.7669 64.8116Z" fill="black"/>
<path d="M45.6426 78.0832C48.5153 80.0506 52.0227 81.0509 55.9978 81.0509C56.4655 81.0509 58.1357 81.0176 60.0397 80.6508C60.975 80.484 61.5763 79.6171 61.4092 78.7168C61.2422 77.7831 60.3737 77.1829 59.4718 77.3496C58.1357 77.583 56.7995 77.6831 55.9978 77.6831C52.6574 77.6831 49.8849 76.9161 47.5132 75.3156C43.4379 72.5813 41.0328 68.1464 41.0328 63.4448C41.0328 62.5111 40.2979 61.7775 39.3626 61.7775C38.4273 61.7775 37.6924 62.5111 37.6924 63.4448C37.6924 69.2468 40.6654 74.7154 45.6426 78.0832Z" fill="black"/>
</svg>
