<svg width="24" height="24" viewBox="0 0 24 24" fill="none" xmlns="http://www.w3.org/2000/svg">
<path fill-rule="evenodd" clip-rule="evenodd" d="M12.5 8H14.2081C14.4843 8 14.7081 8.22386 14.7081 8.5C14.7081 8.77614 14.4843 9 14.2081 9H12.4C11.9029 9 11.5 8.59706 11.5 8.1V4.75374C11.5 4.57623 11.5674 4.40536 11.6887 4.27569C11.9527 3.99329 12.3956 3.97838 12.678 4.2424L16.5244 7.83833C16.8278 8.12197 17 8.51872 17 8.93406V9.65869L16 10.6587V8.93406C16 8.79561 15.9426 8.66336 15.8415 8.56881L12.5 5.44489V8ZM16 17.2639L17 16.2639V18.5C17 19.3284 16.3284 20 15.5 20H6.5C5.67157 20 5 19.3284 5 18.5V5.5C5 4.67157 5.67157 4 6.5 4H10.1853C10.4614 4 10.6853 4.22386 10.6853 4.5C10.6853 4.77614 10.4614 5 10.1853 5H6.5C6.22386 5 6 5.22386 6 5.5V18.5C6 18.7761 6.22386 19 6.5 19H15.5C15.7761 19 16 18.7761 16 18.5V17.2639ZM19.8389 9.41421L20.546 10.1213L14.3779 16.2894L13.4351 16.5251L13.6708 15.5823L19.8389 9.41421ZM19.1318 8.70711C19.5223 8.31658 20.1554 8.31658 20.546 8.70711L21.2531 9.41421C21.6436 9.80474 21.6436 10.4379 21.2531 10.8284L15.085 16.9965C14.9568 17.1247 14.7962 17.2156 14.6204 17.2596L13.6776 17.4953C12.9452 17.6784 12.2818 17.015 12.4649 16.2826L12.7006 15.3398C12.7446 15.1639 12.8355 15.0034 12.9637 14.8752L19.1318 8.70711Z" fill="black"/>
</svg>
