<svg width="24" height="24" viewBox="0 0 24 24" fill="none" xmlns="http://www.w3.org/2000/svg">
<path fill-rule="evenodd" clip-rule="evenodd" d="M7.88527 21.6283C6.61178 21.6283 5.33826 21.1436 4.36878 20.1741C2.42967 18.2351 2.60685 15.2572 4.54588 13.3183L14.636 3.22811C16.1504 1.7138 18.4372 1.53679 19.9516 3.0511C21.4659 4.56546 21.283 6.8464 19.7687 8.36068L11.197 16.9323C10.1076 18.0219 8.51743 18.2049 7.42771 17.1152C6.33811 16.0255 6.50525 14.4197 7.59486 13.3301L13.9766 6.94838C14.1813 6.74371 14.4888 6.7209 14.6864 6.91848C14.884 7.11606 14.8855 7.44794 14.6808 7.65262L8.29909 14.0343C7.68995 14.6435 7.47232 15.8522 8.08149 16.4614C8.69063 17.0705 9.89942 16.8529 10.5086 16.2438L19.0802 7.67225C20.114 6.63844 20.3382 4.73218 19.3044 3.69829C18.2704 2.66448 16.3642 2.88866 15.3303 3.9224L5.24012 14.0125C3.78159 15.471 3.63587 17.99 5.09439 19.4485C6.553 20.907 9.07194 20.7612 10.5304 19.3027L18.9139 10.9194C19.0944 10.739 19.4276 10.7694 19.6176 10.9593C19.8075 11.1492 19.8079 11.4524 19.6274 11.6329L11.244 20.0164C10.2745 20.9859 9.1588 21.6283 7.88527 21.6283Z" fill="black"/>
<mask id="mask0_244_1533" style="mask-type:alpha" maskUnits="userSpaceOnUse" x="3" y="2" width="18" height="20">
<path fill-rule="evenodd" clip-rule="evenodd" d="M7.88527 21.6283C6.61178 21.6283 5.33826 21.1436 4.36878 20.1741C2.42967 18.2351 2.60685 15.2572 4.54588 13.3183L14.636 3.22811C16.1504 1.7138 18.4372 1.53679 19.9516 3.0511C21.4659 4.56546 21.283 6.8464 19.7687 8.36068L11.197 16.9323C10.1076 18.0219 8.51743 18.2049 7.42771 17.1152C6.33811 16.0255 6.50525 14.4197 7.59486 13.3301L13.9766 6.94838C14.1813 6.74371 14.4888 6.7209 14.6864 6.91848C14.884 7.11606 14.8855 7.44794 14.6808 7.65262L8.29909 14.0343C7.68995 14.6435 7.47232 15.8522 8.08149 16.4614C8.69063 17.0705 9.89942 16.8529 10.5086 16.2438L19.0802 7.67225C20.114 6.63844 20.3382 4.73218 19.3044 3.69829C18.2704 2.66448 16.3642 2.88866 15.3303 3.9224L5.24012 14.0125C3.78159 15.471 3.63587 17.99 5.09439 19.4485C6.553 20.907 9.07194 20.7612 10.5304 19.3027L18.9139 10.9194C19.0944 10.739 19.4276 10.7694 19.6176 10.9593C19.8075 11.1492 19.8079 11.4524 19.6274 11.6329L11.244 20.0164C10.2745 20.9859 9.1588 21.6283 7.88527 21.6283Z" fill="white"/>
</mask>
<g mask="url(#mask0_244_1533)">
</g>
</svg>
