<svg width="24" height="24" viewBox="0 0 24 24" fill="none" xmlns="http://www.w3.org/2000/svg">
<path d="M8 5H4.4C3.6268 5 3 5.6268 3 6.4V19.6C3 20.3732 3.6268 21 4.4 21H19.6C20.3732 21 21 20.3732 21 19.6V6.4C21 5.6268 20.3732 5 19.6 5H16V6H19.6C19.8209 6 20 6.17909 20 6.4V7.05798C19.8733 7.02026 19.739 7 19.6 7H16V8H19.6C19.8209 8 20 8.17909 20 8.4V9.05798C19.8733 9.02026 19.739 9 19.6 9H17V10H19.6C19.8209 10 20 10.1791 20 10.4V19.6C20 19.8209 19.8209 20 19.6 20H4.4C4.17909 20 4 19.8209 4 19.6V10.4C4 10.1791 4.17909 10 4.4 10H7V9H4.4C4.26101 9 4.12674 9.02026 4 9.05798V8.4C4 8.17909 4.17909 8 4.4 8H8V7H4.4C4.26101 7 4.12674 7.02026 4 7.05798V6.4C4 6.17909 4.17909 6 4.4 6H8V5Z" fill="black"/>
<path fill-rule="evenodd" clip-rule="evenodd" d="M10 11V4.5C10 4.22386 10.2239 4 10.5 4C10.7761 4 11 4.22386 11 4.5V12H9.70711L12 14.2929L14.2929 12H13V4.5C13 4.22386 13.2239 4 13.5 4C13.7761 4 14 4.22386 14 4.5V11H15.2586C15.4177 11 15.5703 11.0632 15.6828 11.1757C15.9172 11.4101 15.9172 11.7899 15.6828 12.0243L12.4243 15.2828C12.1899 15.5172 11.8101 15.5172 11.5757 15.2828L8.31716 12.0243C8.20464 11.9117 8.14142 11.7591 8.14142 11.6C8.14142 11.2686 8.41005 11 8.74142 11H10Z" fill="black"/>
</svg>
