<svg width="24" height="24" viewBox="0 0 24 24" fill="none" xmlns="http://www.w3.org/2000/svg">
<path fill-rule="evenodd" clip-rule="evenodd" d="M13.5 8H15.2081C15.4843 8 15.7081 8.22386 15.7081 8.5C15.7081 8.77614 15.4843 9 15.2081 9H13.4C12.9029 9 12.5 8.59706 12.5 8.1V4.75374C12.5 4.57623 12.5674 4.40536 12.6887 4.27569C12.9527 3.99329 13.3956 3.97838 13.678 4.2424L17.5244 7.83833C17.8278 8.12197 18 8.51872 18 8.93406V18.5C18 19.3284 17.3284 20 16.5 20H7.5C6.67157 20 6 19.3284 6 18.5V5.5C6 4.67157 6.67157 4 7.5 4H11.1853C11.4614 4 11.6853 4.22386 11.6853 4.5C11.6853 4.77614 11.4614 5 11.1853 5H7.5C7.22386 5 7 5.22386 7 5.5V18.5C7 18.7761 7.22386 19 7.5 19H16.5C16.7761 19 17 18.7761 17 18.5V8.93406C17 8.79561 16.9426 8.66336 16.8415 8.56881L13.5 5.44489V8ZM11.5 11H12.5V13.5H15V14.5H12.5V17H11.5V14.5H9V13.5H11.5V11Z" fill="black"/>
</svg>
