<svg width="24" height="24" viewBox="0 0 24 24" fill="none" xmlns="http://www.w3.org/2000/svg">
<path d="M9.71896 6.94824C9.71896 8.88124 8.15196 10.4482 6.21896 10.4482C4.28597 10.4482 2.71896 8.88124 2.71896 6.94824C2.71896 5.01525 4.28597 3.44824 6.21896 3.44824C8.15196 3.44824 9.71896 5.01525 9.71896 6.94824Z" stroke="black" stroke-linecap="round" stroke-linejoin="round"/>
<path d="M21.281 8.63818C21.281 10.0189 20.1618 11.1382 18.781 11.1382C17.4003 11.1382 16.281 10.0189 16.281 8.63818C16.281 7.25747 17.4003 6.13818 18.781 6.13818C20.1618 6.13818 21.281 7.25747 21.281 8.63818Z" stroke="black" stroke-linecap="round" stroke-linejoin="round"/>
<path d="M9.37003 17.708C9.37003 19.0887 8.25074 20.208 6.87003 20.208C5.48931 20.208 4.37003 19.0887 4.37003 17.708C4.37003 16.3273 5.48931 15.208 6.87003 15.208C8.25074 15.208 9.37003 16.3273 9.37003 17.708Z" stroke="black" stroke-linecap="round" stroke-linejoin="round"/>
<path d="M20.2481 18.0518C20.2481 19.4325 19.1288 20.5518 17.7481 20.5518C16.3673 20.5518 15.2481 19.4325 15.2481 18.0518C15.2481 16.671 16.3673 15.5518 17.7481 15.5518C19.1288 15.5518 20.2481 16.671 20.2481 18.0518Z" stroke="black" stroke-linecap="round" stroke-linejoin="round"/>
<path d="M17.473 12.708C17.473 15.4694 15.2344 17.708 12.473 17.708C9.71158 17.708 7.473 15.4694 7.473 12.708C7.473 9.94658 9.71158 7.70801 12.473 7.70801C15.2344 7.70801 17.473 9.94658 17.473 12.708Z" stroke="black" stroke-linecap="round" stroke-linejoin="round"/>
</svg>
