<svg width="16" height="19" viewBox="0 0 16 19" fill="none" xmlns="http://www.w3.org/2000/svg">
<path d="M9.125 1.375V2.07812C11.6914 2.60547 13.625 4.85547 13.625 7.5625V8.23047C13.625 9.88281 14.2227 11.5 15.3125 12.7305L15.5586 13.0117C15.875 13.3633 15.9453 13.8203 15.7695 14.2422C15.5938 14.6289 15.1719 14.875 14.75 14.875H1.25C0.792969 14.875 0.371094 14.6289 0.195312 14.2422C0.0195312 13.8203 0.0898438 13.3633 0.40625 13.0117L0.652344 12.7305C1.74219 11.5 2.375 9.88281 2.375 8.23047V7.5625C2.375 4.85547 4.27344 2.60547 6.875 2.07812V1.375C6.875 0.777344 7.36719 0.25 8 0.25C8.59766 0.25 9.125 0.777344 9.125 1.375ZM8 18.25C7.40234 18.25 6.80469 18.0391 6.38281 17.6172C5.96094 17.1953 5.75 16.5977 5.75 16H10.25C10.25 16.5977 10.0039 17.1953 9.58203 17.6172C9.16016 18.0391 8.5625 18.25 8 18.25Z" fill="white"/>
</svg>
