<svg width="40" height="40" viewBox="0 0 40 40" fill="none" xmlns="http://www.w3.org/2000/svg">
<circle cx="20" cy="20" r="20" fill="#217D00" fill-opacity="0.12"/>
<path fill-rule="evenodd" clip-rule="evenodd" d="M12.5463 17.0002H13.5H14.5C14.7762 17.0002 15 17.224 15 17.5002C15 17.7763 14.7762 18.0002 14.5 18.0002V26.0002H17.5V18.0002H16.5C16.2239 18.0002 16 17.7763 16 17.5002C16 17.224 16.2239 17.0002 16.5 17.0002H17.5H18.5H21.5H22.5H25.5H26.5H27.4537L20 11.6169L12.5463 17.0002ZM18.5 27.0002H17.5H14.5C13.9477 27.0002 13.5 26.5525 13.5 26.0002V18.0002H11.3093C11.1166 18.0002 10.9357 17.9076 10.8229 17.7515C10.6289 17.4828 10.6893 17.1078 10.958 16.9138L19.5902 10.6794C19.8348 10.5027 20.1652 10.5027 20.4099 10.6794L29.042 16.9138C29.1982 17.0266 29.2908 17.2075 29.2908 17.4002C29.2908 17.7315 29.0221 18.0002 28.6908 18.0002H26.5V26.0002C26.5 26.5525 26.0523 27.0002 25.5 27.0002H22.5H21.5H18.5ZM21.5 26.0002H18.5V18.0002H21.5V26.0002ZM22.5 26.0002H25.5V18.0002H22.5V26.0002ZM12 28.5002C12 28.224 12.2239 28.0002 12.5 28.0002H27.5C27.7762 28.0002 28 28.224 28 28.5002C28 28.7763 27.7762 29.0002 27.5 29.0002H12.5C12.2239 29.0002 12 28.7763 12 28.5002Z" fill="#217D00"/>
</svg>
