<svg width="24" height="24" viewBox="0 0 24 24" fill="none" xmlns="http://www.w3.org/2000/svg">
<path fill-rule="evenodd" clip-rule="evenodd" d="M12 8.5C6 8.5 3.5 6.99264 3.5 5.75C3.5 4.50736 7.30558 3.5 12 3.5C16.6944 3.5 20.5 4.50736 20.5 5.75C20.5 6.99264 18 8.5 12 8.5ZM12 7.73529C16.1421 7.73529 19.5 6.84645 19.5 5.75C19.5 4.65355 16.1421 4.00006 12 4.00006C7.85786 4.00006 4.5 4.65355 4.5 5.75C4.5 6.84645 7.85786 7.73529 12 7.73529ZM11.3047 5.38614C11.3047 5.46424 11.4258 5.50553 11.6552 5.53414C11.8319 5.55752 12.016 5.57583 12.2321 5.59149C13.4364 5.69239 13.8604 5.77987 13.8604 6.02447C13.8604 6.23711 13.4095 6.39468 12.6272 6.45567L12.4837 6.46686V6.64151C12.4837 6.71174 12.2676 6.76896 12.0023 6.76896C11.737 6.76896 11.5208 6.71174 11.5208 6.64151V6.47761L11.3523 6.4705C10.6759 6.44197 10.2 6.37806 10.2 6.28537C10.2 6.21739 10.4314 6.15821 10.7042 6.15821C10.8037 6.15821 10.9103 6.16516 11.0963 6.18327L11.1424 6.18739L11.2367 6.19569C11.4722 6.21588 11.6668 6.2261 11.8979 6.2261C12.5051 6.2261 12.7557 6.1524 12.7557 6.03721C12.7557 5.95596 12.6379 5.91357 12.4126 5.88707C12.2589 5.86964 12.0724 5.8514 11.8257 5.82958C10.6297 5.73275 10.208 5.64557 10.208 5.39461C10.208 5.18816 10.6341 5.0389 11.3741 4.98481L11.5208 4.97408V4.81863C11.5208 4.74839 11.737 4.69118 12.0023 4.69118C12.2676 4.69118 12.4837 4.74839 12.4837 4.81863V4.96833L12.6515 4.97558C13.3074 5.00389 13.6281 5.06635 13.6281 5.14654C13.6281 5.21895 13.4044 5.27363 13.0918 5.27363C13.001 5.27363 12.9365 5.26982 12.7909 5.25754L12.6967 5.24977C12.47 5.22755 12.3263 5.21853 12.0903 5.21853C11.7028 5.21853 11.4578 5.25215 11.3552 5.31315C11.3138 5.3377 11.3047 5.35731 11.3047 5.38614Z" fill="black"/>
<line x1="4" y1="6" x2="4" y2="17.8" stroke="black" stroke-linecap="round"/>
<path d="M20 6.59998C20 6.59998 17 8.29998 12 8.29998C7 8.29998 4 6.59998 4 6.59998" stroke="black" stroke-linecap="round"/>
<path d="M20 18.5996C20 18.5996 17 20.2996 12 20.2996C9.42317 20.2996 7.37754 19.8481 6 19.4104" stroke="black" stroke-linecap="round"/>
<path d="M20 15.5996C20 15.5996 17 17.2996 12 17.2996C9.42317 17.2996 7.37754 16.8481 6 16.4104" stroke="black" stroke-linecap="round"/>
<path d="M20 12.5996C20 12.5996 17 14.2996 12 14.2996C9.42317 14.2996 7.37754 13.8481 6 13.4104" stroke="black" stroke-linecap="round"/>
<path d="M20 9.59961C20 9.59961 17 11.2996 12 11.2996C9.42317 11.2996 7.37754 10.8481 6 10.4104" stroke="black" stroke-linecap="round"/>
<line x1="20" y1="5.80005" x2="20" y2="18.6" stroke="black"/>
</svg>
