<svg width="36" height="36" viewBox="0 0 36 36" fill="none" xmlns="http://www.w3.org/2000/svg">
<rect width="36" height="36" rx="18" fill="white"/>
<rect width="36" height="36" rx="18" fill="#F08022" fill-opacity="0.16"/>
<path d="M21.6152 18.6875C20.5391 18.6875 20.0566 19.2812 18.3125 19.2812C16.5312 19.2812 16.0488 18.6875 14.9727 18.6875C12.2266 18.6875 10 20.9512 10 23.6973V25.2188C10 26.2207 10.7793 27 11.7812 27H24.8438C25.8086 27 26.625 26.2207 26.625 25.2188V23.6973C26.625 20.9512 24.3613 18.6875 21.6152 18.6875ZM25.4375 25.2188C25.4375 25.5527 25.1406 25.8125 24.8438 25.8125H11.7812C11.4473 25.8125 11.1875 25.5527 11.1875 25.2188V23.6973C11.1875 21.582 12.8574 19.875 14.9727 19.875C15.7148 19.875 16.4199 20.4688 18.3125 20.4688C20.168 20.4688 20.9102 19.875 21.6152 19.875C23.7305 19.875 25.4375 21.582 25.4375 23.6973V25.2188ZM18.3125 17.5C20.9102 17.5 23.0625 15.3848 23.0625 12.75C23.0625 10.1523 20.9102 8 18.3125 8C15.6777 8 13.5625 10.1523 13.5625 12.75C13.5625 15.3848 15.6777 17.5 18.3125 17.5ZM18.3125 9.1875C20.2422 9.1875 21.875 10.8203 21.875 12.75C21.875 14.7168 20.2422 16.3125 18.3125 16.3125C16.3457 16.3125 14.75 14.7168 14.75 12.75C14.75 10.8203 16.3457 9.1875 18.3125 9.1875Z" fill="#F08022"/>
</svg>
