<svg width="24" height="24" viewBox="0 0 24 24" fill="none" xmlns="http://www.w3.org/2000/svg">
<path fill-rule="evenodd" clip-rule="evenodd" d="M7 3C6.44772 3 6 3.44772 6 4V5H5C3.89543 5 3 5.89543 3 7V18C3 19.1046 3.89543 20 5 20H19C20.1046 20 21 19.1046 21 18V10V9V7C21 5.89543 20.1046 5 19 5H18V4C18 3.44772 17.5523 3 17 3H16C15.4477 3 15 3.44772 15 4V5H9V4C9 3.44772 8.55228 3 8 3H7ZM15 6H9V7C9 7.55228 8.55228 8 8 8H7C6.44772 8 6 7.55228 6 7V6H5C4.44772 6 4 6.44772 4 7V18C4 18.5523 4.44772 19 5 19H19C19.5523 19 20 18.5523 20 18V10H6C5.72386 10 5.5 9.77614 5.5 9.5C5.5 9.22386 5.72386 9 6 9H20V7C20 6.44772 19.5523 6 19 6H18V7C18 7.55228 17.5523 8 17 8H16C15.4477 8 15 7.55228 15 7V6ZM7 4.3C7 4.13431 7.13431 4 7.3 4H7.7C7.86569 4 8 4.13431 8 4.3V6.7C8 6.86569 7.86569 7 7.7 7H7.3C7.13431 7 7 6.86569 7 6.7V4.3ZM16 4.3C16 4.13431 16.1343 4 16.3 4H16.7C16.8657 4 17 4.13431 17 4.3V6.7C17 6.86569 16.8657 7 16.7 7H16.3C16.1343 7 16 6.86569 16 6.7V4.3ZM14 14C14 13.4477 14.4477 13 15 13H17C17.5523 13 18 13.4477 18 14V16C18 16.5523 17.5523 17 17 17H15C14.4477 17 14 16.5523 14 16V14ZM15.3 14C15.1343 14 15 14.1343 15 14.3V15.7C15 15.8657 15.1343 16 15.3 16H16.7C16.8657 16 17 15.8657 17 15.7V14.3C17 14.1343 16.8657 14 16.7 14H15.3Z" fill="black"/>
</svg>
