<svg width="24" height="24" viewBox="0 0 24 24" fill="none" xmlns="http://www.w3.org/2000/svg">
<path fill-rule="evenodd" clip-rule="evenodd" d="M13.2429 11.0857C13.4423 11.0857 14.1808 11.6869 14.9104 12.4563C15.2407 12.3041 15.5904 12.1869 15.9548 12.1094C14.9672 11.0057 13.7835 10.0857 13.2429 10.0857C13.023 10.0857 12.8498 10.1581 12.623 10.3014C12.6656 10.2744 12.283 10.5267 12.1644 10.5944C11.7362 10.8392 11.2622 10.9714 10.5857 10.9714C8.67227 10.9714 7.54286 9.43132 7.54286 6.6C7.54286 5.05552 8.70393 4 10.5857 4C12.4675 4 13.6286 5.05552 13.6286 6.6C13.6286 7.71026 13.4928 8.52496 13.2385 9.03354C13.115 9.28053 13.2151 9.58086 13.4621 9.70436C13.7091 9.82785 14.0094 9.72774 14.1329 9.48075C14.4691 8.80837 14.6286 7.85165 14.6286 6.6C14.6286 4.48084 12.9996 3 10.5857 3C8.17179 3 6.54286 4.48084 6.54286 6.6C6.54286 9.92842 8.04106 11.9714 10.5857 11.9714C11.4408 11.9714 12.0848 11.7917 12.6606 11.4627C12.8119 11.3762 13.2239 11.1046 13.157 11.1469C13.1802 11.1322 13.1989 11.1209 13.2133 11.1122L13.2133 11.1121C13.2477 11.0914 13.2571 11.0857 13.2429 11.0857ZM10.5857 18.5C11.1454 18.5 11.6881 18.4783 12.2096 18.4371C12.3107 18.7745 12.4464 19.0969 12.6127 19.4002C11.9586 19.4646 11.277 19.5 10.5857 19.5C6.63425 19.5 3 18.3436 3 17.2286C3 16.2674 3.19416 15.3937 3.9385 13.905C4.56475 12.6525 5.5015 11.5596 6.74286 10.6286C6.96377 10.4629 7.27717 10.5077 7.44286 10.7286C7.60854 10.9495 7.56377 11.2629 7.34286 11.4286C6.22231 12.269 5.38763 13.2428 4.83293 14.3522C4.19582 15.6264 4.01843 16.3402 4.0014 17.1003C4.05487 17.1454 4.13493 17.2008 4.23748 17.261C4.54327 17.4405 4.99132 17.6313 5.53374 17.8039C6.89609 18.2374 8.63776 18.5 10.5857 18.5ZM13 17C13 19.2091 14.7909 21 17 21C19.2091 21 21 19.2091 21 17C21 14.7909 19.2091 13 17 13C14.7909 13 13 14.7909 13 17ZM20.1111 17C20.1111 18.7182 18.7182 20.1111 17 20.1111C15.2818 20.1111 13.8889 18.7182 13.8889 17C13.8889 15.2818 15.2818 13.8889 17 13.8889C18.7182 13.8889 20.1111 15.2818 20.1111 17ZM17.3496 16.6159H18.5938C18.7825 16.6159 18.9355 16.7689 18.9355 16.9577C18.9355 17.1465 18.7825 17.2995 18.5938 17.2995H17.3496V18.7331C17.3496 18.9337 17.187 19.0964 16.9863 19.0964C16.7857 19.0964 16.623 18.9337 16.623 18.7331V17.2995H15.3789C15.1901 17.2995 15.0371 17.1465 15.0371 16.9577C15.0371 16.7689 15.1901 16.6159 15.3789 16.6159H16.623V15.319C16.623 15.1184 16.7857 14.9557 16.9863 14.9557C17.187 14.9557 17.3496 15.1184 17.3496 15.319V16.6159Z" fill="black"/>
</svg>
