<svg width="24" height="24" viewBox="0 0 24 24" fill="none" xmlns="http://www.w3.org/2000/svg">
<path fill-rule="evenodd" clip-rule="evenodd" d="M14.9104 12.4563C14.1808 11.6869 13.4423 11.0857 13.2429 11.0857C13.2571 11.0857 13.2477 11.0914 13.2133 11.1121L13.2133 11.1122C13.1989 11.1209 13.1802 11.1322 13.157 11.1469C13.2239 11.1046 12.8119 11.3762 12.6606 11.4627C12.0848 11.7917 11.4408 11.9714 10.5857 11.9714C8.04106 11.9714 6.54286 9.92842 6.54286 6.6C6.54286 4.48084 8.17179 3 10.5857 3C12.9996 3 14.6286 4.48084 14.6286 6.6C14.6286 7.85165 14.4691 8.80837 14.1329 9.48075C14.0094 9.72774 13.7091 9.82785 13.4621 9.70436C13.2151 9.58086 13.115 9.28053 13.2385 9.03354C13.4928 8.52496 13.6286 7.71026 13.6286 6.6C13.6286 5.05552 12.4675 4 10.5857 4C8.70393 4 7.54286 5.05552 7.54286 6.6C7.54286 9.43132 8.67227 10.9714 10.5857 10.9714C11.2622 10.9714 11.7362 10.8392 12.1644 10.5944C12.283 10.5267 12.6656 10.2744 12.623 10.3014C12.8498 10.1581 13.023 10.0857 13.2429 10.0857C13.7835 10.0857 14.9672 11.0057 15.9548 12.1094C15.5904 12.1869 15.2407 12.3041 14.9104 12.4563ZM12.2096 18.4371C11.6881 18.4783 11.1454 18.5 10.5857 18.5C8.63776 18.5 6.89609 18.2374 5.53374 17.8039C4.99132 17.6313 4.54327 17.4405 4.23748 17.261C4.13493 17.2008 4.05487 17.1454 4.0014 17.1003C4.01843 16.3402 4.19582 15.6264 4.83293 14.3522C5.38763 13.2428 6.22231 12.269 7.34286 11.4286C7.56377 11.2629 7.60854 10.9495 7.44286 10.7286C7.27717 10.5077 6.96377 10.4629 6.74286 10.6286C5.5015 11.5596 4.56475 12.6525 3.9385 13.905C3.19416 15.3937 3 16.2674 3 17.2286C3 18.3436 6.63425 19.5 10.5857 19.5C11.277 19.5 11.9586 19.4646 12.6127 19.4002C12.4464 19.0969 12.3107 18.7745 12.2096 18.4371ZM17.8889 12.6863C17.8046 12.6357 17.7249 12.6226 17.6612 12.625H16.3379C16.2742 12.6226 16.1945 12.6357 16.1101 12.6863C15.9422 12.7872 15.8829 12.9541 15.8829 13.1619V13.5529C15.8829 13.5946 15.8557 13.6317 15.8155 13.6444L15.7087 13.6783C15.6348 13.7031 15.5762 13.7239 15.523 13.7442C15.5083 13.7499 15.4969 13.7521 15.4856 13.7521C15.4609 13.7521 15.436 13.7418 15.4174 13.7233L15.1331 13.4386C15.0205 13.326 14.8851 13.2815 14.7539 13.2815C14.6232 13.2815 14.4881 13.3255 14.3754 13.4369L13.4379 14.3744C13.2284 14.5839 13.2284 14.9239 13.4379 15.1334L13.7231 15.4186C13.75 15.4455 13.7584 15.4856 13.7448 15.5206C13.7229 15.5767 13.7012 15.6378 13.6787 15.7069L13.6443 15.8147C13.6313 15.8559 13.5944 15.8829 13.5529 15.8829H13.1614C12.9521 15.8829 12.7838 15.9435 12.6838 16.1145C12.6351 16.1978 12.6226 16.2762 12.625 16.3384V17.6616C12.6226 17.7255 12.6357 17.8052 12.6863 17.8895C12.787 18.0574 12.9541 18.1171 13.1614 18.1171H13.5529C13.5947 18.1171 13.6315 18.144 13.6438 18.183L13.6786 18.2918C13.7021 18.3632 13.7233 18.4235 13.7441 18.4777C13.7585 18.5146 13.7502 18.5543 13.724 18.5805L13.4379 18.8666C13.2289 19.0771 13.2294 19.4156 13.4374 19.6251L14.3744 20.5617C14.4883 20.6743 14.6233 20.7185 14.7539 20.7185C14.8851 20.7185 15.0205 20.674 15.1329 20.5616L15.4186 20.276C15.4365 20.2582 15.4614 20.2479 15.4861 20.2479C15.4971 20.2479 15.5088 20.2502 15.5207 20.2548C15.5748 20.2756 15.6336 20.2964 15.7045 20.32L15.8146 20.3553C15.8559 20.3683 15.8829 20.4051 15.8829 20.4466V20.8381C15.8829 21.0439 15.9414 21.2096 16.1062 21.3112C16.1915 21.3637 16.2724 21.3774 16.3379 21.375H17.6616C17.7254 21.3774 17.8051 21.3643 17.8894 21.3137C18.0574 21.2128 18.1166 21.0459 18.1166 20.8381V20.4466C18.1166 20.4053 18.1439 20.3682 18.1832 20.3558L18.2908 20.3215C18.3643 20.2971 18.4236 20.276 18.4772 20.2554C18.4907 20.2501 18.5024 20.2479 18.5139 20.2479C18.5386 20.2479 18.5635 20.2582 18.5821 20.2767L18.8664 20.5614C18.9791 20.6742 19.1145 20.7185 19.2461 20.7185C19.3773 20.7185 19.5128 20.674 19.6252 20.5616L20.5616 19.6257C20.7705 19.4152 20.771 19.0759 20.5616 18.8666L20.2765 18.5814C20.2495 18.5544 20.241 18.5142 20.2549 18.4786C20.2759 18.4252 20.2975 18.3642 20.3208 18.2926L20.3553 18.1849C20.3682 18.1439 20.4048 18.1171 20.4466 18.1171H20.8381C21.0456 18.1171 21.2126 18.0576 21.3134 17.8899C21.3643 17.8055 21.3774 17.7256 21.375 17.6616V16.3384C21.375 16.064 21.1604 15.8829 20.8376 15.8829H20.4461C20.4044 15.8829 20.3678 15.8561 20.3551 15.816L20.3211 15.7092C20.2921 15.6221 20.2739 15.5704 20.2538 15.5194C20.2406 15.4854 20.249 15.4455 20.2755 15.419L20.5612 15.1334C20.7699 14.9231 20.7699 14.5846 20.5622 14.3754L19.6246 13.4383C19.5123 13.326 19.3768 13.2815 19.2456 13.2815C19.1141 13.2815 18.9787 13.3258 18.8661 13.4384L18.581 13.7235C18.5629 13.7416 18.5385 13.7516 18.5134 13.7516C18.501 13.7516 18.4898 13.7495 18.4798 13.7456C18.4219 13.7235 18.3626 13.7025 18.2951 13.68L18.1839 13.6446C18.1432 13.6317 18.1162 13.5949 18.1162 13.5529V13.1619C18.1162 12.9541 18.0569 12.7872 17.8889 12.6863ZM16.6329 13.375H17.3662V13.5529C17.3662 13.9222 17.6055 14.2487 17.9575 14.3596L18.0626 14.3931C18.1159 14.4109 18.1655 14.4284 18.2091 14.445C18.3038 14.4823 18.4081 14.5016 18.5134 14.5016C18.7365 14.5016 18.9519 14.4132 19.1113 14.2539L19.2454 14.1197L19.88 14.7539L19.7457 14.8882C19.5083 15.1247 19.4337 15.48 19.5555 15.7929C19.5699 15.8297 19.5845 15.8712 19.608 15.9416L19.6403 16.0432C19.7517 16.3943 20.0775 16.6329 20.4461 16.6329H20.625V17.3671H20.4466C20.0777 17.3671 19.7513 17.606 19.6404 17.958L19.6071 18.0622C19.5887 18.1185 19.572 18.1658 19.5565 18.2051C19.4342 18.5193 19.5087 18.8744 19.7461 19.1118L19.8805 19.2461L19.246 19.8802L19.112 19.7459C18.9517 19.5864 18.7365 19.4979 18.5139 19.4979C18.409 19.4979 18.305 19.5176 18.2064 19.556C18.1659 19.5716 18.117 19.5889 18.0584 19.6085L17.9568 19.6408C17.6062 19.7512 17.3666 20.078 17.3666 20.4466V20.625H16.6329V20.4466C16.6329 20.0777 16.3935 19.7512 16.0416 19.6404L15.9373 19.6071C15.8807 19.5882 15.8321 19.571 15.7916 19.5554C15.6947 19.5176 15.5906 19.4979 15.4861 19.4979C15.2635 19.4979 15.0483 19.5864 14.8889 19.745L14.7536 19.8803L14.1191 19.2461L14.2539 19.1113C14.4912 18.8748 14.5655 18.5193 14.4435 18.2067C14.4282 18.167 14.411 18.1182 14.3921 18.0605L14.3586 17.9558C14.2481 17.6058 13.9216 17.3671 13.5529 17.3671H13.375V16.6329H13.5529C13.9218 16.6329 14.2483 16.3935 14.3591 16.0416L14.3925 15.9374C14.4101 15.8831 14.4271 15.8353 14.4434 15.7933C14.5654 15.4808 14.4908 15.1256 14.2534 14.8882L14.119 14.7539L14.7533 14.1196L14.8876 14.2541C15.0478 14.4136 15.263 14.5021 15.4856 14.5021C15.5908 14.5021 15.6952 14.4823 15.7937 14.4436C15.833 14.4286 15.8825 14.4111 15.9415 14.3912L16.0423 14.3593C16.3938 14.2478 16.6329 13.9216 16.6329 13.5529V13.375ZM17.8896 18.4352C17.8223 18.2393 17.6089 18.1351 17.4131 18.2025C16.7493 18.4306 16.0256 18.0771 15.7974 17.4131C15.5692 16.7489 15.9227 16.0257 16.5872 15.7974C17.251 15.5692 17.9742 15.9227 18.2025 16.5868C18.3197 16.9278 18.2867 17.2933 18.1185 17.6041C18.02 17.7862 18.0878 18.0138 18.27 18.1123C18.4521 18.2109 18.6797 18.1431 18.7782 17.9609C19.0451 17.4675 19.0978 16.8844 18.9117 16.343C18.5488 15.2873 17.399 14.7253 16.3434 15.0881C15.2873 15.4509 14.7253 16.6008 15.0881 17.6568C15.451 18.7125 16.6013 19.2746 17.6569 18.9117C17.8527 18.8444 17.9569 18.631 17.8896 18.4352Z" fill="black"/>
<mask id="mask0_244_1347" style="mask-type:alpha" maskUnits="userSpaceOnUse" x="3" y="3" width="19" height="19">
<path fill-rule="evenodd" clip-rule="evenodd" d="M14.9104 12.4563C14.1808 11.6869 13.4423 11.0857 13.2429 11.0857C13.2571 11.0857 13.2477 11.0914 13.2133 11.1121L13.2133 11.1122C13.1989 11.1209 13.1802 11.1322 13.157 11.1469C13.2239 11.1046 12.8119 11.3762 12.6606 11.4627C12.0848 11.7917 11.4408 11.9714 10.5857 11.9714C8.04106 11.9714 6.54286 9.92842 6.54286 6.6C6.54286 4.48084 8.17179 3 10.5857 3C12.9996 3 14.6286 4.48084 14.6286 6.6C14.6286 7.85165 14.4691 8.80837 14.1329 9.48075C14.0094 9.72774 13.7091 9.82785 13.4621 9.70436C13.2151 9.58086 13.115 9.28053 13.2385 9.03354C13.4928 8.52496 13.6286 7.71026 13.6286 6.6C13.6286 5.05552 12.4675 4 10.5857 4C8.70393 4 7.54286 5.05552 7.54286 6.6C7.54286 9.43132 8.67227 10.9714 10.5857 10.9714C11.2622 10.9714 11.7362 10.8392 12.1644 10.5944C12.283 10.5267 12.6656 10.2744 12.623 10.3014C12.8498 10.1581 13.023 10.0857 13.2429 10.0857C13.7835 10.0857 14.9672 11.0057 15.9548 12.1094C15.5904 12.1869 15.2407 12.3041 14.9104 12.4563ZM12.2096 18.4371C11.6881 18.4783 11.1454 18.5 10.5857 18.5C8.63776 18.5 6.89609 18.2374 5.53374 17.8039C4.99132 17.6313 4.54327 17.4405 4.23748 17.261C4.13493 17.2008 4.05487 17.1454 4.0014 17.1003C4.01843 16.3402 4.19582 15.6264 4.83293 14.3522C5.38763 13.2428 6.22231 12.269 7.34286 11.4286C7.56377 11.2629 7.60854 10.9495 7.44286 10.7286C7.27717 10.5077 6.96377 10.4629 6.74286 10.6286C5.5015 11.5596 4.56475 12.6525 3.9385 13.905C3.19416 15.3937 3 16.2674 3 17.2286C3 18.3436 6.63425 19.5 10.5857 19.5C11.277 19.5 11.9586 19.4646 12.6127 19.4002C12.4464 19.0969 12.3107 18.7745 12.2096 18.4371ZM17.8889 12.6863C17.8046 12.6357 17.7249 12.6226 17.6612 12.625H16.3379C16.2742 12.6226 16.1945 12.6357 16.1101 12.6863C15.9422 12.7872 15.8829 12.9541 15.8829 13.1619V13.5529C15.8829 13.5946 15.8557 13.6317 15.8155 13.6444L15.7087 13.6783C15.6348 13.7031 15.5762 13.7239 15.523 13.7442C15.5083 13.7499 15.4969 13.7521 15.4856 13.7521C15.4609 13.7521 15.436 13.7418 15.4174 13.7233L15.1331 13.4386C15.0205 13.326 14.8851 13.2815 14.7539 13.2815C14.6232 13.2815 14.4881 13.3255 14.3754 13.4369L13.4379 14.3744C13.2284 14.5839 13.2284 14.9239 13.4379 15.1334L13.7231 15.4186C13.75 15.4455 13.7584 15.4856 13.7448 15.5206C13.7229 15.5767 13.7012 15.6378 13.6787 15.7069L13.6443 15.8147C13.6313 15.8559 13.5944 15.8829 13.5529 15.8829H13.1614C12.9521 15.8829 12.7838 15.9435 12.6838 16.1145C12.6351 16.1978 12.6226 16.2762 12.625 16.3384V17.6616C12.6226 17.7255 12.6357 17.8052 12.6863 17.8895C12.787 18.0574 12.9541 18.1171 13.1614 18.1171H13.5529C13.5947 18.1171 13.6315 18.144 13.6438 18.183L13.6786 18.2918C13.7021 18.3632 13.7233 18.4235 13.7441 18.4777C13.7585 18.5146 13.7502 18.5543 13.724 18.5805L13.4379 18.8666C13.2289 19.0771 13.2294 19.4156 13.4374 19.6251L14.3744 20.5617C14.4883 20.6743 14.6233 20.7185 14.7539 20.7185C14.8851 20.7185 15.0205 20.674 15.1329 20.5616L15.4186 20.276C15.4365 20.2582 15.4614 20.2479 15.4861 20.2479C15.4971 20.2479 15.5088 20.2502 15.5207 20.2548C15.5748 20.2756 15.6336 20.2964 15.7045 20.32L15.8146 20.3553C15.8559 20.3683 15.8829 20.4051 15.8829 20.4466V20.8381C15.8829 21.0439 15.9414 21.2096 16.1062 21.3112C16.1915 21.3637 16.2724 21.3774 16.3379 21.375H17.6616C17.7254 21.3774 17.8051 21.3643 17.8894 21.3137C18.0574 21.2128 18.1166 21.0459 18.1166 20.8381V20.4466C18.1166 20.4053 18.1439 20.3682 18.1832 20.3558L18.2908 20.3215C18.3643 20.2971 18.4236 20.276 18.4772 20.2554C18.4907 20.2501 18.5024 20.2479 18.5139 20.2479C18.5386 20.2479 18.5635 20.2582 18.5821 20.2767L18.8664 20.5614C18.9791 20.6742 19.1145 20.7185 19.2461 20.7185C19.3773 20.7185 19.5128 20.674 19.6252 20.5616L20.5616 19.6257C20.7705 19.4152 20.771 19.0759 20.5616 18.8666L20.2765 18.5814C20.2495 18.5544 20.241 18.5142 20.2549 18.4786C20.2759 18.4252 20.2975 18.3642 20.3208 18.2926L20.3553 18.1849C20.3682 18.1439 20.4048 18.1171 20.4466 18.1171H20.8381C21.0456 18.1171 21.2126 18.0576 21.3134 17.8899C21.3643 17.8055 21.3774 17.7256 21.375 17.6616V16.3384C21.375 16.064 21.1604 15.8829 20.8376 15.8829H20.4461C20.4044 15.8829 20.3678 15.8561 20.3551 15.816L20.3211 15.7092C20.2921 15.6221 20.2739 15.5704 20.2538 15.5194C20.2406 15.4854 20.249 15.4455 20.2755 15.419L20.5612 15.1334C20.7699 14.9231 20.7699 14.5846 20.5622 14.3754L19.6246 13.4383C19.5123 13.326 19.3768 13.2815 19.2456 13.2815C19.1141 13.2815 18.9787 13.3258 18.8661 13.4384L18.581 13.7235C18.5629 13.7416 18.5385 13.7516 18.5134 13.7516C18.501 13.7516 18.4898 13.7495 18.4798 13.7456C18.4219 13.7235 18.3626 13.7025 18.2951 13.68L18.1839 13.6446C18.1432 13.6317 18.1162 13.5949 18.1162 13.5529V13.1619C18.1162 12.9541 18.0569 12.7872 17.8889 12.6863ZM16.6329 13.375H17.3662V13.5529C17.3662 13.9222 17.6055 14.2487 17.9575 14.3596L18.0626 14.3931C18.1159 14.4109 18.1655 14.4284 18.2091 14.445C18.3038 14.4823 18.4081 14.5016 18.5134 14.5016C18.7365 14.5016 18.9519 14.4132 19.1113 14.2539L19.2454 14.1197L19.88 14.7539L19.7457 14.8882C19.5083 15.1247 19.4337 15.48 19.5555 15.7929C19.5699 15.8297 19.5845 15.8712 19.608 15.9416L19.6403 16.0432C19.7517 16.3943 20.0775 16.6329 20.4461 16.6329H20.625V17.3671H20.4466C20.0777 17.3671 19.7513 17.606 19.6404 17.958L19.6071 18.0622C19.5887 18.1185 19.572 18.1658 19.5565 18.2051C19.4342 18.5193 19.5087 18.8744 19.7461 19.1118L19.8805 19.2461L19.246 19.8802L19.112 19.7459C18.9517 19.5864 18.7365 19.4979 18.5139 19.4979C18.409 19.4979 18.305 19.5176 18.2064 19.556C18.1659 19.5716 18.117 19.5889 18.0584 19.6085L17.9568 19.6408C17.6062 19.7512 17.3666 20.078 17.3666 20.4466V20.625H16.6329V20.4466C16.6329 20.0777 16.3935 19.7512 16.0416 19.6404L15.9373 19.6071C15.8807 19.5882 15.8321 19.571 15.7916 19.5554C15.6947 19.5176 15.5906 19.4979 15.4861 19.4979C15.2635 19.4979 15.0483 19.5864 14.8889 19.745L14.7536 19.8803L14.1191 19.2461L14.2539 19.1113C14.4912 18.8748 14.5655 18.5193 14.4435 18.2067C14.4282 18.167 14.411 18.1182 14.3921 18.0605L14.3586 17.9558C14.2481 17.6058 13.9216 17.3671 13.5529 17.3671H13.375V16.6329H13.5529C13.9218 16.6329 14.2483 16.3935 14.3591 16.0416L14.3925 15.9374C14.4101 15.8831 14.4271 15.8353 14.4434 15.7933C14.5654 15.4808 14.4908 15.1256 14.2534 14.8882L14.119 14.7539L14.7533 14.1196L14.8876 14.2541C15.0478 14.4136 15.263 14.5021 15.4856 14.5021C15.5908 14.5021 15.6952 14.4823 15.7937 14.4436C15.833 14.4286 15.8825 14.4111 15.9415 14.3912L16.0423 14.3593C16.3938 14.2478 16.6329 13.9216 16.6329 13.5529V13.375ZM17.8896 18.4352C17.8223 18.2393 17.6089 18.1351 17.4131 18.2025C16.7493 18.4306 16.0256 18.0771 15.7974 17.4131C15.5692 16.7489 15.9227 16.0257 16.5872 15.7974C17.251 15.5692 17.9742 15.9227 18.2025 16.5868C18.3197 16.9278 18.2867 17.2933 18.1185 17.6041C18.02 17.7862 18.0878 18.0138 18.27 18.1123C18.4521 18.2109 18.6797 18.1431 18.7782 17.9609C19.0451 17.4675 19.0978 16.8844 18.9117 16.343C18.5488 15.2873 17.399 14.7253 16.3434 15.0881C15.2873 15.4509 14.7253 16.6008 15.0881 17.6568C15.451 18.7125 16.6013 19.2746 17.6569 18.9117C17.8527 18.8444 17.9569 18.631 17.8896 18.4352Z" fill="white"/>
</mask>
<g mask="url(#mask0_244_1347)">
</g>
</svg>
