<svg width="24" height="24" viewBox="0 0 24 24" fill="none" xmlns="http://www.w3.org/2000/svg">
<path fill-rule="evenodd" clip-rule="evenodd" d="M14.2081 6H12.5V3.44489L15.8415 6.56881C15.9426 6.66336 16 6.79561 16 6.93406V15.0319C14.7961 15.185 13.6816 15.8822 13.0371 17H6.5C6.22386 17 6 16.7761 6 16.5V3.5C6 3.22386 6.22386 3 6.5 3H10.1853C10.4614 3 10.6853 2.77614 10.6853 2.5C10.6853 2.22386 10.4614 2 10.1853 2H6.5C5.67157 2 5 2.67157 5 3.5V16.5C5 17.3284 5.67157 18 6.5 18H12.6272C12.1663 19.7768 12.9817 21.6971 14.6849 22.5649C15.856 23.1616 17.2224 23.1405 18.364 22.5408C18.6084 22.4124 18.7025 22.1101 18.5741 21.8656C18.4456 21.6211 18.1433 21.5271 17.8989 21.6555C17.0416 22.1059 16.0178 22.1217 15.1389 21.6739C13.6626 20.9217 13.0756 19.1151 13.8278 17.6389C14.58 16.1626 16.3866 15.5756 17.8628 16.3278C19.3391 17.08 19.9261 18.8866 19.1739 20.3628C19.0485 20.6089 19.1463 20.91 19.3924 21.0353C19.6384 21.1607 19.9395 21.0629 20.0649 20.8168C21.0678 18.8485 20.2852 16.4398 18.3168 15.4368C17.8922 15.2205 17.4471 15.0872 17 15.031V6.93406C17 6.51872 16.8278 6.12197 16.5244 5.83833L12.678 2.2424C12.3956 1.97838 11.9527 1.99329 11.6887 2.27569C11.5674 2.40536 11.5 2.57623 11.5 2.75374V6.1C11.5 6.59706 11.9029 7 12.4 7H14.2081C14.4843 7 14.7081 6.77614 14.7081 6.5C14.7081 6.22386 14.4843 6 14.2081 6ZM16.5 17C16.2239 17 16 17.2239 16 17.5V19.5C16 19.7761 16.2239 20 16.5 20H17.5C17.7761 20 18 19.7761 18 19.5C18 19.2239 17.7761 19 17.5 19H17V17.5C17 17.2239 16.7761 17 16.5 17ZM8.5 11C9.05228 11 9.5 10.5523 9.5 10C9.5 9.44772 9.05228 9 8.5 9C7.94772 9 7.5 9.44772 7.5 10C7.5 10.5523 7.94772 11 8.5 11ZM14.3 14C14.3 14.5523 13.8523 15 13.3 15C12.7477 15 12.3 14.5523 12.3 14C12.3 13.4477 12.7477 13 13.3 13C13.8523 13 14.3 13.4477 14.3 14ZM13.6033 9.35355C13.408 9.15829 13.0915 9.15829 12.8962 9.35355L8.65355 13.5962C8.45829 13.7915 8.45829 14.108 8.65355 14.3033C8.84882 14.4986 9.1654 14.4986 9.36066 14.3033L13.6033 10.0607C13.7986 9.8654 13.7986 9.54882 13.6033 9.35355Z" fill="black"/>
</svg>
