<svg width="24" height="24" viewBox="0 0 24 24" fill="none" xmlns="http://www.w3.org/2000/svg">
<path fill-rule="evenodd" clip-rule="evenodd" d="M15.75 6.8C15.75 6.63431 15.6157 6.5 15.45 6.5H5.55C5.38431 6.5 5.25 6.63431 5.25 6.8L5.25 20.2C5.25 20.3657 5.38431 20.5 5.55 20.5L15.45 20.5C15.6157 20.5 15.75 20.3657 15.75 20.2V6.8ZM5.25 5.5C4.69772 5.5 4.25 5.94771 4.25 6.5V20.5C4.25 21.0523 4.69772 21.5 5.25 21.5H15.75C16.3023 21.5 16.75 21.0523 16.75 20.5V6.5C16.75 5.94772 16.3023 5.5 15.75 5.5H5.25Z" fill="black"/>
<path d="M8.25 3.64286C8.25 3.56396 8.31396 3.5 8.39286 3.5H18.45C18.6157 3.5 18.75 3.63431 18.75 3.8V17.3571C18.75 17.436 18.686 17.5 18.6071 17.5L18.25 17.5C17.9739 17.5 17.75 17.7239 17.75 18C17.75 18.2761 17.9739 18.5 18.25 18.5L18.75 18.5C19.3023 18.5 19.75 18.0523 19.75 17.5V3.5C19.75 2.94772 19.3023 2.5 18.75 2.5H8.25C7.69772 2.5 7.25 2.94771 7.25 3.5V4C7.25 4.27614 7.47386 4.5 7.75 4.5C8.02614 4.5 8.25 4.27614 8.25 4L8.25 3.64286Z" fill="black"/>
</svg>
