<svg width="24" height="24" viewBox="0 0 24 24" fill="none" xmlns="http://www.w3.org/2000/svg">
<path fill-rule="evenodd" clip-rule="evenodd" d="M15.5 4.6C15.5 4.26863 15.2314 4 14.9 4H13.7844C13.3651 3.3475 12.7554 3 11.9957 3C11.236 3 10.6269 3.34754 10.2092 4H9.1C8.76863 4 8.5 4.26863 8.5 4.6V6.4C8.5 6.73137 8.76863 7 9.1 7H14.9C15.2314 7 15.5 6.73137 15.5 6.4V6H16.5C16.7761 6 17 6.22386 17 6.5V18.5C17 18.7761 16.7761 19 16.5 19H7.5C7.22386 19 7 18.7761 7 18.5V6.5C7 6.22386 7.22386 6 7.5 6C7.77614 6 8 5.77614 8 5.5C8 5.22386 7.77614 5 7.5 5C6.67157 5 6 5.67157 6 6.5V18.5C6 19.3284 6.67157 20 7.5 20H16.5C17.3284 20 18 19.3284 18 18.5V6.5C18 5.67157 17.3284 5 16.5 5H15.5V4.6ZM9.5 6H14.5V5H13.1859L13.0475 4.72448C12.7944 4.22092 12.4634 4 11.9957 4C11.5283 4 11.1986 4.22048 10.9473 4.72345L10.8091 5H9.5V6Z" fill="black"/>
<path d="M9.5 11C9.22386 11 9 11.2239 9 11.5C9 11.7761 9.22386 12 9.5 12H14.5C14.7761 12 15 11.7761 15 11.5C15 11.2239 14.7761 11 14.5 11H9.5Z" fill="black"/>
<path d="M9 13.5C9 13.2239 9.22386 13 9.5 13H14.5C14.7761 13 15 13.2239 15 13.5C15 13.7761 14.7761 14 14.5 14H9.5C9.22386 14 9 13.7761 9 13.5Z" fill="black"/>
<path d="M9.5 15C9.22386 15 9 15.2239 9 15.5C9 15.7761 9.22386 16 9.5 16H12.5C12.7761 16 13 15.7761 13 15.5C13 15.2239 12.7761 15 12.5 15H9.5Z" fill="black"/>
</svg>
