<svg width="24" height="24" viewBox="0 0 24 24" fill="none" xmlns="http://www.w3.org/2000/svg">
<path fill-rule="evenodd" clip-rule="evenodd" d="M16.6987 8.54591L19.2273 8.95596C19.6707 9.0193 20 9.39903 20 9.84692V18.1C20 18.5971 19.5971 19 19.1 19H4.9C4.40294 19 4 18.5971 4 18.1V9.84692C4 9.39903 4.32934 9.0193 4.77272 8.95596L7.30134 8.54591L8.43518 6.56575C8.57186 6.22406 8.9028 6 9.27081 6H14.7292C15.0972 6 15.4281 6.22406 15.5648 6.56575L16.6987 8.54591ZM5 18H19V9.93365L16.5 9.52768C16.1813 9.48215 15.9112 9.26988 15.7916 8.97098L14.6615 7H9.33852L8.20835 8.97098C8.08879 9.26988 7.81869 9.48215 7.5 9.52768L5 9.93365V18ZM14.8915 15.0345C15.1376 15.1598 15.4387 15.062 15.564 14.816C16.567 12.8476 15.7843 10.4389 13.816 9.43597C11.8476 8.43305 9.4389 9.21568 8.43597 11.184C7.43305 13.1524 8.21568 15.5611 10.184 16.564C11.3552 17.1607 12.7216 17.1396 13.8631 16.5399C14.1076 16.4115 14.2016 16.1092 14.0732 15.8648C13.9448 15.6203 13.6425 15.5262 13.398 15.6547C12.5408 16.105 11.5169 16.1208 10.638 15.673C9.16176 14.9208 8.57478 13.1143 9.32698 11.638C10.0792 10.1618 11.8857 9.57478 13.362 10.327C14.8382 11.0792 15.4252 12.8857 14.673 14.362C14.5477 14.608 14.6455 14.9091 14.8915 15.0345Z" fill="black"/>
</svg>
