<svg width="24" height="24" viewBox="0 0 24 24" fill="none" xmlns="http://www.w3.org/2000/svg">
<path fill-rule="evenodd" clip-rule="evenodd" d="M3 12.1719C3 11.8958 3.22386 11.6719 3.5 11.6719C3.77614 11.6719 4 11.8958 4 12.1719V16.6C4 16.8209 4.17909 17 4.4 17H12.0224C12.0534 17.3434 12.1159 17.6777 12.207 18H4.4C3.6268 18 3 17.3732 3 16.6V12.1719ZM21 12.2572V7.4C21 6.6268 20.3732 6 19.6 6H4.4C3.6268 6 3 6.6268 3 7.4V10.5C3 10.7761 3.22386 11 3.5 11H17.5H18.9C19.1761 11 19.4 10.7761 19.4 10.5C19.4 10.2239 19.1761 10 18.9 10H4V7.4C4 7.17909 4.17909 7 4.4 7H19.6C19.8209 7 20 7.17909 20 7.4V11.5997C20.3578 11.7826 20.6929 12.0035 21 12.2572ZM5 14C4.72386 14 4.5 13.7761 4.5 13.5C4.5 13.2239 4.72386 13 5 13H12C12.2761 13 12.5 13.2239 12.5 13.5C12.5 13.7761 12.2761 14 12 14H5ZM18.2642 12.0616C18.1799 12.0109 18.1002 11.9979 18.0364 12.0003H16.7132C16.6494 11.9979 16.5697 12.0109 16.4854 12.0616C16.3174 12.1625 16.2582 12.3294 16.2582 12.5371V12.9282C16.2582 12.9698 16.2309 13.007 16.1908 13.0197L16.084 13.0536C16.0101 13.0783 15.9514 13.0992 15.8982 13.1194C15.8835 13.1252 15.8722 13.1273 15.8609 13.1273C15.8362 13.1273 15.8113 13.1171 15.7927 13.0986L15.5084 12.8138C15.3958 12.7012 15.2603 12.6567 15.1292 12.6567C14.9985 12.6567 14.8633 12.7008 14.7507 12.8121L13.8132 13.7496C13.6037 13.9591 13.6037 14.2992 13.8132 14.5087L14.0983 14.7938C14.1253 14.8208 14.1337 14.8609 14.12 14.8959C14.0981 14.952 14.0765 15.0131 14.054 15.0822L14.0195 15.1899C14.0065 15.2311 13.9697 15.2581 13.9282 15.2581H13.5367C13.3274 15.2581 13.159 15.3187 13.0591 15.4897C13.0104 15.5731 12.9979 15.6515 13.0003 15.7136V17.0369C12.9979 17.1007 13.0109 17.1804 13.0616 17.2648C13.1623 17.4326 13.3294 17.4924 13.5367 17.4924H13.9282C13.97 17.4924 14.0068 17.5192 14.0191 17.5583L14.0539 17.667C14.0773 17.7385 14.0986 17.7988 14.1194 17.8529C14.1338 17.8899 14.1255 17.9296 14.0993 17.9557L13.8132 18.2419C13.6042 18.4524 13.6047 18.7909 13.8127 19.0004L14.7497 19.937C14.8636 20.0496 14.9986 20.0938 15.1292 20.0938C15.2603 20.0938 15.3958 20.0493 15.5082 19.9369L15.7938 19.6513C15.8117 19.6335 15.8367 19.6232 15.8614 19.6232C15.8724 19.6232 15.8841 19.6254 15.896 19.6301C15.9501 19.6509 16.0088 19.6716 16.0797 19.6953L16.1899 19.7305C16.2311 19.7435 16.2582 19.7804 16.2582 19.8219V20.2134C16.2582 20.4192 16.3166 20.5849 16.4815 20.6864C16.5668 20.739 16.6477 20.7526 16.7132 20.7503H18.0369C18.1006 20.7526 18.1803 20.7396 18.2647 20.6889C18.4326 20.588 18.4919 20.4211 18.4919 20.2134V19.8219C18.4919 19.7806 18.5191 19.7435 18.5585 19.7311L18.666 19.6968C18.7396 19.6723 18.7989 19.6513 18.8525 19.6307C18.866 19.6254 18.8777 19.6232 18.8892 19.6232C18.9139 19.6232 18.9388 19.6335 18.9574 19.6519L19.2417 19.9367C19.3544 20.0494 19.4898 20.0938 19.6214 20.0938C19.7526 20.0938 19.888 20.0493 20.0004 19.9369L20.9368 19.001C21.1458 18.7905 21.1463 18.4512 20.9369 18.2419L20.6517 17.9567C20.6247 17.9297 20.6163 17.8895 20.6301 17.8539C20.6512 17.8005 20.6728 17.7395 20.6961 17.6679L20.7305 17.5601C20.7435 17.5192 20.7801 17.4924 20.8219 17.4924H21.2134C21.4208 17.4924 21.5878 17.4328 21.6887 17.2652C21.7395 17.1807 21.7526 17.1009 21.7503 17.0369V15.7136C21.7503 15.4393 21.5356 15.2581 21.2129 15.2581H20.8214C20.7797 15.2581 20.7431 15.2313 20.7304 15.1913L20.6963 15.0845C20.6673 14.9974 20.6492 14.9457 20.6291 14.8947C20.6159 14.8607 20.6243 14.8208 20.6508 14.7943L20.9364 14.5087C21.1451 14.2984 21.1451 13.9599 20.9374 13.7506L19.9999 12.8136C19.8876 12.7012 19.7521 12.6567 19.6209 12.6567C19.4894 12.6567 19.3539 12.7011 19.2414 12.8136L18.9562 13.0988C18.9382 13.1168 18.9138 13.1269 18.8887 13.1269C18.8763 13.1269 18.865 13.1248 18.8551 13.1209C18.7972 13.0988 18.7378 13.0778 18.6703 13.0553L18.5592 13.0198C18.5184 13.007 18.4914 12.9702 18.4914 12.9282V12.5371C18.4914 12.3294 18.4322 12.1625 18.2642 12.0616ZM17.0082 12.7503H17.7414V12.9282C17.7414 13.2975 17.9807 13.624 18.3328 13.7348L18.4379 13.7683C18.4912 13.7861 18.5407 13.8037 18.5844 13.8203C18.679 13.8575 18.7834 13.8769 18.8887 13.8769C19.1118 13.8769 19.3272 13.7885 19.4866 13.6291L19.6207 13.495L20.2553 14.1292L20.1209 14.2635C19.8836 14.5 19.809 14.8553 19.9307 15.1682C19.9452 15.2049 19.9598 15.2465 19.9833 15.3169L20.0156 15.4185C20.127 15.7696 20.4527 16.0081 20.8214 16.0081H21.0003V16.7424H20.8219C20.453 16.7424 20.1265 16.9813 20.0157 17.3332L19.9823 17.4374C19.964 17.4938 19.9473 17.541 19.9318 17.5803C19.8095 17.8946 19.884 18.2496 20.1214 18.487L20.2557 18.6213L19.6213 19.2554L19.4872 19.1211C19.327 18.9617 19.1118 18.8732 18.8892 18.8732C18.7843 18.8732 18.6802 18.8929 18.5817 18.9313C18.5412 18.9468 18.4923 18.9642 18.4336 18.9837L18.332 19.0161C17.9814 19.1265 17.7419 19.4533 17.7419 19.8219V20.0003H17.0082V19.8219C17.0082 19.4529 16.7688 19.1265 16.4168 19.0157L16.3126 18.9823C16.2559 18.9634 16.2074 18.9463 16.1668 18.9307C16.0699 18.8929 15.9659 18.8732 15.8614 18.8732C15.6388 18.8732 15.4236 18.9617 15.2642 19.1202L15.1289 19.2556L14.4943 18.6213L14.6291 18.4865C14.8665 18.2501 14.9407 17.8946 14.8187 17.582C14.8035 17.5423 14.7863 17.4934 14.7673 17.4357L14.7338 17.331C14.6234 16.9811 14.2969 16.7424 13.9282 16.7424H13.7503V16.0081H13.9282C14.2971 16.0081 14.6236 15.7687 14.7344 15.4168L14.7677 15.3126C14.7854 15.2583 14.8023 15.2105 14.8187 15.1686C14.9407 14.8561 14.8661 14.5009 14.6287 14.2635L14.4943 14.1291L15.1286 13.4949L15.2628 13.6294C15.4231 13.7888 15.6383 13.8773 15.8609 13.8773C15.9661 13.8773 16.0705 13.8576 16.169 13.8188C16.2083 13.8039 16.2578 13.7863 16.3168 13.7665L16.4176 13.7346C16.7691 13.6231 17.0082 13.2969 17.0082 12.9282V12.7503ZM18.2649 17.8105C18.1976 17.6146 17.9842 17.5104 17.7883 17.5777C17.1245 17.8059 16.4009 17.4523 16.1726 16.7883C15.9445 16.1241 16.298 15.4009 16.9624 15.1727C17.6262 14.9445 18.3495 15.2979 18.5777 15.962C18.695 16.3031 18.6619 16.6686 18.4938 16.9793C18.3953 17.1615 18.4631 17.3891 18.6452 17.4876C18.8274 17.5861 19.0549 17.5184 19.1535 17.3362C19.4204 16.8428 19.4731 16.2597 19.287 15.7182C18.9241 14.6625 17.7742 14.1005 16.7187 14.4634C15.6626 14.8262 15.1005 15.976 15.4633 17.0321C15.8262 18.0878 16.9766 18.6498 18.0321 18.287C18.228 18.2197 18.3322 18.0063 18.2649 17.8105Z" fill="black"/>
</svg>
