<svg width="25" height="24" viewBox="0 0 25 24" fill="none" xmlns="http://www.w3.org/2000/svg">
<path fill-rule="evenodd" clip-rule="evenodd" d="M18.6053 4.07714V12.1231C18.2503 12.048 17.8822 12.0086 17.5048 12.0086C15.8107 12.0086 14.3025 12.8044 13.3335 14.0426H7.6366C7.46082 14.0426 7.35535 14.1832 7.35535 14.3238V14.8863C7.35535 15.0621 7.46082 15.1676 7.6366 15.1676H12.6593C12.3712 15.8205 12.2113 16.5426 12.2113 17.3021C12.2113 17.9334 12.3218 18.5388 12.5244 19.1002L11.8553 18.5426L9.92175 20.1246C9.85144 20.1949 9.67566 20.2652 9.60535 20.2652C9.49988 20.2652 9.3241 20.1949 9.25378 20.1246L7.35535 18.5426L5.98425 20.1246C5.63269 20.4059 5.10535 20.1598 5.10535 19.6676V4.08057C5.137 3.55682 5.57179 3.14185 6.1035 3.14185H17.6074C18.138 3.14185 18.572 3.55501 18.6053 4.07714ZM16.0741 11.7926C16.2147 11.7926 16.3553 11.6871 16.3553 11.5113V10.9488C16.3553 10.8082 16.2147 10.6676 16.0741 10.6676H7.6366C7.46082 10.6676 7.35535 10.8082 7.35535 10.9488V11.5113C7.35535 11.6871 7.46082 11.7926 7.6366 11.7926H16.0741ZM16.0741 8.41758C16.2147 8.41758 16.3553 8.31211 16.3553 8.13633V7.57383C16.3553 7.43321 16.2147 7.29258 16.0741 7.29258H7.6366C7.46082 7.29258 7.35535 7.43321 7.35535 7.57383V8.13633C7.35535 8.31211 7.46082 8.41758 7.6366 8.41758H16.0741ZM21.6491 17.3022C21.6491 19.591 19.7936 21.4464 17.5048 21.4464C15.2161 21.4464 13.3606 19.591 13.3606 17.3022C13.3606 15.0134 15.2161 13.1579 17.5048 13.1579C19.7936 13.1579 21.6491 15.0134 21.6491 17.3022ZM19.6671 15.9657C19.3938 15.6923 18.9505 15.6923 18.6772 15.9657L17.1318 17.5111L16.4508 16.8301C16.1774 16.5568 15.7342 16.5568 15.4608 16.8302C15.1875 17.1035 15.1875 17.5467 15.4608 17.8201L16.6368 18.996C16.9102 19.2694 17.3534 19.2694 17.6267 18.996L19.6671 16.9556C19.9405 16.6823 19.9405 16.2391 19.6671 15.9657Z" fill="url(#paint0_angular_1319_39858)"/>
<defs>
<radialGradient id="paint0_angular_1319_39858" cx="0" cy="0" r="1" gradientUnits="userSpaceOnUse" gradientTransform="translate(13.3772 12.2941) rotate(90) scale(9.15227 8.27186)">
<stop stop-color="#3757D9"/>
<stop offset="1" stop-color="#9AA9EE"/>
</radialGradient>
</defs>
</svg>
