<svg width="24" height="24" viewBox="0 0 24 24" fill="none" xmlns="http://www.w3.org/2000/svg">
<path d="M21.0861 8.3742C21.2041 8.6653 21.0637 8.9969 20.7726 9.11486C20.4815 9.23282 20.1499 9.09246 20.032 8.80137C18.7365 5.60453 15.6312 3.46944 12.1274 3.46944C8.64031 3.46944 5.54791 5.58423 4.24152 8.75573L4.99493 8.55386C5.29832 8.47256 5.61016 8.65261 5.69145 8.95599C5.77274 9.25938 5.5927 9.57122 5.28932 9.65251L3.25349 10.198C2.9515 10.2789 2.64082 10.1009 2.55794 9.79943L2.02049 7.84443C1.93723 7.54158 2.11525 7.22858 2.4181 7.14532C2.72095 7.06206 3.03395 7.24008 3.11721 7.54293L3.27589 8.12014C4.80268 4.63921 8.24966 2.33203 12.1274 2.33203C16.0988 2.33203 19.6183 4.75192 21.0861 8.3742Z" fill="black"/>
<path d="M3.16878 15.6258C3.05082 15.3347 3.19118 15.0031 3.48228 14.8852C3.77337 14.7672 4.10497 14.9076 4.22293 15.1987C5.51836 18.3955 8.62367 20.5306 12.1275 20.5306C15.4078 20.5306 18.3389 18.6591 19.7625 15.7971L19.0478 15.9886C18.7444 16.0698 18.4326 15.8898 18.3513 15.5864C18.27 15.283 18.45 14.9712 18.7534 14.8899L20.7892 14.3444C21.0952 14.2624 21.4092 14.4463 21.4875 14.7532L21.9822 16.6937C22.0598 16.998 21.876 17.3076 21.5716 17.3852C21.2673 17.4628 20.9577 17.279 20.8801 16.9747L20.7331 16.3983C19.1029 19.588 15.8093 21.668 12.1275 21.668C8.15613 21.668 4.63661 19.2481 3.16878 15.6258Z" fill="black"/>
<path d="M9.80442 16.0376L15.5394 7.96124C15.7063 7.72624 15.6386 7.40874 15.3883 7.25208C15.138 7.09541 14.7998 7.15892 14.633 7.39391L8.89801 15.4703C8.73114 15.7053 8.79877 16.0228 9.04908 16.1795C9.29938 16.3361 9.63756 16.2726 9.80442 16.0376Z" fill="black"/>
<path fill-rule="evenodd" clip-rule="evenodd" d="M9.94388 7.16614C11.2002 7.16614 12.2187 8.18461 12.2187 9.44096C12.2187 10.6973 11.2002 11.7158 9.94388 11.7158C8.68753 11.7158 7.66906 10.6973 7.66906 9.44096C7.66906 8.18461 8.68753 7.16614 9.94388 7.16614ZM9.94388 8.28209C9.30385 8.28209 8.78501 8.80093 8.78501 9.44096C8.78501 10.081 9.30385 10.5998 9.94388 10.5998C10.5839 10.5998 11.1027 10.081 11.1027 9.44096C11.1027 8.80093 10.5839 8.28209 9.94388 8.28209Z" fill="black"/>
<path fill-rule="evenodd" clip-rule="evenodd" d="M14.4935 11.7158C15.7499 11.7158 16.7683 12.7342 16.7683 13.9906C16.7683 15.2469 15.7499 16.2654 14.4935 16.2654C13.2372 16.2654 12.2187 15.2469 12.2187 13.9906C12.2187 12.7342 13.2372 11.7158 14.4935 11.7158ZM14.4935 12.8317C13.8535 12.8317 13.3346 13.3506 13.3346 13.9906C13.3346 14.6306 13.8535 15.1495 14.4935 15.1495C15.1335 15.1495 15.6524 14.6306 15.6524 13.9906C15.6524 13.3506 15.1335 12.8317 14.4935 12.8317Z" fill="black"/>
</svg>
