<svg width="24" height="24" viewBox="0 0 24 24" fill="none" xmlns="http://www.w3.org/2000/svg">
<path fill-rule="evenodd" clip-rule="evenodd" d="M3 12C3 16.9706 7.02944 21 12 21C16.9706 21 21 16.9706 21 12C21 7.02944 16.9706 3 12 3C7.02944 3 3 7.02944 3 12ZM12.05 20.1C16.4959 20.1 20.1 16.4959 20.1 12.05C20.1 7.60411 16.4959 4 12.05 4C7.60411 4 4 7.60411 4 12.05C4 16.4959 7.60411 20.1 12.05 20.1ZM13.6875 11.9571C13.8866 11.9571 15.1775 13.1374 15.6027 13.9797C15.9942 14.7552 16.1085 15.1929 16.1233 15.6505C16.0933 15.6731 16.0531 15.6996 16.0039 15.7281C15.8136 15.8388 15.5328 15.9573 15.192 16.0647C14.3322 16.3356 13.2316 16.5 12 16.5C10.7684 16.5 9.6678 16.3356 8.80803 16.0647C8.46722 15.9573 8.18639 15.8388 7.99609 15.7281C7.94694 15.6996 7.9067 15.6731 7.87672 15.6505C7.89149 15.1929 8.00577 14.7552 8.39726 13.9797C8.72217 13.3361 9.20056 12.7656 9.83612 12.2667C9.99904 12.1389 10.0274 11.9031 9.89957 11.7402C9.7717 11.5773 9.53596 11.5489 9.37305 11.6768C8.65321 12.2418 8.10355 12.8973 7.72774 13.6417C7.25049 14.5871 7.125 15.1464 7.125 15.7607C7.125 16.5151 9.4569 17.25 12 17.25C14.5431 17.25 16.875 16.5151 16.875 15.7607C16.875 15.1464 16.7495 14.5871 16.2723 13.6417C15.7332 12.5738 14.2384 11.2071 13.6875 11.2071C13.5349 11.2071 13.4168 11.256 13.2645 11.3513C13.2902 11.3352 13.0489 11.4928 12.9754 11.5344C12.7117 11.6836 12.42 11.7643 12 11.7643C10.8201 11.7643 10.125 10.8255 10.125 9.075C10.125 8.13911 10.8348 7.5 12 7.5C13.1652 7.5 13.875 8.13911 13.875 9.075C13.875 9.66904 13.8122 10.1262 13.6933 10.4413C13.6202 10.6351 13.7181 10.8514 13.9118 10.9245C14.1056 10.9976 14.322 10.8998 14.3951 10.706C14.5506 10.2938 14.625 9.75185 14.625 9.075C14.625 7.70634 13.5629 6.75 12 6.75C10.4371 6.75 9.375 7.70634 9.375 9.075C9.375 11.1992 10.3487 12.5143 12 12.5143C12.5527 12.5143 12.971 12.3987 13.3449 12.1871C13.357 12.1802 13.7136 11.9571 13.6875 11.9571Z" fill="black"/>
</svg>
