<svg width="24" height="24" viewBox="0 0 24 24" fill="none" xmlns="http://www.w3.org/2000/svg">
<path fill-rule="evenodd" clip-rule="evenodd" d="M8.41603 18.2774C8.26285 18.5072 7.95241 18.5693 7.72265 18.4161C7.49289 18.2629 7.4308 17.9525 7.58397 17.7227L15.584 5.7227C15.7372 5.49294 16.0476 5.43085 16.2773 5.58403C16.5071 5.7372 16.5692 6.04764 16.416 6.2774L8.41603 18.2774ZM16 18.5001C14.6193 18.5001 13.5 17.3808 13.5 16.0001C13.5 14.6193 14.6193 13.5001 16 13.5001C17.3807 13.5001 18.5 14.6193 18.5 16.0001C18.5 17.3808 17.3807 18.5001 16 18.5001ZM17.5 16.0001C17.5 16.8285 16.8284 17.5001 16 17.5001C15.1716 17.5001 14.5 16.8285 14.5 16.0001C14.5 15.1716 15.1716 14.5001 16 14.5001C16.8284 14.5001 17.5 15.1716 17.5 16.0001ZM8 10.5001C6.61929 10.5001 5.5 9.38076 5.5 8.00005C5.5 6.61934 6.61929 5.50005 8 5.50005C9.38071 5.50005 10.5 6.61934 10.5 8.00005C10.5 9.38076 9.38071 10.5001 8 10.5001ZM9.5 8.00005C9.5 8.82848 8.82843 9.50005 8 9.50005C7.17157 9.50005 6.5 8.82848 6.5 8.00005C6.5 7.17163 7.17157 6.50005 8 6.50005C8.82843 6.50005 9.5 7.17163 9.5 8.00005Z" fill="black"/>
</svg>
