<svg width="24" height="24" viewBox="0 0 24 24" fill="none" xmlns="http://www.w3.org/2000/svg">
<path fill-rule="evenodd" clip-rule="evenodd" d="M18.6804 8.47592C18.7565 8.74137 18.603 9.01826 18.3376 9.09437C18.0721 9.17049 17.7952 9.017 17.7191 8.75156C16.6155 4.90261 12.6006 2.67711 8.75162 3.78078C7.63039 4.10229 6.62405 4.67728 5.79265 5.45738C3.82412 7.30446 3.02339 10.1068 3.78084 12.7483C4.81108 16.3412 8.40139 18.553 12.0505 17.8829C12.3221 17.833 12.5827 18.0128 12.6326 18.2844C12.6825 18.556 12.5027 18.8166 12.2311 18.8665C8.07713 19.6293 3.99198 17.1126 2.81958 13.0239C1.95777 10.0185 2.86904 6.82933 5.1084 4.72814C6.05498 3.83996 7.20115 3.18507 8.47598 2.81952C12.8558 1.56362 17.4245 4.09608 18.6804 8.47592ZM11.7915 12.33C11.7915 12.081 11.7124 11.8752 11.5542 11.7126C11.396 11.55 11.1323 11.4035 10.7632 11.2731C10.3941 11.1428 10.1069 11.0219 9.90187 10.9106C9.21924 10.5444 8.87794 10.0024 8.87794 9.28462C8.87794 8.79829 9.02589 8.39839 9.32179 8.08491C9.61769 7.77143 10.0191 7.5854 10.5259 7.5268V6.6688C10.5259 6.61357 10.5707 6.5688 10.6259 6.5688H11.129C11.1842 6.5688 11.229 6.61357 11.229 6.6688V7.53559C11.7388 7.60884 12.1328 7.8249 12.4111 8.18379C12.6664 8.51289 12.8046 8.93253 12.8257 9.44271C12.8277 9.48888 12.8293 9.58344 12.7407 9.58344H11.8474C11.7651 9.58344 11.7643 9.53514 11.7638 9.50636L11.7637 9.5001C11.752 9.17027 11.6697 8.90728 11.5169 8.71113C11.3513 8.49873 11.1265 8.39253 10.8423 8.39253C10.561 8.39253 10.3413 8.4687 10.1831 8.62104C10.0249 8.77339 9.94581 8.99165 9.94581 9.27583C9.94581 9.53071 10.0242 9.73505 10.1809 9.88886C10.3377 10.0427 10.6035 10.1884 10.9785 10.3261C11.3535 10.4638 11.648 10.5913 11.8618 10.7084C12.0757 10.8256 12.2559 10.9597 12.4024 11.1105C12.5488 11.2614 12.6616 11.435 12.7407 11.6313C12.8198 11.8276 12.8594 12.0576 12.8594 12.3212C12.8594 12.8164 12.7078 13.2177 12.4046 13.5253C12.1013 13.833 11.6787 14.0146 11.1367 14.0703V14.8272C11.1367 14.8824 11.092 14.9272 11.0367 14.9272H10.538C10.4828 14.9272 10.438 14.8824 10.438 14.8272V14.0747C9.85792 14.0102 9.41188 13.8022 9.09986 13.4506C8.80369 13.1169 8.64808 12.6802 8.63305 12.1406C8.6309 12.0632 8.68399 12.0532 8.70932 12.0532H9.60148C9.67164 12.0532 9.70012 12.0994 9.70073 12.1188C9.71124 12.4564 9.80392 12.7201 9.97877 12.9101C10.1648 13.1123 10.4277 13.2133 10.7676 13.2133C11.1016 13.2133 11.3557 13.1328 11.53 12.9716C11.7044 12.8105 11.7915 12.5966 11.7915 12.33ZM14.9986 10.4999V16.9999H13.74C13.4086 16.9999 13.14 17.2686 13.14 17.5999C13.14 17.7591 13.2032 17.9117 13.3157 18.0242L16.5743 21.2828C16.8086 21.5171 17.1885 21.5171 17.4229 21.2828L20.6814 18.0242C20.9157 17.7899 20.9157 17.41 20.6814 17.1757C20.5689 17.0632 20.4163 16.9999 20.2572 16.9999H18.9986V10.4999C18.9986 10.2238 18.7747 9.99995 18.4986 9.99995C18.2224 9.99995 17.9986 10.2238 17.9986 10.4999V17.9999H19.2915L16.9986 20.2928L14.7057 17.9999H15.9986V10.4999C15.9986 10.2238 15.7747 9.99995 15.4986 9.99995C15.2224 9.99995 14.9986 10.2238 14.9986 10.4999Z" fill="black"/>
</svg>
