<svg width="25" height="24" viewBox="0 0 25 24" fill="none" xmlns="http://www.w3.org/2000/svg">
<path d="M5.60944 4.4813C5.60944 4.26038 5.78853 4.0813 6.00944 4.0813H17.7247C19.3815 4.0813 20.7247 5.42444 20.7247 7.0813V10.0338L21.1069 9.65149C21.2631 9.49529 21.5164 9.49529 21.6726 9.6515L22.3797 10.3586C22.5359 10.5148 22.5359 10.7681 22.3797 10.9243L20.0088 13.2952C19.8526 13.4514 19.5993 13.4514 19.4431 13.2952L17.0722 10.9243C16.916 10.7681 16.916 10.5148 17.0722 10.3586L17.7793 9.6515C17.9355 9.49529 18.1888 9.49528 18.345 9.65149L18.7247 10.0312V7.0813C18.7247 6.52901 18.2769 6.0813 17.7247 6.0813H6.00944C5.78853 6.0813 5.60944 5.90221 5.60944 5.6813V4.4813Z" fill="url(#paint0_angular_1319_39848)"/>
<path d="M13.2387 16.0552V15.6046C14.2807 15.6046 15.1536 14.7035 15.1536 13.6052C15.1536 12.7041 14.5623 11.9156 13.7456 11.6621L11.7181 11.0708C11.4646 10.9863 11.2957 10.7047 11.2957 10.4231C11.2957 10.057 11.5491 9.74723 11.887 9.74723H13.1543C13.3514 9.74723 13.5203 9.80355 13.7175 9.91619C13.8864 10.0288 14.1117 10.0007 14.2525 9.85987L14.5904 9.5501C14.8157 9.35298 14.7876 9.01505 14.5341 8.84609C14.1399 8.56448 13.6893 8.42368 13.2387 8.42368V7.94495C13.2387 7.71967 13.0135 7.49438 12.7882 7.49438H12.3376C12.0842 7.49438 11.887 7.71967 11.887 7.94495V8.39552C10.8169 8.42368 9.94395 9.32482 9.94395 10.4231C9.94395 11.2961 10.5353 12.1127 11.352 12.338L13.3795 12.9575C13.633 13.042 13.8019 13.2955 13.8019 13.6052C13.8019 13.9713 13.5485 14.2529 13.2106 14.2529H11.9434C11.7462 14.2529 11.5773 14.2247 11.4083 14.1121C11.2112 13.9995 10.9859 14.0276 10.8451 14.1684L10.5072 14.4782C10.2819 14.6753 10.31 15.0132 10.5635 15.1822C10.9577 15.4356 11.4083 15.6046 11.887 15.6046V16.0552C11.887 16.3086 12.0842 16.5057 12.3376 16.5057H12.7882C13.0135 16.5057 13.2387 16.3086 13.2387 16.0552Z" fill="url(#paint1_angular_1319_39848)"/>
<path d="M6.66772 14.3272C6.82393 14.4834 7.0772 14.4834 7.23341 14.3272L7.94051 13.6201C8.09672 13.4639 8.09671 13.2106 7.9405 13.0544L5.56324 10.6772C5.40703 10.521 5.15377 10.521 4.99756 10.6772L2.62033 13.0544C2.46412 13.2107 2.46412 13.4639 2.62033 13.6201L3.32744 14.3272C3.48365 14.4834 3.73691 14.4834 3.89312 14.3272L4.28172 13.9386V16.9187C4.28172 18.5755 5.62486 19.9187 7.28171 19.9187H19.0468C19.2678 19.9187 19.4468 19.7396 19.4468 19.5187V18.3187C19.4468 18.0978 19.2678 17.9187 19.0468 17.9187H7.28171C6.72943 17.9187 6.28172 17.471 6.28172 16.9187V13.9412L6.66772 14.3272Z" fill="url(#paint2_angular_1319_39848)"/>
<defs>
<radialGradient id="paint0_angular_1319_39848" cx="0" cy="0" r="1" gradientUnits="userSpaceOnUse" gradientTransform="translate(12.5 12) rotate(90) scale(7.91869 9.99684)">
<stop stop-color="#3757D9"/>
<stop offset="1" stop-color="#9AA9EE"/>
</radialGradient>
<radialGradient id="paint1_angular_1319_39848" cx="0" cy="0" r="1" gradientUnits="userSpaceOnUse" gradientTransform="translate(12.5 12) rotate(90) scale(7.91869 9.99684)">
<stop stop-color="#3757D9"/>
<stop offset="1" stop-color="#9AA9EE"/>
</radialGradient>
<radialGradient id="paint2_angular_1319_39848" cx="0" cy="0" r="1" gradientUnits="userSpaceOnUse" gradientTransform="translate(12.5 12) rotate(90) scale(7.91869 9.99684)">
<stop stop-color="#3757D9"/>
<stop offset="1" stop-color="#9AA9EE"/>
</radialGradient>
</defs>
</svg>
