<svg width="24" height="24" viewBox="0 0 24 24" fill="none" xmlns="http://www.w3.org/2000/svg">
<path fill-rule="evenodd" clip-rule="evenodd" d="M14.9986 12.5V5.99996H13.74C13.4086 5.99996 13.14 5.73133 13.14 5.39996C13.14 5.24083 13.2032 5.08822 13.3157 4.9757L16.5743 1.71712C16.8086 1.4828 17.1885 1.4828 17.4229 1.71712L20.6814 4.9757C20.9157 5.21001 20.9157 5.58991 20.6814 5.82422C20.5689 5.93675 20.4163 5.99996 20.2572 5.99996H18.9986V12.5C18.9986 12.7761 18.7747 13 18.4986 13C18.2224 13 17.9986 12.7761 17.9986 12.5V4.99996H19.2915L16.9986 2.70707L14.7057 4.99996H15.9986V12.5C15.9986 12.7761 15.7747 13 15.4986 13C15.2224 13 14.9986 12.7761 14.9986 12.5ZM18.6804 14.524C18.7565 14.2585 18.603 13.9817 18.3376 13.9055C18.0721 13.8294 17.7952 13.9829 17.7191 14.2483C16.6155 18.0973 12.6006 20.3228 8.75162 19.2191C7.63039 18.8976 6.62405 18.3226 5.79265 17.5425C3.82412 15.6954 3.02339 12.8932 3.78084 10.2516C4.81108 6.65873 8.40139 4.44686 12.0505 5.117C12.3221 5.16688 12.5827 4.98714 12.6326 4.71554C12.6825 4.44394 12.5027 4.18333 12.2311 4.13345C8.07713 3.37059 3.99198 5.88732 2.81958 9.97597C1.95777 12.9814 2.86904 16.1706 5.1084 18.2718C6.05498 19.1599 7.20115 19.8148 8.47598 20.1804C12.8558 21.4363 17.4245 18.9038 18.6804 14.524ZM11.7885 13.7612C11.7885 13.5122 11.7094 13.3064 11.5512 13.1438C11.393 12.9812 11.1294 12.8347 10.7602 12.7043C10.3911 12.5739 10.104 12.4531 9.89889 12.3418C9.21627 11.9755 8.87496 11.4336 8.87496 10.7158C8.87496 10.2294 9.02291 9.82955 9.31881 9.51607C9.61471 9.2026 10.0161 9.01656 10.5229 8.95797V8.09996C10.5229 8.04473 10.5677 7.99996 10.6229 7.99996H11.126C11.1813 7.99996 11.226 8.04473 11.226 8.09996V8.96676C11.7358 9.04 12.1298 9.25606 12.4082 9.61495C12.6634 9.94405 12.8016 10.3637 12.8228 10.8739C12.8247 10.92 12.8263 11.0146 12.7378 11.0146H11.8444C11.7621 11.0146 11.7613 10.9663 11.7609 10.9375L11.7607 10.9313C11.749 10.6014 11.6667 10.3384 11.5139 10.1423C11.3483 9.92989 11.1235 9.82369 10.8393 9.82369C10.5581 9.82369 10.3383 9.89986 10.1801 10.0522C10.0219 10.2045 9.94283 10.4228 9.94283 10.707C9.94283 10.9619 10.0212 11.1662 10.1779 11.32C10.3347 11.4738 10.6005 11.6196 10.9755 11.7573C11.3505 11.895 11.645 12.0224 11.8588 12.1396C12.0727 12.2568 12.2529 12.3908 12.3994 12.5417C12.5459 12.6926 12.6587 12.8662 12.7378 13.0625C12.8169 13.2587 12.8564 13.4887 12.8564 13.7524C12.8564 14.2475 12.7048 14.6489 12.4016 14.9565C12.0983 15.2641 11.6757 15.4458 11.1338 15.5014V16.2584C11.1338 16.3136 11.089 16.3584 11.0338 16.3584H10.535C10.4798 16.3584 10.435 16.3136 10.435 16.2584V15.5058C9.85494 15.4414 9.4089 15.2334 9.09689 14.8818C8.80071 14.5481 8.64511 14.1114 8.63007 13.5718C8.62792 13.4944 8.68101 13.4843 8.70635 13.4843H9.5985C9.66866 13.4843 9.69714 13.5305 9.69775 13.55C9.70826 13.8875 9.80094 14.1513 9.97579 14.3413C10.1618 14.5434 10.4248 14.6445 10.7646 14.6445C11.0986 14.6445 11.3527 14.5639 11.5271 14.4028C11.7014 14.2417 11.7885 14.0278 11.7885 13.7612Z" fill="black"/>
</svg>
