<svg width="12" height="22" viewBox="0 0 12 22" fill="none" xmlns="http://www.w3.org/2000/svg">
<path d="M5.47665 19.6364H6.52495V18.2109C9.20961 18.0256 10.7181 16.4403 10.7181 14.446C10.7181 11.9915 8.39142 11.1989 7.03631 10.8409L6.52495 10.7003V6.15554C7.88006 6.28977 8.86444 7.01847 9.00506 8.18182H10.5392C10.4752 6.31534 8.83887 4.89631 6.52495 4.7429V3.27273H5.47665V4.76207C3.28418 4.9858 1.64142 6.37926 1.64142 8.38636C1.64142 10.1506 2.91983 11.1989 4.96529 11.7869L5.47665 11.9339V16.7727C4.13432 16.6321 3.03489 15.9418 2.91983 14.625H1.28347C1.43049 16.6385 2.96458 18.0447 5.47665 18.2109V19.6364ZM6.52495 16.7727V12.2344L6.57608 12.2472C7.95677 12.6307 9.18404 13.1165 9.18404 14.4205C9.18404 15.7053 8.07182 16.6001 6.52495 16.7727ZM5.47665 10.419C4.50506 10.1442 3.17552 9.60724 3.17552 8.30966C3.17552 7.20384 4.0704 6.36009 5.47665 6.17472V10.419Z" fill="black"/>
</svg>
