<svg width="24" height="24" viewBox="0 0 24 24" fill="none" xmlns="http://www.w3.org/2000/svg">
<path fill-rule="evenodd" clip-rule="evenodd" d="M17.9497 6.05021C17.7154 5.8159 17.3355 5.8159 17.1012 6.05021L12 11.1514L6.89878 6.05021C6.66447 5.8159 6.28457 5.8159 6.05025 6.05021C5.81594 6.28453 5.81594 6.66442 6.05025 6.89874L11.1515 12L6.05025 17.1012C5.81594 17.3355 5.81594 17.7154 6.05025 17.9497C6.28457 18.184 6.66447 18.184 6.89878 17.9497L12 12.8485L17.1012 17.9497C17.3355 18.184 17.7154 18.184 17.9497 17.9497C18.1841 17.7154 18.1841 17.3355 17.9497 17.1012L12.8485 12L17.9497 6.89874C18.1841 6.66442 18.1841 6.28453 17.9497 6.05021Z" fill="black"/>
</svg>
