<svg width="24" height="24" viewBox="0 0 24 24" fill="none" xmlns="http://www.w3.org/2000/svg">
<path fill-rule="evenodd" clip-rule="evenodd" d="M3.5 11.6719C3.22386 11.6719 3 11.8958 3 12.1719V16.6C3 17.3732 3.6268 18 4.4 18H19.6C20.3732 18 21 17.3732 21 16.6V7.4C21 6.6268 20.3732 6 19.6 6H4.4C3.6268 6 3 6.6268 3 7.4V10.5C3 10.7761 3.22386 11 3.5 11H18.9C19.1761 11 19.4 10.7761 19.4 10.5C19.4 10.2239 19.1761 10 18.9 10H4V7.4C4 7.17909 4.17909 7 4.4 7H19.6C19.8209 7 20 7.17909 20 7.4V16.6C20 16.8209 19.8209 17 19.6 17H4.4C4.17909 17 4 16.8209 4 16.6V12.1719C4 11.8958 3.77614 11.6719 3.5 11.6719ZM4.5 13.5C4.5 13.7761 4.72386 14 5 14H12C12.2761 14 12.5 13.7761 12.5 13.5C12.5 13.2239 12.2761 13 12 13H5C4.72386 13 4.5 13.2239 4.5 13.5Z" fill="black"/>
</svg>
