<svg width="24" height="24" viewBox="0 0 24 24" fill="none" xmlns="http://www.w3.org/2000/svg">
<path fill-rule="evenodd" clip-rule="evenodd" d="M21 6.5C21 6.22386 20.7761 6 20.5 6H5.5C5.22386 6 5 6.22386 5 6.5V7C5 7.27614 4.77614 7.5 4.5 7.5C4.22386 7.5 4 7.27614 4 7V6.5C4 5.67157 4.67157 5 5.5 5H20.5C21.3284 5 22 5.67157 22 6.5V14.1C22 14.5971 21.5971 15 21.1 15H19.9C19.4029 15 19 14.5971 19 14.1V9.5C19 9.22386 18.7761 9 18.5 9H3.5C3.22386 9 3 9.22386 3 9.5V17.5C3 17.7761 3.22386 18 3.5 18H18.5C18.7761 18 19 17.7761 19 17.5V16C19 15.7239 19.2239 15.5 19.5 15.5C19.7761 15.5 20 15.7239 20 16V17.5C20 18.3284 19.3284 19 18.5 19H3.5C2.67157 19 2 18.3284 2 17.5V9.5C2 8.67157 2.67157 8 3.5 8H18.5C19.3284 8 20 8.67157 20 9.5V14H21V6.5ZM11 15C11.8284 15 12.5 14.3284 12.5 13.5C12.5 12.6716 11.8284 12 11 12C10.1716 12 9.5 12.6716 9.5 13.5C9.5 14.3284 10.1716 15 11 15ZM11 16C9.61929 16 8.5 14.8807 8.5 13.5C8.5 12.1193 9.61929 11 11 11C12.3807 11 13.5 12.1193 13.5 13.5C13.5 14.8807 12.3807 16 11 16ZM5.4 16.3C5.4 16.6866 5.0866 17 4.7 17C4.3134 17 4 16.6866 4 16.3C4 15.9134 4.3134 15.6 4.7 15.6C5.0866 15.6 5.4 15.9134 5.4 16.3ZM17.3 11.4C17.6866 11.4 18 11.0866 18 10.7C18 10.3134 17.6866 10 17.3 10C16.9134 10 16.6 10.3134 16.6 10.7C16.6 11.0866 16.9134 11.4 17.3 11.4Z" fill="black"/>
</svg>
