<svg width="24" height="24" viewBox="0 0 24 24" fill="none" xmlns="http://www.w3.org/2000/svg">
<path d="M12.9818 5.77204H17.4818V3.99473C17.4818 3.90844 17.5837 3.86266 17.6482 3.91999L21.8977 7.6973C21.9425 7.73708 21.9425 7.807 21.8977 7.84678L17.6482 11.6241C17.5837 11.6814 17.4818 11.6356 17.4818 11.5494V9.77204H13.0818C13.0266 9.77204 12.9818 9.72727 12.9818 9.67204V7.99473C12.9818 7.90844 12.8798 7.86266 12.8154 7.91999L8.56588 11.6973C8.52113 11.7371 8.52113 11.807 8.56588 11.8468L12.8154 15.6241C12.8798 15.6814 12.9818 15.6356 12.9818 15.5494V13.772H19.9818M5.4818 11.772H3.0818C3.02657 11.772 2.9818 11.7273 2.9818 11.672V8.77204C2.9818 8.21976 3.42951 7.77204 3.9818 7.77204H8.9818M2.9818 13.272V17.772C2.9818 18.3243 3.42951 18.772 3.9818 18.772H18.9818C19.5341 18.772 19.9818 18.3243 19.9818 17.772V15.772" stroke="black" stroke-linecap="round"/>
</svg>
