<svg width="24" height="24" viewBox="0 0 24 24" fill="none" xmlns="http://www.w3.org/2000/svg">
<path fill-rule="evenodd" clip-rule="evenodd" d="M23.3598 0.109835C23.5063 -0.0366116 23.7437 -0.0366116 23.8902 0.109835C24.0366 0.256282 24.0366 0.493718 23.8902 0.640165L22.2803 2.25H23.625C23.8321 2.25 24 2.41789 24 2.625C24 2.83211 23.8321 3 23.625 3H21.3753H21.3747H21V2.62508V2.62492V0.375C21 0.167893 21.1679 0 21.375 0C21.5821 0 21.75 0.167893 21.75 0.375V1.71967L23.3598 0.109835ZM20.5 6C20.7761 6 21 6.22386 21 6.5V14H20V9.5C20 8.67157 19.3284 8 18.5 8H3.5C2.67157 8 2 8.67157 2 9.5V17.5C2 18.3284 2.67157 19 3.5 19H18.5C19.3284 19 20 18.3284 20 17.5V16C20 15.7239 19.7761 15.5 19.5 15.5C19.2239 15.5 19 15.7239 19 16V17.5C19 17.7761 18.7761 18 18.5 18H3.5C3.22386 18 3 17.7761 3 17.5V9.5C3 9.22386 3.22386 9 3.5 9H18.5C18.7761 9 19 9.22386 19 9.5V14.1C19 14.5971 19.4029 15 19.9 15H21.1C21.5971 15 22 14.5971 22 14.1V6.5C22 5.67157 21.3284 5 20.5 5H5.5C4.67157 5 4 5.67157 4 6.5V7C4 7.27614 4.22386 7.5 4.5 7.5C4.77614 7.5 5 7.27614 5 7V6.5C5 6.22386 5.22386 6 5.5 6H20.5ZM12.5 13.5C12.5 14.3284 11.8284 15 11 15C10.1716 15 9.5 14.3284 9.5 13.5C9.5 12.6716 10.1716 12 11 12C11.8284 12 12.5 12.6716 12.5 13.5ZM8.5 13.5C8.5 14.8807 9.61929 16 11 16C12.3807 16 13.5 14.8807 13.5 13.5C13.5 12.1193 12.3807 11 11 11C9.61929 11 8.5 12.1193 8.5 13.5ZM5.4 16.3C5.4 16.6866 5.0866 17 4.7 17C4.3134 17 4 16.6866 4 16.3C4 15.9134 4.3134 15.6 4.7 15.6C5.0866 15.6 5.4 15.9134 5.4 16.3ZM17.3 11.4C17.6866 11.4 18 11.0866 18 10.7C18 10.3134 17.6866 10 17.3 10C16.9134 10 16.6 10.3134 16.6 10.7C16.6 11.0866 16.9134 11.4 17.3 11.4Z" fill="black"/>
</svg>
