<svg width="24" height="24" viewBox="0 0 24 24" fill="none" xmlns="http://www.w3.org/2000/svg">
<path fill-rule="evenodd" clip-rule="evenodd" d="M15.3139 13.7842C15.1303 13.5779 14.8142 13.5595 14.608 13.7431L13.6922 14.5581C12.4932 13.9859 11.4983 13.2591 10.7037 12.3776C9.92899 11.518 9.35731 10.6686 8.98617 9.83048L10.2312 8.61189C10.7949 8.06022 10.887 7.18581 10.4506 6.52882C10.1514 6.07836 9.8052 5.64547 9.4124 5.23019C8.77576 4.55712 8.10089 3.99104 7.38783 3.53289C7.1555 3.38363 6.84616 3.45096 6.6969 3.68328C6.54763 3.9156 6.61496 4.22494 6.84728 4.37421C7.49065 4.78758 8.10352 5.30165 8.6859 5.91736C9.04002 6.29175 9.35048 6.67999 9.6176 7.08212C9.78836 7.3392 9.75233 7.68135 9.53177 7.89722L8.09922 9.29931C7.92197 9.47279 7.86639 9.73583 7.95853 9.96627C8.37007 10.9974 9.03863 12.0238 9.96091 13.0471C10.9003 14.0893 12.0836 14.9318 13.5066 15.5744C13.7276 15.6742 13.9867 15.6347 14.1679 15.4735L15.2728 14.4901C15.4791 14.3065 15.4975 13.9905 15.3139 13.7842ZM6.03647 4.47892C5.87133 4.25759 5.55805 4.21204 5.33672 4.37718C4.03018 5.35202 3.39449 6.36604 3.5139 7.42596C3.5534 7.77661 3.59291 8.0424 3.67952 8.44356C3.80953 9.04573 4.00024 9.68493 4.26606 10.3565C4.98714 12.1784 6.15101 13.9758 7.85681 15.657C10.5723 18.3333 13.8221 20.137 15.6546 20.137C16.6917 20.137 17.9361 19.3467 19.4567 17.7992C20.0415 17.2042 20.0874 16.2653 19.5634 15.616C19.2567 15.2359 18.9253 14.8646 18.5695 14.5021C17.9575 13.8787 17.3313 13.3408 16.6907 12.8888C16.465 12.7296 16.1531 12.7835 15.9939 13.0091C15.8347 13.2348 15.8885 13.5467 16.1142 13.7059C16.7042 14.1222 17.2848 14.621 17.8559 15.2026C18.1893 15.5422 18.499 15.8894 18.7852 16.244C18.9903 16.4981 18.9723 16.8654 18.7435 17.0983C17.397 18.4685 16.3444 19.137 15.6546 19.137C14.1367 19.137 11.1051 17.4544 8.55876 14.9448C6.95461 13.3638 5.86697 11.684 5.19588 9.98852C4.95084 9.36942 4.77577 8.78262 4.657 8.23252C4.57874 7.87004 4.54369 7.63424 4.50761 7.31401C4.43586 6.67706 4.88348 5.96303 5.93473 5.17867C6.15606 5.01353 6.20161 4.70024 6.03647 4.47892Z" fill="black"/>
</svg>
