<svg width="24" height="24" viewBox="0 0 24 24" fill="none" xmlns="http://www.w3.org/2000/svg">
<path fill-rule="evenodd" clip-rule="evenodd" d="M16.5 5C16.7761 5 17 5.22386 17 5.5V18L16.4692 17.2922C16.2704 17.0271 15.8943 16.9734 15.6292 17.1722C15.6125 17.1854 15.6041 17.192 15.5961 17.199C15.588 17.2059 15.5803 17.2133 15.5649 17.228L14 18.7929L12.4243 17.2172C12.1899 16.9828 11.8101 16.9828 11.5757 17.2172L10 18.7929L8.43508 17.228C8.20077 16.9937 7.82087 16.9937 7.58656 17.228C7.57186 17.2434 7.56451 17.2511 7.55755 17.2591C7.55058 17.2672 7.54399 17.2755 7.53082 17.2922L7 18V8.5C7 8.22386 6.77614 8 6.5 8C6.22386 8 6 8.22386 6 8.5V19.2C6 19.3889 6.08892 19.5667 6.24 19.68C6.5051 19.8788 6.88118 19.8251 7.08 19.56L8.0541 18.2612L9.57574 19.7828C9.81005 20.0172 10.1899 20.0172 10.4243 19.7828L12 18.2071L13.5757 19.7828C13.8101 20.0172 14.1899 20.0172 14.4243 19.7828L15.9459 18.2612L16.92 19.56C17.0333 19.7111 17.2111 19.8 17.4 19.8C17.7314 19.8 18 19.5314 18 19.2V5.5C18 4.67157 17.3284 4 16.5 4H7.5C6.67157 4 6 4.67157 6 5.5V6.5C6 6.77614 6.22386 7 6.5 7C6.77614 7 7 6.77614 7 6.5V5.5C7 5.22386 7.22386 5 7.5 5H16.5ZM9.5 8C9.22386 8 9 8.22386 9 8.5C9 8.77614 9.22386 9 9.5 9H14.5C14.7761 9 15 8.77614 15 8.5C15 8.22386 14.7761 8 14.5 8H9.5ZM9.5 10C9.22386 10 9 10.2239 9 10.5C9 10.7761 9.22386 11 9.5 11H14.5C14.7761 11 15 10.7761 15 10.5C15 10.2239 14.7761 10 14.5 10H9.5ZM9 12.5C9 12.2239 9.22386 12 9.5 12H12.5C12.7761 12 13 12.2239 13 12.5C13 12.7761 12.7761 13 12.5 13H9.5C9.22386 13 9 12.7761 9 12.5Z" fill="black"/>
</svg>
