<svg width="24" height="24" viewBox="0 0 24 24" fill="none" xmlns="http://www.w3.org/2000/svg">
<path fill-rule="evenodd" clip-rule="evenodd" d="M12.4999 11.5001H16.4999C16.7761 11.5001 16.9999 11.724 16.9999 12.0001C16.9999 12.2763 16.7761 12.5001 16.4999 12.5001H11.4999V4.01853L11.5205 4.01423L11.4999 4.01547C7.298 4.2743 3.99994 7.76663 3.99994 12.0001C3.99994 16.4184 7.58166 20.0001 11.9999 20.0001C16.4182 20.0001 19.9999 16.4184 19.9999 12.0001C19.9999 8.01671 17.6803 5.27904 13.9303 4.13487C13.6661 4.05428 13.5174 3.77484 13.5979 3.51072C13.6785 3.24659 13.958 3.09781 14.2221 3.1784C18.3699 4.44395 20.9999 7.54791 20.9999 12.0001C20.9999 16.9707 16.9705 21.0001 11.9999 21.0001C7.02938 21.0001 2.99994 16.9707 2.99994 12.0001C2.99994 7.22385 6.73103 3.28647 11.4784 3.01499C11.9693 2.98692 12.4999 3.41101 12.4999 4.0074V11.5001Z" fill="black"/>
</svg>
