<svg width="24" height="24" viewBox="0 0 24 24" fill="none" xmlns="http://www.w3.org/2000/svg">
<path fill-rule="evenodd" clip-rule="evenodd" d="M4.78373 4.5C4.78373 4.77614 5.00759 5 5.28373 5H17.7348C18.0109 5 18.2348 5.22386 18.2348 5.5V11.0666L17.3147 10.1464C17.1194 9.95118 16.8028 9.95118 16.6076 10.1464C16.4123 10.3417 16.4123 10.6583 16.6076 10.8536L18.7348 12.9808L20.862 10.8536C21.0573 10.6583 21.0573 10.3417 20.862 10.1464C20.6667 9.95118 20.3502 9.95118 20.1549 10.1464L19.2348 11.0666V5.5C19.2348 4.67157 18.5632 4 17.7348 4H5.28373C5.00759 4 4.78373 4.22386 4.78373 4.5ZM11.6552 11.1845C11.4258 11.0764 11.3047 10.9205 11.3047 10.6254C11.3047 10.5165 11.3138 10.4424 11.3552 10.3497C11.4578 10.1192 11.7028 9.99223 12.0903 9.99223C12.3263 9.99223 12.47 10.0263 12.6967 10.1102L12.7538 10.1279L12.7909 10.1396C12.9365 10.186 13.001 10.2004 13.0918 10.2004C13.4044 10.2004 13.6281 9.99382 13.6281 9.72028C13.6281 9.41731 13.3074 9.18135 12.6515 9.0744L12.4837 9.04703V8.48149C12.4837 8.21615 12.2676 8 12.0023 8C11.737 8 11.5208 8.21614 11.5208 8.48149V9.06876L11.3741 9.10929C10.6341 9.31364 10.208 9.87748 10.208 10.6574C10.208 11.6055 10.6297 11.9348 11.8257 12.3006C12.0724 12.3831 12.2589 12.452 12.4126 12.5178C12.6379 12.6179 12.7557 12.7781 12.7557 13.085C12.7557 13.5202 12.5051 13.7986 11.8979 13.7986C11.6668 13.7986 11.4722 13.76 11.2367 13.6837L11.1864 13.6671L11.1424 13.6524L11.0963 13.6368C10.9103 13.5684 10.8037 13.5421 10.7042 13.5421C10.4314 13.5421 10.2 13.7657 10.2 14.0225C10.2 14.3727 10.6759 14.6141 11.3523 14.7219L11.5208 14.7488V15.3679C11.5208 15.6333 11.737 15.8494 12.0023 15.8494C12.2676 15.8494 12.4837 15.6332 12.4837 15.3679V14.7081L12.6272 14.6659C13.4095 14.4355 13.8604 13.8402 13.8604 13.0369C13.8604 12.1128 13.4364 11.7824 12.2321 11.4012C12.016 11.342 11.8319 11.2728 11.6552 11.1845ZM18.8653 18.9656C19.1414 18.9656 19.3653 19.1895 19.3653 19.4656C19.3653 19.7417 19.1414 19.9656 18.8653 19.9656H6.27367C5.44524 19.9656 4.77367 19.294 4.77367 18.4656V12.9142L3.85355 13.8343C3.65829 14.0296 3.34171 14.0296 3.14645 13.8343C2.95118 13.6391 2.95118 13.3225 3.14645 13.1272L5.27367 11L7.40089 13.1272C7.59616 13.3225 7.59616 13.6391 7.40089 13.8343C7.20563 14.0296 6.88905 14.0296 6.69379 13.8343L5.77367 12.9142V18.4656C5.77367 18.7417 5.99753 18.9656 6.27367 18.9656H18.8653Z" fill="black"/>
</svg>
