<svg width="24" height="24" viewBox="0 0 24 24" fill="none" xmlns="http://www.w3.org/2000/svg">
<path fill-rule="evenodd" clip-rule="evenodd" d="M5.28982 7.60836C5.31419 7.63272 5.34378 7.64491 5.37859 7.64491H6.08877C6.12359 7.64491 6.15318 7.63272 6.17755 7.60836C6.20191 7.58399 6.2141 7.5544 6.2141 7.51958V6.77807C6.2141 6.75718 6.22106 6.74325 6.23499 6.73629C6.24891 6.72933 6.26284 6.73281 6.27676 6.74674L6.91384 7.1436C6.94865 7.16449 6.98172 7.17145 7.01305 7.16449C7.04439 7.15753 7.0705 7.13664 7.09138 7.10183L7.44648 6.42298C7.48129 6.35335 7.46736 6.29765 7.4047 6.25587L6.69452 5.85901C6.68059 5.84508 6.67363 5.83116 6.67363 5.81723C6.67363 5.80331 6.68059 5.79286 6.69452 5.7859L7.4047 5.39948C7.44648 5.36466 7.46736 5.32985 7.46736 5.29504C7.46736 5.28808 7.4604 5.26371 7.44648 5.22193L7.09138 4.55352C7.06353 4.50479 7.02524 4.48042 6.9765 4.48042C6.96258 4.48042 6.94169 4.48738 6.91384 4.50131L6.27676 4.89817C6.26284 4.9121 6.24891 4.91558 6.23499 4.90862C6.22106 4.90165 6.2141 4.88773 6.2141 4.86684V4.12533C6.2141 4.09051 6.20191 4.06092 6.17755 4.03655C6.15318 4.01218 6.12359 4 6.08877 4H5.37859C5.34378 4 5.31419 4.01218 5.28982 4.03655C5.26545 4.06092 5.25326 4.09051 5.25326 4.12533L5.26371 4.86684C5.26371 4.88773 5.25674 4.90165 5.24282 4.90862C5.22889 4.91558 5.21497 4.9121 5.20104 4.89817L4.55352 4.50131C4.51871 4.48042 4.48564 4.4752 4.45431 4.48564C4.42298 4.49608 4.39687 4.51871 4.37598 4.55352L4.02089 5.22193C3.98607 5.29852 4.00348 5.3577 4.07311 5.39948L4.78329 5.7859C4.8181 5.80679 4.8181 5.82768 4.78329 5.84856L4.06266 6.25587C4.02089 6.28373 4 6.31854 4 6.36031C4 6.37424 4.00696 6.39513 4.02089 6.42298L4.37598 7.06005C4.41079 7.10879 4.4456 7.13316 4.48042 7.13316C4.49434 7.13316 4.51523 7.1262 4.54308 7.11227L5.20104 6.73629C5.21497 6.72237 5.22889 6.72063 5.24282 6.73107C5.25674 6.74151 5.26371 6.75718 5.26371 6.77807L5.25326 7.51958C5.25326 7.5544 5.26545 7.58399 5.28982 7.60836ZM3 18V11H2.5C2.22386 11 2 11.2239 2 11.5V13.7276C2 13.8781 2.12194 14 2.27237 14V15C1.56966 15 1 14.4303 1 13.7276V11.5C1 10.6716 1.67157 10 2.5 10H21.5C22.3284 10 23 10.6716 23 11.5V13.7424C23 14.437 22.437 15 21.7424 15V14C21.8847 14 22 13.8847 22 13.7424V11.5C22 11.2239 21.7761 11 21.5 11H21V14.6C21 14.9975 20.7261 15.1922 20.5 15.1922C20.2739 15.1922 20 15.0477 20 14.6V11H18.971C18.9899 11.0634 19 11.1305 19 11.2C19 11.5866 18.6866 11.9 18.3 11.9C17.9134 11.9 17.6 11.5866 17.6 11.2C17.6 11.1305 17.6101 11.0634 17.629 11H4V18C4 18.2761 4.22386 18.5 4.5 18.5H19.5C19.7761 18.5 20 18.2761 20 18V16.5C20 16.2239 20.2239 16 20.5 16C20.7761 16 21 16.2239 21 16.5V18C21 18.8284 20.3284 19.5 19.5 19.5H4.5C3.67157 19.5 3 18.8284 3 18ZM12 15.5C12.8284 15.5 13.5 14.8284 13.5 14C13.5 13.1716 12.8284 12.5 12 12.5C11.1716 12.5 10.5 13.1716 10.5 14C10.5 14.8284 11.1716 15.5 12 15.5ZM9.5 14C9.5 15.3807 10.6193 16.5 12 16.5C13.3807 16.5 14.5 15.3807 14.5 14C14.5 12.6193 13.3807 11.5 12 11.5C10.6193 11.5 9.5 12.6193 9.5 14ZM6.4 16.8C6.4 17.1866 6.0866 17.5 5.7 17.5C5.3134 17.5 5 17.1866 5 16.8C5 16.4134 5.3134 16.1 5.7 16.1C6.0866 16.1 6.4 16.4134 6.4 16.8ZM9.46736 7.60836C9.49173 7.63272 9.52132 7.64491 9.55614 7.64491H10.2663C10.3011 7.64491 10.3307 7.63272 10.3551 7.60836C10.3795 7.58399 10.3916 7.5544 10.3916 7.51958V6.77807C10.3916 6.75718 10.3986 6.74325 10.4125 6.73629C10.4265 6.72933 10.4404 6.73281 10.4543 6.74674L11.0914 7.1436C11.1262 7.16449 11.1593 7.17145 11.1906 7.16449C11.2219 7.15753 11.248 7.13664 11.2689 7.10183L11.624 6.42298C11.6588 6.35335 11.6449 6.29765 11.5822 6.25587L10.8721 5.85901C10.8581 5.84508 10.8512 5.83116 10.8512 5.81723C10.8512 5.80331 10.8581 5.79286 10.8721 5.7859L11.5822 5.39948C11.624 5.36466 11.6449 5.32985 11.6449 5.29504C11.6449 5.28808 11.6379 5.26371 11.624 5.22193L11.2689 4.55352C11.2411 4.50479 11.2028 4.48042 11.154 4.48042C11.1401 4.48042 11.1192 4.48738 11.0914 4.50131L10.4543 4.89817C10.4404 4.9121 10.4265 4.91558 10.4125 4.90862C10.3986 4.90165 10.3916 4.88773 10.3916 4.86684V4.12533C10.3916 4.09051 10.3795 4.06092 10.3551 4.03655C10.3307 4.01218 10.3011 4 10.2663 4H9.55614C9.52132 4 9.49173 4.01218 9.46736 4.03655C9.44299 4.06092 9.43081 4.09051 9.43081 4.12533L9.44125 4.86684C9.44125 4.88773 9.43429 4.90165 9.42037 4.90862C9.40644 4.91558 9.39252 4.9121 9.37859 4.89817L8.73107 4.50131C8.69626 4.48042 8.66319 4.4752 8.63185 4.48564C8.60052 4.49608 8.57441 4.51871 8.55352 4.55352L8.19843 5.22193C8.16362 5.29852 8.18103 5.3577 8.25065 5.39948L8.96084 5.7859C8.99565 5.80679 8.99565 5.82768 8.96084 5.84856L8.24021 6.25587C8.19843 6.28373 8.17755 6.31854 8.17755 6.36031C8.17755 6.37424 8.18451 6.39513 8.19843 6.42298L8.55352 7.06005C8.58834 7.10879 8.62315 7.13316 8.65796 7.13316C8.67189 7.13316 8.69278 7.1262 8.72063 7.11227L9.37859 6.73629C9.39252 6.72237 9.40644 6.72063 9.42037 6.73107C9.43429 6.74151 9.44125 6.75718 9.44125 6.77807L9.43081 7.51958C9.43081 7.5544 9.44299 7.58399 9.46736 7.60836ZM13.7337 7.64491C13.6989 7.64491 13.6693 7.63272 13.6449 7.60836C13.6205 7.58399 13.6084 7.5544 13.6084 7.51958L13.6188 6.77807C13.6188 6.75718 13.6118 6.74151 13.5979 6.73107C13.584 6.72063 13.5701 6.72237 13.5561 6.73629L12.8982 7.11227C12.8703 7.1262 12.8494 7.13316 12.8355 7.13316C12.8007 7.13316 12.7659 7.10879 12.7311 7.06005L12.376 6.42298C12.3621 6.39513 12.3551 6.37424 12.3551 6.36031C12.3551 6.31854 12.376 6.28373 12.4178 6.25587L13.1384 5.84856C13.1732 5.82768 13.1732 5.80679 13.1384 5.7859L12.4282 5.39948C12.3586 5.3577 12.3412 5.29852 12.376 5.22193L12.7311 4.55352C12.752 4.51871 12.7781 4.49608 12.8094 4.48564C12.8407 4.4752 12.8738 4.48042 12.9086 4.50131L13.5561 4.89817C13.5701 4.9121 13.584 4.91558 13.5979 4.90862C13.6118 4.90165 13.6188 4.88773 13.6188 4.86684L13.6084 4.12533C13.6084 4.09051 13.6205 4.06092 13.6449 4.03655C13.6693 4.01218 13.6989 4 13.7337 4H14.4439C14.4787 4 14.5083 4.01218 14.5326 4.03655C14.557 4.06092 14.5692 4.09051 14.5692 4.12533V4.86684C14.5692 4.88773 14.5762 4.90165 14.5901 4.90862C14.604 4.91558 14.6179 4.9121 14.6319 4.89817L15.2689 4.50131C15.2968 4.48738 15.3177 4.48042 15.3316 4.48042C15.3803 4.48042 15.4186 4.50479 15.4465 4.55352L15.8016 5.22193C15.8155 5.26371 15.8225 5.28808 15.8225 5.29504C15.8225 5.32985 15.8016 5.36466 15.7598 5.39948L15.0496 5.7859C15.0357 5.79286 15.0287 5.80331 15.0287 5.81723C15.0287 5.83116 15.0357 5.84508 15.0496 5.85901L15.7598 6.25587C15.8225 6.29765 15.8364 6.35335 15.8016 6.42298L15.4465 7.10183C15.4256 7.13664 15.3995 7.15753 15.3681 7.16449C15.3368 7.17145 15.3037 7.16449 15.2689 7.1436L14.6319 6.74674C14.6179 6.73281 14.604 6.72933 14.5901 6.73629C14.5762 6.74325 14.5692 6.75718 14.5692 6.77807V7.51958C14.5692 7.5544 14.557 7.58399 14.5326 7.60836C14.5083 7.63272 14.4787 7.64491 14.4439 7.64491H13.7337ZM17.8225 7.60836C17.8468 7.63272 17.8764 7.64491 17.9112 7.64491H18.6214C18.6562 7.64491 18.6858 7.63272 18.7102 7.60836C18.7346 7.58399 18.7467 7.5544 18.7467 7.51958V6.77807C18.7467 6.75718 18.7537 6.74325 18.7676 6.73629C18.7815 6.72933 18.7955 6.73281 18.8094 6.74674L19.4465 7.1436C19.4813 7.16449 19.5144 7.17145 19.5457 7.16449C19.577 7.15753 19.6031 7.13664 19.624 7.10183L19.9791 6.42298C20.0139 6.35335 20 6.29765 19.9373 6.25587L19.2272 5.85901C19.2132 5.84508 19.2063 5.83116 19.2063 5.81723C19.2063 5.80331 19.2132 5.79286 19.2272 5.7859L19.9373 5.39948C19.9791 5.36466 20 5.32985 20 5.29504C20 5.28808 19.993 5.26371 19.9791 5.22193L19.624 4.55352C19.5962 4.50479 19.5579 4.48042 19.5091 4.48042C19.4952 4.48042 19.4743 4.48738 19.4465 4.50131L18.8094 4.89817C18.7955 4.9121 18.7815 4.91558 18.7676 4.90862C18.7537 4.90165 18.7467 4.88773 18.7467 4.86684V4.12533C18.7467 4.09051 18.7346 4.06092 18.7102 4.03655C18.6858 4.01218 18.6562 4 18.6214 4H17.9112C17.8764 4 17.8468 4.01218 17.8225 4.03655C17.7981 4.06092 17.7859 4.09051 17.7859 4.12533L17.7963 4.86684C17.7963 4.88773 17.7894 4.90165 17.7755 4.90862C17.7615 4.91558 17.7476 4.9121 17.7337 4.89817L17.0862 4.50131C17.0513 4.48042 17.0183 4.4752 16.9869 4.48564C16.9556 4.49608 16.9295 4.51871 16.9086 4.55352L16.5535 5.22193C16.5187 5.29852 16.5361 5.3577 16.6057 5.39948L17.3159 5.7859C17.3507 5.80679 17.3507 5.82768 17.3159 5.84856L16.5953 6.25587C16.5535 6.28373 16.5326 6.31854 16.5326 6.36031C16.5326 6.37424 16.5396 6.39513 16.5535 6.42298L16.9086 7.06005C16.9434 7.10879 16.9782 7.13316 17.0131 7.13316C17.027 7.13316 17.0479 7.1262 17.0757 7.11227L17.7337 6.73629C17.7476 6.72237 17.7615 6.72063 17.7755 6.73107C17.7894 6.74151 17.7963 6.75718 17.7963 6.77807L17.7859 7.51958C17.7859 7.5544 17.7981 7.58399 17.8225 7.60836Z" fill="black"/>
</svg>
