<svg width="24" height="24" viewBox="0 0 24 24" fill="none" xmlns="http://www.w3.org/2000/svg">
<path fill-rule="evenodd" clip-rule="evenodd" d="M8 18.8V18H16V18.8C16 18.9105 16.0895 19 16.2 19H16.8C16.9105 19 17 18.9105 17 18.8V18H18.9C19.5075 18 20 17.5075 20 16.9V6.1C20 5.49249 19.5075 5 18.9 5H5.1C4.49249 5 4 5.49249 4 6.1V16.9C4 17.5075 4.49249 18 5.1 18H7V18.8C7 18.9105 7.08954 19 7.2 19H7.8C7.91046 19 8 18.9105 8 18.8ZM19 16.9C19 16.9552 18.9552 17 18.9 17H5.1C5.04477 17 5 16.9552 5 16.9V6.1C5 6.04477 5.04477 6 5.1 6H18.9C18.9552 6 19 6.04477 19 6.1V16.9ZM16.5649 13.3168C16.4395 13.5629 16.1384 13.6607 15.8924 13.5353C15.6463 13.41 15.5485 13.1089 15.6739 12.8628C16.4261 11.3866 15.8391 9.58003 14.3628 8.82783C12.8866 8.07564 11.08 8.66261 10.3278 10.1389C9.57564 11.6151 10.1626 13.4217 11.6389 14.1739C12.5178 14.6217 13.5416 14.6059 14.3989 14.1555C14.6433 14.0271 14.9456 14.1211 15.0741 14.3656C15.2025 14.6101 15.1084 14.9124 14.864 15.0408C13.7224 15.6405 12.356 15.6616 11.1849 15.0649C9.21653 14.062 8.4339 11.6532 9.43683 9.68489C10.4398 7.71653 12.8485 6.9339 14.8168 7.93683C16.7852 8.93975 17.5678 11.3485 16.5649 13.3168ZM13 12.5C13.5523 12.5 14 12.0523 14 11.5C14 10.9477 13.5523 10.5 13 10.5C12.4477 10.5 12 10.9477 12 11.5C12 12.0523 12.4477 12.5 13 12.5Z" fill="black"/>
</svg>
