<svg width="24" height="24" viewBox="0 0 24 24" fill="none" xmlns="http://www.w3.org/2000/svg">
<path fill-rule="evenodd" clip-rule="evenodd" d="M8 18H16V18.8C16 18.9105 16.0895 19 16.2 19H16.8C16.9105 19 17 18.9105 17 18.8V18H18.9C19.5075 18 20 17.5075 20 16.9V6.1C20 5.49249 19.5075 5 18.9 5H5.1C4.49249 5 4 5.49249 4 6.1V16.9C4 17.5075 4.49249 18 5.1 18H7V18.8C7 18.9105 7.08954 19 7.2 19H7.8C7.91046 19 8 18.9105 8 18.8V18ZM19 16.9C19 16.9552 18.9552 17 18.9 17H5.1C5.04477 17 5 16.9552 5 16.9V6.1C5 6.04477 5.04477 6 5.1 6H18.9C18.9552 6 19 6.04477 19 6.1V16.9ZM13.5 10.7929L15.1464 9.14645C15.3417 8.95118 15.6583 8.95118 15.8536 9.14645C16.0488 9.34171 16.0488 9.65829 15.8536 9.85355L14.2071 11.5L15.8536 13.1464C16.0488 13.3417 16.0488 13.6583 15.8536 13.8536C15.6583 14.0488 15.3417 14.0488 15.1464 13.8536L13.5 12.2071L11.8536 13.8536C11.6583 14.0488 11.3417 14.0488 11.1464 13.8536C10.9512 13.6583 10.9512 13.3417 11.1464 13.1464L12.7929 11.5L11.1464 9.85355C10.9512 9.65829 10.9512 9.34171 11.1464 9.14645C11.3417 8.95118 11.6583 8.95118 11.8536 9.14645L13.5 10.7929Z" fill="black"/>
</svg>
