<svg width="24" height="24" viewBox="0 0 24 24" fill="none" xmlns="http://www.w3.org/2000/svg">
<path fill-rule="evenodd" clip-rule="evenodd" d="M20.0762 2.59774C20.2714 2.40248 20.588 2.40248 20.7833 2.59774C20.9785 2.793 20.9785 3.10959 20.7833 3.30485L3.85355 20.2346C3.65829 20.4298 3.34171 20.4298 3.14645 20.2346C2.95118 20.0393 2.95118 19.7227 3.14645 19.5275L20.0762 2.59774ZM14.9148 6.53785H14.8V3.53517C14.8 3.25902 14.5761 3.03517 14.3 3.03517C14.0239 3.03517 13.8 3.25902 13.8 3.53517V6.53785H9.49254C9.49744 6.50973 9.5 6.48081 9.5 6.45129V3.45129C9.5 3.17515 9.27614 2.95129 9 2.95129C8.72386 2.95129 8.5 3.17515 8.5 3.45129V6.45129C8.5 6.48081 8.50256 6.50973 8.50746 6.53785H7.12702C6.29859 6.53785 5.62702 7.20942 5.62702 8.03785V13.0433C5.62702 13.8025 6.19114 14.43 6.92312 14.5295L7.90938 13.5433H7.12702C6.85088 13.5433 6.62702 13.3194 6.62702 13.0433V8.03785C6.62702 7.7617 6.85088 7.53785 7.12702 7.53785H13.9148L14.9148 6.53785ZM17.1351 8.40613L16.1351 9.40613V13.0433C16.1351 13.3194 15.9113 13.5433 15.6351 13.5433H11.998L10.8811 14.6602V17.0487C10.8811 19.534 12.8958 21.5487 15.3811 21.5487H16.6351C16.9113 21.5487 17.1351 21.3249 17.1351 21.0487C17.1351 20.7726 16.9113 20.5487 16.6351 20.5487H15.3811C13.4481 20.5487 11.8811 18.9817 11.8811 17.0487V14.5433H15.6351C16.4636 14.5433 17.1351 13.8717 17.1351 13.0433V8.40613Z" fill="black"/>
</svg>
