<svg width="24" height="24" viewBox="0 0 24 24" fill="none" xmlns="http://www.w3.org/2000/svg">
<path fill-rule="evenodd" clip-rule="evenodd" d="M4.16776 12.1523L11.6739 4.64612C12.1942 4.1258 12.9174 3.86113 13.6507 3.92264L17.7513 4.26663C18.9671 4.36861 19.9316 5.33318 20.0336 6.5489L20.3776 10.6496C20.4391 11.3829 20.1744 12.106 19.6541 12.6263L12.148 20.1325C11.1717 21.1088 9.58874 21.1088 8.61243 20.1325L4.16776 15.6878C3.19145 14.7115 3.19145 13.1286 4.16776 12.1523ZM9.31954 19.4254C9.90533 20.0112 10.8551 20.0112 11.4409 19.4254L18.947 11.9192C19.2592 11.607 19.418 11.1731 19.3811 10.7332L19.0371 6.63249C18.9759 5.90306 18.3972 5.32432 17.6678 5.26313L13.5671 4.91914C13.1271 4.88223 12.6932 5.04103 12.381 5.35323L4.87487 12.8594C4.28908 13.4452 4.28908 14.3949 4.87487 14.9807L9.31954 19.4254ZM12.4219 15.7953C12.4571 15.9853 12.3316 16.168 12.1415 16.2032C11.9515 16.2384 11.7688 16.1129 11.7336 15.9228C11.701 15.7466 11.48 14.6386 11.1341 12.9135C10.9996 12.2423 10.8565 11.5297 10.7134 10.8171L10.5224 9.86712C10.4843 9.67762 10.6071 9.4931 10.7966 9.45499C10.9861 9.41688 11.1706 9.53961 11.2087 9.72911L11.3997 10.6792C11.5428 11.3919 11.6859 12.1046 11.8193 12.77C12.1685 14.5118 12.3882 15.6136 12.4219 15.7953ZM9.90088 13.6822C9.42946 14.1536 8.66514 14.1536 8.19372 13.6822C7.7223 13.2107 7.7223 12.4464 8.19372 11.975C8.66514 11.5036 9.42946 11.5036 9.90088 11.975C10.3723 12.4464 10.3723 13.2107 9.90088 13.6822ZM9.4059 13.1872C9.60396 12.9891 9.60396 12.668 9.4059 12.47C9.20785 12.2719 8.88675 12.2719 8.6887 12.47C8.49064 12.668 8.49064 12.9891 8.6887 13.1872C8.88675 13.3852 9.20785 13.3852 9.4059 13.1872ZM14.7496 13.6822C14.2782 14.1536 13.5139 14.1536 13.0425 13.6822C12.571 13.2107 12.571 12.4464 13.0425 11.975C13.5139 11.5036 14.2782 11.5036 14.7496 11.975C15.221 12.4464 15.221 13.2107 14.7496 13.6822ZM14.2546 13.1872C14.4527 12.9891 14.4527 12.668 14.2546 12.47C14.0566 12.2719 13.7355 12.2719 13.5374 12.47C13.3394 12.668 13.3394 12.9891 13.5374 13.1872C13.7355 13.3852 14.0566 13.3852 14.2546 13.1872Z" fill="black"/>
</svg>
