<svg width="16" height="16" viewBox="0 0 16 16" fill="none" xmlns="http://www.w3.org/2000/svg">
<path fill-rule="evenodd" clip-rule="evenodd" d="M1.04687 2.78127C1.11979 2.96877 1.23958 3.08336 1.40625 3.12502L1.625 3.18752V4.37502C1.375 4.52085 1.25 4.72398 1.25 4.98439C1.25 5.24481 1.36458 5.45835 1.59375 5.62502L1.125 7.56251C1.08333 7.66668 1.08854 7.76564 1.14062 7.85939C1.19271 7.95314 1.26042 8.00001 1.34375 8.00001H2.65625C2.73958 8.00001 2.80729 7.95314 2.85937 7.85939C2.91145 7.76564 2.91666 7.66668 2.875 7.56251L2.40625 5.62502C2.63541 5.45835 2.75 5.24481 2.75 4.98439C2.75 4.72398 2.625 4.52085 2.375 4.37502V3.40627L3.84374 3.84377C3.61458 4.38544 3.49999 4.93752 3.49999 5.50002C3.49999 6.31252 3.70312 7.06251 4.10937 7.75001C4.51562 8.43751 5.06249 8.98438 5.74999 9.39063C6.43749 9.79688 7.18749 10 7.99998 10C8.81248 10 9.56248 9.79688 10.25 9.39063C10.9375 8.98438 11.4844 8.43751 11.8906 7.75001C12.2968 7.06251 12.5 6.31252 12.5 5.50002C12.5 4.93752 12.3854 4.38544 12.1562 3.84377L14.5937 3.12502C14.7604 3.08336 14.8802 2.96877 14.9531 2.78127C15.026 2.59377 15.026 2.40627 14.9531 2.21878C14.8802 2.03128 14.7604 1.91669 14.5937 1.87503L8.53123 0.0625304C8.36457 0.020864 8.18748 3.05176e-05 7.99998 3.05176e-05C7.81248 3.05176e-05 7.6354 0.020864 7.46873 0.0625304L1.40625 1.87503C1.23958 1.91669 1.11979 2.03128 1.04687 2.21878C0.973958 2.40627 0.973958 2.59377 1.04687 2.78127ZM12.2812 10.3125C11.8229 10.125 11.3854 10.0313 10.9687 10.0313L7.99998 12.5L5.03124 10.0313C4.63541 10.0313 4.19791 10.125 3.71874 10.3125C2.96875 10.5833 2.36458 11 1.90625 11.5625C1.30208 12.3333 1 13.3125 1 14.5C1 14.9167 1.14583 15.2708 1.4375 15.5625C1.72916 15.8542 2.08333 16 2.5 16H13.5C13.9166 16 14.2708 15.8542 14.5625 15.5625C14.8541 15.2708 15 14.9167 15 14.5C15 13.3125 14.6979 12.3333 14.0937 11.5625C13.6354 11 13.0312 10.5833 12.2812 10.3125ZM7.49998 13.375V15H2.5C2.35416 15 2.23437 14.9531 2.14062 14.8594C2.04687 14.7656 2 14.6458 2 14.5C2 13.2292 2.42708 12.2813 3.28124 11.6563C3.71874 11.3229 4.18749 11.125 4.68749 11.0625L7.49998 13.375ZM14 14.5C14 13.2292 13.5729 12.2813 12.7187 11.6563C12.2812 11.3229 11.8125 11.125 11.3125 11.0625L8.49998 13.375V15H13.5C13.6458 15 13.7656 14.9531 13.8593 14.8594C13.9531 14.7656 14 14.6458 14 14.5ZM7.99999 9.00001C8.62498 9.00001 9.20831 8.84376 9.74998 8.53126C10.2916 8.21876 10.7187 7.79168 11.0312 7.25001C11.3437 6.70835 11.5 6.12502 11.5 5.50002C11.5 5.04168 11.3958 4.58335 11.1875 4.12502L8.53123 4.93752C8.17707 5.04168 7.8229 5.04168 7.46873 4.93752L4.81249 4.12502C4.60416 4.58335 4.49999 5.04168 4.49999 5.50002C4.49999 6.12502 4.65624 6.70835 4.96874 7.25001C5.28124 7.79168 5.70832 8.21876 6.24999 8.53126C6.79165 8.84376 7.37498 9.00001 7.99999 9.00001ZM8.24998 1.03128C8.08332 0.989612 7.91665 0.989612 7.74998 1.03128L2.8125 2.50003L7.74998 3.96877C7.91665 4.01044 8.08332 4.01044 8.24998 3.96877L13.1875 2.50003L8.24998 1.03128Z" fill="#CB11AB"/>
</svg>
