<svg width="24" height="24" viewBox="0 0 24 24" fill="none" xmlns="http://www.w3.org/2000/svg">
<path fill-rule="evenodd" clip-rule="evenodd" d="M18.7522 8.79104C19.0816 9.06238 19.3893 8.75468 19.3893 8.75468C20.2606 7.53366 20.3732 6.23734 19.2447 5.10885C17.8585 3.72263 16.2476 4.00412 14.6605 5.80561L6.8995 13.5652C6.70422 13.7605 6.70421 14.0771 6.89947 14.2723C7.09473 14.4676 7.4113 14.4676 7.60655 14.2723L14.8942 6.98467L17.369 9.45945L9.3773 17.4511L6.62746 14.7013L6.62744 14.7013C6.57907 14.6597 6.55489 14.6389 6.52818 14.622C6.50148 14.6052 6.47227 14.5924 6.41385 14.5668L6.41384 14.5667L6.41382 14.5667C6.11691 14.4621 5.79141 14.618 5.6868 14.9149L4.04129 19.5852C3.99808 19.7079 3.9981 19.8416 4.04134 19.9642C4.14603 20.2611 4.47157 20.4169 4.76845 20.3122L9.43773 18.6657C9.46707 18.6528 9.48904 18.6431 9.50703 18.6346C9.51269 18.6344 9.51823 18.6332 9.52365 18.631C9.61293 18.5953 9.67762 18.565 9.76027 18.4824L18.5053 9.7374C18.6615 9.58119 18.6566 9.33282 18.5004 9.17661L15.5918 6.26807C16.756 5.04273 17.6618 4.94018 18.5376 5.81595C19.226 6.5043 19.1981 7.23428 18.6598 8.05076C18.615 8.11876 18.4227 8.5197 18.7522 8.79104ZM8.4615 17.9496L5.28292 19.0704L6.4031 15.8911L8.4615 17.9496Z" fill="black"/>
</svg>
