<svg width="24" height="24" viewBox="0 0 24 24" fill="none" xmlns="http://www.w3.org/2000/svg">
<path fill-rule="evenodd" clip-rule="evenodd" d="M3.79252 4.44304C3.99448 4.25471 4.31086 4.26576 4.49919 4.46772L6.95184 7.09787C8.53677 6.03535 10.2201 5.49999 12.0001 5.49999C15.5006 5.49999 18.6273 7.57056 21.367 11.6493C21.4958 11.8411 21.5026 12.1586 21.3598 12.3558C19.741 14.5905 18.4518 16.0045 17.4536 16.6154C17.218 16.7596 16.9102 16.6855 16.7661 16.45C16.6219 16.2144 16.696 15.9067 16.9315 15.7625C17.7553 15.2583 18.9195 13.9954 20.3893 11.9897C17.8586 8.31027 15.0664 6.49999 12.0001 6.49999C10.4812 6.49999 9.02952 6.94417 7.64361 7.83969L9.36923 9.69019C9.66667 9.35113 10.035 9.06431 10.4658 8.85421C12.2031 8.00684 14.2985 8.72832 15.1458 10.4657C15.3652 10.9155 15.4837 11.3989 15.499 11.8891C15.5174 12.4784 15.3859 13.0638 15.1189 13.5888C14.9937 13.8349 14.6926 13.933 14.4465 13.8078C14.2004 13.6826 14.1023 13.3816 14.2275 13.1354C14.4185 12.7599 14.5126 12.3411 14.4995 11.9203C14.4886 11.5708 14.4041 11.2261 14.247 10.9041C13.6418 9.66309 12.1451 9.14774 10.9041 9.75301C10.5644 9.91869 10.2791 10.1512 10.0562 10.4269L15.6806 16.4583C15.8203 16.6052 15.9068 16.6962 15.9089 16.6983C15.9204 16.7103 15.9282 16.7183 15.9355 16.7268C15.9425 16.7349 15.9491 16.7433 15.9581 16.7559L19.036 20.0565C19.2218 20.2558 19.2139 20.5671 19.0182 20.7567C18.8172 20.9514 18.4955 20.9432 18.3046 20.7385L15.5144 17.7464C14.4464 18.249 13.2732 18.5 12.0001 18.5C8.53866 18.5 5.41174 16.4274 2.62955 12.3444C2.49949 12.1535 2.50059 11.8467 2.62804 11.6568C3.73595 10.0062 4.90717 8.68397 6.14082 7.69443L3.76784 5.14972C3.57951 4.94776 3.59056 4.63137 3.79252 4.44304ZM6.82451 8.4276L8.81091 10.5578C8.39725 11.4738 8.37922 12.5603 8.85427 13.5343C9.64649 15.1586 11.5295 15.8949 13.191 15.2914L14.7901 16.9732C13.9382 17.3242 13.0095 17.5 12.0001 17.5C8.97127 17.5 6.17621 15.6855 3.60521 11.9979C4.63472 10.4997 5.70754 9.31089 6.82451 8.4276ZM9.578 11.3804L12.4497 14.4599C11.3741 14.6571 10.2559 14.1269 9.75307 13.0959C9.48242 12.541 9.43583 11.935 9.578 11.3804Z" fill="black"/>
</svg>
