<svg width="24" height="24" viewBox="0 0 24 24" fill="none" xmlns="http://www.w3.org/2000/svg">
<path fill-rule="evenodd" clip-rule="evenodd" d="M8.25406 7.99876C8.04767 8.18222 7.73163 8.16363 7.54818 7.95724C7.36472 7.75085 7.38331 7.43481 7.5897 7.25135L11.0035 4.2169C11.5718 3.71172 12.4282 3.71172 12.9966 4.2169L21.3322 11.6264C21.5386 11.8098 21.5572 12.1258 21.3737 12.3322C21.1903 12.5386 20.8742 12.5572 20.6678 12.3738L19.5 11.3357V20.1001C19.5 20.5971 19.0971 21.0001 18.6 21.0001H12.4C11.9029 21.0001 11.5 20.5971 11.5 20.1001V17.0001H9.90001C9.40295 17.0001 9.00001 16.5971 9.00001 16.1001V13.4001C9.00001 12.903 9.40295 12.5001 9.90001 12.5001H10V11.0001C10 10.7239 10.2239 10.5001 10.5 10.5001C10.7761 10.5001 11 10.7239 11 11.0001V12.5001H13V11.0001C13 10.7239 13.2239 10.5001 13.5 10.5001C13.7761 10.5001 14 10.7239 14 11.0001V12.5001H14.1C14.5971 12.5001 15 12.903 15 13.4001V16.1001C15 16.5971 14.5971 17.0001 14.1 17.0001H13.5C13.2239 17.0001 13 16.7762 13 16.5001C13 16.2239 13.2239 16.0001 13.5 16.0001H14V13.5001H13.5H10.5H10V16.0001H11.6C12.0971 16.0001 12.5 16.403 12.5 16.9001V20.0001H18.5V10.5001C18.5 10.4829 18.5009 10.4659 18.5026 10.4491L12.3322 4.96431C12.1427 4.79591 11.8573 4.79591 11.6678 4.96431L8.25406 7.99876ZM5.4972 10.4493L7.00302 9.1108V5.50006H8.00001C8.27615 5.50006 8.50001 5.2762 8.50001 5.00006C8.50001 4.72392 8.27615 4.50006 8.00001 4.50006H6.90302C6.40597 4.50006 6.00302 4.903 6.00302 5.40006V8.66173L4.76637 9.76098C4.6929 9.79927 4.63014 9.85527 4.58374 9.92332L2.66782 11.6264C2.46143 11.8098 2.44284 12.1258 2.6263 12.3322C2.80976 12.5386 3.1258 12.5572 3.33219 12.3738L4.49746 11.338L4.50001 20.1002C4.50014 20.5972 4.90305 20.9999 5.40001 20.9999L9.99998 21.0001C10.2761 21.0001 10.5 20.7762 10.5 20.5001C10.5 20.2239 10.2762 20.0001 10 20.0001L5.49998 20L5.4972 10.4493Z" fill="black"/>
</svg>
