<svg width="24" height="24" viewBox="0 0 24 24" fill="none" xmlns="http://www.w3.org/2000/svg">
<path fill-rule="evenodd" clip-rule="evenodd" d="M8.25406 7.99876C8.04767 8.18222 7.73163 8.16363 7.54818 7.95724C7.36472 7.75085 7.38331 7.43481 7.5897 7.25135L11.0035 4.2169C11.5718 3.71172 12.4282 3.71172 12.9966 4.2169L21.3322 11.6264C21.5386 11.8098 21.5572 12.1258 21.3737 12.3322C21.1903 12.5386 20.8742 12.5572 20.6678 12.3738L19.5 11.3357V20.1001C19.5 20.5971 19.0971 21.0001 18.6 21.0001H12.4C11.9539 21.0001 11.5836 20.6755 11.5124 20.2496C11.5006 20.1986 11.4943 20.1456 11.4943 20.091V17.0001H9.07815C9.0187 16.9957 8.98897 16.9936 8.96016 16.9873C8.93135 16.9809 8.90346 16.9704 8.84767 16.9494C8.57187 16.8221 8.45148 16.4954 8.57877 16.2196L11.5079 9.87321C11.5964 9.75164 11.6407 9.69086 11.6997 9.6531C11.7588 9.61534 11.8325 9.6006 11.98 9.57112C12.2672 9.57112 12.5 9.80393 12.5 10.0911V14.0001H14.9218C15.0409 14.0087 15.0409 14.0087 15.1526 14.0508C15.4283 14.1783 15.5485 14.5052 15.421 14.7809L13.0076 20.0001H18.5V10.5001C18.5 10.4829 18.5009 10.4659 18.5026 10.4491L12.3322 4.96431C12.1427 4.79591 11.8573 4.79591 11.6678 4.96431L8.25406 7.99876ZM5.4972 10.4493L7.00302 9.1108V5.50006H8.00001C8.27615 5.50006 8.50001 5.2762 8.50001 5.00006C8.50001 4.72392 8.27615 4.50006 8.00001 4.50006H6.90302C6.40597 4.50006 6.00302 4.903 6.00302 5.40006V8.66173L4.76637 9.76098C4.6929 9.79927 4.63014 9.85527 4.58374 9.92332L2.66782 11.6264C2.46143 11.8098 2.44284 12.1258 2.6263 12.3322C2.80976 12.5386 3.1258 12.5572 3.33219 12.3738L4.49746 11.338L4.50001 20.1002C4.50014 20.5972 4.90305 20.9999 5.40001 20.9999L9.99998 21.0001C10.2761 21.0001 10.5 20.7762 10.5 20.5001C10.5 20.2239 10.2762 20.0001 10 20.0001L5.49998 20L5.4972 10.4493ZM14.2179 15.0001H11.5V12.2765L9.78146 16.0001H12.4943V18.7275L14.2179 15.0001Z" fill="black"/>
</svg>
