<svg width="24" height="24" viewBox="0 0 24 24" fill="none" xmlns="http://www.w3.org/2000/svg">
<path fill-rule="evenodd" clip-rule="evenodd" d="M16.9315 15.7625C16.696 15.9067 16.6219 16.2145 16.7661 16.45C16.9102 16.6855 17.218 16.7596 17.4536 16.6154C18.4518 16.0045 19.741 14.5905 21.3598 12.3558C21.5026 12.1587 21.4958 11.8411 21.367 11.6493C18.6273 7.57057 15.5006 5.5 12.0001 5.5C8.49736 5.5 5.36898 7.57311 2.62804 11.6568C2.50059 11.8467 2.49949 12.1535 2.62955 12.3444C5.41174 16.4274 8.53866 18.5 12.0001 18.5C13.3577 18.5 14.6018 18.2146 15.7258 17.6429C16.0388 17.4837 16.1931 17.1437 16.0039 16.822C15.9442 16.7349 15.9442 16.7349 15.9089 16.6983C15.8978 16.6869 13.4251 14.0864 13.4251 14.0864L13.096 14.247C11.855 14.8522 10.3583 14.3369 9.75307 13.0959C9.1478 11.855 9.66315 10.3583 10.9041 9.75301C12.1451 9.14775 13.6418 9.6631 14.247 10.9041C14.4041 11.2261 14.4886 11.5708 14.4995 11.9203C14.5126 12.3411 14.4185 12.7599 14.2275 13.1355C14.1023 13.3816 14.2004 13.6826 14.4465 13.8078C14.6926 13.933 14.9937 13.8349 15.1188 13.5888C15.3859 13.0638 15.5174 12.4784 15.499 11.8891C15.4837 11.399 15.3652 10.9155 15.1458 10.4657C14.2985 8.72834 12.2031 8.00685 10.4658 8.85422C8.72839 9.70159 8.0069 11.7969 8.85427 13.5343C9.64649 15.1586 11.5295 15.8949 13.191 15.2914L14.7901 16.9732C13.9382 17.3242 13.0095 17.5 12 17.5C8.97127 17.5 6.17621 15.6855 3.60521 11.9979C6.13731 8.31297 8.93145 6.5 12.0001 6.5C15.0664 6.5 17.8586 8.31028 20.3893 11.9897C18.9195 13.9954 17.7553 15.2583 16.9315 15.7625ZM15.1879 17.3912C15.1864 17.3898 15.184 17.3874 15.184 17.3874C15.1868 17.3901 15.1879 17.3912 15.1879 17.3912Z" fill="black"/>
</svg>
