<svg width="24" height="24" viewBox="0 0 24 24" fill="none" xmlns="http://www.w3.org/2000/svg">
<path fill-rule="evenodd" clip-rule="evenodd" d="M15 11.75C14.7239 11.75 14.5 11.5261 14.5 11.25C14.5 10.9739 14.7239 10.75 15 10.75H18C18.5523 10.75 19 11.1977 19 11.75V18.75C19 19.3023 18.5523 19.75 18 19.75H6C5.44772 19.75 5 19.3023 5 18.75L5 11.75C5 11.1977 5.44772 10.75 6 10.75H9C9.27614 10.75 9.5 10.9739 9.5 11.25C9.5 11.5261 9.27614 11.75 9 11.75H6V18.75H18V11.75H15ZM8.64645 8.10355C8.45118 7.90829 8.45118 7.59171 8.64645 7.39645L11.6464 4.39645C11.8417 4.20118 12.1583 4.20118 12.3536 4.39645L15.3536 7.39645C15.5488 7.59171 15.5488 7.90829 15.3536 8.10355C15.1583 8.29882 14.8417 8.29882 14.6464 8.10355L12.5 5.95711V14.75C12.5 15.0261 12.2761 15.25 12 15.25C11.7239 15.25 11.5 15.0261 11.5 14.75V5.95711L9.35355 8.10355C9.15829 8.29882 8.84171 8.29882 8.64645 8.10355Z" fill="black"/>
</svg>
