<svg width="22" height="14" viewBox="0 0 22 14" fill="none" xmlns="http://www.w3.org/2000/svg">
<path fill-rule="evenodd" clip-rule="evenodd" d="M3.5156 9.59376L1.17186 7.12501C1.00519 6.93751 0.947902 6.71876 0.999985 6.46877C1.05207 6.21877 1.19269 6.03127 1.42186 5.90627L2.64061 5.31252C2.89061 5.18752 3.13019 5.18752 3.35935 5.31252L5.4531 6.34377L8.07809 5.03127L3.79685 2.40627C3.67185 2.32294 3.5781 2.21878 3.5156 2.09378C3.4531 1.96878 3.43227 1.83336 3.4531 1.68753C3.49477 1.39586 3.6406 1.18753 3.8906 1.06253L5.8906 0.0937803C5.99476 0.0312804 6.11976 3.05176e-05 6.2656 3.05176e-05C6.41143 3.05176e-05 6.54685 0.0416969 6.67185 0.12503L13.2031 2.50003L16.1093 1.06253C16.9218 0.666695 17.7343 0.468779 18.5468 0.468779C19.0885 0.468779 19.5468 0.531279 19.9218 0.656279C20.3593 0.822945 20.6614 1.07294 20.8281 1.40628C21.1197 1.98961 20.9843 2.70836 20.4218 3.56252C19.9218 4.31252 19.2135 4.91669 18.2968 5.37502L9.42184 9.75001C9.10934 9.91667 8.77601 10 8.42184 10H4.42185C4.06769 10 3.7656 9.86459 3.5156 9.59376ZM3.01561 6.25002L2.14061 6.68751L4.23435 8.90626C4.27602 8.96876 4.33852 9.00001 4.42185 9.00001H8.42184C8.60934 9.00001 8.79684 8.95834 8.98434 8.87501L17.8281 4.46877C18.5989 4.09377 19.1822 3.60419 19.5781 3.00002C19.9322 2.47919 20.0572 2.10419 19.9531 1.87503C19.8697 1.72919 19.6822 1.62503 19.3906 1.56253C19.1406 1.50003 18.8593 1.46878 18.5468 1.46878C17.901 1.46878 17.2343 1.63544 16.5468 1.96878L13.2656 3.59377L6.23435 1.03128L4.7031 1.78128L10.1406 5.12502L5.4531 7.43751L3.01561 6.25002ZM20.9374 13.0781C20.8854 13.026 20.8281 13 20.7656 13H1.26561C1.20311 13 1.14582 13.026 1.09374 13.0781C1.04165 13.1302 1.01561 13.1875 1.01561 13.25V13.75C1.01561 13.8125 1.04165 13.8698 1.09374 13.9219C1.14582 13.974 1.20311 14 1.26561 14H20.7656C20.8281 14 20.8854 13.974 20.9374 13.9219C20.9895 13.8698 21.0156 13.8125 21.0156 13.75V13.25C21.0156 13.1875 20.9895 13.1302 20.9374 13.0781Z" fill="#CB11AB"/>
</svg>
