<svg width="24" height="25" viewBox="0 0 24 25" fill="none" xmlns="http://www.w3.org/2000/svg">
<path d="M18 4H6C4.875 4 4 4.90625 4 6V15C4 16.125 4.875 17 6 17H9V19.625C9 19.9375 9.34375 20.125 9.59375 19.9375L13.5 17H18C19.0938 17 20 16.125 20 15V6C20 4.90625 19.0938 4 18 4ZM10.7188 13.7188L9.21875 13.875C9 13.9062 8.84375 13.75 8.875 13.5312L9.03125 12.0312L12.0312 9.03125L13.7188 10.7188L10.7188 13.7188ZM15.4375 9L14.4375 10L12.75 8.3125L13.75 7.3125C14 7.0625 14.375 7.0625 14.625 7.3125L15.4375 8.125C15.6875 8.375 15.6875 8.75 15.4375 9Z" fill="url(#paint0_angular_1319_39868)"/>
<defs>
<radialGradient id="paint0_angular_1319_39868" cx="0" cy="0" r="1" gradientUnits="userSpaceOnUse" gradientTransform="translate(12 12.0062) rotate(90) scale(8.00615 8)">
<stop stop-color="#3757D9"/>
<stop offset="1" stop-color="#9AA9EE"/>
</radialGradient>
</defs>
</svg>
