<svg width="36" height="36" viewBox="0 0 36 36" fill="none" xmlns="http://www.w3.org/2000/svg">
<rect width="36" height="36" rx="18" fill="white"/>
<rect width="36" height="36" rx="18" fill="#FFB8B8" fill-opacity="0.4"/>
<path fill-rule="evenodd" clip-rule="evenodd" d="M23.5 11C23.9166 11 24.2708 11.1458 24.5625 11.4375C24.8541 11.7292 25 12.0833 25 12.5V17.6689C26.4945 18.5334 27.5 20.1492 27.5 22C27.5 24.7614 25.2614 27 22.5 27C20.081 27 18.0633 25.2822 17.6 23H12C11.1667 23 10.4583 22.7083 9.875 22.125C9.29167 21.5416 9 20.8333 9 20V12C9 11.1667 9.29167 10.4583 9.875 9.875C10.4583 9.29167 11.1667 9 12 9H21.5C21.9166 9 22.2708 9.14583 22.5625 9.4375C22.8541 9.72916 23 10.0833 23 10.5V11H23.5ZM12 22H17.5C17.5 19.2385 19.7386 17 22.5 17C23.0226 17 23.5265 17.0801 24 17.2289V12.5C24 12.3542 23.9531 12.2344 23.8593 12.1406C23.7656 12.0469 23.6458 12 23.5 12H12.5C12.3542 12 12.2344 11.9531 12.1406 11.8594C12.0469 11.7656 12 11.6458 12 11.5C12 11.3542 12.0469 11.2344 12.1406 11.1406C12.2344 11.0469 12.3542 11 12.5 11H22V10.5C22 10.3542 21.9531 10.2344 21.8593 10.1406C21.7656 10.0469 21.6458 10 21.5 10H12C11.4583 10 10.9896 10.1979 10.5937 10.5937C10.1979 10.9896 10 11.4583 10 12V20C10 20.5416 10.1979 21.0104 10.5937 21.4062C10.9896 21.8021 11.4583 22 12 22ZM22.5 18C20.2909 18 18.5 19.7908 18.5 22C18.5 24.2091 20.2909 26 22.5 26C24.7091 26 26.5 24.2091 26.5 22C26.5 19.7908 24.7091 18 22.5 18ZM20.3787 22.5H23.4142L22.1464 23.7677C21.9512 23.963 21.9512 24.2796 22.1464 24.4748C22.3417 24.6701 22.6583 24.6701 22.8536 24.4748L24.9749 22.3535C25.0228 22.3056 25.059 22.2503 25.0834 22.1914C25.1075 22.1333 25.1209 22.0697 25.1213 22.003V21.997C25.1209 21.9303 25.1075 21.8667 25.0834 21.8086C25.059 21.7496 25.0228 21.6944 24.9749 21.6464L22.8536 19.5251C22.6583 19.3298 22.3417 19.3298 22.1464 19.5251C21.9512 19.7204 21.9512 20.0369 22.1464 20.2322L23.4142 21.5H20.3787C20.1025 21.5 19.8787 21.7238 19.8787 22C19.8787 22.2761 20.1025 22.5 20.3787 22.5Z" fill="#DC5E5E"/>
</svg>
