<svg width="36" height="36" viewBox="0 0 36 36" fill="none" xmlns="http://www.w3.org/2000/svg">
<rect width="36" height="36" rx="18" fill="white"/>
<rect width="36" height="36" rx="18" fill="#EAF8FF"/>
<path fill-rule="evenodd" clip-rule="evenodd" d="M19.7081 12H18V9.44489L21.3415 12.5688C21.4426 12.6634 21.5 12.7956 21.5 12.9341V18.2289C19.4714 18.866 18 20.7612 18 23H12C11.7239 23 11.5 22.7761 11.5 22.5V9.5C11.5 9.22386 11.7239 9 12 9H15.6853C15.9614 9 16.1853 8.77614 16.1853 8.5C16.1853 8.22386 15.9614 8 15.6853 8H12C11.1716 8 10.5 8.67157 10.5 9.5V22.5C10.5 23.3284 11.1716 24 12 24H18.1C18.5633 26.2822 20.581 28 23 28C25.7614 28 28 25.7614 28 23C28 20.2386 25.7614 18 23 18C22.8313 18 22.6645 18.0084 22.5 18.0247V12.9341C22.5 12.5187 22.3278 12.122 22.0244 11.8383L18.178 8.2424C17.8956 7.97838 17.4527 7.99329 17.1887 8.27569C17.0674 8.40536 17 8.57623 17 8.75374V12.1C17 12.5971 17.4029 13 17.9 13H19.7081C19.9843 13 20.2081 12.7761 20.2081 12.5C20.2081 12.2239 19.9843 12 19.7081 12ZM14 15C13.7239 15 13.5 15.2239 13.5 15.5C13.5 15.7761 13.7239 16 14 16H19C19.2761 16 19.5 15.7761 19.5 15.5C19.5 15.2239 19.2761 15 19 15H14ZM13.5 17.5C13.5 17.2239 13.7239 17 14 17H19C19.2761 17 19.5 17.2239 19.5 17.5C19.5 17.7761 19.2761 18 19 18H14C13.7239 18 13.5 17.7761 13.5 17.5ZM14 19C13.7239 19 13.5 19.2239 13.5 19.5C13.5 19.7761 13.7239 20 14 20H17C17.2761 20 17.5 19.7761 17.5 19.5C17.5 19.2239 17.2761 19 17 19H14ZM23 19C20.7909 19 19 20.7909 19 23C19 25.2091 20.7909 27 23 27C25.2091 27 27 25.2091 27 23C27 20.7909 25.2091 19 23 19ZM20.8787 23.5H23.9142L22.6464 24.7678C22.4512 24.963 22.4512 25.2796 22.6464 25.4749C22.8417 25.6701 23.1583 25.6701 23.3536 25.4749L25.4749 23.3536C25.5228 23.3056 25.559 23.2504 25.5834 23.1914C25.6075 23.1333 25.6209 23.0697 25.6213 23.003V22.997C25.6209 22.9303 25.6075 22.8667 25.5834 22.8086C25.559 22.7496 25.5228 22.6944 25.4749 22.6464L23.3536 20.5251C23.1583 20.3299 22.8417 20.3299 22.6464 20.5251C22.4512 20.7204 22.4512 21.037 22.6464 21.2322L23.9142 22.5H20.8787C20.6025 22.5 20.3787 22.7239 20.3787 23C20.3787 23.2761 20.6025 23.5 20.8787 23.5Z" fill="#3897C5"/>
</svg>
