<svg width="24" height="24" viewBox="0 0 24 24" fill="none" xmlns="http://www.w3.org/2000/svg">
<path fill-rule="evenodd" clip-rule="evenodd" d="M8.75 6.25C8.33579 6.25 8 6.58579 8 7C8 7.41421 8.33579 7.75 8.75 7.75H20.25C20.6642 7.75 21 7.41421 21 7C21 6.58579 20.6642 6.25 20.25 6.25H8.75ZM3 12.25C3 11.8358 3.33579 11.5 3.75 11.5H15.25C15.6642 11.5 16 11.8358 16 12.25C16 12.6642 15.6642 13 15.25 13H3.75C3.33579 13 3 12.6642 3 12.25ZM8 17.5C8 17.0858 8.33579 16.75 8.75 16.75H20.25C20.6642 16.75 21 17.0858 21 17.5C21 17.9142 20.6642 18.25 20.25 18.25H8.75C8.33579 18.25 8 17.9142 8 17.5ZM5 9C3.89543 9 3 8.10457 3 7C3 5.89543 3.89543 5 5 5C6.10457 5 7 5.89543 7 7C7 8.10457 6.10457 9 5 9ZM5 7.8C5.44183 7.8 5.8 7.44183 5.8 7C5.8 6.55817 5.44183 6.2 5 6.2C4.55817 6.2 4.2 6.55817 4.2 7C4.2 7.44183 4.55817 7.8 5 7.8ZM5 19.5C3.89543 19.5 3 18.6046 3 17.5C3 16.3954 3.89543 15.5 5 15.5C6.10457 15.5 7 16.3954 7 17.5C7 18.6046 6.10457 19.5 5 19.5ZM5 18.3C5.44183 18.3 5.8 17.9418 5.8 17.5C5.8 17.0582 5.44183 16.7 5 16.7C4.55817 16.7 4.2 17.0582 4.2 17.5C4.2 17.9418 4.55817 18.3 5 18.3ZM19 14.25C17.8954 14.25 17 13.3546 17 12.25C17 11.1454 17.8954 10.25 19 10.25C20.1046 10.25 21 11.1454 21 12.25C21 13.3546 20.1046 14.25 19 14.25ZM19 13.05C19.4418 13.05 19.8 12.6918 19.8 12.25C19.8 11.8082 19.4418 11.45 19 11.45C18.5582 11.45 18.2 11.8082 18.2 12.25C18.2 12.6918 18.5582 13.05 19 13.05Z" fill="black"/>
<mask id="mask0_244_1109" style="mask-type:alpha" maskUnits="userSpaceOnUse" x="3" y="5" width="18" height="15">
<path fill-rule="evenodd" clip-rule="evenodd" d="M8.75 6.25C8.33579 6.25 8 6.58579 8 7C8 7.41421 8.33579 7.75 8.75 7.75H20.25C20.6642 7.75 21 7.41421 21 7C21 6.58579 20.6642 6.25 20.25 6.25H8.75ZM3 12.25C3 11.8358 3.33579 11.5 3.75 11.5H15.25C15.6642 11.5 16 11.8358 16 12.25C16 12.6642 15.6642 13 15.25 13H3.75C3.33579 13 3 12.6642 3 12.25ZM8 17.5C8 17.0858 8.33579 16.75 8.75 16.75H20.25C20.6642 16.75 21 17.0858 21 17.5C21 17.9142 20.6642 18.25 20.25 18.25H8.75C8.33579 18.25 8 17.9142 8 17.5ZM5 9C3.89543 9 3 8.10457 3 7C3 5.89543 3.89543 5 5 5C6.10457 5 7 5.89543 7 7C7 8.10457 6.10457 9 5 9ZM5 7.8C5.44183 7.8 5.8 7.44183 5.8 7C5.8 6.55817 5.44183 6.2 5 6.2C4.55817 6.2 4.2 6.55817 4.2 7C4.2 7.44183 4.55817 7.8 5 7.8ZM5 19.5C3.89543 19.5 3 18.6046 3 17.5C3 16.3954 3.89543 15.5 5 15.5C6.10457 15.5 7 16.3954 7 17.5C7 18.6046 6.10457 19.5 5 19.5ZM5 18.3C5.44183 18.3 5.8 17.9418 5.8 17.5C5.8 17.0582 5.44183 16.7 5 16.7C4.55817 16.7 4.2 17.0582 4.2 17.5C4.2 17.9418 4.55817 18.3 5 18.3ZM19 14.25C17.8954 14.25 17 13.3546 17 12.25C17 11.1454 17.8954 10.25 19 10.25C20.1046 10.25 21 11.1454 21 12.25C21 13.3546 20.1046 14.25 19 14.25ZM19 13.05C19.4418 13.05 19.8 12.6918 19.8 12.25C19.8 11.8082 19.4418 11.45 19 11.45C18.5582 11.45 18.2 11.8082 18.2 12.25C18.2 12.6918 18.5582 13.05 19 13.05Z" fill="white"/>
</mask>
<g mask="url(#mask0_244_1109)">
</g>
</svg>
