<svg width="24" height="24" viewBox="0 0 24 24" fill="none" xmlns="http://www.w3.org/2000/svg">
<path fill-rule="evenodd" clip-rule="evenodd" d="M12 21C7.02944 21 3 16.9706 3 12C3 7.02944 7.02944 3 12 3C16.9706 3 21 7.02944 21 12C21 16.9706 16.9706 21 12 21ZM12 19.9412C16.3858 19.9412 19.9412 16.3858 19.9412 12C19.9412 7.61421 16.3858 4.05882 12 4.05882C7.61421 4.05882 4.05882 7.61421 4.05882 12C4.05882 16.3858 7.61421 19.9412 12 19.9412ZM11.0581 13.6284C11.0581 12.6396 11.3218 12.1782 12.4644 11.248C13.27 10.5962 13.5703 10.2007 13.5703 9.50488C13.5703 8.69922 12.8965 8.07666 11.9224 8.07666C11.0288 8.07666 10.4648 8.4502 10.0913 9.2998C9.92285 9.66602 9.77637 9.79053 9.50537 9.79053C9.19043 9.79053 9 9.5708 9 9.24854C9 8.71387 9.31494 8.11328 9.82764 7.6665C10.3403 7.22705 11.0435 7 11.915 7C13.6582 7 14.8594 8.00342 14.8594 9.50488C14.8594 10.4351 14.4492 11.0723 13.4312 11.8926C12.5449 12.6104 12.3691 12.8594 12.2886 13.6357C12.23 14.0532 12.0396 14.2729 11.666 14.2729C11.2998 14.2729 11.0581 14.0166 11.0581 13.6284ZM10.8604 16.5215C10.8604 16.0527 11.2339 15.6865 11.7026 15.6865C12.1641 15.6865 12.5449 16.0527 12.5449 16.5215C12.5449 16.9829 12.1641 17.3491 11.7026 17.3491C11.2339 17.3491 10.8604 16.9829 10.8604 16.5215Z" fill="black"/>
</svg>
