<svg width="24" height="24" viewBox="0 0 24 24" fill="none" xmlns="http://www.w3.org/2000/svg">
<path fill-rule="evenodd" clip-rule="evenodd" d="M4 8C4 8.27614 3.77614 8.5 3.5 8.5C3.22386 8.5 3 8.27614 3 8V5.5C3 4.11929 4.11929 3 5.5 3H8C8.27614 3 8.5 3.22386 8.5 3.5C8.5 3.77614 8.27614 4 8 4H5.5C4.67157 4 4 4.67157 4 5.5V8ZM3 16C3 15.7239 3.22386 15.5 3.5 15.5C3.77614 15.5 4 15.7239 4 16V18.5C4 19.3284 4.67157 20 5.5 20H8C8.27614 20 8.5 20.2239 8.5 20.5C8.5 20.7761 8.27614 21 8 21H5.5C4.11929 21 3 19.8807 3 18.5V16ZM15.5 20.5C15.5 20.7761 15.7239 21 16 21H18.5C19.8807 21 21 19.8807 21 18.5V16C21 15.7239 20.7761 15.5 20.5 15.5C20.2239 15.5 20 15.7239 20 16V18.5C20 19.3284 19.3284 20 18.5 20H16C15.7239 20 15.5 20.2239 15.5 20.5ZM21 8C21 8.27614 20.7761 8.5 20.5 8.5C20.2239 8.5 20 8.27614 20 8V5.5C20 4.67157 19.3284 4 18.5 4H16C15.7239 4 15.5 3.77614 15.5 3.5C15.5 3.22386 15.7239 3 16 3H18.5C19.8807 3 21 4.11929 21 5.5V8ZM17.0005 10.5225C16.6035 15.2296 14.9386 17.5 12 17.5C9.1927 17.5 7.62318 15.4259 7.28648 11.0609C9.53867 11.2474 11.6017 10.7666 13.4601 9.61964C13.9249 9.96819 14.6902 10.4041 15.7764 10.9472C16.0234 11.0707 16.3237 10.9706 16.4472 10.7236C16.5707 10.4766 16.4706 10.1763 16.2236 10.0528C14.9393 9.41065 14.1354 8.92829 13.8536 8.64645L13.5637 8.3566L13.2227 8.58397C11.325 9.84905 9.19729 10.3219 6.81608 10.0044L6.22055 9.92498L6.25063 10.525C6.51302 15.7595 8.43135 18.5 12 18.5C15.5602 18.5 17.5619 15.7704 17.9983 10.5416C17.8517 7.19199 15.7837 5.5 12 5.5C9.01818 5.5 7.09782 6.60742 6.38502 8.81287C6.3001 9.07563 6.44426 9.35748 6.70702 9.44241C6.96978 9.52733 7.25163 9.38317 7.33656 9.12041C7.90099 7.37403 9.41662 6.5 12 6.5C15.2797 6.5 16.8784 7.80801 17.0005 10.5225Z" fill="black"/>
</svg>
