<svg width="24" height="24" viewBox="0 0 24 24" fill="none" xmlns="http://www.w3.org/2000/svg">
<path fill-rule="evenodd" clip-rule="evenodd" d="M3.5 8.5C3.77614 8.5 4 8.27614 4 8V5.5C4 4.67157 4.67157 4 5.5 4H8C8.27614 4 8.5 3.77614 8.5 3.5C8.5 3.22386 8.27614 3 8 3H5.5C4.11929 3 3 4.11929 3 5.5V8C3 8.27614 3.22386 8.5 3.5 8.5ZM3.5 15.5C3.22386 15.5 3 15.7239 3 16V18.5C3 19.8807 4.11929 21 5.5 21H8C8.27614 21 8.5 20.7761 8.5 20.5C8.5 20.2239 8.27614 20 8 20H5.5C4.67157 20 4 19.3284 4 18.5V16C4 15.7239 3.77614 15.5 3.5 15.5ZM16 21C15.7239 21 15.5 20.7761 15.5 20.5C15.5 20.2239 15.7239 20 16 20H18.5C19.3284 20 20 19.3284 20 18.5V16C20 15.7239 20.2239 15.5 20.5 15.5C20.7761 15.5 21 15.7239 21 16V18.5C21 19.8807 19.8807 21 18.5 21H16ZM20.5 8.5C20.7761 8.5 21 8.27614 21 8V5.5C21 4.11929 19.8807 3 18.5 3H16C15.7239 3 15.5 3.22386 15.5 3.5C15.5 3.77614 15.7239 4 16 4H18.5C19.3284 4 20 4.67157 20 5.5V8C20 8.27614 20.2239 8.5 20.5 8.5ZM8.68765 15.8904C8.47202 15.7179 8.43706 15.4033 8.60957 15.1877C8.78207 14.972 9.09672 14.9371 9.31235 15.1096C10.0548 15.7035 10.9442 16 12 16C13.0558 16 13.9452 15.7035 14.6877 15.1096C14.9033 14.9371 15.2179 14.972 15.3904 15.1877C15.5629 15.4033 15.528 15.7179 15.3123 15.8904C14.3881 16.6298 13.2776 17 12 17C10.7224 17 9.61189 16.6298 8.68765 15.8904ZM12 8.5C11.7239 8.5 11.5 8.72386 11.5 9V12C11.5 12.0857 11.2894 12.2963 10.7764 12.5528C10.5294 12.6763 10.4293 12.9766 10.5528 13.2236C10.6763 13.4706 10.9766 13.5707 11.2236 13.4472C12.044 13.037 12.5 12.581 12.5 12V9C12.5 8.72386 12.2761 8.5 12 8.5ZM9.5 9.5C9.5 10.0523 9.05228 10.5 8.5 10.5C7.94772 10.5 7.5 10.0523 7.5 9.5C7.5 8.94772 7.94772 8.5 8.5 8.5C9.05228 8.5 9.5 8.94772 9.5 9.5ZM15.5 10.5C16.0523 10.5 16.5 10.0523 16.5 9.5C16.5 8.94772 16.0523 8.5 15.5 8.5C14.9477 8.5 14.5 8.94772 14.5 9.5C14.5 10.0523 14.9477 10.5 15.5 10.5Z" fill="black"/>
</svg>
