<svg width="24" height="24" viewBox="0 0 24 24" fill="none" xmlns="http://www.w3.org/2000/svg">
<path fill-rule="evenodd" clip-rule="evenodd" d="M21.0585 9.6588C21.162 9.66773 21.258 9.71663 21.3262 9.79514C21.471 9.96198 21.4531 10.2146 21.2863 10.3594L16.55 14.47L17.9663 20.5783C17.9898 20.6796 17.9728 20.7862 17.9191 20.8753C17.8049 21.0644 17.559 21.1252 17.3699 21.0111L12 17.77L6.63159 21.0101C6.54232 21.064 6.43555 21.0809 6.33402 21.0572C6.11888 21.007 5.98516 20.7919 6.03535 20.5768L7.45999 14.47L2.71654 10.3607C2.63773 10.2925 2.5887 10.1961 2.57988 10.0922C2.56121 9.8721 2.72452 9.67852 2.94464 9.65984L9.18999 9.12999L11.632 3.36828C11.6725 3.27276 11.7485 3.1967 11.844 3.15617C12.0473 3.06985 12.2821 3.16473 12.3685 3.36808L14.81 9.11999L21.0585 9.6588Z" fill="black"/>
</svg>
