<svg width="24" height="24" viewBox="0 0 24 24" fill="none" xmlns="http://www.w3.org/2000/svg">
<path d="M7.2105 4.73507L6.55774 4.08232C6.8601 3.35953 7.57397 2.85168 8.40645 2.85168H10.4095C10.6308 2.85168 10.8101 3.03105 10.8101 3.2523C10.8101 3.47355 10.6308 3.65291 10.4095 3.65291H8.40645C7.78308 3.65291 7.27056 4.1275 7.2105 4.73507Z" fill="black"/>
<path d="M9.9732 7.49777L9.37083 6.8954C10.0792 5.53666 11.52 4.85475 13.6144 4.85475C16.6461 4.85475 18.303 6.21042 18.4204 8.89421C18.2194 11.3028 17.6038 13.0495 16.5748 14.0993L16.0072 13.5318C16.8965 12.6368 17.4341 11.0948 17.621 8.87889C17.5231 6.70399 16.2422 5.65598 13.6144 5.65598C11.6758 5.65598 10.4876 6.27028 9.9732 7.49777Z" fill="black"/>
<path d="M11.0046 8.52914L11.7378 9.26236C12.8179 9.11078 13.8344 8.74174 14.7843 8.15552C15.1567 8.43479 15.7699 8.78408 16.6402 9.21921C16.8381 9.31815 17.0787 9.23794 17.1777 9.04005C17.2766 8.84215 17.1964 8.60151 16.9985 8.50257C15.9695 7.98807 15.3254 7.60159 15.0995 7.37577L14.8673 7.14354L14.594 7.32572C13.4961 8.0577 12.3019 8.45865 11.0046 8.52914Z" fill="black"/>
<path d="M19.5948 17.1194L18.9421 16.4667C19.5497 16.4066 20.0242 15.8941 20.0242 15.2707V13.2676C20.0242 13.0464 20.2036 12.867 20.4249 12.867C20.6461 12.867 20.8255 13.0464 20.8255 13.2676V15.2707C20.8255 16.1032 20.3176 16.8171 19.5948 17.1194Z" fill="black"/>
<path d="M20.8255 6.85782C20.8255 7.07907 20.6461 7.25843 20.4249 7.25843C20.2036 7.25843 20.0242 7.07907 20.0242 6.85782V4.85475C20.0242 4.19099 19.4862 3.65291 18.8224 3.65291H16.8193C16.5981 3.65291 16.4187 3.47355 16.4187 3.2523C16.4187 3.03105 16.5981 2.85168 16.8193 2.85168H18.8224C19.9287 2.85168 20.8255 3.74849 20.8255 4.85475V6.85782Z" fill="black"/>
<path fill-rule="evenodd" clip-rule="evenodd" d="M20.2118 19.8568C20.0437 20.0249 19.7711 20.0249 19.603 19.8568L4.06769 4.3215C3.89956 4.15338 3.89956 3.8808 4.06769 3.71267C4.23581 3.54455 4.5084 3.54455 4.67652 3.71267L20.2118 19.248C20.3799 19.4161 20.3799 19.6887 20.2118 19.8568Z" fill="black"/>
<path d="M15.579 17.1934C15.1602 17.5566 14.6038 17.7784 13.9936 17.7784C12.6922 17.7784 11.6358 16.7697 11.6358 15.5318C11.6358 14.7142 10.9239 14.0494 10.0436 14.0494C9.16325 14.0494 8.45133 14.7142 8.45133 15.5318C8.45133 16.8385 8.95656 18.0612 9.88282 18.9782C10.6101 19.6965 11.3067 20.0938 12.386 20.3918C12.5927 20.4453 12.7075 20.6593 12.654 20.858C12.6157 21.0337 12.4549 21.1484 12.2942 21.1484C12.2636 21.1484 12.2253 21.1407 12.1947 21.1331C10.9775 20.7968 10.1814 20.346 9.34697 19.5283C8.27526 18.4662 7.68582 17.0525 7.68582 15.5395C7.68582 14.3015 8.74222 13.2928 10.0436 13.2928C11.3449 13.2928 12.4013 14.3015 12.4013 15.5395C12.4013 16.3571 13.1133 17.0219 13.9936 17.0219C14.395 17.0219 14.7615 16.8837 15.0413 16.6557L15.579 17.1934Z" fill="black"/>
<path d="M8.83115 10.4456L8.19557 9.80999C6.48796 10.3061 5.04434 11.4776 4.28696 13.0636C3.94249 13.7895 3.76642 14.6225 3.76642 15.5395C3.76642 16.5711 3.95014 17.5645 4.32524 18.5655C4.39414 18.7566 4.61613 18.8635 4.81516 18.7871C5.0142 18.7183 5.11371 18.4967 5.03716 18.2981C4.57786 17.0754 4.52427 16.1355 4.52427 15.5395C4.52427 14.7447 4.67737 14.0188 4.97592 13.3998C5.70259 11.8809 7.14983 10.7995 8.83115 10.4456Z" fill="black"/>
<path d="M5.4283 7.04272C5.25557 7.14646 5.19294 7.37557 5.28978 7.55404C5.39695 7.73743 5.6266 7.80621 5.81032 7.70687C5.87137 7.67337 5.9327 7.64066 5.9943 7.60872L5.4283 7.04272Z" fill="black"/>
<path d="M6.75417 8.36859L7.34388 8.9583C7.04091 9.06714 6.74572 9.19509 6.46101 9.34216C5.41992 9.87707 4.54724 10.6412 3.85828 11.6041C3.79704 11.711 3.68221 11.7645 3.55973 11.7645C3.48318 11.7645 3.40663 11.7416 3.33774 11.6958C3.16167 11.5735 3.12339 11.3366 3.24587 11.1608C4.00373 10.091 4.96827 9.25046 6.11653 8.66206C6.32433 8.55504 6.53717 8.45722 6.75417 8.36859Z" fill="black"/>
<path d="M9.81321 11.4276L10.6091 12.2235C10.4322 12.198 10.251 12.1848 10.0665 12.1848C8.09919 12.1848 6.49928 13.6902 6.49928 15.5395C6.49928 16.6398 6.74424 17.6562 7.2112 18.4815C7.70113 19.3602 8.03795 19.7347 8.62739 20.3307C8.77284 20.4835 8.77284 20.7204 8.62739 20.8733C8.54319 20.9497 8.44367 20.9879 8.34415 20.9879C8.24464 20.9879 8.14512 20.9497 8.07623 20.8733C7.41023 20.2084 7.05045 19.7805 6.53756 18.8559C6.00936 17.916 5.73377 16.7697 5.73377 15.5395C5.73377 13.3507 7.54218 11.5529 9.81321 11.4276Z" fill="black"/>
<path d="M14.2383 15.8527L13.6191 15.2335C13.6288 15.3343 13.6338 15.4363 13.6338 15.5395C13.6338 15.7534 13.8022 15.9215 14.0166 15.9215C14.0998 15.9215 14.1761 15.8962 14.2383 15.8527Z" fill="black"/>
<path d="M11.4598 18.8941C12.1181 19.345 12.9219 19.5742 13.8328 19.5742C13.94 19.5742 14.3228 19.5666 14.7591 19.4825C14.9735 19.4443 15.1112 19.2456 15.073 19.0393C15.0347 18.8253 14.8357 18.6878 14.629 18.726C14.3228 18.7795 14.0166 18.8024 13.8328 18.8024C13.0673 18.8024 12.432 18.6266 11.8885 18.2599C10.9545 17.6332 10.4034 16.6169 10.4034 15.5395C10.4034 15.3255 10.235 15.1574 10.0206 15.1574C9.80627 15.1574 9.63786 15.3255 9.63786 15.5395C9.63786 16.8691 10.3192 18.1223 11.4598 18.8941Z" fill="black"/>
</svg>
