<svg width="24" height="24" viewBox="0 0 24 24" fill="none" xmlns="http://www.w3.org/2000/svg">
<path fill-rule="evenodd" clip-rule="evenodd" d="M9.84499 20H4.9978L4.99172 20C4.47805 20 4.03274 19.584 3.9978 19.0715L2.9978 9.05248V8.99999H2.2478C2.1098 8.99999 1.9978 8.88799 1.9978 8.74999V8.24999C1.9978 8.11199 2.1098 7.99999 2.2478 7.99999H7.60717L8.4178 4.75781C8.5222 4.33951 8.95687 4 9.38802 4H10.7478C10.8858 4 10.9978 4.112 10.9978 4.25V4.75C10.9978 4.888 10.8858 5 10.7478 5H9.38841L8.63842 7.99999H12.7478C12.8858 7.99999 12.9978 8.11199 12.9978 8.24999V8.74999C12.9978 8.88799 12.8858 8.99999 12.7478 8.99999H3.99435L4.99435 18.9722L9.21434 18.9956C9.3347 19.3065 9.61723 19.7565 9.84499 20ZM21.9978 17.875C21.9964 19.0466 21.0444 19.9986 19.8728 20H12.1228C10.9512 19.9986 9.99916 19.0466 9.99779 17.875C9.99834 17.5505 10.1901 17.1061 10.4259 16.8831C10.19 16.614 9.99846 16.1051 9.99846 15.7472C9.99846 15.3207 10.2569 14.7443 10.5753 14.4606C10.2544 14.16 9.994 13.5593 9.994 13.1196C9.994 12.7898 10.1514 12.3058 10.3453 12.0391C11.4353 10.5 13.654 9.50186 15.9978 9.5C18.3415 9.50186 20.5603 10.5 21.6512 12.0391C21.845 12.3057 22.0023 12.7897 22.0023 13.1194C22.0023 13.5591 21.7418 14.16 21.4209 14.4606C21.7383 14.7457 21.9967 15.3234 21.9978 15.75C21.9963 16.1067 21.8048 16.6143 21.5703 16.8831C21.8058 17.1062 21.9974 17.5506 21.9978 17.875ZM20.1093 14H11.8862C11.1662 14 10.7478 13.1994 11.1609 12.6166C11.9978 11.4334 13.8415 10.5019 15.9978 10.5C18.154 10.4981 19.9978 11.4334 20.835 12.6166C21.2478 13.1997 20.8296 14 20.1093 14ZM16.4978 12C16.4978 12.276 16.2738 12.5 15.9978 12.5C15.7218 12.5 15.4978 12.276 15.4978 12C15.4978 11.724 15.7218 11.5 15.9978 11.5C16.2738 11.5 16.4978 11.724 16.4978 12ZM18.4978 13C18.7738 13 18.9978 12.776 18.9978 12.5C18.9978 12.224 18.7738 12 18.4978 12C18.2218 12 17.9978 12.224 17.9978 12.5C17.9978 12.776 18.2218 13 18.4978 13ZM13.9978 12.5C13.9978 12.776 13.7738 13 13.4978 13C13.2218 13 12.9978 12.776 12.9978 12.5C12.9978 12.224 13.2218 12 13.4978 12C13.7738 12 13.9978 12.224 13.9978 12.5ZM20.2478 16.5H11.7478C11.3338 16.5 10.9978 16.164 10.9978 15.75C10.9978 15.336 11.3338 15 11.7478 15H20.2478C20.6618 15 20.9978 15.336 20.9978 15.75C20.9978 16.164 20.6618 16.5 20.2478 16.5ZM12.1228 19H19.8728C20.4938 19 20.9978 18.496 20.9978 17.875C20.9978 17.668 20.8298 17.5 20.6228 17.5H11.3728C11.1658 17.5 10.9978 17.668 10.9978 17.875C10.9978 18.496 11.5018 19 12.1228 19Z" fill="black"/>
</svg>
