<svg width="24" height="24" viewBox="0 0 24 24" fill="none" xmlns="http://www.w3.org/2000/svg">
<path fill-rule="evenodd" clip-rule="evenodd" d="M4.89222 16.8101C4.72517 16.9636 4.72517 16.9636 4.501 16.9982C4.11215 16.886 4.11215 16.886 4 16.4972V5.50001C4 5.22387 4.22386 5.00001 4.5 5.00001C4.77614 5.00001 5 5.22387 5 5.50001V15.0746L10.0449 8.76844C10.2519 8.50968 10.6295 8.46773 10.8883 8.67474C10.8962 8.68113 13.9433 11.2929 13.9433 11.2929L18.4219 6.00001H16.5C16.2239 6.00001 16 5.77615 16 5.50001C16 5.22387 16.2239 5.00001 16.5 5.00001H19.4C19.4177 5.00001 19.4352 5.00078 19.4525 5.00227C19.5819 4.98993 19.7159 5.02773 19.823 5.11832C19.9529 5.22825 20.0127 5.39028 19.9978 5.54778C19.9992 5.56499 20 5.58241 20 5.60001V8.50001C20 8.77615 19.7761 9.00001 19.5 9.00001C19.2239 9.00001 19 8.77615 19 8.50001V6.86498L14.4467 12.2462C14.2286 12.5007 13.8498 12.5298 13.5982 12.3141L10.5673 9.71625L4.89222 16.8101ZM4.5 19C4.22386 19 4 18.7762 4 18.5C4 18.2239 4.22386 18 4.5 18H19.5C19.7761 18 20 18.2239 20 18.5C20 18.7762 19.7761 19 19.5 19H4.5Z" fill="black"/>
</svg>
