<svg width="24" height="24" viewBox="0 0 24 24" fill="none" xmlns="http://www.w3.org/2000/svg">
<path fill-rule="evenodd" clip-rule="evenodd" d="M12.2889 13.4687C12.462 13.4687 12.5981 13.4069 12.6971 13.2832L16.1482 9.86913L18.115 10.7597C18.4119 10.8587 18.6717 10.7969 18.8943 10.5742L21.2693 8.19921C21.4672 8.00129 21.5353 7.76627 21.4734 7.49413C21.4116 7.222 21.2446 7.03645 20.9724 6.93749L18.8943 6.26953L18.2263 4.1914C18.1769 4.04297 18.0841 3.91927 17.948 3.82031C17.812 3.72135 17.6511 3.67188 17.4656 3.67188C17.2801 3.67188 17.1131 3.74609 16.9646 3.89453L14.5896 6.26953C14.367 6.49218 14.3051 6.75195 14.4041 7.04882L15.2947 9.01561L11.8807 12.4668C11.757 12.5657 11.6951 12.7018 11.6951 12.875C11.6951 13.0482 11.7508 13.1904 11.8621 13.3017C11.9734 13.4131 12.1157 13.4687 12.2889 13.4687ZM12.2889 22.0781C13.9464 22.0781 15.4803 21.6637 16.8904 20.8349C18.3006 20.0061 19.42 18.8867 20.2488 17.4765C21.0776 16.0664 21.492 14.5325 21.492 12.875C21.492 11.9349 21.3435 11.0071 21.0466 10.0918L20.0818 11.0566C20.2302 11.6751 20.3045 12.2812 20.3045 12.875C20.3045 14.3346 19.9457 15.6767 19.2283 16.9013C18.5108 18.1259 17.5398 19.097 16.3152 19.8144C15.0906 20.5319 13.7485 20.8906 12.2889 20.8906C10.8292 20.8906 9.48711 20.5319 8.2625 19.8144C7.03789 19.097 6.06687 18.1259 5.34942 16.9013C4.63197 15.6767 4.27325 14.3346 4.27325 12.875C4.27325 11.4153 4.63197 10.0732 5.34942 8.84862C6.06687 7.62401 7.03789 6.65299 8.2625 5.93554C9.48711 5.2181 10.8292 4.85937 12.2889 4.85937C12.8826 4.85937 13.4887 4.93359 14.1072 5.08203L15.0721 4.11719C14.1567 3.82031 13.229 3.67188 12.2889 3.67188C10.6313 3.67188 9.09746 4.08626 7.68731 4.91504C6.27715 5.74381 5.15769 6.86327 4.32892 8.27343C3.50014 9.68358 3.08575 11.2174 3.08575 12.875C3.08575 14.5325 3.50014 16.0664 4.32892 17.4765C5.15769 18.8867 6.27715 20.0061 7.68731 20.8349C9.09746 21.6637 10.6313 22.0781 12.2889 22.0781ZM18.2635 9.53514L16.4451 8.71874L15.6287 6.90038L17.2986 5.23047L17.781 6.64062L17.9666 7.19726L19.9334 7.86522L18.2635 9.53514ZM12.2889 18.9609C13.4021 18.9609 14.4226 18.6888 15.3504 18.1445C16.2781 17.6002 17.0141 16.8642 17.5584 15.9365C18.1026 15.0088 18.3748 13.9883 18.3748 12.875C18.3748 12.6771 18.35 12.3926 18.3006 12.0215V11.9844C18.0779 11.9596 17.8924 11.9225 17.7439 11.873L16.9646 11.539C17.1131 12.0338 17.1873 12.4791 17.1873 12.875C17.1873 13.7656 16.9646 14.582 16.5193 15.3242C16.074 16.0664 15.4803 16.6601 14.7381 17.1054C13.9959 17.5507 13.1795 17.7734 12.2889 17.7734C11.3982 17.7734 10.5818 17.5507 9.83964 17.1054C9.09746 16.6601 8.50371 16.0664 8.0584 15.3242C7.61309 14.582 7.39043 13.7656 7.39043 12.875C7.39043 11.9844 7.61309 11.168 8.0584 10.4258C8.50371 9.68358 9.09746 9.08983 9.83964 8.64452C10.5818 8.19921 11.3982 7.97655 12.2889 7.97655C12.6847 7.97655 13.13 8.05077 13.6248 8.19921L13.2908 7.41991C13.2166 7.24674 13.1795 7.06119 13.1795 6.86327H13.1053C12.7589 6.81379 12.4868 6.78906 12.2889 6.78906C11.1756 6.78906 10.1551 7.06119 9.22734 7.60546C8.29961 8.14973 7.56361 8.88573 7.01934 9.81346C6.47507 10.7412 6.20293 11.7617 6.20293 12.875C6.20293 13.9883 6.47507 15.0088 7.01934 15.9365C7.56361 16.8642 8.29961 17.6002 9.22734 18.1445C10.1551 18.6888 11.1756 18.9609 12.2889 18.9609ZM12.2889 15.8437C13.1053 15.8437 13.8042 15.553 14.3855 14.9717C14.9669 14.3903 15.2576 13.6914 15.2576 12.875L15.2205 12.4668L13.5506 14.1367C13.2042 14.483 12.7836 14.6562 12.2889 14.6562C11.7941 14.6562 11.3735 14.483 11.0271 14.1367C10.6808 13.7903 10.5076 13.3698 10.5076 12.875C10.5076 12.3802 10.6808 11.9596 11.0271 11.6133L12.6971 9.94334L12.2889 9.90624C11.4725 9.90624 10.7736 10.1969 10.1922 10.7783C9.6108 11.3597 9.32011 12.0586 9.32011 12.875C9.32011 13.6914 9.6108 14.3903 10.1922 14.9717C10.7736 15.553 11.4725 15.8437 12.2889 15.8437Z" fill="black"/>
</svg>
