<svg width="24" height="24" viewBox="0 0 24 24" fill="none" xmlns="http://www.w3.org/2000/svg">
<path fill-rule="evenodd" clip-rule="evenodd" d="M12 3.5C11.7239 3.5 11.5 3.72386 11.5 4V6.5C11.5 6.77614 11.2761 7 11 7H4.5C3.67157 7 3 7.67157 3 8.5V17.5C3 18.3284 3.67157 19 4.5 19H19.5C20.3284 19 21 18.3284 21 17.5V8.5C21 7.67157 20.3284 7 19.5 7H13.5C13.2239 7 13 7.22386 13 7.5C13 7.77614 13.2239 8 13.5 8H19.5C19.7761 8 20 8.22386 20 8.5V17.5C20 17.7761 19.7761 18 19.5 18H4.5C4.22386 18 4 17.7761 4 17.5V8.5C4 8.22386 4.22386 8 4.5 8H11C11.8284 8 12.5 7.32843 12.5 6.5V4C12.5 3.72386 12.2761 3.5 12 3.5ZM13.5 13C13.5 14.3807 14.6193 15.5 16 15.5C17.3807 15.5 18.5 14.3807 18.5 13C18.5 11.6193 17.3807 10.5 16 10.5C14.6193 10.5 13.5 11.6193 13.5 13ZM17.5 13C17.5 13.8284 16.8284 14.5 16 14.5C15.1716 14.5 14.5 13.8284 14.5 13C14.5 12.1716 15.1716 11.5 16 11.5C16.8284 11.5 17.5 12.1716 17.5 13ZM7.5 10.5H8.5V12.5H10.5V13.5H8.5V15.5H7.5V13.5H5.5V12.5H7.5V10.5Z" fill="black"/>
</svg>
