<svg width="16" height="16" viewBox="0 0 16 16" fill="none" xmlns="http://www.w3.org/2000/svg">
<rect width="16" height="16" rx="4" fill="#FDEBE7"/>
<path d="M3.33331 12.133C3.33331 12.4603 3.56915 12.7325 3.88015 12.7889L3.99998 12.7996L12 12.7996L12.0712 12.7959L12.1708 12.7775L12.2547 12.7493L12.356 12.6967L12.4295 12.6429L12.4714 12.6044L12.5214 12.5485L12.5776 12.466L12.6165 12.3871L12.6445 12.3038L12.6642 12.19L12.6666 4.13298C12.6666 3.76479 12.3682 3.46631 12 3.46631C11.6727 3.46631 11.4005 3.70214 11.3441 4.01314L11.3333 4.13298L11.332 10.5223L5.13805 4.32824C4.8777 4.06789 4.45559 4.06789 4.19524 4.32824C3.96382 4.55966 3.93811 4.91889 4.1181 5.17872L4.19524 5.27105L10.3906 11.4663L3.99998 11.4663C3.63179 11.4663 3.33331 11.7648 3.33331 12.133Z" fill="#F1593B"/>
</svg>
