<svg width="24" height="24" viewBox="0 0 24 24" fill="none" xmlns="http://www.w3.org/2000/svg">
<path fill-rule="evenodd" clip-rule="evenodd" d="M4.06919 11.5557C3.91345 11.5 3.78758 11.3826 3.72129 11.2311C3.58847 10.9275 3.72691 10.5737 4.0305 10.4409L19.2394 3.78704C19.4924 3.67636 19.7872 3.79172 19.8979 4.04471C20.0086 4.2977 19.8932 4.59252 19.6402 4.7032L5.35494 10.953L11.1286 13.015C11.2804 13.0692 11.404 13.1823 11.4716 13.3286L13.9522 18.7034L18.664 6.13875C18.7609 5.88019 19.0491 5.74919 19.3077 5.84615C19.5663 5.94311 19.6973 6.23131 19.6003 6.48988L14.5522 19.9514C14.4968 20.0992 14.3853 20.2193 14.2419 20.2855C13.941 20.4243 13.5845 20.293 13.4457 19.9921L10.634 13.9003L4.06919 11.5557Z" fill="black"/>
</svg>
