<svg width="24" height="24" viewBox="0 0 24 24" fill="none" xmlns="http://www.w3.org/2000/svg">
<path fill-rule="evenodd" clip-rule="evenodd" d="M20.6875 6.875C20.7708 6.91667 20.8438 6.97917 20.9062 7.0625C20.9688 7.14583 21 7.23958 21 7.34375V8.5C21 8.64583 20.9531 8.76562 20.8594 8.85938C20.7656 8.95312 20.6458 9 20.5 9H3.5C3.35417 9 3.23438 8.95312 3.14062 8.85938C3.04688 8.76562 3 8.64583 3 8.5V7.34375C3 7.23958 3.03125 7.14583 3.09375 7.0625C3.15625 6.97917 3.22917 6.91667 3.3125 6.875L11.6562 4.0625C11.7604 4.02083 11.875 4 12 4C12.125 4 12.2396 4.02083 12.3438 4.0625L20.6875 6.875ZM20 8V7.71875L12 5L4 7.71875V8H20ZM20.75 19C20.8125 19 20.8698 19.026 20.9219 19.0781C20.974 19.1302 21 19.1875 21 19.25V19.75C21 19.8125 20.974 19.8698 20.9219 19.9219C20.8698 19.974 20.8125 20 20.75 20H3.25C3.1875 20 3.13021 19.974 3.07812 19.9219C3.02604 19.8698 3 19.8125 3 19.75V19.25C3 19.1875 3.02604 19.1302 3.07812 19.0781C3.13021 19.026 3.1875 19 3.25 19H4V17C4 16.7292 4.10938 16.4948 4.32812 16.2969C4.54688 16.099 4.82292 16 5.15625 16H5.5V10H6.5V16H9.5V10H10.5V16H13.5V10H14.5V16H17.5V10H18.5V16H18.8438C19.1771 16 19.4531 16.099 19.6719 16.2969C19.8906 16.4948 20 16.7292 20 17V19H20.75ZM19 19V17.0312C18.9583 17.0104 18.9062 17 18.8438 17H5.15625C5.09375 17 5.04167 17.0104 5 17.0312V19H19Z" fill="black"/>
<mask id="mask0_244_1062" style="mask-type:alpha" maskUnits="userSpaceOnUse" x="3" y="4" width="18" height="16">
<path fill-rule="evenodd" clip-rule="evenodd" d="M20.6875 6.875C20.7708 6.91667 20.8438 6.97917 20.9062 7.0625C20.9688 7.14583 21 7.23958 21 7.34375V8.5C21 8.64583 20.9531 8.76562 20.8594 8.85938C20.7656 8.95312 20.6458 9 20.5 9H3.5C3.35417 9 3.23438 8.95312 3.14062 8.85938C3.04688 8.76562 3 8.64583 3 8.5V7.34375C3 7.23958 3.03125 7.14583 3.09375 7.0625C3.15625 6.97917 3.22917 6.91667 3.3125 6.875L11.6562 4.0625C11.7604 4.02083 11.875 4 12 4C12.125 4 12.2396 4.02083 12.3438 4.0625L20.6875 6.875ZM20 8V7.71875L12 5L4 7.71875V8H20ZM20.75 19C20.8125 19 20.8698 19.026 20.9219 19.0781C20.974 19.1302 21 19.1875 21 19.25V19.75C21 19.8125 20.974 19.8698 20.9219 19.9219C20.8698 19.974 20.8125 20 20.75 20H3.25C3.1875 20 3.13021 19.974 3.07812 19.9219C3.02604 19.8698 3 19.8125 3 19.75V19.25C3 19.1875 3.02604 19.1302 3.07812 19.0781C3.13021 19.026 3.1875 19 3.25 19H4V17C4 16.7292 4.10938 16.4948 4.32812 16.2969C4.54688 16.099 4.82292 16 5.15625 16H5.5V10H6.5V16H9.5V10H10.5V16H13.5V10H14.5V16H17.5V10H18.5V16H18.8438C19.1771 16 19.4531 16.099 19.6719 16.2969C19.8906 16.4948 20 16.7292 20 17V19H20.75ZM19 19V17.0312C18.9583 17.0104 18.9062 17 18.8438 17H5.15625C5.09375 17 5.04167 17.0104 5 17.0312V19H19Z" fill="white"/>
</mask>
<g mask="url(#mask0_244_1062)">
</g>
</svg>
