<svg width="16" height="16" viewBox="0 0 16 16" fill="none" xmlns="http://www.w3.org/2000/svg">
<rect width="16" height="16" rx="4" fill="#F4FFEE"/>
<path d="M12 12.7998C12.3273 12.7998 12.5995 12.564 12.656 12.253L12.6667 12.1331V4.13314L12.6629 4.0619L12.6446 3.96228L12.6163 3.87842L12.5638 3.77712L12.5099 3.70362L12.4714 3.66173L12.4156 3.61175L12.3331 3.55547L12.2542 3.51662L12.1709 3.48862L12.0571 3.4689L4.00004 3.46647C3.63185 3.46647 3.33337 3.76495 3.33337 4.13314C3.33337 4.46042 3.56921 4.73262 3.88021 4.78906L4.00004 4.7998L10.3894 4.80114L4.1953 10.9951C3.93495 11.2554 3.93495 11.6775 4.1953 11.9379C4.42672 12.1693 4.78596 12.195 5.04578 12.015L5.13811 11.9379L11.3334 5.74247V12.1331C11.3334 12.5013 11.6319 12.7998 12 12.7998Z" fill="#6AB941"/>
</svg>
