<svg width="24" height="24" viewBox="0 0 24 24" fill="none" xmlns="http://www.w3.org/2000/svg">
<path fill-rule="evenodd" clip-rule="evenodd" d="M7.54818 7.95724C7.73163 8.16363 8.04767 8.18222 8.25406 7.99876L11.6678 4.96431C11.8573 4.79591 12.1427 4.79591 12.3322 4.96431L18.5026 10.4491C18.5009 10.4659 18.5 10.4829 18.5 10.5001V20.0001H10V13.5001H14V19.0001C14 19.2762 14.2239 19.5001 14.5 19.5001C14.7761 19.5001 15 19.2762 15 19.0001V13.4001C15 12.903 14.5971 12.5001 14.1 12.5001H9.90001C9.40295 12.5001 9.00001 12.903 9.00001 13.4001V20.1001C9.00001 20.5971 9.40295 21.0001 9.90001 21.0001H18.6C19.0971 21.0001 19.5 20.5971 19.5 20.1001V11.3357L20.6678 12.3738C20.8742 12.5572 21.1903 12.5386 21.3737 12.3322C21.5572 12.1258 21.5386 11.8098 21.3322 11.6264L12.9966 4.2169C12.4282 3.71172 11.5718 3.71172 11.0035 4.2169L7.5897 7.25135C7.38331 7.43481 7.36472 7.75085 7.54818 7.95724ZM7.00302 9.1108L5.4972 10.4493L5.49998 20L8.00003 20.0001C8.27617 20.0001 8.50002 20.2239 8.50001 20.5001C8.49999 20.7762 8.27613 21.0001 7.99998 21.0001L5.40001 20.9999C4.90305 20.9999 4.50014 20.5972 4.50001 20.1002L4.49746 11.338L3.33219 12.3738C3.1258 12.5572 2.80976 12.5386 2.6263 12.3322C2.44284 12.1258 2.46143 11.8098 2.66782 11.6264L4.58374 9.92332C4.63014 9.85527 4.6929 9.79927 4.76637 9.76098L6.00302 8.66173V5.40006C6.00302 4.903 6.40597 4.50006 6.90302 4.50006H8.00001C8.27615 4.50006 8.50001 4.72392 8.50001 5.00006C8.50001 5.2762 8.27615 5.50006 8.00001 5.50006H7.00302V9.1108Z" fill="black"/>
</svg>
