<svg width="20" height="21" viewBox="0 0 20 21" fill="none" xmlns="http://www.w3.org/2000/svg">
<path d="M10 13.7812C10.3125 13.7812 10.5469 13.8984 10.7812 14.0938C10.9766 14.3281 11.0938 14.5625 11.0938 14.875C11.0938 15.1875 10.9766 15.4609 10.7812 15.6562C10.5469 15.8906 10.3125 15.9688 10 15.9688C9.6875 15.9688 9.41406 15.8906 9.21875 15.6562C8.98438 15.4609 8.90625 15.1875 8.90625 14.875C8.90625 14.5625 8.98438 14.3281 9.21875 14.0938C9.41406 13.8984 9.6875 13.7812 10 13.7812ZM10.3125 12.8438C10.4297 12.8438 10.5469 12.8047 10.625 12.7266C10.7031 12.6484 10.7812 12.5312 10.7812 12.375C10.7812 12.0625 10.8984 11.75 11.1328 11.4375C11.2891 11.2812 11.5625 11.0859 12.0312 10.7734C12.5781 10.4219 13.0078 10.1094 13.2422 9.79688C13.5938 9.36719 13.7891 8.82031 13.7891 8.15625C13.7891 7.21875 13.3984 6.47656 12.6953 5.89062C11.9531 5.34375 11.0547 5.03125 10 5.03125C9.14062 5.03125 8.4375 5.1875 7.85156 5.5C7.34375 5.8125 6.875 6.24219 6.40625 6.78906C6.32812 6.90625 6.28906 7.02344 6.32812 7.14062C6.32812 7.29688 6.40625 7.375 6.52344 7.45312L7.03125 7.80469C7.10938 7.88281 7.22656 7.92188 7.38281 7.88281C7.5 7.88281 7.57812 7.80469 7.65625 7.72656C7.96875 7.33594 8.28125 7.0625 8.63281 6.86719C8.98438 6.71094 9.45312 6.59375 10 6.59375C10.7031 6.59375 11.2891 6.78906 11.6797 7.10156C12.0312 7.41406 12.2266 7.76562 12.2266 8.15625C12.2266 8.50781 12.0703 8.82031 11.8359 9.05469C11.6797 9.21094 11.4062 9.44531 10.9766 9.71875C10.3906 10.1094 10 10.4219 9.76562 10.6562C9.375 11.125 9.21875 11.7109 9.21875 12.375C9.21875 12.5312 9.25781 12.6484 9.33594 12.7266C9.41406 12.8047 9.53125 12.8438 9.6875 12.8438H10.3125ZM10 2.0625C8.4375 2.0625 7.03125 2.45312 5.74219 3.19531C4.45312 3.97656 3.4375 4.99219 2.69531 6.28125C1.91406 7.57031 1.5625 8.97656 1.5625 10.5C1.5625 12.0625 1.91406 13.4688 2.69531 14.7578C3.4375 16.0469 4.45312 17.0625 5.74219 17.8047C7.03125 18.5859 8.4375 18.9375 10 18.9375C11.5234 18.9375 12.9297 18.5859 14.2188 17.8047C15.5078 17.0625 16.5234 16.0469 17.3047 14.7578C18.0469 13.4688 18.4375 12.0625 18.4375 10.5C18.4375 8.97656 18.0469 7.57031 17.3047 6.28125C16.5234 4.99219 15.5078 3.97656 14.2188 3.19531C12.8906 2.45312 11.4844 2.0625 10 2.0625ZM10 0.8125C11.7188 0.8125 13.3594 1.28125 14.8438 2.14062C16.3281 3 17.5 4.17188 18.3594 5.65625C19.2188 7.14062 19.6875 8.78125 19.6875 10.5C19.6875 12.2578 19.2188 13.8594 18.3594 15.3438C17.5 16.8281 16.3281 18.0391 14.8438 18.8984C13.3594 19.7578 11.7188 20.1875 10 20.1875C8.24219 20.1875 6.64062 19.7578 5.15625 18.8984C3.67188 18.0391 2.46094 16.8281 1.60156 15.3438C0.742188 13.8594 0.3125 12.2578 0.3125 10.5C0.3125 8.78125 0.742188 7.14062 1.60156 5.65625C2.46094 4.17188 3.67188 3 5.15625 2.14062C6.64062 1.28125 8.24219 0.8125 10 0.8125Z" fill="white"/>
</svg>
