<svg width="24" height="24" viewBox="0 0 24 24" fill="none" xmlns="http://www.w3.org/2000/svg">
<path fill-rule="evenodd" clip-rule="evenodd" d="M14.2081 6H12.5V3.44489L15.8415 6.56881C15.9426 6.66336 16 6.79561 16 6.93406V15.0415C16.1626 15.0142 16.3296 15 16.5 15C16.6704 15 16.8374 15.0142 17 15.0415V6.93406C17 6.51872 16.8278 6.12197 16.5244 5.83833L12.678 2.2424C12.3956 1.97838 11.9527 1.99329 11.6887 2.27569C11.5674 2.40536 11.5 2.57623 11.5 2.75374V6.1C11.5 6.59706 11.9029 7 12.4 7H14.2081C14.4843 7 14.7081 6.77614 14.7081 6.5C14.7081 6.22386 14.4843 6 14.2081 6ZM13.5 18C13.5 17.6494 13.5602 17.3128 13.6707 17H6.5C6.22386 17 6 16.7761 6 16.5V3.5C6 3.22386 6.22386 3 6.5 3H10.1853C10.4614 3 10.6853 2.77614 10.6853 2.5C10.6853 2.22386 10.4614 2 10.1853 2H6.5C5.67157 2 5 2.67157 5 3.5V16.5C5 17.3284 5.67157 18 6.5 18H13.5Z" fill="black"/>
<path fill-rule="evenodd" clip-rule="evenodd" d="M20.0649 20.8168C19.9395 21.0629 19.6384 21.1607 19.3924 21.0353C19.1463 20.91 19.0485 20.6089 19.1739 20.3628C19.9261 18.8866 19.3391 17.08 17.8628 16.3278C16.3866 15.5756 14.58 16.1626 13.8278 17.6389C13.0756 19.1151 13.6626 20.9217 15.1389 21.6739C16.0178 22.1217 17.0416 22.1059 17.8989 21.6555C18.1433 21.5271 18.4456 21.6211 18.5741 21.8656C18.7025 22.1101 18.6084 22.4124 18.364 22.5408C17.2224 23.1405 15.856 23.1616 14.6849 22.5649C12.7165 21.562 11.9339 19.1532 12.9368 17.1849C13.9398 15.2165 16.3485 14.4339 18.3168 15.4368C20.2852 16.4398 21.0678 18.8485 20.0649 20.8168Z" fill="black"/>
<rect x="8" y="9" width="6" height="1" rx="0.5" fill="black"/>
<rect x="8" y="11" width="6" height="1" rx="0.5" fill="black"/>
<rect x="8" y="13" width="4" height="1" rx="0.5" fill="black"/>
<rect x="16" y="17" width="1" height="3" rx="0.5" fill="black"/>
<rect x="16" y="19" width="2" height="1" rx="0.5" fill="black"/>
</svg>
