<svg width="24" height="24" viewBox="0 0 24 24" fill="none" xmlns="http://www.w3.org/2000/svg">
<path fill-rule="evenodd" clip-rule="evenodd" d="M5.57143 19.9949C5.60253 19.9983 5.63433 20 5.66667 20H18.3333C18.3657 20 18.3975 19.9983 18.4286 19.9949C18.4519 19.9983 18.4757 20 18.5 20C18.7761 20 19 19.7761 19 19.5V18.5C19 18.2239 18.7761 18 18.5 18C18.2239 18 18 18.2239 18 18.5V19H6V18.5C6 18.2239 5.77614 18 5.5 18C5.22386 18 5 18.2239 5 18.5V19.5C5 19.7761 5.22386 20 5.5 20C5.52425 20 5.5481 19.9983 5.57143 19.9949ZM14.5 9C14.5 9.27614 14.7239 9.5 15 9.5H18V16.5H6L6 9.5H9C9.27614 9.5 9.5 9.27614 9.5 9C9.5 8.72386 9.27614 8.5 9 8.5H6C5.44772 8.5 5 8.94771 5 9.5L5 16.5C5 17.0523 5.44772 17.5 6 17.5H18C18.5523 17.5 19 17.0523 19 16.5V9.5C19 8.94771 18.5523 8.5 18 8.5H15C14.7239 8.5 14.5 8.72386 14.5 9ZM15.3536 11.1464C15.1583 10.9512 14.8417 10.9512 14.6464 11.1464L12.5 13.2929V4.5C12.5 4.22386 12.2761 4 12 4C11.7239 4 11.5 4.22386 11.5 4.5V13.2929L9.35355 11.1464C9.15829 10.9512 8.84171 10.9512 8.64645 11.1464C8.45118 11.3417 8.45118 11.6583 8.64645 11.8536L11.6464 14.8536C11.8417 15.0488 12.1583 15.0488 12.3536 14.8536L15.3536 11.8536C15.5488 11.6583 15.5488 11.3417 15.3536 11.1464Z" fill="black"/>
<mask id="mask0_244_1012" style="mask-type:alpha" maskUnits="userSpaceOnUse" x="5" y="4" width="14" height="16">
<path fill-rule="evenodd" clip-rule="evenodd" d="M5.57143 19.9949C5.60253 19.9983 5.63433 20 5.66667 20H18.3333C18.3657 20 18.3975 19.9983 18.4286 19.9949C18.4519 19.9983 18.4757 20 18.5 20C18.7761 20 19 19.7761 19 19.5V18.5C19 18.2239 18.7761 18 18.5 18C18.2239 18 18 18.2239 18 18.5V19H6V18.5C6 18.2239 5.77614 18 5.5 18C5.22386 18 5 18.2239 5 18.5V19.5C5 19.7761 5.22386 20 5.5 20C5.52425 20 5.5481 19.9983 5.57143 19.9949ZM14.5 9C14.5 9.27614 14.7239 9.5 15 9.5H18V16.5H6L6 9.5H9C9.27614 9.5 9.5 9.27614 9.5 9C9.5 8.72386 9.27614 8.5 9 8.5H6C5.44772 8.5 5 8.94771 5 9.5L5 16.5C5 17.0523 5.44772 17.5 6 17.5H18C18.5523 17.5 19 17.0523 19 16.5V9.5C19 8.94771 18.5523 8.5 18 8.5H15C14.7239 8.5 14.5 8.72386 14.5 9ZM15.3536 11.1464C15.1583 10.9512 14.8417 10.9512 14.6464 11.1464L12.5 13.2929V4.5C12.5 4.22386 12.2761 4 12 4C11.7239 4 11.5 4.22386 11.5 4.5V13.2929L9.35355 11.1464C9.15829 10.9512 8.84171 10.9512 8.64645 11.1464C8.45118 11.3417 8.45118 11.6583 8.64645 11.8536L11.6464 14.8536C11.8417 15.0488 12.1583 15.0488 12.3536 14.8536L15.3536 11.8536C15.5488 11.6583 15.5488 11.3417 15.3536 11.1464Z" fill="white"/>
</mask>
<g mask="url(#mask0_244_1012)">
</g>
</svg>
