<svg width="24" height="24" viewBox="0 0 24 24" fill="none" xmlns="http://www.w3.org/2000/svg">
<path fill-rule="evenodd" clip-rule="evenodd" d="M12.3345 7.62835C12.5398 7.81308 12.5564 8.12922 12.3717 8.33448C12.1869 8.53973 11.8708 8.55637 11.6655 8.37164C9.76024 6.65687 8.20956 5.88153 7.04977 5.99751C5.1129 6.1912 4.1488 7.95068 4.98078 10.8626C5.40498 12.3473 6.783 14.3182 8.61018 16.2157C10.0895 17.7519 11.6915 19 12 19C12.3085 19 13.9105 17.7519 15.3899 16.2157C17.217 14.3182 18.5951 12.3473 19.0193 10.8626C19.8432 7.9788 18.96 6.40189 16.902 5.99029C15.8285 5.7756 14.5156 6.1043 13.317 7.08671C13.1034 7.26175 12.7883 7.23051 12.6133 7.01694C12.4383 6.80336 12.4695 6.48832 12.6831 6.31328C14.1132 5.14117 15.7307 4.73622 17.0981 5.0097C19.7463 5.53934 20.9607 7.7076 19.9808 11.1374C19.0704 14.3235 13.6042 20 12 20C10.3958 20 4.9296 14.3235 4.01926 11.1374C3.0273 7.66551 4.34367 5.26314 6.95027 5.00248C8.45714 4.85179 10.2398 5.74312 12.3345 7.62835Z" fill="black"/>
</svg>
