<svg width="24" height="24" viewBox="0 0 24 24" fill="none" xmlns="http://www.w3.org/2000/svg">
<path fill-rule="evenodd" clip-rule="evenodd" d="M20.1 6.89988L3.9 6.89988V17.0999L20.1 17.0999V6.89988ZM3.9 5.99988C3.40294 5.99988 3 6.40282 3 6.89988V17.0999C3 17.5969 3.40294 17.9999 3.9 17.9999H20.1C20.5971 17.9999 21 17.5969 21 17.0999V6.89988C21 6.40282 20.5971 5.99988 20.1 5.99988H3.9ZM8.08588 11.0031C8.56959 11.0031 8.96171 10.611 8.96171 10.1273C8.96171 9.64356 8.56959 9.25144 8.08588 9.25144C7.60218 9.25144 7.21006 9.64356 7.21006 10.1273C7.21006 10.611 7.60218 11.0031 8.08588 11.0031ZM8.08588 11.9031C9.06665 11.9031 9.86171 11.108 9.86171 10.1273C9.86171 9.14651 9.06665 8.35144 8.08588 8.35144C7.10512 8.35144 6.31006 9.14651 6.31006 10.1273C6.31006 11.108 7.10512 11.9031 8.08588 11.9031ZM10.2266 15.1274C10.2266 15.3946 10.4217 15.6482 10.6889 15.6482H10.7175C10.9282 15.6482 11.1118 15.4964 11.1226 15.286C11.1253 15.2334 11.1266 15.1806 11.1266 15.1274C11.1266 13.4481 9.76531 12.0868 8.08603 12.0868C6.40674 12.0868 5.04541 13.4481 5.04541 15.1274C5.04541 15.1806 5.04678 15.2334 5.04947 15.286C5.06028 15.4964 5.24381 15.6482 5.45456 15.6482H5.48319C5.75039 15.6482 5.94541 15.3946 5.94541 15.1274C5.94541 13.9452 6.9038 12.9868 8.08603 12.9868C9.26825 12.9868 10.2266 13.9452 10.2266 15.1274ZM12.5212 8.82214C12.5212 8.57362 12.7227 8.37214 12.9712 8.37214H18.515C18.7636 8.37214 18.965 8.57362 18.965 8.82214C18.965 9.07067 18.7636 9.27214 18.515 9.27214H12.9712C12.7227 9.27214 12.5212 9.07067 12.5212 8.82214ZM12.9712 10.4825C12.7227 10.4825 12.5212 10.684 12.5212 10.9325C12.5212 11.181 12.7227 11.3825 12.9712 11.3825H18.515C18.7636 11.3825 18.965 11.181 18.965 10.9325C18.965 10.684 18.7636 10.4825 18.515 10.4825H12.9712ZM12.5212 13.0428C12.5212 12.7943 12.7227 12.5928 12.9712 12.5928H18.515C18.7636 12.5928 18.965 12.7943 18.965 13.0428C18.965 13.2914 18.7636 13.4928 18.515 13.4928H12.9712C12.7227 13.4928 12.5212 13.2914 12.5212 13.0428ZM12.9712 14.7042C12.7227 14.7042 12.5212 14.9056 12.5212 15.1542C12.5212 15.4027 12.7227 15.6042 12.9712 15.6042H18.515C18.7636 15.6042 18.965 15.4027 18.965 15.1542C18.965 14.9056 18.7636 14.7042 18.515 14.7042H12.9712Z" fill="black"/>
</svg>
