<svg width="24" height="24" viewBox="0 0 24 24" fill="none" xmlns="http://www.w3.org/2000/svg">
<path fill-rule="evenodd" clip-rule="evenodd" d="M3.82807 10.0093C4.02733 10.2005 4.34384 10.194 4.53503 9.9947C6.45216 7.99675 8.92962 7 12 7C15.0711 7 17.5591 7.99726 19.4961 9.99645C19.6882 10.1948 20.0048 10.1998 20.2031 10.0076C20.4014 9.81546 20.4064 9.49892 20.2143 9.3006C18.0839 7.10176 15.3351 6 12 6C8.66428 6 5.92456 7.10226 3.81348 9.30234C3.62229 9.50159 3.62882 9.81811 3.82807 10.0093ZM8.96013 15.8129C9.13293 16.0283 9.44762 16.0628 9.66302 15.89C10.4082 15.2922 11.1825 15 12 15C12.8191 15 13.6049 15.2933 14.3704 15.8935C14.5877 16.0639 14.902 16.0258 15.0724 15.8085C15.2428 15.5912 15.2047 15.2769 14.9874 15.1065C14.0522 14.3733 13.0521 14 12 14C10.9464 14 9.95412 14.3745 9.03727 15.11C8.82187 15.2828 8.78734 15.5975 8.96013 15.8129ZM7.12734 12.8536C6.92043 13.0365 6.60445 13.017 6.42157 12.8101C6.23869 12.6032 6.25817 12.2872 6.46508 12.1044C8.04897 10.7044 9.90127 10 12 10C14.1009 10 15.9431 10.713 17.5032 12.1299C17.7076 12.3155 17.7229 12.6317 17.5372 12.8361C17.3516 13.0406 17.0353 13.0558 16.8309 12.8701C15.4547 11.6203 13.8521 11 12 11C10.1457 11 8.52884 11.6149 7.12734 12.8536ZM11 18C11 18.5523 11.4477 19 12 19C12.5523 19 13 18.5523 13 18C13 17.4477 12.5523 17 12 17C11.4477 17 11 17.4477 11 18Z" fill="black"/>
</svg>
