<svg width="24" height="24" viewBox="0 0 24 24" fill="none" xmlns="http://www.w3.org/2000/svg">
<path fill-rule="evenodd" clip-rule="evenodd" d="M12 11.9401C11.7239 11.9401 11.5 12.164 11.5 12.4401L11.5 19.772C11.4995 20.4775 11.5949 20.7895 12.1493 20.9535C12.2883 20.9946 12.4501 21.0064 12.6515 21.0032C12.7533 21.0016 12.8596 20.9958 12.9675 20.9872C13.0377 20.9816 13.0982 20.9756 13.1299 20.9721C17.2902 20.6101 21 16.5439 21 12C21 6.85846 17.2983 3 12 3C6.70174 3 3 6.85846 3 12C3 16.4225 5.87456 19.7645 10.004 20.7618C10.2724 20.8266 10.5426 20.6616 10.6074 20.3932C10.6722 20.1247 10.5072 19.8546 10.2388 19.7898C6.54188 18.8969 4 15.9417 4 12C4 7.40168 7.26351 4 12 4C16.7365 4 20 7.40168 20 12C20 16.0262 16.6857 19.6589 13.0432 19.9759C12.9952 19.9809 12.9468 19.9857 12.888 19.9904C12.7997 19.9974 12.7137 20.0021 12.6356 20.0033C12.5723 20.0043 12.518 20.0026 12.4812 20.0001C12.4959 19.9838 12.4999 19.9226 12.5 19.7415V12.4401C12.5 12.164 12.2761 11.9401 12 11.9401ZM12.4812 20.0001C12.4561 19.9985 12.4391 19.9964 12.4329 19.9946C12.4383 19.9962 12.4433 19.998 12.4479 19.9996C12.4627 20.0049 12.4734 20.0088 12.4812 20.0001ZM12 11C12.5523 11 13 10.5523 13 10C13 9.44772 12.5523 9 12 9C11.4477 9 11 9.44772 11 10C11 10.5523 11.4477 11 12 11Z" fill="black"/>
</svg>
