<svg width="24" height="24" viewBox="0 0 24 24" fill="none" xmlns="http://www.w3.org/2000/svg">
<path fill-rule="evenodd" clip-rule="evenodd" d="M5.50001 9.00005H4.54631L12 3.61681L19.4537 9.00005H18C17.7239 9.00005 17.5 9.2239 17.5 9.50005C17.5 9.77619 17.7239 10 18 10H20.6908C21.0221 10 21.2908 9.73142 21.2908 9.40005C21.2908 9.20738 21.1982 9.02644 21.042 8.91364L12.4099 2.67928C12.1652 2.50258 11.8348 2.50258 11.5902 2.67928L2.95798 8.91364C2.68934 9.10765 2.62885 9.48271 2.82286 9.75134C2.93567 9.90753 3.11661 10 3.30927 10H5.50001V18C5.50001 18.5523 5.94773 19 6.50001 19H17.5C18.0523 19 18.5 18.5523 18.5 18V17H17.5V18H6.50001V10C6.77616 10 7.00001 9.77619 7.00001 9.50005C7.00001 9.2239 6.77616 9.00005 6.50001 9.00005H5.50001ZM4.50001 20C4.22387 20 4.00001 20.2239 4.00001 20.5C4.00001 20.7762 4.22387 21 4.50001 21H19.5C19.7762 21 20 20.7762 20 20.5C20 20.2239 19.7762 20 19.5 20H4.50001ZM21 12C21 11.7239 20.7762 11.5 20.5 11.5H15V10.2415C15 9.9101 14.7314 9.64147 14.4 9.64147C14.2409 9.64147 14.0883 9.70468 13.9757 9.8172L10.7172 13.0758C10.4829 13.3101 10.4829 13.69 10.7172 13.9243L13.9757 17.1829C14.2101 17.4172 14.59 17.4172 14.8243 17.1829C14.9368 17.0704 15 16.9178 15 16.7586V15.5H20.5C20.7762 15.5 21 15.2762 21 15C21 14.7239 20.7762 14.5 20.5 14.5H14V15.7929L11.7071 13.5L14 11.2072V12.5H20.5C20.7762 12.5 21 12.2762 21 12Z" fill="black"/>
</svg>
