<svg width="24" height="24" viewBox="0 0 24 24" fill="none" xmlns="http://www.w3.org/2000/svg">
<path fill-rule="evenodd" clip-rule="evenodd" d="M5.50001 9.00005H4.54631L12 3.61681L19.4537 9.00005H17.5004C17.2243 9.00005 17.0004 9.2239 17.0004 9.50005C17.0004 9.77605 17.2241 9.99983 17.5 10V18H6.50001V10C6.77616 10 7.00001 9.77619 7.00001 9.50005C7.00001 9.2239 6.77616 9.00005 6.50001 9.00005H5.50001ZM6.50001 19H17.5C18.0523 19 18.5 18.5523 18.5 18V10H20.6908C21.0221 10 21.2908 9.73142 21.2908 9.40005C21.2908 9.20738 21.1982 9.02644 21.042 8.91364L12.4099 2.67928C12.1652 2.50258 11.8348 2.50258 11.5902 2.67928L2.95798 8.91364C2.68934 9.10765 2.62885 9.48271 2.82286 9.75134C2.93567 9.90753 3.11661 10 3.30927 10H5.50001V18C5.50001 18.5523 5.94773 19 6.50001 19ZM4.50001 20C4.22387 20 4.00001 20.2239 4.00001 20.5C4.00001 20.7762 4.22387 21 4.50001 21H19.5C19.7762 21 20 20.7762 20 20.5C20 20.2239 19.7762 20 19.5 20H4.50001ZM11.3047 11.6255C11.3047 11.9205 11.4258 12.0765 11.6552 12.1846C11.8319 12.2729 12.016 12.3421 12.2321 12.4012C13.4364 12.7824 13.8605 13.1129 13.8605 14.0369C13.8605 14.8403 13.4095 15.4355 12.6272 15.6659L12.4837 15.7082V16.368C12.4837 16.6333 12.2676 16.8494 12.0023 16.8494C11.737 16.8494 11.5208 16.6333 11.5208 16.368V15.7488L11.3523 15.722C10.6759 15.6142 10.2 15.3727 10.2 15.0226C10.2 14.7658 10.4314 14.5422 10.7042 14.5422C10.8037 14.5422 10.9104 14.5684 11.0963 14.6368L11.1424 14.6524C11.1639 14.6597 11.1752 14.6634 11.1864 14.6672C11.1987 14.6713 11.211 14.6753 11.2367 14.6838C11.4722 14.76 11.6669 14.7986 11.8979 14.7986C12.5051 14.7986 12.7557 14.5202 12.7557 14.0851C12.7557 13.7781 12.6379 13.618 12.4126 13.5179C12.2589 13.452 12.0724 13.3831 11.8257 13.3007C10.6297 12.9349 10.208 12.6055 10.208 11.6575C10.208 10.8775 10.6341 10.3137 11.3741 10.1093L11.5208 10.0688V9.48154C11.5208 9.21619 11.737 9.00005 12.0023 9.00005C12.2676 9.00005 12.4837 9.2162 12.4837 9.48154V10.0471L12.6515 10.0744C13.3074 10.1814 13.6281 10.4174 13.6281 10.7203C13.6281 10.9939 13.4045 11.2004 13.0918 11.2004C13.001 11.2004 12.9365 11.186 12.7909 11.1397C12.7505 11.1268 12.7505 11.1268 12.6968 11.1103C12.47 11.0263 12.3263 10.9923 12.0903 10.9923C11.7028 10.9923 11.4578 11.1193 11.3552 11.3497C11.3138 11.4425 11.3047 11.5165 11.3047 11.6255Z" fill="black"/>
</svg>
