<svg width="24" height="24" viewBox="0 0 24 24" fill="none" xmlns="http://www.w3.org/2000/svg">
<path fill-rule="evenodd" clip-rule="evenodd" d="M14.5796 5.9241L11.4967 9.00707L10.6481 8.15854L13.7311 5.07557C15.1652 3.64148 17.4903 3.64148 18.9244 5.07557C20.3585 6.50967 20.3585 8.8348 18.9244 10.2689L15.8415 13.3519L14.9929 12.5033L18.0759 9.42037C19.0414 8.4549 19.0414 6.88957 18.0759 5.9241C17.1104 4.95863 15.5451 4.95863 14.5796 5.9241ZM8.15857 10.6481L9.0071 11.4966L5.9241 14.5796C4.95863 15.5451 4.95863 17.1104 5.9241 18.0759C6.88957 19.0414 8.4549 19.0414 9.42036 18.0759L12.5034 14.9929L13.3519 15.8414L10.2689 18.9244C8.83479 20.3585 6.50967 20.3585 5.07557 18.9244C3.64148 17.4903 3.64148 15.1652 5.07557 13.7311L8.15857 10.6481ZM7.49295 16.281C7.74846 16.5365 8.16272 16.5365 8.41823 16.281L16.2811 8.41821C16.5366 8.1627 16.5366 7.74843 16.2811 7.49292C16.0255 7.23741 15.6113 7.23741 15.3558 7.49292L7.49295 15.3557C7.23744 15.6113 7.23744 16.0255 7.49295 16.281Z" fill="black"/>
</svg>
