<svg width="24" height="24" viewBox="0 0 24 24" fill="none" xmlns="http://www.w3.org/2000/svg">
<path fill-rule="evenodd" clip-rule="evenodd" d="M5.50001 9.00005H4.54631L12 3.61681L19.4537 9.00005H17.5004C17.2243 9.00005 17.0004 9.2239 17.0004 9.50005C17.0004 9.77605 17.2241 9.99983 17.5 10V18H6.50001V10C6.77616 10 7.00001 9.77619 7.00001 9.50005C7.00001 9.2239 6.77616 9.00005 6.50001 9.00005H5.50001ZM6.50001 19H17.5C18.0523 19 18.5 18.5523 18.5 18V10H20.6908C21.0221 10 21.2908 9.73142 21.2908 9.40005C21.2908 9.20738 21.1982 9.02644 21.042 8.91364L12.4099 2.67928C12.1652 2.50258 11.8348 2.50258 11.5902 2.67928L2.95798 8.91364C2.68934 9.10765 2.62885 9.48271 2.82286 9.75134C2.93567 9.90753 3.11661 10 3.30927 10H5.50001V18C5.50001 18.5523 5.94773 19 6.50001 19ZM4.50001 20C4.22387 20 4.00001 20.2239 4.00001 20.5C4.00001 20.7762 4.22387 21 4.50001 21H19.5C19.7762 21 20 20.7762 20 20.5C20 20.2239 19.7762 20 19.5 20H4.50001ZM9.50001 12C10.0523 12 10.5 11.5523 10.5 11C10.5 10.4478 10.0523 10 9.50001 10C8.94773 10 8.50001 10.4478 8.50001 11C8.50001 11.5523 8.94773 12 9.50001 12ZM15.3 15C15.3 15.5523 14.8523 16 14.3 16C13.7477 16 13.3 15.5523 13.3 15C13.3 14.4478 13.7477 14 14.3 14C14.8523 14 15.3 14.4478 15.3 15ZM14.6033 10.3536C14.4081 10.1583 14.0915 10.1583 13.8962 10.3536L9.65357 14.5962C9.45831 14.7915 9.45831 15.1081 9.65357 15.3033C9.84883 15.4986 10.1654 15.4986 10.3607 15.3033L14.6033 11.0607C14.7986 10.8654 14.7986 10.5489 14.6033 10.3536Z" fill="black"/>
</svg>
