<svg width="24" height="24" viewBox="0 0 24 24" fill="none" xmlns="http://www.w3.org/2000/svg">
<path fill-rule="evenodd" clip-rule="evenodd" d="M13 15C13 14.7239 13.2239 14.5 13.5 14.5C13.7761 14.5 14 14.7239 14 15V18C14 18.5523 13.5523 19 13 19H6C5.44772 19 5 18.5523 5 18V6C5 5.44772 5.44772 5 6 5H13C13.5523 5 14 5.44772 14 6V9C14 9.27614 13.7761 9.5 13.5 9.5C13.2239 9.5 13 9.27614 13 9V6H6V18H13V15ZM16.6464 8.64645C16.8417 8.45118 17.1583 8.45118 17.3536 8.64645L20.3536 11.6464C20.5488 11.8417 20.5488 12.1583 20.3536 12.3536L17.3536 15.3536C17.1583 15.5488 16.8417 15.5488 16.6464 15.3536C16.4512 15.1583 16.4512 14.8417 16.6464 14.6464L18.7929 12.5H10C9.72386 12.5 9.5 12.2761 9.5 12C9.5 11.7239 9.72386 11.5 10 11.5H18.7929L16.6464 9.35355C16.4512 9.15829 16.4512 8.84171 16.6464 8.64645Z" fill="black"/>
</svg>
