<svg width="24" height="24" viewBox="0 0 24 24" fill="none" xmlns="http://www.w3.org/2000/svg">
<path fill-rule="evenodd" clip-rule="evenodd" d="M19 12C19 11.1716 18.3284 10.5 17.5 10.5H16.5V7C16.5 4.78497 14.358 3 12 3C9.64197 3 7.5 4.78497 7.5 7V9.5C7.5 9.77614 7.72386 10 8 10C8.27614 10 8.5 9.77614 8.5 9.5V7C8.5 5.38169 10.158 4 12 4C13.842 4 15.5 5.38169 15.5 7V10.8C15.5 11.1866 15.8134 11.5 16.2 11.5H17.5C17.7761 11.5 18 11.7239 18 12V19.5C18 19.7761 17.7761 20 17.5 20H6.5C6.22386 20 6 19.7761 6 19.5V12C6 11.7239 6.22386 11.5 6.5 11.5H7.5H14.5C14.7761 11.5 15 11.2761 15 11C15 10.7239 14.7761 10.5 14.5 10.5H6.5C5.67157 10.5 5 11.1716 5 12V19.5C5 20.3284 5.67157 21 6.5 21H17.5C18.3284 21 19 20.3284 19 19.5V12ZM10.85 15.125C10.85 14.5063 11.3692 14 12.0038 14C12.6385 14 13.1577 14.5063 13.1577 15.125C13.1577 15.5188 12.9269 15.9125 12.5808 16.0813V16.8125C12.5808 17.15 12.35 17.375 12.0038 17.375C11.6577 17.375 11.4269 17.15 11.4269 16.8125V16.0813C11.0808 15.9125 10.85 15.5188 10.85 15.125Z" fill="black"/>
</svg>
