<svg width="24" height="24" viewBox="0 0 24 24" fill="none" xmlns="http://www.w3.org/2000/svg">
<path fill-rule="evenodd" clip-rule="evenodd" d="M11.035 7.31436L10.677 8.79168C10.6119 9.06005 10.3416 9.22488 10.0733 9.15983C9.80488 9.09478 9.64006 8.82449 9.70511 8.55612L10.0659 7.06811L10.5168 5.37215C10.575 5.15309 10.7733 5.00061 11 5.00061H13C13.2174 5.00061 13.4099 5.14113 13.4762 5.34822L17.4762 17.8476C17.4924 17.8982 17.5001 17.9495 17.5001 18H19.5C19.7761 18 20 18.2238 20 18.5C20 18.7761 19.7761 19 19.5 19H4.5C4.22386 19 4 18.7761 4 18.5C4 18.2238 4.22386 18 4.5 18H6.49986C6.49987 17.9476 6.50818 17.8943 6.52566 17.8419L9.02566 10.3419C9.09679 10.1285 9.29784 9.99498 9.51154 9.99998H13.9149L12.635 6.00061H11.3844L11.035 7.31436ZM14.2349 11H9.86038L8.86038 14H15.195L14.2349 11ZM7.52705 18L8.52705 15H15.515L16.475 18H7.52705Z" fill="black"/>
</svg>
