<svg width="24" height="24" viewBox="0 0 24 24" fill="none" xmlns="http://www.w3.org/2000/svg">
<path fill-rule="evenodd" clip-rule="evenodd" d="M3.01365 11.5H3V12V12.5H3.01365C3.2731 17.238 7.19722 21 12 21C16.8028 21 20.7269 17.238 20.9863 12.5H21V12V11.5H20.9863C20.7269 6.76201 16.8028 3 12 3C7.19722 3 3.2731 6.76201 3.01365 11.5ZM4.01537 12.5C4.10391 13.9358 4.57116 15.2691 5.31846 16.4013C6.24993 16.1246 7.27611 15.9138 8.3972 15.7684C8.17681 14.7667 8.03786 13.664 8.00668 12.5H4.01537ZM8.00668 11.5H4.01537C4.10335 10.0733 4.56528 8.74774 5.30434 7.62019C6.23804 7.89846 7.26711 8.11043 8.39173 8.25651C8.17451 9.25163 8.0376 10.3456 8.00668 11.5ZM9.00742 12.5C9.0408 13.6261 9.18501 14.6966 9.40274 15.6579C10.3708 15.5697 11.4032 15.5257 12.5 15.5257C13.2575 15.5257 13.9641 15.5466 14.6202 15.5887C14.8257 14.6486 14.961 13.6035 14.9928 12.5H9.00742ZM14.9928 11.5H9.00742C9.04051 10.3837 9.18251 9.32202 9.39707 8.36725C10.3668 8.45583 11.4011 8.5 12.5 8.5C13.2596 8.5 13.9681 8.47896 14.6257 8.43657C14.8281 9.37017 14.9613 10.4064 14.9928 11.5ZM15.9935 12.5C15.964 13.6329 15.835 14.7019 15.6299 15.6747C16.8714 15.8087 17.8983 16.0338 18.7133 16.3527C19.4421 15.2311 19.8974 13.9153 19.9846 12.5H15.9935ZM19.9846 11.5H15.9935C15.9642 10.3768 15.8372 9.31645 15.6352 8.35037C16.881 8.21557 17.9106 7.98896 18.7266 7.66772C19.4476 8.78493 19.8979 10.0933 19.9846 11.5ZM10.0637 19.7641C8.44923 19.3627 7.02856 18.4711 5.96894 17.2563C6.78408 17.0361 7.67668 16.8656 8.64658 16.7448C9.01034 17.9864 9.50363 19.0242 10.0637 19.7641ZM12 20C11.2047 20 10.2727 18.6605 9.66108 16.639C10.5491 16.5635 11.4955 16.5257 12.5 16.5257C13.1657 16.5257 13.7886 16.5423 14.3683 16.5754C13.76 18.6417 12.8149 20 12 20ZM13.9522 19.7601C14.524 19.0053 15.0254 17.9392 15.3889 16.6551C16.4732 16.7647 17.374 16.9433 18.0893 17.1887C17.0272 18.434 15.5898 19.3494 13.9522 19.7601ZM14.3757 7.44979C13.7939 7.48318 13.1686 7.5 12.5 7.5C11.4926 7.5 10.5438 7.46194 9.65354 7.38601C10.265 5.35051 11.2014 4 12 4C12.8182 4 13.7677 5.36937 14.3757 7.44979ZM18.1062 6.83117C17.3897 7.07903 16.4856 7.25933 15.3959 7.36984C15.0318 6.07464 14.5277 4.99958 13.9522 4.23988C15.5985 4.65273 17.0425 5.57576 18.1062 6.83117ZM8.63935 7.27998C7.66508 7.15836 6.76888 6.98644 5.95089 6.76452C7.0124 5.53911 8.44004 4.63954 10.0637 4.23593C9.49991 4.98066 9.00379 6.02738 8.63935 7.27998Z" fill="black"/>
</svg>
