<svg width="24" height="24" viewBox="0 0 24 24" fill="none" xmlns="http://www.w3.org/2000/svg">
<path fill-rule="evenodd" clip-rule="evenodd" d="M5.50001 9.00005H4.54631L12 3.61681L19.4537 9.00005H18.5H17.5C17.2239 9.00005 17 9.2239 17 9.50005C17 9.77619 17.2239 10 17.5 10V18H6.50001V10C6.77616 10 7.00001 9.77619 7.00001 9.50005C7.00001 9.2239 6.77616 9.00005 6.50001 9.00005H5.50001ZM6.50001 19H17.5C18.0523 19 18.5 18.5523 18.5 18V10H20.6908C21.0221 10 21.2908 9.73142 21.2908 9.40005C21.2908 9.20738 21.1982 9.02644 21.042 8.91364L12.4099 2.67928C12.1652 2.50258 11.8348 2.50258 11.5902 2.67928L2.95798 8.91364C2.68934 9.10765 2.62885 9.48271 2.82286 9.75134C2.93567 9.90753 3.11661 10 3.30927 10H5.50001V18C5.50001 18.5523 5.94773 19 6.50001 19ZM4.50001 20C4.22387 20 4.00001 20.2239 4.00001 20.5C4.00001 20.7762 4.22387 21 4.50001 21H19.5C19.7762 21 20 20.7762 20 20.5C20 20.2239 19.7762 20 19.5 20H4.50001ZM10.5 10H9.50001V16H10.5V13.7166L11.2566 13.0089L13.5037 16.005L14.7381 16L11.991 12.3219L14.4732 10H13.0038L10.5 12.3466V10Z" fill="black"/>
</svg>
