<svg width="24" height="24" viewBox="0 0 24 24" fill="none" xmlns="http://www.w3.org/2000/svg">
<path fill-rule="evenodd" clip-rule="evenodd" d="M3.75 6C3.33579 6 3 6.33579 3 6.75C3 7.16421 3.33579 7.5 3.75 7.5H20.25C20.6642 7.5 21 7.16421 21 6.75C21 6.33579 20.6642 6 20.25 6H3.75ZM3 12C3 11.5858 3.33579 11.25 3.75 11.25H20.25C20.6642 11.25 21 11.5858 21 12C21 12.4142 20.6642 12.75 20.25 12.75H3.75C3.33579 12.75 3 12.4142 3 12ZM3 17.25C3 16.8358 3.33579 16.5 3.75 16.5H20.25C20.6642 16.5 21 16.8358 21 17.25C21 17.6642 20.6642 18 20.25 18H3.75C3.33579 18 3 17.6642 3 17.25Z" fill="black"/>
</svg>
