<svg width="24" height="24" viewBox="0 0 24 24" fill="none" xmlns="http://www.w3.org/2000/svg">
<path fill-rule="evenodd" clip-rule="evenodd" d="M6.53571 3.18329L4.08333 7.19031C4.02442 7.28657 4 7.36796 4 7.44944V9.45295C4 9.89168 4.20152 10.2787 4.5 10.5582V20.1C4.5 20.5971 4.90294 21 5.4 21H8C8.27614 21 8.5 20.7761 8.5 20.5C8.5 20.2239 8.27614 20 8 20H5.5V11.0562C5.50765 11.0592 5.5156 11.062 5.52381 11.0648V11.0646C5.64635 11.0859 5.87087 11.0899 6 11.0899C6.49998 11.0899 6.86424 10.9243 7.21429 10.6412C7.29283 10.5776 7.36217 10.5092 7.42857 10.4326C7.49497 10.5092 7.56431 10.5776 7.64286 10.6412C7.99291 10.9243 8.50002 11.0935 9 11.0935C9.49998 11.0935 9.91186 10.9243 10.2619 10.6412C10.3404 10.5776 10.4098 10.5092 10.4762 10.4326C10.5426 10.5092 10.6119 10.5776 10.6905 10.6412C11.0405 10.9243 11.5 11.0899 12 11.0899C12.5 11.0899 12.9595 10.9243 13.3095 10.6412C13.3881 10.5776 13.4574 10.5092 13.5238 10.4326C13.5902 10.5092 13.6596 10.5776 13.7381 10.6412C14.0881 10.9243 14.5476 11.0899 15.0476 11.0899C15.5476 11.0899 16.0071 10.9243 16.3571 10.6412C16.4357 10.5776 16.505 10.5092 16.5714 10.4326C16.6378 10.5092 16.7072 10.5776 16.7857 10.6412C17.1358 10.9243 17.5953 11.0899 18.0952 11.0899C18.1956 11.0899 18.296 11.0875 18.3933 11.0764L18.4584 11.0676L18.4762 11.0646V11.0651L18.5 11.0618V20H10V14H14V19C14 19.2761 14.2239 19.5 14.5 19.5C14.7761 19.5 15 19.2761 15 19V13.9C15 13.4029 14.5971 13 14.1 13H9.9C9.40294 13 9 13.4029 9 13.9V20.1C9 20.5971 9.40294 21 9.9 21H18.6C19.0971 21 19.5 20.5971 19.5 20.1V10.5582C19.7985 10.2787 20 9.89168 20 9.45295V7.44944C19.985 7.34529 19.9756 7.28657 19.9167 7.19031L17.4643 3.18329C17.3771 3.0409 17.2672 3 17.1429 3H12H6.85714C6.71431 3 6.5941 3.08789 6.53571 3.18329ZM16 8H14V9.5C14 9.5 14.1 10.2809 15 10.2809C15.9 10.2809 16 9.5 16 9.5V8ZM7 8H5V9.5C5 9.5 5.1 10.2809 6 10.2809C6.9 10.2809 7 9.5 7 9.5V8ZM8 8H10V9.5C10 9.5 9.9 10.2809 9 10.2809C8.1 10.2809 8 9.69899 8 9.5V8ZM12 8H11V9.5C11 9.5 11.1 10.2809 12 10.2809C12.9 10.2809 13 9.5 13 9.5V8H12ZM17 8H19V9.5C19 9.5 18.9 10.2809 18 10.2809C17.1 10.2809 17 9.5 17 9.5V8ZM8.2 4H7.05952L5.2 7H7L8.2 4ZM9.10119 4H10.6L10 7H8L9.10119 4ZM12 4H11.3988L11 7H12H13L12.6012 4H12ZM13.4 4H14.8988L16 7H14L13.4 4ZM16.9405 4H15.8L17 7H18.8L16.9405 4Z" fill="black"/>
</svg>
