<svg width="24" height="24" viewBox="0 0 24 24" fill="none" xmlns="http://www.w3.org/2000/svg">
<path d="M8.35931 5.28253C8.35931 6.13499 7.66826 6.82605 6.8158 6.82605C5.96333 6.82605 5.27228 6.13499 5.27228 5.28253C5.27228 4.43007 5.96333 3.73901 6.8158 3.73901C7.66826 3.73901 8.35931 4.43007 8.35931 5.28253Z" fill="black"/>
<path d="M8.35931 10.0384C8.35931 10.8909 7.66826 11.5819 6.8158 11.5819C5.96333 11.5819 5.27228 10.8909 5.27228 10.0384C5.27228 9.18593 5.96333 8.49487 6.8158 8.49487C7.66826 8.49487 8.35931 9.18593 8.35931 10.0384Z" fill="black"/>
<path d="M8.35931 14.7945C8.35931 15.647 7.66826 16.338 6.8158 16.338C5.96333 16.338 5.27228 15.647 5.27228 14.7945C5.27228 13.942 5.96333 13.251 6.8158 13.251C7.66826 13.251 8.35931 13.942 8.35931 14.7945Z" fill="black"/>
<path d="M13.5437 5.28253C13.5437 6.13499 12.8526 6.82605 12.0002 6.82605C11.1477 6.82605 10.4567 6.13499 10.4567 5.28253C10.4567 4.43007 11.1477 3.73901 12.0002 3.73901C12.8526 3.73901 13.5437 4.43007 13.5437 5.28253Z" fill="black"/>
<path d="M13.5437 10.0384C13.5437 10.8909 12.8526 11.5819 12.0002 11.5819C11.1477 11.5819 10.4567 10.8909 10.4567 10.0384C10.4567 9.18593 11.1477 8.49487 12.0002 8.49487C12.8526 8.49487 13.5437 9.18593 13.5437 10.0384Z" fill="black"/>
<path d="M13.5437 14.7945C13.5437 15.647 12.8526 16.338 12.0002 16.338C11.1477 16.338 10.4567 15.647 10.4567 14.7945C10.4567 13.942 11.1477 13.251 12.0002 13.251C12.8526 13.251 13.5437 13.942 13.5437 14.7945Z" fill="black"/>
<path d="M13.5437 19.5506C13.5437 20.4031 12.8526 21.0941 12.0002 21.0941C11.1477 21.0941 10.4567 20.4031 10.4567 19.5506C10.4567 18.6981 11.1477 18.0071 12.0002 18.0071C12.8526 18.0071 13.5437 18.6981 13.5437 19.5506Z" fill="black"/>
<path d="M18.7277 5.28253C18.7277 6.13499 18.0367 6.82605 17.1842 6.82605C16.3317 6.82605 15.6407 6.13499 15.6407 5.28253C15.6407 4.43007 16.3317 3.73901 17.1842 3.73901C18.0367 3.73901 18.7277 4.43007 18.7277 5.28253Z" fill="black"/>
<path d="M18.7277 10.0384C18.7277 10.8909 18.0367 11.5819 17.1842 11.5819C16.3317 11.5819 15.6407 10.8909 15.6407 10.0384C15.6407 9.18593 16.3317 8.49487 17.1842 8.49487C18.0367 8.49487 18.7277 9.18593 18.7277 10.0384Z" fill="black"/>
<path d="M18.7277 14.7945C18.7277 15.647 18.0367 16.338 17.1842 16.338C16.3317 16.338 15.6407 15.647 15.6407 14.7945C15.6407 13.942 16.3317 13.251 17.1842 13.251C18.0367 13.251 18.7277 13.942 18.7277 14.7945Z" fill="black"/>
</svg>
