<svg width="24" height="24" viewBox="0 0 24 24" fill="none" xmlns="http://www.w3.org/2000/svg">
<path fill-rule="evenodd" clip-rule="evenodd" d="M9.5908 1.73291C8.95408 1.73291 8.5187 2.37598 8.75517 2.96716L10.3364 6.9203C10.1234 7.08489 9.98621 7.34288 9.98621 7.63291V8.32767C9.98621 8.37957 9.99061 8.43044 9.99904 8.47994C6.54901 9.36835 3.99988 12.5004 3.99988 16.2278V20.3675C3.99988 21.4169 4.85054 22.2675 5.89988 22.2675H18.1001C19.1494 22.2675 20.0001 21.4169 20.0001 20.3675V16.2278C20.0001 14.4269 19.4045 12.7638 18.3997 11.4265C18.2339 11.2057 17.9204 11.1612 17.6996 11.3271C17.4789 11.493 17.4344 11.8064 17.6002 12.0272C18.4794 13.1972 19.0001 14.651 19.0001 16.2278V20.3675C19.0001 20.8646 18.5972 21.2675 18.1001 21.2675H5.89988C5.40282 21.2675 4.99988 20.8646 4.99988 20.3675V16.2278C4.99988 12.3626 8.13252 9.22908 11.9974 9.22767L12 9.22766L12.0026 9.22767C13.764 9.22831 15.3723 9.87888 16.6025 10.9533C16.8105 11.1349 17.1263 11.1136 17.308 10.9056C17.4896 10.6976 17.4683 10.3818 17.2603 10.2001C16.3367 9.39345 15.2254 8.79544 14.0009 8.48004C14.0094 8.43051 14.0138 8.3796 14.0138 8.32767V7.63291C14.0138 7.34288 13.8766 7.08489 13.6635 6.9203L15.2448 2.96716C15.4813 2.37598 15.0459 1.73291 14.4092 1.73291H11.5537C11.2775 1.73291 11.0537 1.95677 11.0537 2.23291C11.0537 2.50905 11.2775 2.73291 11.5537 2.73291H14.2615L12.6615 6.73291H11.3385L9.7385 2.73291H10.0383C10.3145 2.73291 10.5383 2.50905 10.5383 2.23291C10.5383 1.95677 10.3145 1.73291 10.0383 1.73291H9.5908ZM10.9862 8.22767V7.73291H11.2708H12.7292H13.0138V8.22767H12.0028L12 8.22766L11.9972 8.22767H10.9862ZM11.2745 14.5873C11.2745 14.8824 11.3955 15.0383 11.625 15.1464C11.8016 15.2348 11.9858 15.3039 12.2019 15.3631C13.4061 15.7443 13.8302 16.0747 13.8302 16.9988C13.8302 17.8021 13.3792 18.3974 12.597 18.6278L12.4535 18.6701V19.3298C12.4535 19.5952 12.2373 19.8113 11.9721 19.8113C11.7067 19.8113 11.4906 19.5952 11.4906 19.3298V18.7107L11.3221 18.6838C10.6456 18.576 10.1698 18.3346 10.1698 17.9844C10.1698 17.7276 10.4012 17.504 10.674 17.504C10.7735 17.504 10.8801 17.5303 11.0661 17.5987L11.1122 17.6143C11.1337 17.6215 11.1449 17.6253 11.1561 17.6291C11.1684 17.6331 11.1807 17.6372 11.2064 17.6456C11.4419 17.7219 11.6366 17.7605 11.8677 17.7605C12.4749 17.7605 12.7254 17.4821 12.7254 17.0469C12.7254 16.74 12.6077 16.5799 12.3823 16.4797C12.2287 16.4139 12.0422 16.345 11.7955 16.2626C10.5995 15.8967 10.1777 15.5674 10.1777 14.6193C10.1777 13.8394 10.6039 13.2756 11.3438 13.0712L11.4906 13.0307V12.4434C11.4906 12.1781 11.7067 11.9619 11.9721 11.9619C12.2373 11.9619 12.4535 12.1781 12.4535 12.4434V13.0089L12.6213 13.0363C13.2772 13.1433 13.5979 13.3792 13.5979 13.6822C13.5979 13.9557 13.3742 14.1623 13.0615 14.1623C12.9708 14.1623 12.9063 14.1479 12.7606 14.1015C12.7433 14.096 12.7334 14.0929 12.7235 14.0898C12.7104 14.0856 12.6972 14.0816 12.6665 14.0722C12.4397 13.9882 12.2961 13.9541 12.0601 13.9541C11.6725 13.9541 11.4276 14.0811 11.3249 14.3116C11.2836 14.4044 11.2745 14.4784 11.2745 14.5873Z" fill="black"/>
</svg>
