<svg width="24" height="24" viewBox="0 0 24 24" fill="none" xmlns="http://www.w3.org/2000/svg">
<path d="M4.64516 9.1087C4.9213 9.1087 5.14516 8.88484 5.14516 8.6087C5.14516 8.33255 4.9213 8.1087 4.64516 8.1087V9.1087ZM17.2097 13.8261C17.2097 13.5499 16.9858 13.3261 16.7097 13.3261C16.4335 13.3261 16.2097 13.5499 16.2097 13.8261H17.2097ZM6.83871 8.1087C6.56257 8.1087 6.33871 8.33255 6.33871 8.6087C6.33871 8.88484 6.56257 9.1087 6.83871 9.1087V8.1087ZM5.24194 7.04348C5.24194 7.31962 5.46579 7.54348 5.74194 7.54348C6.01808 7.54348 6.24194 7.31962 6.24194 7.04348H5.24194ZM3.5 9.1087H4.64516V8.1087H3.5V9.1087ZM3.5 18.5H16.2097V17.5H3.5V18.5ZM17.2097 17.5V15.913H16.2097V17.5H17.2097ZM17.2097 15.913V13.8261H16.2097V15.913H17.2097ZM16.7097 16.413H19.5V15.413H16.7097V16.413ZM19.5 5.5H6.24194V6.5H19.5V5.5ZM6.83871 9.1087H16.2097V8.1087H6.83871V9.1087ZM3.5 17.5V12.2609H2.5V17.5H3.5ZM3.5 12.2609V9.1087H2.5V12.2609H3.5ZM16.2097 11.7609H3V12.7609H16.2097V11.7609ZM20.5 15.413V10.1739H19.5V15.413H20.5ZM20.5 10.1739V6.5H19.5V10.1739H20.5ZM16.2097 9.1087V10.1739H17.2097V9.1087H16.2097ZM16.2097 10.1739V11.7609H17.2097V10.1739H16.2097ZM20 9.67391H16.7097V10.6739H20V9.67391ZM5.24194 6.5V7.04348H6.24194V6.5H5.24194ZM16.2097 9.1087V9.1087H17.2097C17.2097 8.55641 16.762 8.1087 16.2097 8.1087V9.1087ZM6.24194 5.5C5.68965 5.5 5.24194 5.94771 5.24194 6.5H6.24194L6.24194 6.5V5.5ZM19.5 6.5V6.5H20.5C20.5 5.94771 20.0523 5.5 19.5 5.5V6.5ZM16.2097 18.5C16.762 18.5 17.2097 18.0523 17.2097 17.5H16.2097V18.5ZM19.5 16.413C20.0523 16.413 20.5 15.9653 20.5 15.413H19.5V16.413ZM3.5 8.1087C2.94772 8.1087 2.5 8.55641 2.5 9.1087H3.5H3.5V8.1087ZM16.2097 12.7609C16.762 12.7609 17.2097 12.3132 17.2097 11.7609H16.2097V12.7609ZM3.5 17.5H2.5C2.5 18.0523 2.94772 18.5 3.5 18.5V17.5Z" fill="black"/>
</svg>
