<svg width="24" height="24" viewBox="0 0 24 24" fill="none" xmlns="http://www.w3.org/2000/svg">
<path fill-rule="evenodd" clip-rule="evenodd" d="M7 3H17C17.5523 3 18 3.44772 18 4V20C18 20.5523 17.5523 21 17 21H7C6.44772 21 6 20.5523 6 20V4C6 3.44772 6.44772 3 7 3ZM7 16V20H17V7H8C7.72386 7 7.5 6.77614 7.5 6.5C7.5 6.22386 7.72386 6 8 6H17V4H7V15H16C16.2761 15 16.5 15.2239 16.5 15.5C16.5 15.7761 16.2761 16 16 16H7ZM11 18C11 18.5523 11.4477 19 12 19C12.5523 19 13 18.5523 13 18C13 17.4477 12.5523 17 12 17C11.4477 17 11 17.4477 11 18Z" fill="black"/>
</svg>
