<svg width="24" height="24" viewBox="0 0 24 24" fill="none" xmlns="http://www.w3.org/2000/svg">
<path fill-rule="evenodd" clip-rule="evenodd" d="M18.676 17.285C18.9022 17.4434 19.214 17.3884 19.3723 17.1622C22.2233 13.0906 21.2338 7.47867 17.1622 4.62767C13.0905 1.77667 7.47861 2.7662 4.62761 6.83785C1.77661 10.9095 2.76614 16.5214 6.83779 19.3724C9.98572 21.5766 14.1494 21.5247 17.2278 19.3289C17.4526 19.1685 17.5048 18.8563 17.3445 18.6315C17.1841 18.4067 16.8719 18.3544 16.6471 18.5148C13.911 20.4664 10.2096 20.5126 7.41137 18.5533C3.79213 16.019 2.91254 11.0307 5.44676 7.41143C7.98098 3.79219 12.9693 2.9126 16.5886 5.44682C20.2078 7.98104 21.0874 12.9694 18.5532 16.5887C18.3948 16.8149 18.4498 17.1266 18.676 17.285ZM8.49998 9.60004C9.05226 9.60004 9.49998 9.15232 9.49998 8.60004C9.49998 8.04776 9.05226 7.60004 8.49998 7.60004C7.94769 7.60004 7.49998 8.04776 7.49998 8.60004C7.49998 9.15232 7.94769 9.60004 8.49998 9.60004ZM8.49998 13C9.05226 13 9.49998 12.5523 9.49998 12C9.49998 11.4478 9.05226 11 8.49998 11C7.94769 11 7.49998 11.4478 7.49998 12C7.49998 12.5523 7.94769 13 8.49998 13ZM9.49998 15.5C9.49998 16.0523 9.05226 16.5 8.49998 16.5C7.94769 16.5 7.49998 16.0523 7.49998 15.5C7.49998 14.9478 7.94769 14.5 8.49998 14.5C9.05226 14.5 9.49998 14.9478 9.49998 15.5ZM12 9.60004C12.5523 9.60004 13 9.15232 13 8.60004C13 8.04776 12.5523 7.60004 12 7.60004C11.4477 7.60004 11 8.04776 11 8.60004C11 9.15232 11.4477 9.60004 12 9.60004ZM13 12C13 12.5523 12.5523 13 12 13C11.4477 13 11 12.5523 11 12C11 11.4478 11.4477 11 12 11C12.5523 11 13 11.4478 13 12ZM12 16.5C12.5523 16.5 13 16.0523 13 15.5C13 14.9478 12.5523 14.5 12 14.5C11.4477 14.5 11 14.9478 11 15.5C11 16.0523 11.4477 16.5 12 16.5ZM16.5 8.60004C16.5 9.15232 16.0523 9.60004 15.5 9.60004C14.9477 9.60004 14.5 9.15232 14.5 8.60004C14.5 8.04776 14.9477 7.60004 15.5 7.60004C16.0523 7.60004 16.5 8.04776 16.5 8.60004ZM15.5 13C16.0523 13 16.5 12.5523 16.5 12C16.5 11.4478 16.0523 11 15.5 11C14.9477 11 14.5 11.4478 14.5 12C14.5 12.5523 14.9477 13 15.5 13ZM16.5 15.5C16.5 16.0523 16.0523 16.5 15.5 16.5C14.9477 16.5 14.5 16.0523 14.5 15.5C14.5 14.9478 14.9477 14.5 15.5 14.5C16.0523 14.5 16.5 14.9478 16.5 15.5Z" fill="black"/>
</svg>
