<svg width="24" height="24" viewBox="0 0 24 24" fill="none" xmlns="http://www.w3.org/2000/svg">
<path fill-rule="evenodd" clip-rule="evenodd" d="M14.9749 7.99467C15.0767 7.99467 15.2547 7.99437 15.7475 7.99348C15.9502 7.99314 15.9502 7.99314 16.1598 7.99283C16.927 7.99176 17.3462 7.99213 17.409 7.99467C17.7447 7.99467 17.8816 8.19508 17.9441 8.4454C17.9658 8.53245 17.976 8.63073 17.9794 8.74874C17.9847 8.93381 17.9725 9.17935 17.9458 9.46519C17.8943 10.0145 17.7939 10.6587 17.6878 11.1067C16.6741 15.3876 13.8879 21 12 21C9.78258 21 6 12.6011 6 9C6 5.68386 8.68386 3 12 3C14.7917 3 16.2899 4.15101 17.6412 6.65444C17.7724 6.89744 17.6818 7.20076 17.4388 7.33194C17.1958 7.46311 16.8924 7.37246 16.7613 7.12946C15.5683 4.91957 14.3714 4 12 4C9.23614 4 7 6.23614 7 9C7 12.1113 10.5528 20 12 20C13.1597 20 15.826 14.629 16.7147 10.8762C16.8094 10.4764 16.9028 9.87741 16.9501 9.37197C16.9634 9.23048 16.9724 9.10208 16.977 8.99237C16.7715 8.9922 16.4959 8.99236 16.1612 8.99283C15.9518 8.99314 15.9518 8.99314 15.7492 8.99348C15.2566 8.99437 15.0776 8.99467 14.9749 8.99467H14.7988C14.3972 8.99467 14.1512 8.841 14.0428 8.47643C13.7996 7.65859 12.9047 7 12 7C10.8961 7 10 7.89614 10 9C10 10.1077 10.8898 11 12 11C12.7376 11 13.3374 10.6086 13.8373 9.76543C13.9781 9.52789 14.2849 9.44949 14.5224 9.59032C14.7599 9.73114 14.8383 10.0379 14.6975 10.2754C14.0278 11.405 13.116 12 12 12C10.3368 12 9 10.6594 9 9C9 7.34386 10.3439 6 12 6C13.2728 6 14.4936 6.84845 14.9343 7.99467H14.9749ZM17.2351 8.9917C17.279 8.99366 17.3306 8.9944 17.3913 8.99436C17.3804 8.99397 17.3569 8.99364 17.3215 8.99337L17.2351 8.9917Z" fill="black"/>
</svg>
