<svg width="24" height="24" viewBox="0 0 24 24" fill="none" xmlns="http://www.w3.org/2000/svg">
<path fill-rule="evenodd" clip-rule="evenodd" d="M6.5 8H18.2317L12.9322 12.5424C12.385 13.0114 11.5817 13.025 11.019 12.5749L5.46223 8.12947C5.07409 7.81896 4.50773 7.88189 4.19722 8.27002C4.06955 8.42961 4 8.62789 4 8.83225V16.5C4 17.3284 4.67157 18 5.5 18H17.5C17.7761 18 18 17.7761 18 17.5C18 17.2239 17.7761 17 17.5 17H5.5C5.45135 17 5.40433 16.9931 5.35987 16.9801L8.8 14.4C9.02091 14.2343 9.06569 13.9209 8.9 13.7C8.73431 13.4791 8.42091 13.4343 8.2 13.6L5 16V9.04031L10.3943 13.3557C11.3322 14.106 12.6711 14.0833 13.583 13.3017L19 8.65854V16L15.8 13.6C15.5791 13.4343 15.2657 13.4791 15.1 13.7C14.9343 13.9209 14.9791 14.2343 15.2 14.4L18.56 16.92C18.7158 17.0368 18.9053 17.1 19.1 17.1C19.5971 17.1 20 16.6971 20 16.2V8.5C20 7.67157 19.3284 7 18.5 7H6.5C6.22386 7 6 7.22386 6 7.5C6 7.77614 6.22386 8 6.5 8Z" fill="black"/>
</svg>
