<svg width="20" height="16" viewBox="0 0 20 16" fill="none" xmlns="http://www.w3.org/2000/svg">
<path d="M19 0H1C0.4375 0 0 0.46875 0 1V12C0 12.5625 0.4375 13 1 13H19C19.5312 13 20 12.5625 20 12V1C20 0.46875 19.5312 0 19 0ZM19 12H1V1H19V12ZM16.75 15H3.25C3.09375 15 3 15.125 3 15.25V15.75C3 15.9062 3.09375 16 3.25 16H16.75C16.875 16 17 15.9062 17 15.75V15.25C17 15.125 16.875 15 16.75 15ZM7.5 10C8.3125 10 9 9.5625 9 9V5.625L12 4.4375V7.0625C11.8438 7.03125 11.625 7.03125 11.5 7C10.6562 7 10 7.46875 10 8C10 8.5625 10.6562 9 11.5 9C12.3125 9 13 8.5625 13 8V3.5C12.9688 3.25 12.75 3.03125 12.5 3.03125C12.4375 3.03125 12.375 3.03125 12.3438 3.03125L8.34375 4.5C8.15625 4.5625 8 4.78125 8 5V8.0625C7.84375 8.03125 7.625 8.03125 7.5 8C6.65625 8 6 8.46875 6 9C6 9.5625 6.65625 10 7.5 10Z" fill="#CB11AB"/>
</svg>
