<svg width="24" height="24" viewBox="0 0 24 24" fill="none" xmlns="http://www.w3.org/2000/svg">
<path fill-rule="evenodd" clip-rule="evenodd" d="M10 20C11.1046 20 12 19.1046 12 18C12 16.8954 11.1046 16 10 16C8.89543 16 8 16.8954 8 18C8 19.1046 8.89543 20 10 20ZM10 21C8.34315 21 7 19.6569 7 18C7 16.3431 8.34315 15 10 15C11.6569 15 13 16.3431 13 18C13 19.6569 11.6569 21 10 21ZM18 12C19.1046 12 20 11.1046 20 10C20 8.89543 19.1046 8 18 8C16.8954 8 16 8.89543 16 10C16 11.1046 16.8954 12 18 12ZM18 13C16.3431 13 15 11.6569 15 10C15 8.34315 16.3431 7 18 7C19.6569 7 21 8.34315 21 10C21 11.6569 19.6569 13 18 13ZM7 9C8.10457 9 9 8.10457 9 7C9 5.89543 8.10457 5 7 5C5.89543 5 5 5.89543 5 7C5 8.10457 5.89543 9 7 9ZM7 10C5.34315 10 4 8.65685 4 7C4 5.34315 5.34315 4 7 4C8.65685 4 10 5.34315 10 7C10 8.65685 8.65685 10 7 10Z" fill="black"/>
</svg>
