<svg width="24" height="24" viewBox="0 0 24 24" fill="none" xmlns="http://www.w3.org/2000/svg">
<path fill-rule="evenodd" clip-rule="evenodd" d="M15.1607 3.58224C14.9299 3.73392 14.8658 4.04394 15.0175 4.2747C16.7191 6.86331 17.5646 9.43604 17.5646 12.0001C17.5646 14.5641 16.7191 17.1368 15.0175 19.7254C14.8658 19.9562 14.9299 20.2662 15.1607 20.4179C15.3914 20.5696 15.7015 20.5055 15.8532 20.2747C17.6573 17.53 18.5646 14.7694 18.5646 12.0001C18.5646 9.23074 17.6573 6.47014 15.8532 3.72541C15.7015 3.49466 15.3914 3.43056 15.1607 3.58224ZM11.5533 5.82258C11.3751 5.61157 11.4018 5.29611 11.6128 5.11798C11.8238 4.93986 12.1393 4.96652 12.3174 5.17753C13.805 6.93982 14.5457 9.22109 14.5457 12.0001C14.5457 14.779 13.805 17.0603 12.3174 18.8226C12.1393 19.0336 11.8238 19.0603 11.6128 18.8821C11.4018 18.704 11.3751 18.3885 11.5533 18.1775C12.8794 16.6065 13.5457 14.5544 13.5457 12.0001C13.5457 9.44569 12.8794 7.39362 11.5533 5.82258ZM8.65798 7.08403C8.42822 7.23721 8.36613 7.54764 8.51931 7.77741C9.46696 9.19888 9.93533 10.604 9.93533 12.0001C9.93533 13.3961 9.46696 14.8012 8.51931 16.2227C8.36613 16.4525 8.42822 16.7629 8.65798 16.9161C8.88775 17.0693 9.19818 17.0072 9.35136 16.7774C10.4037 15.1989 10.9353 13.604 10.9353 12.0001C10.9353 10.3961 10.4037 8.80123 9.35136 7.22271C9.19818 6.99294 8.88775 6.93085 8.65798 7.08403ZM5.65798 15.4161C5.88775 15.5693 6.19818 15.5072 6.35136 15.2774C7.07037 14.1989 7.43533 13.104 7.43533 12.0001C7.43533 10.8961 7.07037 9.80123 6.35136 8.72271C6.19818 8.49294 5.88775 8.43085 5.65798 8.58403C5.42822 8.73721 5.36613 9.04764 5.51931 9.27741C6.13363 10.1989 6.43533 11.104 6.43533 12.0001C6.43533 12.8961 6.13363 13.8012 5.51931 14.7227C5.36613 14.9525 5.42822 15.2629 5.65798 15.4161Z" fill="black"/>
</svg>
