<svg width="24" height="24" viewBox="0 0 24 24" fill="none" xmlns="http://www.w3.org/2000/svg">
<path fill-rule="evenodd" clip-rule="evenodd" d="M12 3.5C11.0892 3.5 10.434 4.1454 10.0385 5.30402C7.73388 6.10307 6.54652 8.46646 6.5014 12.267C6.5005 12.3427 6.48247 12.4171 6.44865 12.4847L4.48698 16.4081C4.41061 16.5608 4.37085 16.7292 4.37085 16.9C4.37085 17.5075 4.86334 18 5.47085 18H9.10338C9.53956 19.6256 10.5227 20.5 12 20.5C13.4773 20.5 14.4605 19.6256 14.8967 18H18.5292C18.7 18 18.8684 17.9602 19.0211 17.8839C19.5645 17.6122 19.7848 16.9514 19.5131 16.4081L17.4997 12.3812C17.476 8.5126 16.2895 6.1103 13.9615 5.30372C13.5659 4.14529 12.9108 3.5 12 3.5ZM13.8564 17.9961H12.5624C12.542 17.9987 12.5212 18 12.5 18H10.1449C10.4839 19.0317 11.0886 19.5 12 19.5C12.9126 19.5 13.5177 19.0306 13.8564 17.9961ZM12.7337 5C12.5207 4.65297 12.2766 4.5 12 4.5C11.7235 4.5 11.4793 4.65297 11.2663 5H12.7337Z" fill="black"/>
</svg>
