<svg width="24" height="24" viewBox="0 0 24 24" fill="none" xmlns="http://www.w3.org/2000/svg">
<path fill-rule="evenodd" clip-rule="evenodd" d="M20.452 14.3808C21 14.3708 21 14.9698 21 14.9698V17.3808C21 18.4848 20.104 19.3808 19 19.3808H5C3.895 19.3808 3 18.4848 3 17.3808V8.38076C3 7.27576 3.895 6.38076 5 6.38076H10.111C10.111 6.38076 10.818 6.33576 10.839 6.92576C10.839 7.54776 10.09 7.48076 10.09 7.48076H5C4.503 7.48076 4.1 7.88376 4.1 8.38076V17.3808C4.1 17.8778 4.503 18.2798 5 18.2798H19C19.497 18.2798 19.9 17.8778 19.9 17.3808V14.9898C19.9 14.9898 19.833 14.3918 20.452 14.3808ZM17.55 8.41576H20.831C21.135 8.41576 21.381 8.66176 21.381 8.96476C21.381 9.26876 21.135 9.51576 20.831 9.51576H17.55V12.8808C17.55 13.1848 17.304 13.4308 17 13.4308C16.696 13.4308 16.45 13.1848 16.45 12.8808V9.51576H13C12.696 9.51576 12.45 9.26876 12.45 8.96476C12.45 8.66176 12.696 8.41576 13 8.41576H16.45V5.04976C16.45 4.74676 16.696 4.49976 17 4.49976C17.304 4.49976 17.55 4.74676 17.55 5.04976V8.41576Z" fill="black"/>
</svg>
