<svg width="24" height="24" viewBox="0 0 24 24" fill="none" xmlns="http://www.w3.org/2000/svg">
<path fill-rule="evenodd" clip-rule="evenodd" d="M18.5 18C18.7761 18 19 17.7761 19 17.5V6.5C19 6.22386 18.7761 6 18.5 6H9.5C9.22386 6 9 6.22386 9 6.5L8.99786 16.5462C8.94369 17.1302 8.79045 17.6176 8.54421 18H18.5ZM6.5 19C5.02155 19 4.1488 18.1273 4 16.5V10.5C4 9.67157 4.67157 9 5.5 9H7C7.27614 9 7.5 9.22386 7.5 9.5C7.5 9.77614 7.27614 10 7 10H5.5C5.22386 10 5 10.2239 5 10.5L4.99786 16.4538C5.09857 17.5394 5.55915 18 6.5 18C7.44085 18 7.90143 17.5394 8 16.5V6.5C8 5.67157 8.67157 5 9.5 5H18.5C19.3284 5 20 5.67157 20 6.5V17.5C20 18.3284 19.3284 19 18.5 19H6.5ZM10.5 10C10.2239 10 10 9.77614 10 9.5C10 9.22386 10.2239 9 10.5 9H14.5C14.7761 9 15 9.22386 15 9.5C15 9.77614 14.7761 10 14.5 10H10.5ZM10.5 13C10.2239 13 10 12.7761 10 12.5C10 12.2239 10.2239 12 10.5 12H17.5C17.7761 12 18 12.2239 18 12.5C18 12.7761 17.7761 13 17.5 13H10.5ZM10.5 16C10.2239 16 10 15.7761 10 15.5C10 15.2239 10.2239 15 10.5 15H17.5C17.7761 15 18 15.2239 18 15.5C18 15.7761 17.7761 16 17.5 16H10.5Z" fill="black"/>
</svg>
