<svg width="24" height="24" viewBox="0 0 24 24" fill="none" xmlns="http://www.w3.org/2000/svg">
<path fill-rule="evenodd" clip-rule="evenodd" d="M13.5 2.99996C13.7761 2.99996 14 3.22382 14 3.49996C14 3.7761 13.7761 3.99996 13.5 3.99996H4.5C4.22386 3.99996 4 4.22382 4 4.49996V19.5C4 19.7761 4.22386 20 4.5 20H19.5C19.7761 20 20 19.7761 20 19.5V10.5C20 10.2238 20.2239 9.99996 20.5 9.99996C20.7761 9.99996 21 10.2238 21 10.5V19.5C21 20.3284 20.3284 21 19.5 21H4.5C3.67157 21 3 20.3284 3 19.5V4.49996C3 3.67154 3.67157 2.99996 4.5 2.99996H13.5ZM18.4056 2.05989L18.4469 2.02294C19.0098 1.5728 19.442 1.31388 19.7954 1.24374C20.5423 1.09555 21.2674 1.38617 21.9411 2.05989C23.0792 3.19796 23.0792 4.45735 21.9411 5.59543L13.5201 14.0165C13.4084 14.1282 13.2662 14.2043 13.1113 14.2353L9.67954 14.9216C9.57952 14.9348 9.57952 14.9348 9.4795 14.9216C9.11374 14.732 9.11374 14.732 9.07942 14.3215L9.76578 10.8897C9.79675 10.7349 9.87287 10.5926 9.98455 10.4809L18.4056 2.05989ZM10.7345 11.1452L10.2042 13.7969L12.8558 13.2666L21.234 4.88832C21.9816 4.14077 21.9816 3.51455 21.234 2.767C20.7779 2.31084 20.3731 2.14861 19.9901 2.22462C19.8422 2.25396 19.5265 2.44215 19.0928 2.78687L10.7345 11.1452Z" fill="black"/>
</svg>
