<svg width="24" height="24" viewBox="0 0 24 24" fill="none" xmlns="http://www.w3.org/2000/svg">
<path fill-rule="evenodd" clip-rule="evenodd" d="M7.50133 12.2789C7.55202 8.00964 9.03519 6 12 6C15.0141 6 16.5 8.08031 16.5 12.5V12.618L18.6187 16.8553C18.6434 16.9047 18.6233 16.9647 18.5739 16.9894C18.56 16.9964 18.5447 17 18.5292 17H14.0901L14.0097 17.4019C13.7197 18.8523 13.0719 19.5 12 19.5C11.0886 19.5 10.4839 19.0317 10.1449 18H12.5C12.7762 18 13 17.7761 13 17.5C13 17.2239 12.7762 17 12.5 17H9.90993H9.50003H5.47085C5.41562 17 5.37085 16.9552 5.37085 16.9C5.37085 16.8845 5.37446 16.8692 5.38141 16.8553L7.34308 12.9319C7.44453 12.729 7.49864 12.5057 7.50133 12.2789ZM10.0385 5.30402C10.434 4.1454 11.0892 3.5 12 3.5C12.9108 3.5 13.5659 4.14529 13.9615 5.30372C16.2895 6.1103 17.476 8.5126 17.4997 12.3812L19.5131 16.4081C19.7848 16.9514 19.5645 17.6122 19.0211 17.8839C18.8684 17.9602 18.7 18 18.5292 18H14.8967C14.4605 19.6256 13.4773 20.5 12 20.5C10.5227 20.5 9.53956 19.6256 9.10338 18H5.47085C4.86334 18 4.37085 17.5075 4.37085 16.9C4.37085 16.7292 4.41061 16.5608 4.48698 16.4081L6.44865 12.4847C6.48247 12.4171 6.5005 12.3427 6.5014 12.267C6.54652 8.46646 7.73388 6.10307 10.0385 5.30402ZM12 4.5C12.2766 4.5 12.5207 4.65297 12.7337 5H11.2663C11.4793 4.65297 11.7235 4.5 12 4.5Z" fill="black"/>
</svg>
