<svg width="24" height="24" viewBox="0 0 24 24" fill="none" xmlns="http://www.w3.org/2000/svg">
<path fill-rule="evenodd" clip-rule="evenodd" d="M12.0017 8.00005C11.0161 6.11942 10.1995 4.99384 9.48281 4.58005C8.28708 3.8897 6.7581 4.29432 6.06774 5.49005C5.60664 6.2887 5.63641 7.24632 6.06243 8.00005H5.5C4.67157 8.00005 4 8.67162 4 9.50005V11.5001C4 12.1532 4.4174 12.7088 5 12.9147V18.5001C5 19.3285 5.67157 20.0001 6.5 20.0001H11.6C12.0971 20.0001 12.5 19.5971 12.5 19.1001V13.0001H18V18.5001C18 18.7762 17.7761 19.0001 17.5 19.0001H13.5C13.2239 19.0001 13 19.2239 13 19.5001C13 19.7762 13.2239 20.0001 13.5 20.0001H17.5C18.3284 20.0001 19 19.3285 19 18.5001V12.9147C19.5826 12.7088 20 12.1532 20 11.5001V9.50005C20 8.67162 19.3284 8.00005 18.5 8.00005H17.9486C18.3714 7.24711 18.3999 6.2922 17.94 5.49562C17.2496 4.29989 15.7206 3.8902 14.5249 4.58056C13.8088 4.994 12.993 6.12185 12.0084 8.00005H12.0017ZM11.4922 9.00301L11.4937 9.00005H7.09883H5.5C5.22386 9.00005 5 9.22391 5 9.50005V11.5001C5 11.7762 5.22386 12.0001 5.5 12.0001H11.5V10.0001C11.5 9.72391 11.7239 9.50005 12 9.50005C12.2761 9.50005 12.5 9.72391 12.5 10.0001V12.0001H18.5C18.7761 12.0001 19 11.7762 19 11.5001V9.50005C19 9.22391 18.7761 9.00005 18.5 9.00005H16.914L16.9089 9.00301H11.4922ZM6 13.0001H11.5V19.0001H6.5C6.22386 19.0001 6 18.7762 6 18.5001V13.0001ZM6.93377 5.99005C6.53945 6.67304 6.74388 7.55887 7.37735 8.00005L10.8663 8.00005C10.0806 6.56614 9.43578 5.70157 8.98281 5.44005C8.26537 5.02584 7.34798 5.27261 6.93377 5.99005ZM17.0739 5.99562C17.4683 6.67861 17.2638 7.56183 16.6304 8.00301L13.1414 8.00301C13.9271 6.5691 14.5719 5.7081 15.0249 5.44658C15.7423 5.03237 16.6597 5.27818 17.0739 5.99562Z" fill="black"/>
</svg>
