<svg width="24" height="24" viewBox="0 0 24 24" fill="none" xmlns="http://www.w3.org/2000/svg">
<path fill-rule="evenodd" clip-rule="evenodd" d="M11.5001 8.29976V5.0332H6.43852L5.24786 8.29976H11.5001ZM11.9999 4.0332H6.08859C5.87848 4.0332 5.69078 4.16456 5.61883 4.36197L4.06813 8.61628C4.05871 8.64014 4.05108 8.6649 4.04539 8.69039C4.03538 8.73435 4.03159 8.77824 4.03339 8.82117V19.4664C4.03339 19.7426 4.25725 19.9664 4.53339 19.9664H19.4667C19.7429 19.9664 19.9667 19.7426 19.9667 19.4664V8.82117C19.9685 8.77857 19.9648 8.73503 19.955 8.69142C19.9493 8.66557 19.9415 8.64047 19.932 8.6163L18.3813 4.36197C18.3093 4.16456 18.1216 4.0332 17.9115 4.0332H12.0002C12.0001 4.0332 12 4.0332 11.9999 4.0332ZM12.5001 5.0332V8.29976H18.7523L17.5616 5.0332H12.5001ZM18.9667 18.9664V9.29987H5.03339V18.9664H18.9667ZM11.3048 12.8252C11.3048 13.1202 11.4258 13.2762 11.6553 13.3843C11.8319 13.4726 12.016 13.5418 12.2322 13.6009C13.4364 13.9821 13.8605 14.3126 13.8605 15.2367C13.8605 16.04 13.4095 16.6352 12.6273 16.8656L12.4838 16.9079V17.5677C12.4838 17.833 12.2676 18.0492 12.0024 18.0492C11.737 18.0492 11.5209 17.833 11.5209 17.5677V16.9485L11.3524 16.9217C10.6759 16.8139 10.2001 16.5724 10.2001 16.2223C10.2001 15.9655 10.4315 15.7419 10.7043 15.7419C10.8038 15.7419 10.9104 15.7681 11.0964 15.8366L11.1425 15.8521L11.1864 15.8669L11.2367 15.8835C11.4722 15.9597 11.6669 15.9984 11.898 15.9984C12.5052 15.9984 12.7557 15.7199 12.7557 15.2848C12.7557 14.9778 12.638 14.8177 12.4126 14.7176C12.259 14.6517 12.0725 14.5828 11.8258 14.5004C10.6298 14.1346 10.208 13.8053 10.208 12.8572C10.208 12.0772 10.6342 11.5134 11.3741 11.3091L11.5209 11.2685V10.6813C11.5209 10.4159 11.737 10.1998 12.0024 10.1998C12.2676 10.1998 12.4838 10.4159 12.4838 10.6813V11.2468L12.6516 11.2742C13.3075 11.3811 13.6281 11.6171 13.6281 11.92C13.6281 12.1936 13.4045 12.4002 13.0918 12.4002C13.0011 12.4002 12.9366 12.3858 12.7909 12.3394L12.7538 12.3276L12.6968 12.31C12.47 12.2261 12.3264 12.192 12.0904 12.192C11.7028 12.192 11.4579 12.319 11.3552 12.5494C11.3139 12.6422 11.3048 12.7163 11.3048 12.8252Z" fill="black"/>
</svg>
