<svg width="24" height="24" viewBox="0 0 24 24" fill="none" xmlns="http://www.w3.org/2000/svg">
<path fill-rule="evenodd" clip-rule="evenodd" d="M6.71216 5.72986V3.33594H17.2878V5.72986C17.2878 6.006 17.5117 6.22986 17.7878 6.22986C18.064 6.22986 18.2878 6.006 18.2878 5.72986V3.23594C18.2878 2.73888 17.8849 2.33594 17.3878 2.33594H6.61216C6.1151 2.33594 5.71216 2.73888 5.71216 3.23594V5.72986C5.71216 6.006 5.93602 6.22986 6.21216 6.22986C6.4883 6.22986 6.71216 6.006 6.71216 5.72986ZM6.61216 12.947C6.1151 12.947 5.71216 13.35 5.71216 13.847V20.7641C5.71216 21.2612 6.1151 21.6641 6.61216 21.6641H17.3878C17.8849 21.6641 18.2878 21.2612 18.2878 20.7641V13.847C18.2878 13.35 17.8849 12.947 17.3878 12.947H6.61216ZM6.71216 20.6641V13.947H17.2878V20.6641H6.71216ZM5.31824 7.15918C3.93753 7.15918 2.81824 8.27847 2.81824 9.65918V14.3409C2.81824 15.6076 3.76029 16.6543 4.982 16.8185V15.8031C4.31546 15.6505 3.81824 15.0538 3.81824 14.3409V9.65918C3.81824 8.83075 4.48981 8.15918 5.31824 8.15918H18.6818C19.5102 8.15918 20.1818 8.83075 20.1818 9.65918V14.3409C20.1818 15.0538 19.6845 15.6505 19.018 15.8031V16.8185C20.2397 16.6543 21.1818 15.6076 21.1818 14.3409V9.65918C21.1818 8.27847 20.0625 7.15918 18.6818 7.15918H5.31824ZM17.7878 9.08838C16.9789 9.08838 16.3232 9.74412 16.3232 10.553C16.3232 11.3619 16.9789 12.0177 17.7878 12.0177C18.5967 12.0177 19.2525 11.3619 19.2525 10.553C19.2525 9.74412 18.5967 9.08838 17.7878 9.08838ZM17.3232 10.553C17.3232 10.2964 17.5312 10.0884 17.7878 10.0884C18.0444 10.0884 18.2525 10.2964 18.2525 10.553C18.2525 10.8096 18.0444 11.0177 17.7878 11.0177C17.5312 11.0177 17.3232 10.8096 17.3232 10.553ZM8.60608 15.8586C8.60608 15.5825 8.82994 15.3586 9.10608 15.3586H14.8939C15.1701 15.3586 15.3939 15.5825 15.3939 15.8586C15.3939 16.1348 15.1701 16.3586 14.8939 16.3586H9.10608C8.82994 16.3586 8.60608 16.1348 8.60608 15.8586ZM9.10608 18.2524C8.82994 18.2524 8.60608 18.4763 8.60608 18.7524C8.60608 19.0286 8.82994 19.2524 9.10608 19.2524H14.8939C15.1701 19.2524 15.3939 19.0286 15.3939 18.7524C15.3939 18.4763 15.1701 18.2524 14.8939 18.2524H9.10608Z" fill="black"/>
</svg>
