<svg width="24" height="24" viewBox="0 0 24 24" fill="none" xmlns="http://www.w3.org/2000/svg">
<path d="M11.8039 5.29243H16.3039V3.51511C16.3039 3.42883 16.4058 3.38305 16.4703 3.44037L20.7198 7.21769C20.7645 7.25747 20.7645 7.32739 20.7198 7.36717L16.4703 11.1445C16.4058 11.2018 16.3039 11.156 16.3039 11.0697V9.29243H13.5342C13.479 9.29243 13.4342 9.24766 13.4342 9.19243V7.51511C13.4342 7.42883 13.3323 7.38305 13.2678 7.44037L9.0183 11.2177C8.97355 11.2575 8.97355 11.3274 9.0183 11.3672L13.2678 15.1445C13.3323 15.2018 13.4342 15.156 13.4342 15.0697V13.2924H16.3036" stroke="black" stroke-linecap="round"/>
<path d="M13.52 3.41492L7.19493 3.41492C6.46201 3.41492 5.86786 4.00907 5.86786 4.74199V20.0981C5.86786 20.831 6.46201 21.4252 7.19493 21.4252H14.9678C15.7007 21.4252 16.2948 20.831 16.2948 20.0981V14.9753M11.0814 20.0996C10.8196 20.0996 10.6074 19.8874 10.6074 19.6257C10.6074 19.3639 10.8196 19.1517 11.0814 19.1517C11.3431 19.1517 11.5553 19.3639 11.5553 19.6257C11.5553 19.8874 11.3431 20.0996 11.0814 20.0996Z" stroke="black" stroke-linecap="round"/>
</svg>
