<svg width="24" height="24" viewBox="0 0 24 24" fill="none" xmlns="http://www.w3.org/2000/svg">
<path fill-rule="evenodd" clip-rule="evenodd" d="M19.3684 12.5263H11.4737V4.63154C11.4737 4.34086 11.238 4.10522 10.9474 4.10522C6.00587 4.10522 2 8.1111 2 13.0526C2 17.9941 6.00587 22 10.9474 22C15.8889 22 19.8947 17.9941 19.8947 13.0526C19.8947 12.7619 19.6591 12.5263 19.3684 12.5263ZM10.9474 20.9473C6.58723 20.9473 3.05263 17.4127 3.05263 13.0526C3.05263 8.86931 6.3063 5.44596 10.4211 5.17512V13.0526C10.4211 13.3433 10.6567 13.5789 10.9474 13.5789H18.8248C18.554 17.6937 15.1307 20.9473 10.9474 20.9473Z" fill="black"/>
<path fill-rule="evenodd" clip-rule="evenodd" d="M22 10.9474C22 6.00587 17.9941 2 13.0526 2C12.7619 2 12.5263 2.23564 12.5263 2.52632V10.9474C12.5263 11.238 12.7619 11.4737 13.0526 11.4737H21.4737C21.7644 11.4737 22 11.238 22 10.9474ZM20.9301 10.4211H13.5789V3.0699C17.5197 3.32928 20.6707 6.48026 20.9301 10.4211Z" fill="black"/>
</svg>
