<svg width="24" height="24" viewBox="0 0 24 24" fill="none" xmlns="http://www.w3.org/2000/svg">
<path fill-rule="evenodd" clip-rule="evenodd" d="M4 12.1442C4 11.8834 4.21142 11.6719 4.47222 11.6719C4.73302 11.6719 4.94444 11.8833 4.94444 12.1442V16.6C4.94444 16.8209 5.11358 17 5.32222 17H19.6778C19.8864 17 20.0556 16.8209 20.0556 16.6V7.4C20.0556 7.17909 19.8864 7 19.6778 7H5.32222C5.11358 7 4.94444 7.17909 4.94444 7.4V10.5278C4.94444 10.7886 4.73302 11 4.47222 11C4.21142 11 4 10.7886 4 10.5278V7.4C4 6.6268 4.59198 6 5.32222 6H19.6778C20.408 6 21 6.6268 21 7.4V16.6C21 17.3732 20.408 18 19.6778 18H5.32222C4.59198 18 4 17.3732 4 16.6V12.1442ZM12 9.5C12 9.22386 12.2239 9 12.5 9C12.7761 9 13 9.22386 13 9.5V10.7929L13.9142 9.87868C14.1095 9.68342 14.4261 9.68342 14.6213 9.87868C14.8166 10.0739 14.8166 10.3905 14.6213 10.5858L13.7071 11.5H15C15.2761 11.5 15.5 11.7239 15.5 12C15.5 12.2761 15.2761 12.5 15 12.5H13.7071L14.6213 13.4142C14.8166 13.6095 14.8166 13.9261 14.6213 14.1213C14.4261 14.3166 14.1095 14.3166 13.9142 14.1213L13 13.2071V14.5C13 14.7761 12.7761 15 12.5 15C12.2239 15 12 14.7761 12 14.5V13.2071L11.0858 14.1213C10.8905 14.3166 10.5739 14.3166 10.3787 14.1213C10.1834 13.9261 10.1834 13.6095 10.3787 13.4142L11.2929 12.5H10C9.72386 12.5 9.5 12.2761 9.5 12C9.5 11.7239 9.72386 11.5 10 11.5H11.2929L10.3787 10.5858C10.1834 10.3905 10.1834 10.0739 10.3787 9.87868C10.5739 9.68342 10.8905 9.68342 11.0858 9.87868L12 10.7929V9.5Z" fill="black"/>
</svg>
