<svg width="24" height="24" viewBox="0 0 24 24" fill="none" xmlns="http://www.w3.org/2000/svg">
<path fill-rule="evenodd" clip-rule="evenodd" d="M9.18408 5.44918C9.18408 5.72532 8.96022 5.94918 8.68408 5.94918C8.40794 5.94918 8.18408 5.72532 8.18408 5.44918V4.95081C8.18408 4.12238 8.85566 3.45081 9.68408 3.45081H14.3157C15.1441 3.45081 15.8157 4.12238 15.8157 4.95081V5.44918C15.8157 5.72532 15.5918 5.94918 15.3157 5.94918C15.0395 5.94918 14.8157 5.72532 14.8157 5.44918V4.95081C14.8157 4.67466 14.5918 4.45081 14.3157 4.45081H9.68408C9.40794 4.45081 9.18408 4.67466 9.18408 4.95081V5.44918ZM3.5 13.0058C3.5 12.7297 3.27614 12.5058 3 12.5058C2.72386 12.5058 2.5 12.7297 2.5 13.0058V19.0501C2.5 19.8786 3.17157 20.5501 4 20.5501H20C20.8284 20.5501 21.5 19.8786 21.5 19.0501V13.0058C21.5 12.7297 21.2761 12.5058 21 12.5058C20.7239 12.5058 20.5 12.7297 20.5 13.0058V19.0501C20.5 19.3263 20.2761 19.5501 20 19.5501H4C3.72386 19.5501 3.5 19.3263 3.5 19.0501V13.0058ZM2.5 7.79098C2.5 6.96255 3.17157 6.29098 4 6.29098H20C20.8284 6.29098 21.5 6.96255 21.5 7.79098V10.7164C21.5 11.4258 21.0031 12.0381 20.309 12.1843L13.9212 13.5291V13.8421C13.9212 14.6705 13.2496 15.3421 12.4212 15.3421H11.5791C10.7507 15.3421 10.0791 14.6705 10.0791 13.8421V13.5291L3.69098 12.1843C2.99687 12.0381 2.5 11.4258 2.5 10.7164V7.79098ZM11.0791 13.1718C11.0823 13.1392 11.0822 13.1068 11.0791 13.0751V13C11.0791 12.7238 11.303 12.5 11.5791 12.5H12.4212C12.6973 12.5 12.9212 12.7238 12.9212 13V13.072C12.9177 13.1057 12.9176 13.1401 12.9212 13.1749V13.8421C12.9212 14.1182 12.6973 14.3421 12.4212 14.3421H11.5791C11.303 14.3421 11.0791 14.1182 11.0791 13.8421V13.1718ZM13.8439 12.5234C13.6448 11.9286 13.083 11.5 12.4212 11.5H11.5791C10.9172 11.5 10.3555 11.9286 10.1564 12.5235L3.89699 11.2057C3.66562 11.157 3.5 10.9529 3.5 10.7164V7.79098C3.5 7.51484 3.72386 7.29098 4 7.29098H20C20.2761 7.29098 20.5 7.51484 20.5 7.79098V10.7164C20.5 10.9529 20.3344 11.157 20.103 11.2057L13.8439 12.5234Z" fill="black"/>
</svg>
