<svg width="24" height="25" viewBox="0 0 24 25" fill="none" xmlns="http://www.w3.org/2000/svg">
<path d="M22.0625 15.6875C22.1562 15.25 22.1562 14.7812 22.0625 14.3438L22.875 13.875C22.9688 13.8438 23 13.7188 22.9688 13.625C22.75 12.9375 22.4062 12.3438 21.9375 11.8125C21.875 11.75 21.75 11.7188 21.6562 11.7812L20.8438 12.25C20.5 11.9688 20.125 11.7188 19.6875 11.5938V10.6562C19.6875 10.5312 19.625 10.4375 19.5312 10.4375C18.8125 10.2812 18.125 10.2812 17.4375 10.4375C17.3438 10.4375 17.2812 10.5312 17.2812 10.6562V11.5938C16.8438 11.7188 16.4688 11.9688 16.125 12.25L15.3125 11.7812C15.2188 11.7188 15.0938 11.75 15.0312 11.8125C14.5625 12.3438 14.1875 12.9375 14 13.625C13.9688 13.7188 14 13.8438 14.0938 13.875L14.9062 14.3438C14.8125 14.7812 14.8125 15.25 14.9062 15.6875L14.0938 16.1562C14 16.1875 13.9688 16.3125 14 16.4062C14.1875 17.0938 14.5625 17.6875 15.0312 18.2188C15.0938 18.2812 15.2188 18.3125 15.3125 18.25L16.125 17.7812C16.4688 18.0625 16.8438 18.3125 17.2812 18.4375V19.375C17.2812 19.5 17.3438 19.5938 17.4375 19.5938C18.1562 19.75 18.8438 19.75 19.5312 19.5938C19.625 19.5938 19.6875 19.5 19.6875 19.375V18.4375C20.125 18.3125 20.5 18.0625 20.8438 17.7812L21.6562 18.25C21.75 18.3125 21.875 18.2812 21.9375 18.2188C22.4062 17.6875 22.75 17.0938 22.9688 16.4062C23 16.3125 22.9688 16.1875 22.875 16.1562L22.0625 15.6875ZM18.5 16.5312C17.6562 16.5312 16.9688 15.8438 16.9688 15C16.9688 14.1875 17.6562 13.5 18.5 13.5C19.3125 13.5 20 14.1875 20 15C20 15.8438 19.3125 16.5312 18.5 16.5312ZM10 12C12.1875 12 14 10.2188 14 8C14 5.8125 12.1875 4 10 4C7.78125 4 6 5.8125 6 8C6 10.2188 7.78125 12 10 12ZM16.2812 19.0938C16.1875 19.0625 16.125 19 16.0625 18.9688L15.8125 19.125C15.625 19.2188 15.4062 19.2812 15.1875 19.2812C14.875 19.2812 14.5312 19.125 14.3125 18.875C13.7188 18.2812 13.2812 17.5 13.0312 16.7188C12.875 16.1562 13.0938 15.5625 13.5938 15.2812L13.8438 15.125C13.8438 15.0625 13.8438 14.9688 13.8438 14.9062L13.5938 14.75C13.0938 14.4688 12.875 13.875 13.0312 13.3125C13.0625 13.2188 13.125 13.1562 13.1562 13.0625C13.0312 13.0312 12.9062 13 12.7812 13H12.25C11.5625 13.3438 10.8125 13.5 10 13.5C9.1875 13.5 8.40625 13.3438 7.71875 13H7.1875C4.875 13 3 14.9062 3 17.2188V18.5C3 19.3438 3.65625 20 4.5 20H15.5C15.8125 20 16.0938 19.9062 16.3438 19.75C16.3125 19.625 16.2812 19.5 16.2812 19.375V19.0938Z" fill="url(#paint0_angular_1319_39783)"/>
<defs>
<radialGradient id="paint0_angular_1319_39783" cx="0" cy="0" r="1" gradientUnits="userSpaceOnUse" gradientTransform="translate(12.9902 12) rotate(90) scale(8 9.99023)">
<stop stop-color="#3757D9"/>
<stop offset="1" stop-color="#9AA9EE"/>
</radialGradient>
</defs>
</svg>
