<svg width="24" height="24" viewBox="0 0 24 24" fill="none" xmlns="http://www.w3.org/2000/svg">
<path fill-rule="evenodd" clip-rule="evenodd" d="M13 11H3.98197C3.23067 11 2.91393 10.4742 3.06343 9.87789C4.04265 5.87004 7.6825 3 11.9045 3C16.9266 3 21 7.02818 21 12C21 16.9718 16.9266 21 11.9045 21C7.87389 21 5.43069 19.0042 3.72122 15.9412C3.35367 15.1944 3.13989 14.6388 3.04122 14.1053C2.91488 13.5918 3.3015 13 3.98197 13H13.0051L12.987 14.7882L16.8198 11.9991L13 9.20703V11ZM11.9045 20C16.3768 20 20 16.417 20 12C20 7.58298 16.3768 4 11.9045 4C8.18592 4 4.97679 6.49792 4.06397 10H12V8.59404C12 8.21364 12.3084 7.90526 12.6888 7.90526C12.8349 7.90526 12.9773 7.95174 13.0952 8.03797L17.7255 11.4225C18.0443 11.6555 18.1138 12.1027 17.8808 12.4215C17.8371 12.4813 17.7843 12.534 17.7243 12.5777L13.0748 15.9611C12.7672 16.1849 12.3364 16.117 12.1126 15.8095C12.0255 15.6898 11.9793 15.5452 11.9808 15.3972L11.9949 14H4.03973C4.13159 14.4196 4.31031 14.8726 4.60082 15.4653C6.15166 18.2383 8.31325 20 11.9045 20Z" fill="black"/>
</svg>
