<svg width="24" height="24" viewBox="0 0 24 24" fill="none" xmlns="http://www.w3.org/2000/svg">
<path fill-rule="evenodd" clip-rule="evenodd" d="M8.0018 16.5833L4.69269 6.18323C4.64012 6.018 4.5057 5.89181 4.33749 5.84976L2.87873 5.48507C2.61083 5.41809 2.44795 5.14663 2.51492 4.87873C2.5819 4.61083 2.85337 4.44795 3.12126 4.51492L4.58003 4.87962C5.08465 5.00577 5.4879 5.38435 5.64561 5.88002L8.64409 15.3038C8.98165 15.1017 9.44175 15.0001 10 15.0001H19.5C19.7761 15.0001 20 15.2239 20 15.5001C20 15.7762 19.7761 16.0001 19.5 16.0001H10C9.2501 16.0001 9.00428 16.1596 9.00005 16.4913M8.0018 16.5833C8.04314 17.5238 8.79162 18.0001 10 18.0001H19.5C19.7761 18.0001 20 17.7762 20 17.5001C20 17.2239 19.7761 17.0001 19.5 17.0001H10C9.2501 17.0001 9.00428 16.8405 9.00005 16.5088M17 21.0001C17.5523 21.0001 18 20.5524 18 20.0001C18 19.4478 17.5523 19.0001 17 19.0001C16.4477 19.0001 16 19.4478 16 20.0001C16 20.5524 16.4477 21.0001 17 21.0001ZM12 20.0001C12 20.5524 11.5523 21.0001 11 21.0001C10.4477 21.0001 10 20.5524 10 20.0001C10 19.4478 10.4477 19.0001 11 19.0001C11.5523 19.0001 12 19.4478 12 20.0001ZM8.24449 6.65233L10.4743 13.3419C10.5617 13.6039 10.4201 13.887 10.1581 13.9743C9.89614 14.0617 9.61298 13.9201 9.52565 13.6581L7.24177 6.80647C7.19296 6.66002 7.18263 6.50349 7.21178 6.3519C7.30565 5.86379 7.77744 5.54419 8.26555 5.63806L20.2201 7.937C20.6917 8.02769 21.009 8.47268 20.9411 8.94809L19.995 15.5707C19.9559 15.8441 19.7027 16.034 19.4293 15.995C19.1559 15.9559 18.966 15.7027 19.005 15.4293L19.9376 8.90101L8.24449 6.65233Z" fill="black"/>
</svg>
