<svg width="24" height="24" viewBox="0 0 24 24" fill="none" xmlns="http://www.w3.org/2000/svg">
<path fill-rule="evenodd" clip-rule="evenodd" d="M2.93811 6.33911C2.93811 4.40612 4.50511 2.83911 6.43811 2.83911H17.5618C19.4948 2.83911 21.0618 4.40611 21.0618 6.33911V20.661C21.0618 20.9371 20.838 21.161 20.5618 21.161C20.2857 21.161 20.0618 20.9371 20.0618 20.661V6.33911C20.0618 4.9584 18.9426 3.83911 17.5618 3.83911H15.0538C15.0227 4.20008 14.8404 4.51784 14.5706 4.72877C14.3554 4.89704 14.0844 4.99731 13.79 4.99731L10.2099 4.99731C9.91555 4.99731 9.64459 4.89704 9.42934 4.72877C9.15951 4.51784 8.97723 4.20008 8.94613 3.83911H6.43811C5.0574 3.83911 3.93811 4.9584 3.93811 6.33911V20.661C3.93811 20.9371 3.71425 21.161 3.43811 21.161C3.16197 21.161 2.93811 20.9371 2.93811 20.661V6.33911ZM10.1636 7.76196H7.14528V10.7803H10.1636V7.76196ZM7.14528 6.76196C6.59299 6.76196 6.14528 7.20968 6.14528 7.76196V10.7803C6.14528 11.3326 6.59299 11.7803 7.14528 11.7803H10.1636C10.7159 11.7803 11.1636 11.3326 11.1636 10.7803V7.76196C11.1636 7.20968 10.7159 6.76196 10.1636 6.76196H7.14528ZM16.8547 7.76196H13.8364V10.7803H16.8547V7.76196ZM13.8364 6.76196C13.2841 6.76196 12.8364 7.20968 12.8364 7.76196V10.7803C12.8364 11.3326 13.2841 11.7803 13.8364 11.7803H16.8547C17.407 11.7803 17.8547 11.3326 17.8547 10.7803V7.76196C17.8547 7.20968 17.407 6.76196 16.8547 6.76196H13.8364ZM7.14528 14.4529H10.1636V17.4712H7.14528V14.4529ZM6.14528 14.4529C6.14528 13.9006 6.59299 13.4529 7.14528 13.4529H10.1636C10.7159 13.4529 11.1636 13.9006 11.1636 14.4529V17.4712C11.1636 18.0235 10.7159 18.4712 10.1636 18.4712H7.14528C6.59299 18.4712 6.14528 18.0235 6.14528 17.4712V14.4529ZM8.49082 8.43433H7.81805V9.1071V9.43433V10.1071H8.49082H8.81805H9.49082V9.43433V9.1071V8.43433H8.81805H8.49082ZM14.5091 8.43433H15.1819H15.5091H16.1819V9.1071V9.43433V10.1071H15.5091H15.1819H14.5091V9.43433V9.1071V8.43433ZM8.49082 15.1257H7.81805V15.7985V16.1257V16.7985H8.49082H8.81805H9.49082V16.1257V15.7985V15.1257H8.81805H8.49082ZM14.5091 15.1257H15.1819H15.5091H16.1819V15.7985V16.1257V16.7985H15.5091H15.1819H14.5091V16.1257V15.7985V15.1257ZM13.5091 13.4529H12.8364V14.1257V14.4529V15.1257H13.5091H13.8364H14.5091V14.4529V14.1257V13.4529H13.8364H13.5091ZM16.1819 13.4529H16.8547H17.1819H17.8547V14.1257V14.4529V15.1257H17.1819H16.8547H16.1819V14.4529V14.1257V13.4529ZM16.8547 16.7986H16.1819V17.4714V17.7986V18.4714H16.8547H17.1819H17.8547V17.7986V17.4714V16.7986H17.1819H16.8547ZM12.8364 16.7986H13.5091H13.8364H14.5091V17.4714V17.7986V18.4714H13.8364H13.5091H12.8364V17.7986V17.4714V16.7986Z" fill="black"/>
</svg>
