<svg width="24" height="24" viewBox="0 0 24 24" fill="none" xmlns="http://www.w3.org/2000/svg">
<path fill-rule="evenodd" clip-rule="evenodd" d="M10.4 5H5.6C5.26863 5 5 5.26863 5 5.6V10.4C5 10.7314 5.26863 11 5.6 11H10.4C10.7314 11 11 10.7314 11 10.4V5.6C11 5.26863 10.7314 5 10.4 5ZM6 10V6H10V10H6ZM13.6 5H18.4C18.7314 5 19 5.26863 19 5.6V10.4C19 10.7314 18.7314 11 18.4 11H13.6C13.2686 11 13 10.7314 13 10.4V5.6C13 5.26863 13.2686 5 13.6 5ZM14 10V6H18V10H14ZM5.6 13H10.4C10.7314 13 11 13.2686 11 13.6V18.4C11 18.7314 10.7314 19 10.4 19H5.6C5.26863 19 5 18.7314 5 18.4V13.6C5 13.2686 5.26863 13 5.6 13ZM6 18V14H10V18H6ZM7 7H9V9H7V7ZM9 15H7V17H9V15ZM17 15H15V13H13V15H15V17H13V19H15V17H17V19H19V17H17V15ZM17 15V13H19V15H17ZM17 7H15V9H17V7Z" fill="black"/>
</svg>
