<svg width="24" height="24" viewBox="0 0 24 24" fill="none" xmlns="http://www.w3.org/2000/svg">
<path fill-rule="evenodd" clip-rule="evenodd" d="M12 20.5C7.30558 20.5 3.5 16.6944 3.5 12C3.5 7.30558 7.30558 3.5 12 3.5C16.6944 3.5 20.5 7.30558 20.5 12C20.5 16.6944 16.6944 20.5 12 20.5ZM12 19.5C16.1421 19.5 19.5 16.1421 19.5 12C19.5 7.85786 16.1421 4.5 12 4.5C7.85786 4.5 4.5 7.85786 4.5 12C4.5 16.1421 7.85786 19.5 12 19.5ZM11.3047 10.6254C11.3047 10.9205 11.4258 11.0764 11.6552 11.1845C11.8319 11.2728 12.016 11.342 12.2321 11.4012C13.4364 11.7824 13.8604 12.1128 13.8604 13.0369C13.8604 13.8402 13.4095 14.4355 12.6272 14.6659L12.4837 14.7081V15.3679C12.4837 15.6332 12.2676 15.8494 12.0023 15.8494C11.737 15.8494 11.5208 15.6333 11.5208 15.3679V14.7488L11.3523 14.7219C10.6759 14.6141 10.2 14.3727 10.2 14.0225C10.2 13.7657 10.4314 13.5421 10.7042 13.5421C10.8037 13.5421 10.9103 13.5684 11.0963 13.6368L11.1424 13.6524C11.1639 13.6596 11.1751 13.6634 11.1864 13.6671C11.1987 13.6712 11.2109 13.6753 11.2367 13.6837C11.4722 13.76 11.6668 13.7986 11.8979 13.7986C12.5051 13.7986 12.7557 13.5202 12.7557 13.085C12.7557 12.7781 12.6379 12.6179 12.4126 12.5178C12.2589 12.452 12.0724 12.3831 11.8257 12.3006C10.6297 11.9348 10.208 11.6055 10.208 10.6574C10.208 9.87748 10.6341 9.31364 11.3741 9.10929L11.5208 9.06876V8.48149C11.5208 8.21614 11.737 8 12.0023 8C12.2676 8 12.4837 8.21615 12.4837 8.48149V9.04703L12.6515 9.0744C13.3074 9.18135 13.6281 9.41731 13.6281 9.72028C13.6281 9.99382 13.4044 10.2004 13.0918 10.2004C13.001 10.2004 12.9365 10.186 12.7909 10.1396C12.7735 10.1341 12.7637 10.131 12.7538 10.1279C12.7406 10.1237 12.7274 10.1197 12.6967 10.1102C12.47 10.0263 12.3263 9.99223 12.0903 9.99223C11.7028 9.99223 11.4578 10.1192 11.3552 10.3497C11.3138 10.4424 11.3047 10.5165 11.3047 10.6254Z" fill="black"/>
</svg>
