<svg width="24" height="24" viewBox="0 0 24 24" fill="none" xmlns="http://www.w3.org/2000/svg">
<path fill-rule="evenodd" clip-rule="evenodd" d="M18 20.5C19.1046 20.5 20 19.6046 20 18.5C20 17.3954 19.1046 16.5 18 16.5C16.8954 16.5 16 17.3954 16 18.5C16 19.6046 16.8954 20.5 18 20.5ZM15.0415 19C15.2795 20.4189 16.5135 21.5 18 21.5C19.6569 21.5 21 20.1569 21 18.5C21 16.8431 19.6569 15.5 18 15.5C16.5135 15.5 15.2795 16.5811 15.0415 18H10C8.42858 18 7.5 16.8973 7.5 15.25C7.5 13.6243 8.40845 12.5 9.8382 12.5H13.994H14.3332C14.3934 12.5 14.4511 12.4894 14.5045 12.4699C16.3825 12.2425 17.5 10.7498 17.5 8.75C17.5 6.58227 16.1696 5 14 5H8.95852C8.72048 3.58114 7.4865 2.5 6 2.5C4.34315 2.5 3 3.84315 3 5.5C3 7.15685 4.34315 8.5 6 8.5C7.4865 8.5 8.72048 7.41886 8.95852 6H14C15.5752 6 16.5 7.09988 16.5 8.75C16.5 10.4076 15.5834 11.5 13.994 11.5H9.8382C7.80361 11.5 6.5 13.1133 6.5 15.25C6.5 17.4152 7.83458 19 10 19H15.0415ZM6 7.5C7.10457 7.5 8 6.60457 8 5.5C8 4.39543 7.10457 3.5 6 3.5C4.89543 3.5 4 4.39543 4 5.5C4 6.60457 4.89543 7.5 6 7.5Z" fill="black"/>
</svg>
