<svg width="25" height="24" viewBox="0 0 25 24" fill="none" xmlns="http://www.w3.org/2000/svg">
<path fill-rule="evenodd" clip-rule="evenodd" d="M20.8108 16.4992C19.4743 18.8152 17.1707 20.4322 14.4286 20.8735C9.49987 21.6667 4.9062 18.3465 4.11303 13.4178C3.32544 8.52371 6.63999 3.89533 11.5688 3.10216C11.6486 3.09553 11.7368 3.08755 11.8305 3.07908C12.273 3.03905 12.8358 2.98814 13.1933 3.01876C13.5863 3.02674 13.7686 3.49592 13.4551 3.76003C11.4694 5.36148 10.5191 7.86458 10.9213 10.3637C11.6251 14.7371 16.1126 17.3977 20.2826 15.8721C20.6532 15.7412 21.0035 16.1478 20.8108 16.4992ZM19.2551 6.67104C19.1952 6.48678 18.9345 6.48678 18.8747 6.67104L18.5543 7.65688C18.5276 7.73929 18.4508 7.79508 18.3641 7.79508H17.3276C17.1338 7.79508 17.0533 8.043 17.21 8.15688L18.0486 8.76616C18.1187 8.81709 18.148 8.90736 18.1213 8.98977L17.8009 9.97561C17.7411 10.1599 17.952 10.3131 18.1087 10.1992L18.9473 9.58993C19.0174 9.539 19.1123 9.539 19.1824 9.58993L20.021 10.1992C20.1778 10.3131 20.3887 10.1599 20.3288 9.97561L20.0085 8.98977C19.9817 8.90736 20.011 8.81709 20.0811 8.76616L20.9197 8.15688C21.0765 8.043 20.9959 7.79508 20.8022 7.79508H19.7656C19.679 7.79508 19.6022 7.73929 19.5754 7.65688L19.2551 6.67104Z" fill="url(#paint0_angular_1319_39800)"/>
<defs>
<radialGradient id="paint0_angular_1319_39800" cx="0" cy="0" r="1" gradientUnits="userSpaceOnUse" gradientTransform="translate(12.4999 12) rotate(90) scale(8.99059 8.50263)">
<stop stop-color="#3757D9"/>
<stop offset="1" stop-color="#9AA9EE"/>
</radialGradient>
</defs>
</svg>
