<svg width="24" height="24" viewBox="0 0 24 24" fill="none" xmlns="http://www.w3.org/2000/svg">
<path fill-rule="evenodd" clip-rule="evenodd" d="M13.349 1.46461C13.5542 1.27984 13.8704 1.29641 14.0551 1.50162C14.2399 1.70683 14.2233 2.02298 14.0181 2.20776L12.0662 3.96531C16.9809 4.03012 20.9451 8.03438 20.9451 12.9645C20.9451 17.9351 16.9156 21.9645 11.9451 21.9645C6.97451 21.9645 2.94507 17.9351 2.94507 12.9645C2.94507 12.6265 2.9637 12.2928 3 11.9645H3.00124C3.01947 11.705 3.2358 11.5 3.5 11.5C3.76419 11.5 3.98053 11.705 3.99875 11.9645H4.00696L3.99916 12.0292C3.99809 12.0478 3.99601 12.0661 3.99296 12.0841C3.96131 12.3732 3.94507 12.667 3.94507 12.9645C3.94507 17.3828 7.52679 20.9645 11.9451 20.9645C16.3633 20.9645 19.9451 17.3828 19.9451 12.9645C19.9451 8.54624 16.3633 4.96451 11.9451 4.96451C11.8939 4.96451 11.8428 4.96499 11.7919 4.96595L13.7591 7.15072C13.9439 7.35594 13.9273 7.67208 13.7221 7.85686C13.5169 8.04164 13.2007 8.02507 13.0159 7.81985L10.3397 4.84757C10.3396 4.84747 10.3395 4.84737 10.3394 4.84727C10.1546 4.64206 10.1712 4.32591 10.3764 4.14114C10.3766 4.14101 10.3767 4.14088 10.3768 4.14075L13.349 1.46461Z" fill="black"/>
</svg>
