<svg width="24" height="24" viewBox="0 0 24 24" fill="none" xmlns="http://www.w3.org/2000/svg">
<path fill-rule="evenodd" clip-rule="evenodd" d="M10 9.37488C10 9.09874 9.77614 8.87488 9.5 8.87488H5.22551C6.48382 6.37926 9.04973 4.74988 11.9198 4.74988C15.0003 4.74988 17.7304 6.62703 18.8694 9.43766C18.9731 9.69359 19.2646 9.81699 19.5205 9.71328C19.7765 9.60957 19.8999 9.31803 19.7962 9.0621C18.5057 5.87742 15.4113 3.74988 11.9198 3.74988C8.95767 3.74988 6.28148 5.28107 4.75 7.68991V4.12488C4.75 3.84874 4.52614 3.62488 4.25 3.62488C3.97386 3.62488 3.75 3.84874 3.75 4.12488V9.87488H9.5C9.77614 9.87488 10 9.65102 10 9.37488ZM18.614 15.6249H14.3027C14.0266 15.6249 13.8027 15.401 13.8027 15.1249C13.8027 14.8487 14.0266 14.6249 14.3027 14.6249H20.0527V20.3749C20.0527 20.651 19.8288 20.8749 19.5527 20.8749C19.2766 20.8749 19.0527 20.651 19.0527 20.3749V16.8673C17.5154 19.243 14.8583 20.7499 11.9198 20.7499C8.42823 20.7499 5.3339 18.6223 4.0434 15.4377C3.93969 15.1817 4.06309 14.8902 4.31902 14.7865C4.57495 14.6828 4.86649 14.8062 4.9702 15.0621C6.10913 17.8727 8.83928 19.7499 11.9198 19.7499C14.7898 19.7499 17.3557 18.1205 18.614 15.6249Z" fill="black"/>
</svg>
