<svg width="24" height="24" viewBox="0 0 24 24" fill="none" xmlns="http://www.w3.org/2000/svg">
<path fill-rule="evenodd" clip-rule="evenodd" d="M12 12.7929L17.9757 6.81716C18.0883 6.70464 18.2409 6.64142 18.4 6.64142C18.7314 6.64142 19 6.91005 19 7.24142V14.5C19 16.4037 13.2547 21 12 21C10.7453 21 5 16.4037 5 14.5L5 5.76581L5.17991 5.61589C7.26723 3.87645 9.54601 3 12 3C14.104 3 16.0807 3.6445 17.918 4.92618C18.1445 5.08417 18.2001 5.39584 18.0421 5.62233C17.8841 5.84881 17.5724 5.90434 17.3459 5.74635C15.6734 4.57968 13.8955 4 12 4C9.85654 4 7.86146 4.74155 6 6.23689V14.5C6 15.1669 7.12016 16.4558 8.87485 17.8596C10.1776 18.9018 11.8883 20 12 20C12.1117 20 13.8224 18.9018 15.1252 17.8596C16.8798 16.4558 18 15.1669 18 14.5V8.20711L12.495 13.7121C12.2216 13.9855 11.7784 13.9855 11.505 13.7121L8.14645 10.3536C7.95118 10.1583 7.95118 9.84171 8.14645 9.64645C8.34171 9.45118 8.65829 9.45118 8.85355 9.64645L12 12.7929Z" fill="black"/>
</svg>
