<svg width="24" height="24" viewBox="0 0 24 24" fill="none" xmlns="http://www.w3.org/2000/svg">
<path fill-rule="evenodd" clip-rule="evenodd" d="M15.1631 12.6914C15.9106 12.6914 16.2429 12.4739 16.2429 12.3212C16.8779 12.3212 21.9675 12.3212 22.8645 12.3212C22.8645 12.7946 22.3911 13.3789 21.4443 13.8463L3.27786 21.695C2.74523 21.8546 2.37926 21.8546 2.17994 21.695C1.98062 21.5355 1.94689 21.121 2.07875 20.4516C2.07875 20.4516 3.04984 16.7505 3.57803 14.8005C3.69062 14.3848 3.87599 14.0639 4.01015 13.8463C4.22614 13.5968 4.48079 13.5226 4.73461 13.5028C8.21079 13.2324 15.1631 12.6914 15.1631 12.6914ZM15.1631 11.9079C15.1631 11.9079 8.20901 11.5007 4.73194 11.2971C4.47902 11.2823 4.14504 11.1379 3.92455 10.7319C3.69524 10.1068 3.74385 10.2944 3.57803 9.81568C2.95125 8.00605 2.07875 4.36315 2.07875 4.36315C1.94689 3.69377 1.98062 3.27928 2.17994 3.11969C2.37925 2.9601 2.74523 2.9601 3.27786 3.11969L21.4443 10.9684C22.3911 11.3968 22.8645 11.8478 22.8645 12.3212C21.9675 12.3212 16.8779 12.3212 16.2429 12.3212C16.2429 12.1125 15.9091 11.9652 15.1631 11.9079Z" fill="black"/>
<mask id="mask0_244_579" style="mask-type:alpha" maskUnits="userSpaceOnUse" x="2" y="3" width="21" height="19">
<path fill-rule="evenodd" clip-rule="evenodd" d="M15.1631 12.6914C15.9106 12.6914 16.2429 12.4739 16.2429 12.3212C16.8779 12.3212 21.9675 12.3212 22.8645 12.3212C22.8645 12.7946 22.3911 13.3789 21.4443 13.8463L3.27786 21.695C2.74523 21.8546 2.37926 21.8546 2.17994 21.695C1.98062 21.5355 1.94689 21.121 2.07875 20.4516C2.07875 20.4516 3.04984 16.7505 3.57803 14.8005C3.69062 14.3848 3.87599 14.0639 4.01015 13.8463C4.22614 13.5968 4.48079 13.5226 4.73461 13.5028C8.21079 13.2324 15.1631 12.6914 15.1631 12.6914ZM15.1631 11.9079C15.1631 11.9079 8.20901 11.5007 4.73194 11.2971C4.47902 11.2823 4.14504 11.1379 3.92455 10.7319C3.69524 10.1068 3.74385 10.2944 3.57803 9.81568C2.95125 8.00605 2.07875 4.36315 2.07875 4.36315C1.94689 3.69377 1.98062 3.27928 2.17994 3.11969C2.37925 2.9601 2.74523 2.9601 3.27786 3.11969L21.4443 10.9684C22.3911 11.3968 22.8645 11.8478 22.8645 12.3212C21.9675 12.3212 16.8779 12.3212 16.2429 12.3212C16.2429 12.1125 15.9091 11.9652 15.1631 11.9079Z" fill="white"/>
</mask>
<g mask="url(#mask0_244_579)">
</g>
</svg>
