<svg width="24" height="24" viewBox="0 0 24 24" fill="none" xmlns="http://www.w3.org/2000/svg">
<path fill-rule="evenodd" clip-rule="evenodd" d="M17.1428 4.50024C16.1566 4.50024 15.3571 5.29974 15.3571 6.28596C15.3571 7.27218 16.1566 8.07167 17.1428 8.07167C18.1291 8.07167 18.9286 7.27218 18.9286 6.28596C18.9286 5.29974 18.1291 4.50024 17.1428 4.50024ZM14.3571 6.28596C14.3571 4.74745 15.6043 3.50024 17.1428 3.50024C18.6813 3.50024 19.9286 4.74745 19.9286 6.28596C19.9286 7.82447 18.6813 9.07167 17.1428 9.07167C16.2757 9.07167 15.5012 8.67551 14.9903 8.05431L9.49637 11.1065C9.59134 11.387 9.64284 11.6876 9.64284 12.0002C9.64284 12.3132 9.59124 12.6141 9.49608 12.8949L14.9897 15.9469C15.5006 15.3253 16.2754 14.9288 17.1428 14.9288C18.6813 14.9288 19.9286 16.176 19.9286 17.7145C19.9286 19.253 18.6813 20.5002 17.1428 20.5002C15.6043 20.5002 14.3571 19.253 14.3571 17.7145C14.3571 17.4019 14.4086 17.1013 14.5036 16.8208L9.0097 13.7686C8.49879 14.3898 7.72422 14.786 6.85713 14.786C5.31862 14.786 4.07141 13.5388 4.07141 12.0002C4.07141 10.4617 5.31862 9.21453 6.85713 9.21453C7.72454 9.21453 8.49936 9.61098 9.01026 10.2326L14.5039 7.18057C14.4087 6.89978 14.3571 6.5989 14.3571 6.28596ZM6.85713 10.2145C5.8709 10.2145 5.07141 11.014 5.07141 12.0002C5.07141 12.9865 5.8709 13.786 6.85713 13.786C7.84335 13.786 8.64284 12.9865 8.64284 12.0002C8.64284 11.014 7.84335 10.2145 6.85713 10.2145ZM17.1428 15.9288C16.1566 15.9288 15.3571 16.7283 15.3571 17.7145C15.3571 18.7008 16.1566 19.5002 17.1428 19.5002C18.1291 19.5002 18.9286 18.7008 18.9286 17.7145C18.9286 16.7283 18.1291 15.9288 17.1428 15.9288Z" fill="black"/>
</svg>
