<svg width="20" height="21" viewBox="0 0 20 21" fill="none" xmlns="http://www.w3.org/2000/svg">
<path d="M18.2031 3.78125C18.5547 3.9375 18.8281 4.13281 19.0625 4.44531C19.2578 4.75781 19.375 5.10938 19.375 5.5C19.375 8.19531 18.8672 10.6562 17.8906 12.8828C17.0312 14.7578 15.8594 16.3984 14.4531 17.8047C13.2422 18.9766 11.9922 19.8359 10.7031 20.3438C10.2344 20.5781 9.76562 20.5781 9.29688 20.3438C7.8125 19.7578 6.44531 18.7812 5.19531 17.4531C3.78906 16.0469 2.73438 14.3672 1.95312 12.4141C1.05469 10.2656 0.625 7.96094 0.625 5.5C0.625 5.10938 0.703125 4.75781 0.9375 4.44531C1.13281 4.13281 1.40625 3.9375 1.79688 3.78125L9.29688 0.65625C9.76562 0.460938 10.2344 0.460938 10.7031 0.65625L18.2031 3.78125ZM10.2344 19.2109C11.5625 18.7031 12.8125 17.8047 13.9844 16.5156C15.2344 15.1875 16.2109 13.5859 16.9141 11.7891C17.6953 9.79688 18.125 7.6875 18.125 5.5C18.125 5.22656 17.9688 5.03125 17.7344 4.91406L10.2344 1.78906C10.0781 1.75 9.92188 1.75 9.76562 1.78906L2.26562 4.91406C1.99219 5.03125 1.875 5.22656 1.875 5.5C1.875 7.6875 2.26562 9.79688 3.08594 11.7891C3.78906 13.5859 4.76562 15.1875 6.01562 16.5156C7.1875 17.8047 8.4375 18.7031 9.76562 19.2109C9.92188 19.2891 10.0781 19.2891 10.2344 19.2109ZM15.8984 7.49219C15.9766 7.41406 16.0156 7.33594 16.0156 7.17969C16.0156 7.0625 15.9766 6.94531 15.8984 6.82812L15.5469 6.51562C15.4688 6.4375 15.3516 6.35938 15.2344 6.35938C15.0781 6.35938 14.9609 6.4375 14.8828 6.51562L8.51562 12.8438L5.82031 10.1094C5.74219 10.0312 5.625 9.99219 5.50781 9.99219C5.35156 9.99219 5.23438 10.0312 5.15625 10.1094L4.84375 10.4609C4.72656 10.5391 4.6875 10.6562 4.6875 10.7734C4.6875 10.9297 4.72656 11.0469 4.80469 11.125L8.16406 14.4844C8.24219 14.6016 8.35938 14.6406 8.51562 14.6406C8.63281 14.6406 8.75 14.6016 8.82812 14.4844L15.8984 7.49219Z" fill="white"/>
</svg>
