<svg width="24" height="24" viewBox="0 0 24 24" fill="none" xmlns="http://www.w3.org/2000/svg">
<path fill-rule="evenodd" clip-rule="evenodd" d="M17.5215 11.9326H6.58546C6.58546 11.9326 5.60538 11.9751 5.43214 11.8144C5.21995 11.6175 5.07278 11.1083 5.07278 11.1083L3.41334 4.97386C3.41334 4.97386 3.1712 4.36315 3.29568 4.22594C3.42017 4.08873 3.94279 4.36315 3.94279 4.36315L20.9672 11.8144C20.9672 11.8144 21.7297 12.0874 21.7297 12.4172C21.7297 12.7471 20.9672 13.0446 20.9672 13.0446L3.72481 20.5545C3.72481 20.5545 3.36173 20.7363 3.29568 20.6626C3.19867 20.5545 3.29568 20.3251 3.29568 20.3251L4.89631 15.7944C4.89631 15.7944 5.20015 14.774 4.73563 14.6381C4.16258 14.4704 3.82397 15.3922 3.82397 15.3922L2.10734 20.4155C2.10734 20.4155 1.816 21.5714 2.31542 21.8771C2.71538 22.1219 3.63558 21.7866 3.63558 21.7866L21.5798 13.9606C21.5798 13.9606 23 13.1274 23 12.4172C23 11.7071 21.5798 10.9684 21.5798 10.9684L3.41334 3.11969C3.41334 3.11969 2.61439 2.88031 2.31542 3.11969C2.01644 3.35908 2.21423 4.36315 2.21423 4.36315L4.10864 11.2527C4.10864 11.2527 4.34171 11.9326 4.61853 12.3096C5.02476 12.8627 5.87076 12.8801 5.87076 12.8801H17.5215C17.5215 12.8801 18.2013 12.8869 18.2013 12.4172C18.2013 11.9475 17.5215 11.9326 17.5215 11.9326Z" fill="black"/>
<mask id="mask0_244_588" style="mask-type:alpha" maskUnits="userSpaceOnUse" x="2" y="3" width="21" height="19">
<path fill-rule="evenodd" clip-rule="evenodd" d="M17.5215 11.9326H6.58546C6.58546 11.9326 5.60538 11.9751 5.43214 11.8144C5.21995 11.6175 5.07278 11.1083 5.07278 11.1083L3.41334 4.97386C3.41334 4.97386 3.1712 4.36315 3.29568 4.22594C3.42017 4.08873 3.94279 4.36315 3.94279 4.36315L20.9672 11.8144C20.9672 11.8144 21.7297 12.0874 21.7297 12.4172C21.7297 12.7471 20.9672 13.0446 20.9672 13.0446L3.72481 20.5545C3.72481 20.5545 3.36173 20.7363 3.29568 20.6626C3.19867 20.5545 3.29568 20.3251 3.29568 20.3251L4.89631 15.7944C4.89631 15.7944 5.20015 14.774 4.73563 14.6381C4.16258 14.4704 3.82397 15.3922 3.82397 15.3922L2.10734 20.4155C2.10734 20.4155 1.816 21.5714 2.31542 21.8771C2.71538 22.1219 3.63558 21.7866 3.63558 21.7866L21.5798 13.9606C21.5798 13.9606 23 13.1274 23 12.4172C23 11.7071 21.5798 10.9684 21.5798 10.9684L3.41334 3.11969C3.41334 3.11969 2.61439 2.88031 2.31542 3.11969C2.01644 3.35908 2.21423 4.36315 2.21423 4.36315L4.10864 11.2527C4.10864 11.2527 4.34171 11.9326 4.61853 12.3096C5.02476 12.8627 5.87076 12.8801 5.87076 12.8801H17.5215C17.5215 12.8801 18.2013 12.8869 18.2013 12.4172C18.2013 11.9475 17.5215 11.9326 17.5215 11.9326Z" fill="white"/>
</mask>
<g mask="url(#mask0_244_588)">
</g>
</svg>
