<svg width="40" height="40" viewBox="0 0 40 40" fill="none" xmlns="http://www.w3.org/2000/svg">
<circle cx="20" cy="20" r="20" fill="#1B7BBD" fill-opacity="0.12"/>
<path fill-rule="evenodd" clip-rule="evenodd" d="M25.9357 11.2859C25.6793 11.1833 25.3883 11.308 25.2858 11.5644C25.1832 11.8208 25.3079 12.1118 25.5643 12.2144L26.9643 12.7744L23.9782 14.1016C23.8417 14.1622 23.6851 14.1587 23.5515 14.0919L20.3957 12.514C19.9948 12.3135 19.5253 12.3029 19.1157 12.4849L15.4458 14.116C15.3186 14.1725 15.1737 14.1734 15.0458 14.1186L11.947 12.7906C11.6932 12.6818 11.3992 12.7994 11.2904 13.0532C11.1817 13.307 11.2992 13.6009 11.553 13.7097L14.6519 15.0378C15.0356 15.2022 15.4705 15.1993 15.8519 15.0298L19.5218 13.3987C19.6584 13.338 19.8149 13.3416 19.9485 13.4084L23.1043 14.9863C23.5052 15.1867 23.9747 15.1974 24.3843 15.0154L27.3289 13.7067L26.7858 15.0644C26.6832 15.3208 26.8079 15.6118 27.0643 15.7144C27.3207 15.8169 27.6117 15.6922 27.7142 15.4358L28.7142 12.9358C28.8168 12.6794 28.6921 12.3885 28.4357 12.2859L25.9357 11.2859ZM18.25 16.7501H21.25V27.7501H18.25V16.7501ZM17.25 16.7501C17.25 16.1978 17.6977 15.7501 18.25 15.7501H21.25C21.8023 15.7501 22.25 16.1978 22.25 16.7501V27.7501C22.25 28.3024 21.8023 28.7501 21.25 28.7501H18.25C17.6977 28.7501 17.25 28.3024 17.25 27.7501V16.7501ZM24.25 18.7501H27.25V27.7501H24.25V18.7501ZM23.25 18.7501C23.25 18.1978 23.6977 17.7501 24.25 17.7501H27.25C27.8023 17.7501 28.25 18.1978 28.25 18.7501V27.7501C28.25 28.3024 27.8023 28.7501 27.25 28.7501H24.25C23.6977 28.7501 23.25 28.3024 23.25 27.7501V18.7501ZM15.25 19.7501H12.25L12.25 27.7501H15.25V19.7501ZM12.25 18.7501C11.6977 18.7501 11.25 19.1978 11.25 19.7501V27.7501C11.25 28.3024 11.6977 28.7501 12.25 28.7501H15.25C15.8023 28.7501 16.25 28.3024 16.25 27.7501V19.7501C16.25 19.1978 15.8023 18.7501 15.25 18.7501H12.25Z" fill="#1B7BBD"/>
</svg>
