<svg width="24" height="24" viewBox="0 0 24 24" fill="none" xmlns="http://www.w3.org/2000/svg">
<path fill-rule="evenodd" clip-rule="evenodd" d="M20.4078 10.6544C20.6776 10.5951 20.8482 10.3285 20.7889 10.0587C19.8112 5.60723 15.6278 2.56908 11.0592 3.04926C7.08317 3.46716 3.92023 6.44003 3.16888 10.2514L1.61277 7.94438C1.45836 7.71544 1.14759 7.65504 0.918659 7.80945C0.689727 7.96387 0.62932 8.27464 0.783737 8.50357L3.02051 11.8197C3.17493 12.0487 3.48569 12.1091 3.71462 11.9546L7.03077 9.71787C7.25971 9.56345 7.32011 9.25269 7.1657 9.02376C7.01128 8.79482 6.70051 8.73442 6.47158 8.88883L4.14778 10.4563C4.81155 7.064 7.62569 4.41565 11.1638 4.04378C15.2246 3.61698 18.9434 6.3178 19.8122 10.2733C19.8715 10.543 20.1381 10.7136 20.4078 10.6544ZM3.59211 13.3456C3.32239 13.4048 3.15177 13.6715 3.21101 13.9412C4.18877 18.3927 8.37212 21.4309 12.9407 20.9507C16.9168 20.5328 20.0797 17.5599 20.8311 13.7485L22.3872 16.0556C22.5416 16.2846 22.8524 16.345 23.0813 16.1906C23.3103 16.0361 23.3707 15.7254 23.2163 15.4964L20.9795 12.1803C20.8251 11.9514 20.5143 11.891 20.2854 12.0454L16.9692 14.2821C16.7403 14.4366 16.6799 14.7473 16.8343 14.9763C16.9887 15.2052 17.2995 15.2656 17.5284 15.1112L19.8522 13.5438C19.1883 16.936 16.3742 19.5843 12.8362 19.9562C8.7754 20.383 5.05653 17.6822 4.18773 13.7267C4.12849 13.457 3.86182 13.2864 3.59211 13.3456Z" fill="black"/>
</svg>
