<svg width="24" height="25" viewBox="0 0 24 25" fill="none" xmlns="http://www.w3.org/2000/svg">
<path d="M8 18C7.1875 18 6.375 17.3125 6 17C4 15.625 3.375 15.125 3 14.8125V19C3 19.5625 3.4375 20 4 20H12C12.5312 20 13 19.5625 13 19V14.8125C12.5938 15.125 12 15.625 10 17C9.59375 17.3125 8.78125 18 8 18ZM12 12H4C3.4375 12 3 12.4688 3 13V13.5C3.78125 14.125 3.6875 14.125 6.59375 16.2188C6.875 16.4062 7.5 17 8 17C8.5 17 9.09375 16.4062 9.375 16.3125C12.2812 14.2188 12.1875 14.2188 13 13.625V13C13 12.4688 12.5312 12 12 12ZM20 9H10C9.4375 9 9 9.46875 9 10V11H12C13.0312 11 13.875 11.8125 13.9688 12.8125H14V17H20C20.5312 17 21 16.5625 21 16V10C21 9.46875 20.5312 9 20 9ZM19 13H17V11H19V13ZM8 10C8 8.90625 8.875 8 10 8H17V5C17 4.46875 16.5312 4 16 4H6C5.4375 4 5 4.46875 5 5V11H8V10Z" fill="url(#paint0_angular_1319_39842)"/>
<defs>
<radialGradient id="paint0_angular_1319_39842" cx="0" cy="0" r="1" gradientUnits="userSpaceOnUse" gradientTransform="translate(12 12) rotate(90) scale(8 9)">
<stop stop-color="#3757D9"/>
<stop offset="1" stop-color="#9AA9EE"/>
</radialGradient>
</defs>
</svg>
