<svg width="24" height="24" viewBox="0 0 24 24" fill="none" xmlns="http://www.w3.org/2000/svg">
<path fill-rule="evenodd" clip-rule="evenodd" d="M19.3295 20C19.158 20 18.9866 19.9346 18.8555 19.8038L15.4817 16.4297C15.2571 16.2045 14.9772 16.0179 14.2659 16.416C11.446 17.9922 8.10996 17.6094 5.96433 15.4638C3.34522 12.8447 3.34522 8.58326 5.96433 5.9642C8.58343 3.34513 12.8449 3.3454 15.4638 5.9642C17.6858 8.18594 18.0786 11.598 16.419 14.2619C16.2233 14.5758 15.8099 14.671 15.4957 14.4763C15.1814 14.2806 15.0857 13.8672 15.2812 13.553C16.6091 11.4214 16.2943 8.6905 14.516 6.9122C12.4192 4.81566 9.00837 4.8162 6.91207 6.9122C4.81577 9.00846 4.81577 12.4198 6.91207 14.516C8.62927 16.2329 11.3218 16.5265 13.612 15.2458C14.9806 14.4806 15.8994 14.9517 16.4297 15.4815L19.8035 18.8558C20.0655 19.1177 20.0655 19.5418 19.8035 19.8035C19.6724 19.9346 19.5011 20 19.3295 20Z" fill="black"/>
</svg>
