<svg width="24" height="24" viewBox="0 0 24 24" fill="none" xmlns="http://www.w3.org/2000/svg">
<path fill-rule="evenodd" clip-rule="evenodd" d="M7.6 20.8773C7.74695 20.8773 7.88879 20.8234 7.99862 20.7258L12.1901 17H19.5C20.3284 17 21 16.3284 21 15.5V6.5C21 5.67157 20.3284 5 19.5 5H4.5C3.67157 5 3 5.67157 3 6.5V15.5C3 16.3284 3.67157 17 4.5 17H7.5C7.77614 17 8 16.7761 8 16.5C8 16.2239 7.77614 16 7.5 16H4.5C4.22386 16 4 15.7761 4 15.5V6.5C4 6.22386 4.22386 6 4.5 6H19.5C19.7761 6 20 6.22386 20 6.5V15.5C20 15.7761 19.7761 16 19.5 16H11.8099L8 19.3866V18.5C8 18.2239 7.77614 18 7.5 18C7.22386 18 7 18.2239 7 18.5V20.2773C7 20.6087 7.26863 20.8773 7.6 20.8773ZM8.5 12C9.05228 12 9.5 11.5523 9.5 11C9.5 10.4477 9.05228 10 8.5 10C7.94772 10 7.5 10.4477 7.5 11C7.5 11.5523 7.94772 12 8.5 12ZM13 11C13 11.5523 12.5523 12 12 12C11.4477 12 11 11.5523 11 11C11 10.4477 11.4477 10 12 10C12.5523 10 13 10.4477 13 11ZM15.5 12C16.0523 12 16.5 11.5523 16.5 11C16.5 10.4477 16.0523 10 15.5 10C14.9477 10 14.5 10.4477 14.5 11C14.5 11.5523 14.9477 12 15.5 12Z" fill="black"/>
</svg>
