<svg width="36" height="36" viewBox="0 0 36 36" fill="none" xmlns="http://www.w3.org/2000/svg">
<rect width="36" height="36" rx="18" fill="#EEEEEE"/>
<path d="M7.20001 10.377L10.4697 16.2214V19.7863L7.20384 25.6192L7.20001 10.377Z" fill="#5B57A2"/>
<path d="M19.7543 14.0947L22.8182 12.2168L29.0885 12.211L19.7543 17.9291V14.0947Z" fill="#D90751"/>
<path d="M19.737 10.3426L19.7543 18.0803L16.477 16.0666V4.5L19.7372 10.3426H19.737Z" fill="#FAB718"/>
<path d="M29.0885 12.211L22.8179 12.2168L19.737 10.3426L16.477 4.5L29.0882 12.211H29.0885Z" fill="#ED6F26"/>
<path d="M19.7543 25.6516V21.8975L16.477 19.922L16.4788 31.5L19.7543 25.6516Z" fill="#63B22F"/>
<path d="M22.8105 23.7908L10.4695 16.2214L7.20001 10.377L29.0752 23.7832L22.8103 23.7908H22.8105Z" fill="#1487C9"/>
<path d="M16.479 31.5L19.7541 25.6516L22.8103 23.7908L29.0749 23.7832L16.479 31.5Z" fill="#017F36"/>
<path d="M7.20383 25.6192L16.5037 19.9222L13.3771 18.0038L10.4697 19.7863L7.20383 25.6192Z" fill="#984995"/>
</svg>
