<svg width="16" height="16" viewBox="0 0 16 16" fill="none" xmlns="http://www.w3.org/2000/svg">
<path fill-rule="evenodd" clip-rule="evenodd" d="M8.00004 1.33337C4.32004 1.33337 1.33337 4.32004 1.33337 8.00004C1.33337 11.68 4.32004 14.6667 8.00004 14.6667C11.68 14.6667 14.6667 11.68 14.6667 8.00004C14.6667 4.32004 11.68 1.33337 8.00004 1.33337ZM2.66671 8.00004C2.66671 5.05337 5.05337 2.66671 8.00004 2.66671C9.23337 2.66671 10.3667 3.08671 11.2667 3.79337L3.79337 11.2667C3.08671 10.3667 2.66671 9.23337 2.66671 8.00004ZM8.00004 13.3334C6.76671 13.3334 5.63337 12.9134 4.73337 12.2067L12.2067 4.73337C12.9134 5.63337 13.3334 6.76671 13.3334 8.00004C13.3334 10.9467 10.9467 13.3334 8.00004 13.3334Z" fill="black"/>
</svg>
