<svg width="24" height="24" viewBox="0 0 24 24" fill="none" xmlns="http://www.w3.org/2000/svg">
<path fill-rule="evenodd" clip-rule="evenodd" d="M19.3235 9.42297H20.1552C20.914 9.42297 21.4982 9.84129 21.5 10.5937V13.4061C21.5 14.1579 20.9155 14.5768 20.1563 14.5768H19.3248C19.2947 14.6721 19.2658 14.7628 19.2492 14.8132C19.1996 14.964 19.1527 15.0972 19.1061 15.2166L19.7126 15.8231C20.2366 16.3479 20.2367 17.1983 19.7123 17.7232L17.723 19.712C17.1983 20.2367 16.3472 20.2366 15.823 19.712L15.2167 19.1057C15.0976 19.152 14.9648 19.1988 14.8145 19.2484C14.7639 19.265 14.6726 19.2941 14.5768 19.3245V20.1562C14.5768 20.9153 14.1579 21.5 13.4061 21.5H10.5939C9.84207 21.5 9.4232 20.9153 9.4232 20.1562V19.3245C9.32751 19.2942 9.23632 19.2651 9.18589 19.2485C9.03534 19.1989 8.9024 19.1521 8.78323 19.1057L8.17699 19.712C7.65221 20.2368 6.80174 20.2368 6.277 19.712L4.28736 17.7228C3.76324 17.1978 3.76324 16.3477 4.28766 15.8228L4.89398 15.2165C4.84757 15.0973 4.80076 14.9644 4.75119 14.8138C4.73467 14.7636 4.70566 14.6725 4.67538 14.5768H3.84373C3.08446 14.5768 2.5 14.1579 2.5 13.4061V10.5937C2.5 9.84195 3.08437 9.42297 3.84318 9.42297H4.67466C4.70486 9.32741 4.73383 9.23637 4.75042 9.18594C4.79997 9.03538 4.84682 8.90239 4.89331 8.78315L4.28696 8.17677C3.76287 7.65222 3.76273 6.8017 4.28716 6.27681L6.27655 4.28788C6.80158 3.76327 7.65272 3.7634 8.17643 4.28803L8.78262 4.89425C8.90175 4.84787 9.03462 4.80106 9.18507 4.75152C9.23551 4.73491 9.32682 4.70582 9.42265 4.67549V3.84377C9.42265 3.08467 9.84152 2.5 10.5933 2.5H13.405C14.1568 2.5 14.5757 3.08467 14.5757 3.84377V4.67547C14.6714 4.70576 14.7626 4.7348 14.8129 4.75137C14.9636 4.80096 15.0965 4.8478 15.2157 4.89421L15.8219 4.28803C16.3465 3.76341 17.1976 3.76327 17.7219 4.28798L19.7114 6.27701C20.2356 6.8017 20.2355 7.65222 19.7112 8.17692L19.1049 8.78327C19.1513 8.9024 19.1981 9.03533 19.2477 9.18592C19.2642 9.23611 19.2932 9.32724 19.3235 9.42297ZM20.1552 10.423H18.957C18.7401 10.423 18.5479 10.2831 18.4812 10.0767C18.4757 10.0597 18.4582 10.0039 18.4357 9.93253L18.4357 9.9325C18.3902 9.78825 18.3247 9.58017 18.2978 9.49855C18.2102 9.23237 18.1352 9.03744 18.0646 8.89974C17.9655 8.70657 18.0024 8.47154 18.1559 8.31803L19.004 7.46998C19.138 7.33582 19.138 7.11799 19.0042 6.984L17.0147 4.99497C16.8808 4.86101 16.6631 4.86104 16.529 4.99512L15.6811 5.84305C15.5278 5.99644 15.2929 6.03343 15.0998 5.93462C14.9618 5.86398 14.7665 5.78889 14.5002 5.70122C14.4168 5.67377 14.2029 5.60638 14.0587 5.56096C13.9904 5.53946 13.9378 5.52288 13.922 5.5178C13.7156 5.45112 13.5757 5.25894 13.5757 5.042V3.84377C13.5757 3.57896 13.5191 3.5 13.405 3.5H10.5933C10.4792 3.5 10.4227 3.57896 10.4227 3.84377V5.042C10.4227 5.25894 10.2828 5.45112 10.0763 5.5178C10.061 5.52276 10.0094 5.53901 9.94218 5.56018L9.94172 5.56032L9.94164 5.56035C9.79742 5.60578 9.58175 5.67371 9.49787 5.70134C9.23179 5.78896 9.03657 5.86403 8.89837 5.93469C8.70527 6.03341 8.47054 5.9964 8.3172 5.84305L7.46901 4.99482C7.33546 4.86104 7.11774 4.86101 6.98347 4.99517L4.99438 6.9838C4.86031 7.11799 4.86035 7.33582 4.99423 7.46983L5.84239 8.31803C5.99598 8.47162 6.03283 8.70681 5.93359 8.90002C5.86288 9.03769 5.78779 9.2327 5.70031 9.49853C5.67237 9.58344 5.60339 9.80278 5.55814 9.94668L5.51722 10.0764C5.45062 10.283 5.25838 10.423 5.04135 10.423H3.84318C3.57876 10.423 3.5 10.4794 3.5 10.5937V13.4061C3.5 13.5203 3.57879 13.5768 3.84373 13.5768H5.04191C5.25881 13.5768 5.45097 13.7166 5.51767 13.923C5.52317 13.94 5.54072 13.9957 5.5632 14.0671C5.60863 14.2114 5.67419 14.4195 5.70106 14.5012C5.78867 14.7674 5.86367 14.9623 5.93429 15.1C6.03336 15.2932 5.99645 15.5282 5.84295 15.6817L4.99493 16.5297C4.86072 16.6641 4.86072 16.8818 4.99473 17.016L6.98408 19.0049C7.11833 19.1391 7.33561 19.1391 7.46986 19.0049L8.31775 18.157C8.47106 18.0036 8.7057 17.9666 8.89878 18.0652C9.037 18.1358 9.23242 18.211 9.49876 18.2987C9.58323 18.3265 9.80092 18.3951 9.94496 18.4405L10.0769 18.4822C10.2833 18.5489 10.4232 18.7411 10.4232 18.958V20.1562C10.4232 20.421 10.4798 20.5 10.5939 20.5H13.4061C13.5202 20.5 13.5768 20.421 13.5768 20.1562V18.958C13.5768 18.7411 13.7167 18.5489 13.9231 18.4822L14.053 18.4412L14.0533 18.4411C14.1973 18.3957 14.4166 18.3266 14.5015 18.2986C14.7676 18.2109 14.963 18.1358 15.1014 18.0652C15.2944 17.9666 15.529 18.0037 15.6822 18.157L16.5303 19.005C16.6641 19.139 16.8818 19.139 17.016 19.0048L19.0051 17.0162C19.1392 16.882 19.1391 16.664 19.0052 16.5299L18.1571 15.6817C18.0035 15.5281 17.9666 15.2929 18.0659 15.0997C18.1366 14.9619 18.2118 14.7667 18.2994 14.5006C18.3276 14.4147 18.3977 14.1917 18.4428 14.0482L18.4429 14.048L18.4822 13.9234C18.5488 13.7168 18.741 13.5768 18.9581 13.5768H20.1563C20.4212 13.5768 20.5 13.5203 20.5 13.4061L20.5 10.5949C20.4997 10.4798 20.4203 10.423 20.1552 10.423ZM14.8915 14.0345C15.1376 14.1598 15.4387 14.062 15.564 13.816C16.567 11.8476 15.7843 9.4389 13.816 8.43597C11.8476 7.43305 9.4389 8.21568 8.43597 10.184C7.43305 12.1524 8.21568 14.5611 10.184 15.564C11.3552 16.1607 12.7216 16.1396 13.8631 15.5399C14.1076 15.4115 14.2016 15.1092 14.0732 14.8648C13.9448 14.6203 13.6425 14.5262 13.398 14.6547C12.5408 15.105 11.5169 15.1208 10.638 14.673C9.16176 13.9208 8.57478 12.1143 9.32698 10.638C10.0792 9.16176 11.8857 8.57478 13.362 9.32698C14.8382 10.0792 15.4252 11.8857 14.673 13.362C14.5477 13.608 14.6455 13.9091 14.8915 14.0345Z" fill="black"/>
</svg>
