<svg width="24" height="24" viewBox="0 0 24 24" fill="none" xmlns="http://www.w3.org/2000/svg">
<path fill-rule="evenodd" clip-rule="evenodd" d="M16 3H6C5.44772 3 5 3.44772 5 4V20C5 20.5523 5.44772 21 6 21H16C16.5523 21 17 20.5523 17 20V15H16V20H6V16H15C15.2761 16 15.5 15.7761 15.5 15.5C15.5 15.2239 15.2761 15 15 15H6V4H16V6H7C6.72386 6 6.5 6.22386 6.5 6.5C6.5 6.77614 6.72386 7 7 7H16H17V4C17 3.44772 16.5523 3 16 3ZM10 18C10 18.5523 10.4477 19 11 19C11.5523 19 12 18.5523 12 18C12 17.4477 11.5523 17 11 17C10.4477 17 10 17.4477 10 18ZM18.1476 8H11.7476C11.3057 8 10.9476 8.44772 10.9476 9V13C10.9476 13.5523 11.3057 14 11.7476 14H18.1476C18.5894 14 18.9476 13.5523 18.9476 13V9.00005V9C18.9476 8.44772 18.5894 8 18.1476 8ZM17.733 9H12.2237L14.9986 10.927L17.733 9ZM11.7476 9.8133L14.8058 11.9371C14.9274 12.0215 15.0754 12.0209 15.1965 11.9355L18.1476 9.85583V13H11.7476V9.8133Z" fill="black"/>
</svg>
