<svg width="24" height="24" viewBox="0 0 24 24" fill="none" xmlns="http://www.w3.org/2000/svg">
<path fill-rule="evenodd" clip-rule="evenodd" d="M15.4543 6.35858C15.7304 6.35858 15.9543 6.58244 15.9543 6.85858C15.9543 7.13472 15.7304 7.35858 15.4543 7.35858H7.45427V5.56569L4.18278 8.83717L7.45427 11.7452V10.3586H15.4543V9.08126C15.4543 8.74989 15.7229 8.48126 16.0543 8.48126C16.2012 8.48126 16.3431 8.53519 16.4529 8.63282L20.7024 12.4101C20.95 12.6303 20.9723 13.0095 20.7522 13.2572C20.7283 13.2831 20.7283 13.2831 20.7024 13.307L20.7024 13.307L19.5115 14.3656C20.5563 15.5601 20.8294 17.3164 20.0648 18.8168C19.9395 19.0629 19.6384 19.1607 19.3923 19.0353C19.1463 18.91 19.0485 18.6089 19.1738 18.3628C19.926 16.8866 19.3391 15.08 17.8628 14.3278C16.3865 13.5756 14.58 14.1626 13.8278 15.6389C13.0756 17.1151 13.6626 18.9217 15.1389 19.6739C16.0177 20.1217 17.0416 20.1059 17.8989 19.6555C18.1433 19.5271 18.4456 19.6211 18.574 19.8656C18.7025 20.1101 18.6084 20.4124 18.3639 20.5408C17.2224 21.1405 15.856 21.1616 14.6849 20.5649C12.774 19.5913 11.9806 17.2929 12.8534 15.3586H8.45427C8.17813 15.3586 7.95427 15.1347 7.95427 14.8586C7.95427 14.5824 8.17813 14.3586 8.45427 14.3586H13.4965C14.6746 13.0171 16.653 12.5891 18.3168 13.4368C18.4711 13.5155 18.6181 13.6027 18.7576 13.6978L19.7017 12.8586L16.4543 9.972V11.3586H8.45427V12.6359C8.45427 12.7828 8.40034 12.9247 8.30271 13.0345C8.08256 13.2822 7.70332 13.3045 7.45565 13.0843L3.20135 9.30274C2.94139 9.04425 2.94139 8.66435 3.17571 8.43003L7.43 4.17574C7.54253 4.06321 7.69514 4 7.85427 4C8.18564 4 8.45427 4.26863 8.45427 4.6V6.35858H15.4543ZM16.5 15C16.2238 15 16 15.2239 16 15.5V17.5C16 17.7761 16.2238 18 16.5 18H17.5C17.7761 18 18 17.7761 18 17.5C18 17.2239 17.7761 17 17.5 17H17V15.5C17 15.2239 16.7761 15 16.5 15Z" fill="black"/>
</svg>
