<svg width="24" height="24" viewBox="0 0 24 24" fill="none" xmlns="http://www.w3.org/2000/svg">
<path fill-rule="evenodd" clip-rule="evenodd" d="M5 8.5C5.55228 8.5 6 8.05228 6 7.5C6 6.94772 5.55228 6.5 5 6.5C4.44772 6.5 4 6.94772 4 7.5C4 8.05228 4.44772 8.5 5 8.5ZM8.5 7C8.22386 7 8 7.22386 8 7.5C8 7.77614 8.22386 8 8.5 8H19.5C19.7761 8 20 7.77614 20 7.5C20 7.22386 19.7761 7 19.5 7H8.5ZM8.5 11.5C8.22386 11.5 8 11.7239 8 12C8 12.2761 8.22386 12.5 8.5 12.5H19.5C19.7761 12.5 20 12.2761 20 12C20 11.7239 19.7761 11.5 19.5 11.5H8.5ZM8 16.5C8 16.2239 8.22386 16 8.5 16H19.5C19.7761 16 20 16.2239 20 16.5C20 16.7761 19.7761 17 19.5 17H8.5C8.22386 17 8 16.7761 8 16.5ZM6 12C6 12.5523 5.55228 13 5 13C4.44772 13 4 12.5523 4 12C4 11.4477 4.44772 11 5 11C5.55228 11 6 11.4477 6 12ZM5 17.5C5.55228 17.5 6 17.0523 6 16.5C6 15.9477 5.55228 15.5 5 15.5C4.44772 15.5 4 15.9477 4 16.5C4 17.0523 4.44772 17.5 5 17.5Z" fill="black"/>
</svg>
