<svg width="24" height="24" viewBox="0 0 24 24" fill="none" xmlns="http://www.w3.org/2000/svg">
<path fill-rule="evenodd" clip-rule="evenodd" d="M21.0585 9.65904C21.1621 9.66797 21.2581 9.71687 21.3262 9.79538C21.471 9.96222 21.4532 10.2149 21.2863 10.3597L19.2467 12.1298C18.9787 11.9129 18.6912 11.7192 18.3873 11.5516L19.5603 10.5336L14.1246 10.0648L12.0007 5.06119L9.87545 10.0757L4.44621 10.5363L8.57102 14.1096L7.33231 19.4195L9.82365 17.9158C9.89598 18.2561 9.99783 18.5854 10.1264 18.9011L6.63165 21.0104C6.54238 21.0643 6.43561 21.0812 6.33408 21.0575C6.11894 21.0073 5.98522 20.7922 6.03541 20.577L7.46005 14.4702L2.71661 10.361C2.6378 10.2927 2.58876 10.1964 2.57995 10.0925C2.56127 9.87235 2.72458 9.67876 2.9447 9.66009L9.19005 9.13023L11.632 3.36852C11.6725 3.273 11.7485 3.19695 11.844 3.15641C12.0474 3.0701 12.2822 3.16497 12.3685 3.36832L14.81 9.12023L21.0585 9.65904Z" fill="black"/>
<path d="M15.5597 13.9648L15.5597 16.6906L17.4917 18.6226" stroke="black" stroke-linecap="round"/>
<circle cx="15.5598" cy="16.6906" r="4.33566" stroke="black" stroke-linecap="round" stroke-linejoin="round"/>
</svg>
