<svg width="24" height="24" viewBox="0 0 24 24" fill="none" xmlns="http://www.w3.org/2000/svg">
<path fill-rule="evenodd" clip-rule="evenodd" d="M15.5 7.50006C15.7761 7.50006 16 7.72392 16 8.00006C16 8.2762 15.7761 8.50006 15.5 8.50006H7.49995V6.70716L4.22847 9.97865L7.49995 12.8866V11.5001H15.5V10.2227C15.5 9.89137 15.7686 9.62274 16.1 9.62274C16.2469 9.62274 16.3887 9.67667 16.4986 9.7743L20.748 13.5516C20.9957 13.7718 21.018 14.151 20.7979 14.3987C20.7739 14.4246 20.7739 14.4246 20.748 14.4485L16.4986 18.2258C16.2509 18.446 15.8717 18.4237 15.6515 18.176C15.5539 18.0662 15.5 17.9243 15.5 17.7774V16.5001H8.49995C8.22381 16.5001 7.99995 16.2762 7.99995 16.0001C7.99995 15.7239 8.22381 15.5001 8.49995 15.5001H16.5V16.8866L19.7474 14.0001L16.5 11.1135V12.5001H8.49995V13.7774C8.49995 13.9243 8.44602 14.0662 8.3484 14.176C8.12825 14.4237 7.749 14.446 7.50133 14.2258L3.24704 10.4442C2.98708 10.1857 2.98708 9.80583 3.22139 9.57151L7.47569 5.31722C7.58821 5.20469 7.74082 5.14148 7.89995 5.14148C8.23132 5.14148 8.49995 5.41011 8.49995 5.74148V7.50006H15.5Z" fill="black"/>
</svg>
