<svg width="24" height="24" viewBox="0 0 24 24" fill="none" xmlns="http://www.w3.org/2000/svg">
<path fill-rule="evenodd" clip-rule="evenodd" d="M4.99994 5C4.99994 3.34315 6.34309 2 7.99994 2H15.9999C17.6568 2 18.9999 3.34315 18.9999 5V16C18.9999 16.5523 18.5522 17 17.9999 17H17.3351L20.6741 20.9793C20.8516 21.1908 20.824 21.5062 20.6125 21.6837C20.4009 21.8612 20.0856 21.8336 19.9081 21.6221L18.547 20H5.44846L4.08738 21.6221C3.90988 21.8336 3.5945 21.8612 3.38296 21.6837C3.17143 21.5062 3.14383 21.1908 3.32134 20.9793L6.66035 17H5.99994C5.44766 17 4.99994 16.5523 4.99994 16V5ZM6.28756 19H17.7079L16.0513 17.0258C16.0443 17.0174 16.0375 17.0088 16.0311 17H7.96438C7.95795 17.0088 7.95119 17.0174 7.94411 17.0258L6.28756 19ZM5.99994 5C5.99994 3.89543 6.89537 3 7.99994 3H15.9999C17.1045 3 17.9999 3.89543 17.9999 5V6H5.99994V5ZM5.99994 7V11H17.9999V7H5.99994ZM5.99994 15.5V12H17.9999V15.5C17.9999 15.7761 17.7761 16 17.4999 16H6.49994C6.2238 16 5.99994 15.7761 5.99994 15.5ZM8.99994 14C8.99994 14.5523 8.55223 15 7.99994 15C7.44766 15 6.99994 14.5523 6.99994 14C6.99994 13.4477 7.44766 13 7.99994 13C8.55223 13 8.99994 13.4477 8.99994 14ZM15.9999 15C16.5522 15 16.9999 14.5523 16.9999 14C16.9999 13.4477 16.5522 13 15.9999 13C15.4477 13 14.9999 13.4477 14.9999 14C14.9999 14.5523 15.4477 15 15.9999 15ZM10.4999 4C10.2238 4 9.99994 4.22386 9.99994 4.5C9.99994 4.77614 10.2238 5 10.4999 5H13.4999C13.7761 5 13.9999 4.77614 13.9999 4.5C13.9999 4.22386 13.7761 4 13.4999 4H10.4999Z" fill="black"/>
</svg>
