<svg width="36" height="36" viewBox="0 0 36 36" fill="none" xmlns="http://www.w3.org/2000/svg">
<rect width="36" height="36" rx="18" fill="white"/>
<rect width="36" height="36" rx="18" fill="#E3FFE3"/>
<path fill-rule="evenodd" clip-rule="evenodd" d="M10 16H19.1C19.0344 15.6769 19 15.3425 19 15C19 14.2889 19.1484 13.6125 19.416 13H10.4C10.1791 13 10 13.1791 10 13.4V16ZM10.4 12H19.9996C20.9118 10.7856 22.3642 10 24 10C26.7614 10 29 12.2386 29 15C29 16.6358 28.2144 18.0882 27 19.0004V22.6C27 23.3732 26.3732 24 25.6 24H10.4C9.6268 24 9 23.3732 9 22.6V18.1719C9 17.8958 9.22386 17.6719 9.5 17.6719C9.77614 17.6719 10 17.8958 10 18.1719V22.6C10 22.8209 10.1791 23 10.4 23H25.6C25.8209 23 26 22.8209 26 22.6V19.584C25.3875 19.8516 24.7111 20 24 20C21.9497 20 20.1876 18.7659 19.416 17H9.5C9.22386 17 9 16.7761 9 16.5V13.4C9 12.6268 9.6268 12 10.4 12ZM10.5 19.5C10.5 19.7761 10.7239 20 11 20H18C18.2761 20 18.5 19.7761 18.5 19.5C18.5 19.2239 18.2761 19 18 19H11C10.7239 19 10.5 19.2239 10.5 19.5ZM24 11C21.7909 11 20 12.7909 20 15C20 17.2091 21.7909 19 24 19C26.2091 19 28 17.2091 28 15C28 12.7909 26.2091 11 24 11ZM26.1213 15.5H23.0858L24.3536 16.7678C24.5488 16.963 24.5488 17.2796 24.3536 17.4749C24.1583 17.6701 23.8417 17.6701 23.6464 17.4749L21.5251 15.3536C21.4772 15.3056 21.441 15.2504 21.4166 15.1914C21.3925 15.1333 21.3791 15.0697 21.3787 15.003V14.997C21.3791 14.9303 21.3925 14.8667 21.4166 14.8086C21.441 14.7496 21.4772 14.6944 21.5251 14.6464L23.6464 12.5251C23.8417 12.3299 24.1583 12.3299 24.3536 12.5251C24.5488 12.7204 24.5488 13.037 24.3536 13.2322L23.0858 14.5H26.1213C26.3975 14.5 26.6213 14.7239 26.6213 15C26.6213 15.2761 26.3975 15.5 26.1213 15.5Z" fill="#3EAE3E"/>
</svg>
