<svg width="24" height="24" viewBox="0 0 24 24" fill="none" xmlns="http://www.w3.org/2000/svg">
<path fill-rule="evenodd" clip-rule="evenodd" d="M3.5 10C3.22386 10 3 10.2239 3 10.5V7.4C3 6.6268 3.6268 6 4.4 6H19.6C20.3732 6 21 6.6268 21 7.4V16.6C21 17.3732 20.3732 18 19.6 18H4.4C3.6268 18 3 17.3732 3 16.6V10.5C3 10.7761 3.22386 11 3.5 11C3.77614 11 4 10.7761 4 10.5V16.6C4 16.8209 4.17909 17 4.4 17H19.6C19.8209 17 20 16.8209 20 16.6V7.4C20 7.17909 19.8209 7 19.6 7H4.4C4.17909 7 4 7.17909 4 7.4V10.5C4 10.2239 3.77614 10 3.5 10ZM11 9H10V15H11V12.7166L11.7566 12.0088L14.0037 15.0049L15.2381 15L12.491 11.3219L14.9732 9H13.5038L11 11.3465V9Z" fill="black"/>
</svg>
