<svg width="24" height="24" viewBox="0 0 24 24" fill="none" xmlns="http://www.w3.org/2000/svg">
<path fill-rule="evenodd" clip-rule="evenodd" d="M11.0198 3.4747C15.7402 2.92111 20.0184 6.29197 20.5846 11.011C20.6077 11.2073 20.7339 11.3763 20.9155 11.4544C21.097 11.5325 21.3065 11.5078 21.4649 11.3895C21.6233 11.2713 21.7066 11.0776 21.6835 10.8813C21.0517 5.55448 16.2213 1.7484 10.8945 2.38019C5.56766 3.01198 1.76159 7.84239 2.39338 13.1692C2.42569 13.4459 2.6599 13.6546 2.93843 13.6549H3.00437C3.14928 13.6379 3.28145 13.5639 3.37174 13.4492C3.46203 13.3346 3.50303 13.1888 3.48569 13.0439C2.92817 8.32225 6.29909 4.04076 11.0198 3.4747ZM10.2241 21.545C10.4955 21.6801 10.8249 21.5699 10.9604 21.2989C12.4006 18.411 12.9629 15.1644 12.578 11.9604C12.5422 11.657 12.2672 11.44 11.9637 11.4758C11.6603 11.5116 11.4433 11.7866 11.4791 12.0901C11.8408 15.0798 11.3189 18.11 9.97799 20.8066C9.91244 20.9371 9.90156 21.0883 9.94775 21.2269C9.99394 21.3655 10.0934 21.4799 10.2241 21.545ZM18.5714 18.9824C18.5349 18.9861 18.498 18.9861 18.4615 18.9824C18.1659 18.9197 17.9764 18.63 18.0373 18.334C18.5039 16.0121 18.5981 13.6307 18.3165 11.2791C18.1872 10.1898 17.7767 9.15288 17.1252 8.2703C17.0075 8.11326 16.9824 7.90532 17.0595 7.7248C17.1366 7.54428 17.3042 7.41861 17.4991 7.39513C17.694 7.37165 17.8866 7.45392 18.0044 7.61096C18.7697 8.64675 19.2522 9.86397 19.4044 11.1428C19.6994 13.6095 19.6 16.1074 19.1099 18.5428C19.0576 18.7987 18.8325 18.9824 18.5714 18.9824ZM5.10547 17.5846C5.72954 16.0612 5.95641 14.4043 5.76481 12.7692C5.48771 10.436 6.52818 8.14164 8.466 6.81284C10.4038 5.48405 12.9189 5.34026 14.9956 6.43953C15.2638 6.58155 15.5964 6.47922 15.7384 6.21096C15.8804 5.94271 15.7781 5.61012 15.5099 5.46811C13.0715 4.17332 10.1157 4.33994 7.83826 5.90055C5.56081 7.46116 4.33855 10.1575 4.66591 12.8989C4.83761 14.3476 4.63872 15.8162 4.08788 17.167C4.01368 17.3488 4.04209 17.5563 4.16241 17.7115C4.28273 17.8666 4.47668 17.9458 4.6712 17.9192C4.86572 17.8925 5.03126 17.7642 5.10547 17.5824V17.5846ZM13.1575 21.6501C13.0219 21.7041 12.8703 21.7019 12.7362 21.6439C12.6004 21.5881 12.4926 21.4802 12.4369 21.3444C12.3811 21.2085 12.3821 21.056 12.4395 20.9209C13.6704 18.0555 14.1252 14.9166 13.7582 11.8198C13.72 11.1757 13.3287 10.6056 12.7414 10.3384C12.1542 10.0712 11.4673 10.1508 10.9566 10.5452C10.446 10.9395 10.1954 11.584 10.3055 12.2198C10.3905 12.9336 10.4221 13.6528 10.4 14.3714C10.3972 14.5177 10.3354 14.6568 10.2286 14.7569C10.1218 14.857 9.97917 14.9098 9.83294 14.9033C9.68719 14.8987 9.54924 14.8363 9.44948 14.73C9.34972 14.6236 9.29633 14.482 9.30107 14.3362C9.32207 13.6713 9.29341 13.0057 9.21536 12.345C9.06675 10.8062 10.1765 9.43125 11.712 9.25172C13.2476 9.0722 14.6446 10.1541 14.8549 11.6857C15.2471 14.9758 14.7657 18.3111 13.4593 21.356C13.4018 21.4902 13.2932 21.596 13.1575 21.6501ZM7.98898 20.8505C8.25491 20.994 8.58677 20.8958 8.73184 20.6307C9.25172 19.6552 9.65663 18.6227 9.93843 17.5538C10.0155 17.2601 9.83987 16.9595 9.54612 16.8824C9.25238 16.8053 8.95177 16.981 8.8747 17.2747C8.61565 18.2672 8.2417 19.226 7.76041 20.1318C7.63422 20.3941 7.73446 20.7093 7.98898 20.8505ZM17.1318 11.4879C17.1318 11.7913 16.8858 12.0373 16.5824 12.0373C16.2993 12.0363 16.0634 11.8203 16.0373 11.5384C15.7671 9.33395 13.7662 7.7623 11.5604 8.02195C11.2881 8.05716 11.0201 8.11975 10.7604 8.20877C10.4721 8.30405 10.1612 8.1476 10.0659 7.85931C9.97062 7.57103 10.1271 7.26009 10.4154 7.16481C11.8776 6.67871 13.4808 6.87507 14.7825 7.6997C16.0842 8.52433 16.9467 9.89001 17.1318 11.4198V11.4373V11.4879ZM15.4989 20.956C15.7865 21.0517 16.0973 20.8963 16.1934 20.6088C16.8474 18.6593 17.2117 16.6245 17.2747 14.5692C17.2833 14.2665 17.0455 14.0139 16.7428 14.0044C16.5966 13.9978 16.4539 14.0506 16.3472 14.1507C16.2404 14.2509 16.1786 14.3899 16.1758 14.5362C16.1182 16.4804 15.7761 18.4056 15.1604 20.2505C15.1107 20.3889 15.1185 20.5415 15.1821 20.6741C15.2457 20.8067 15.3598 20.9082 15.4989 20.956ZM6.46568 19.6744C6.32674 19.719 6.17579 19.7064 6.04613 19.6395C5.77792 19.5 5.67283 19.17 5.81096 18.9011C6.80884 16.9711 7.20393 14.7858 6.94503 12.6285C6.80349 11.4396 7.08179 10.2385 7.73184 9.23294C7.83445 9.05906 8.02415 8.95546 8.2259 8.96313C8.42765 8.97079 8.60894 9.08848 8.69806 9.26964C8.78718 9.4508 8.76977 9.66625 8.65272 9.83074C8.14058 10.6204 7.92056 11.5642 8.03074 12.4989C8.31657 14.8726 7.88321 17.2775 6.78678 19.4022C6.72015 19.532 6.60462 19.6299 6.46568 19.6744Z" fill="black"/>
</svg>
