<svg width="24" height="24" viewBox="0 0 24 24" fill="none" xmlns="http://www.w3.org/2000/svg">
<path fill-rule="evenodd" clip-rule="evenodd" d="M12.5 8H14.2081C14.4843 8 14.7081 8.22386 14.7081 8.5C14.7081 8.77614 14.4843 9 14.2081 9H12.4C11.9029 9 11.5 8.59706 11.5 8.1V4.75374C11.5 4.57623 11.5674 4.40536 11.6887 4.27569C11.9527 3.99329 12.3956 3.97838 12.678 4.2424L16.5244 7.83833C16.8278 8.12197 17 8.51872 17 8.93406V12.2561C16.6816 12.1435 16.3467 12.0658 16 12.0275V8.93406C16 8.79561 15.9426 8.66336 15.8415 8.56881L12.5 5.44489V8ZM11.2561 15C11.1435 15.3184 11.0658 15.6533 11.0275 16H8.5C8.22386 16 8 15.7761 8 15.5C8 15.2239 8.22386 15 8.5 15H11.2561ZM12.6713 13C12.319 13.2851 12.0106 13.6224 11.7578 14H8.5C8.22386 14 8 13.7761 8 13.5C8 13.2239 8.22386 13 8.5 13H12.6713ZM11.7578 19C12.0106 19.3776 12.319 19.7149 12.6713 20H6.5C5.67157 20 5 19.3284 5 18.5V5.5C5 4.67157 5.67157 4 6.5 4H10.1853C10.4614 4 10.6853 4.22386 10.6853 4.5C10.6853 4.77614 10.4614 5 10.1853 5H6.5C6.22386 5 6 5.22386 6 5.5V18.5C6 18.7761 6.22386 19 6.5 19H11.7578ZM8 11.5C8 11.2239 8.22386 11 8.5 11H13.5C13.7761 11 14 11.2239 14 11.5C14 11.7761 13.7761 12 13.5 12H8.5C8.22386 12 8 11.7761 8 11.5ZM12 16.5C12 18.433 13.567 20 15.5 20C17.433 20 19 18.433 19 16.5C19 14.567 17.433 13 15.5 13C13.567 13 12 14.567 12 16.5ZM18 16.5C18 17.8807 16.8807 19 15.5 19C14.1193 19 13 17.8807 13 16.5C13 15.1193 14.1193 14 15.5 14C16.8807 14 18 15.1193 18 16.5ZM17.0674 15.3976C16.8451 15.2337 16.5321 15.2811 16.3682 15.5033L15.2306 17.0465L14.5703 16.3189C14.3847 16.1144 14.0685 16.0991 13.864 16.2846C13.6595 16.4702 13.6442 16.7864 13.8297 16.9909L14.9004 18.1707C15.1126 18.4045 15.4857 18.3855 15.6731 18.1314L17.1731 16.0967C17.337 15.8745 17.2896 15.5614 17.0674 15.3976Z" fill="black"/>
<mask id="mask0_244_476" style="mask-type:alpha" maskUnits="userSpaceOnUse" x="5" y="4" width="14" height="16">
<path fill-rule="evenodd" clip-rule="evenodd" d="M12.5 8H14.2081C14.4843 8 14.7081 8.22386 14.7081 8.5C14.7081 8.77614 14.4843 9 14.2081 9H12.4C11.9029 9 11.5 8.59706 11.5 8.1V4.75374C11.5 4.57623 11.5674 4.40536 11.6887 4.27569C11.9527 3.99329 12.3956 3.97838 12.678 4.2424L16.5244 7.83833C16.8278 8.12197 17 8.51872 17 8.93406V12.2561C16.6816 12.1435 16.3467 12.0658 16 12.0275V8.93406C16 8.79561 15.9426 8.66336 15.8415 8.56881L12.5 5.44489V8ZM11.2561 15C11.1435 15.3184 11.0658 15.6533 11.0275 16H8.5C8.22386 16 8 15.7761 8 15.5C8 15.2239 8.22386 15 8.5 15H11.2561ZM12.6713 13C12.319 13.2851 12.0106 13.6224 11.7578 14H8.5C8.22386 14 8 13.7761 8 13.5C8 13.2239 8.22386 13 8.5 13H12.6713ZM11.7578 19C12.0106 19.3776 12.319 19.7149 12.6713 20H6.5C5.67157 20 5 19.3284 5 18.5V5.5C5 4.67157 5.67157 4 6.5 4H10.1853C10.4614 4 10.6853 4.22386 10.6853 4.5C10.6853 4.77614 10.4614 5 10.1853 5H6.5C6.22386 5 6 5.22386 6 5.5V18.5C6 18.7761 6.22386 19 6.5 19H11.7578ZM8 11.5C8 11.2239 8.22386 11 8.5 11H13.5C13.7761 11 14 11.2239 14 11.5C14 11.7761 13.7761 12 13.5 12H8.5C8.22386 12 8 11.7761 8 11.5ZM12 16.5C12 18.433 13.567 20 15.5 20C17.433 20 19 18.433 19 16.5C19 14.567 17.433 13 15.5 13C13.567 13 12 14.567 12 16.5ZM18 16.5C18 17.8807 16.8807 19 15.5 19C14.1193 19 13 17.8807 13 16.5C13 15.1193 14.1193 14 15.5 14C16.8807 14 18 15.1193 18 16.5ZM17.0674 15.3976C16.8451 15.2337 16.5321 15.2811 16.3682 15.5033L15.2306 17.0465L14.5703 16.3189C14.3847 16.1144 14.0685 16.0991 13.864 16.2846C13.6595 16.4702 13.6442 16.7864 13.8297 16.9909L14.9004 18.1707C15.1126 18.4045 15.4857 18.3855 15.6731 18.1314L17.1731 16.0967C17.337 15.8745 17.2896 15.5614 17.0674 15.3976Z" fill="white"/>
</mask>
<g mask="url(#mask0_244_476)">
</g>
</svg>
