<svg width="24" height="24" viewBox="0 0 24 24" fill="none" xmlns="http://www.w3.org/2000/svg">
<path fill-rule="evenodd" clip-rule="evenodd" d="M4.54631 9.00005H5.50001H6.50001C6.77616 9.00005 7.00001 9.2239 7.00001 9.50005C7.00001 9.77619 6.77616 10 6.50001 10V18H9.50001V10H8.50001C8.22387 10 8.00001 9.77619 8.00001 9.50005C8.00001 9.2239 8.22387 9.00005 8.50001 9.00005H9.50001H10.5H13.5H14.5H17.5H18.5H19.4537L12 3.61681L4.54631 9.00005ZM10.5 19H9.50001H6.50001C5.94773 19 5.50001 18.5523 5.50001 18V10H3.30927C3.11661 10 2.93567 9.90753 2.82286 9.75134C2.62885 9.48271 2.68934 9.10765 2.95798 8.91364L11.5902 2.67928C11.8348 2.50258 12.1652 2.50258 12.4099 2.67928L21.042 8.91364C21.1982 9.02644 21.2908 9.20738 21.2908 9.40005C21.2908 9.73142 21.0221 10 20.6908 10H18.5V18C18.5 18.5523 18.0523 19 17.5 19H14.5H13.5H10.5ZM13.5 18H10.5V10H13.5V18ZM14.5 18H17.5V10H14.5V18ZM4.00001 20.5C4.00001 20.2239 4.22387 20 4.50001 20H19.5C19.7762 20 20 20.2239 20 20.5C20 20.7762 19.7762 21 19.5 21H4.50001C4.22387 21 4.00001 20.7762 4.00001 20.5Z" fill="black"/>
</svg>
