<svg width="24" height="24" viewBox="0 0 24 24" fill="none" xmlns="http://www.w3.org/2000/svg">
<path fill-rule="evenodd" clip-rule="evenodd" d="M17.9357 3.28589C17.6793 3.18334 17.3883 3.30805 17.2858 3.56444C17.1832 3.82083 17.3079 4.11181 17.5643 4.21437L18.9643 4.77438L15.9782 6.10156C15.8417 6.16224 15.6851 6.15869 15.5515 6.09187L12.3957 4.51397C11.9948 4.31352 11.5253 4.30285 11.1157 4.48489L7.4458 6.11595C7.31864 6.17247 7.17368 6.17344 7.04577 6.11862L3.94697 4.79056C3.69315 4.68178 3.39921 4.79936 3.29043 5.05317C3.18166 5.30699 3.29923 5.60093 3.55305 5.70971L6.65185 7.03777C7.03557 7.20221 7.47045 7.19932 7.85194 7.02977L11.5218 5.39871C11.6584 5.33803 11.8149 5.34158 11.9485 5.4084L15.1043 6.9863C15.5052 7.18675 15.9747 7.19741 16.3843 7.01537L19.3289 5.70669L18.7858 7.06444C18.6832 7.32083 18.8079 7.61181 19.0643 7.71437C19.3207 7.81693 19.6117 7.69222 19.7142 7.43583L20.7142 4.93583C20.8168 4.67944 20.6921 4.38845 20.4357 4.28589L17.9357 3.28589ZM10.25 8.75013H13.25V19.7501H10.25V8.75013ZM9.25001 8.75013C9.25001 8.19785 9.69772 7.75013 10.25 7.75013H13.25C13.8023 7.75013 14.25 8.19785 14.25 8.75013V19.7501C14.25 20.3024 13.8023 20.7501 13.25 20.7501H10.25C9.69772 20.7501 9.25001 20.3024 9.25001 19.7501V8.75013ZM16.25 10.7501H19.25V19.7501H16.25V10.7501ZM15.25 10.7501C15.25 10.1978 15.6977 9.75013 16.25 9.75013H19.25C19.8023 9.75013 20.25 10.1978 20.25 10.7501V19.7501C20.25 20.3024 19.8023 20.7501 19.25 20.7501H16.25C15.6977 20.7501 15.25 20.3024 15.25 19.7501V10.7501ZM7.25001 11.7501H4.25001L4.25001 19.7501H7.25001V11.7501ZM4.25001 10.7501C3.69772 10.7501 3.25001 11.1978 3.25001 11.7501V19.7501C3.25001 20.3024 3.69772 20.7501 4.25001 20.7501H7.25001C7.80229 20.7501 8.25001 20.3024 8.25001 19.7501V11.7501C8.25001 11.1978 7.80229 10.7501 7.25001 10.7501H4.25001Z" fill="black"/>
</svg>
