<svg width="24" height="24" viewBox="0 0 24 24" fill="none" xmlns="http://www.w3.org/2000/svg">
<path fill-rule="evenodd" clip-rule="evenodd" d="M9 7H19.5C19.7761 7 20 7.22386 20 7.5C20 7.77614 19.7761 8 19.5 8H18.6556L18.4958 9.06467L17.0072 20.4776C16.9682 20.7764 16.7136 21 16.4122 21H7.5878C7.28643 21 7.03182 20.7764 6.99284 20.4776L5.5042 9.06467C5.46848 8.79085 5.66151 8.53992 5.93533 8.5042C6.20915 8.46848 6.46008 8.66151 6.4958 8.93533L7.93902 20H16.061L17.5055 8.92581L17.6444 8H4.5C4.22386 8 4 7.77614 4 7.5C4 7.22386 4.22386 7 4.5 7H8V4.6C8 4.26863 8.26863 4 8.6 4H15.4C15.7314 4 16 4.26863 16 4.6V6C16 6.27614 15.7761 6.5 15.5 6.5C15.2239 6.5 15 6.27614 15 6V5H9V7ZM12 13.2929L13.6464 11.6464C13.8417 11.4512 14.1583 11.4512 14.3536 11.6464C14.5488 11.8417 14.5488 12.1583 14.3536 12.3536L12.7071 14L14.3536 15.6464C14.5488 15.8417 14.5488 16.1583 14.3536 16.3536C14.1583 16.5488 13.8417 16.5488 13.6464 16.3536L12 14.7071L10.3536 16.3536C10.1583 16.5488 9.84171 16.5488 9.64645 16.3536C9.45118 16.1583 9.45118 15.8417 9.64645 15.6464L11.2929 14L9.64645 12.3536C9.45118 12.1583 9.45118 11.8417 9.64645 11.6464C9.84171 11.4512 10.1583 11.4512 10.3536 11.6464L12 13.2929Z" fill="black"/>
</svg>
