<svg width="24" height="24" viewBox="0 0 24 24" fill="none" xmlns="http://www.w3.org/2000/svg">
<path fill-rule="evenodd" clip-rule="evenodd" d="M9.36194 3.81531L11.9495 7.00002H4.5C3.67157 7.00002 3 7.67159 3 8.50002V17.5C3 18.3284 3.67157 19 4.5 19H11.5V20H9C8.72386 20 8.5 20.2239 8.5 20.5C8.5 20.7762 8.72386 21 9 21H12H15C15.2761 21 15.5 20.7762 15.5 20.5C15.5 20.2239 15.2761 20 15 20H12.5V19H19.5C20.3284 19 21 18.3284 21 17.5V8.50002C21 7.67159 20.3284 7.00002 19.5 7.00002H15C14.7239 7.00002 14.5 7.22387 14.5 7.50002C14.5 7.77616 14.7239 8.00002 15 8.00002H19.5C19.7761 8.00002 20 8.22387 20 8.50002V17.5C20 17.7762 19.7761 18 19.5 18H4.5C4.22386 18 4 17.7762 4 17.5V8.50002C4 8.22387 4.22386 8.00002 4.5 8.00002H12.7899C12.8269 8.00002 12.8636 7.9966 12.8996 7.98991C13.0699 8.02468 13.2536 7.96948 13.3763 7.82927L15.8763 4.82927C16.0581 4.62145 16.0371 4.30557 15.8293 4.12373C15.6214 3.94189 15.3056 3.96295 15.1237 4.17076L13.005 6.71324L10.1381 3.18472C9.96392 2.9704 9.64902 2.93783 9.4347 3.11196C9.22039 3.28609 9.18781 3.60099 9.36194 3.81531ZM6.5 17C5.94772 17 5.5 16.5523 5.5 16C5.5 15.4477 5.94772 15 6.5 15C7.05228 15 7.5 15.4477 7.5 16C7.5 16.5523 7.05228 17 6.5 17Z" fill="black"/>
</svg>
