<svg width="24" height="24" viewBox="0 0 24 24" fill="none" xmlns="http://www.w3.org/2000/svg">
<path fill-rule="evenodd" clip-rule="evenodd" d="M15.2081 8H13.5V5.44489L16.8415 8.56881C16.9426 8.66336 17 8.79561 17 8.93406V18.5C17 18.7761 16.7761 19 16.5 19H7.5C7.22386 19 7 18.7761 7 18.5V5.5C7 5.22386 7.22386 5 7.5 5H11.1853C11.4614 5 11.6853 4.77614 11.6853 4.5C11.6853 4.22386 11.4614 4 11.1853 4H7.5C6.67157 4 6 4.67157 6 5.5V18.5C6 19.3284 6.67157 20 7.5 20H16.5C17.3284 20 18 19.3284 18 18.5V8.93406C18 8.51872 17.8278 8.12197 17.5244 7.83833L13.678 4.2424C13.3956 3.97838 12.9527 3.99329 12.6887 4.27569C12.5674 4.40536 12.5 4.57623 12.5 4.75374V8.1C12.5 8.59706 12.9029 9 13.4 9H15.2081C15.4843 9 15.7081 8.77614 15.7081 8.5C15.7081 8.22386 15.4843 8 15.2081 8ZM10.5 11H9.5V17H10.5V14.7166L11.2566 14.0088L13.5037 17.0049L14.7381 17L11.991 13.3219L14.4732 11H13.0038L10.5 13.3465V11Z" fill="black"/>
</svg>
