<svg width="24" height="25" viewBox="0 0 24 25" fill="none" xmlns="http://www.w3.org/2000/svg">
<path fill-rule="evenodd" clip-rule="evenodd" d="M3.5625 5.38593H20.4375C20.9355 5.38593 21.375 5.82538 21.375 6.32343V17.5734C21.375 18.1008 20.9355 18.5109 20.4375 18.5109H3.5625C3.03516 18.5109 2.625 18.1008 2.625 17.5734V6.32343C2.625 5.82538 3.03516 5.38593 3.5625 5.38593ZM14.5781 13.8234C14.6953 13.8234 14.8125 13.7355 14.8125 13.5891V13.1203C14.8125 13.0031 14.6953 12.8859 14.5781 12.8859H11.2969C11.1504 12.8859 11.0625 13.0031 11.0625 13.1203V13.5891C11.0625 13.7355 11.1504 13.8234 11.2969 13.8234H14.5781ZM19.2656 13.8234C19.3828 13.8234 19.5 13.7355 19.5 13.5891V13.1203C19.5 13.0031 19.3828 12.8859 19.2656 12.8859H16.9219C16.7754 12.8859 16.6875 13.0031 16.6875 13.1203V13.5891C16.6875 13.7355 16.7754 13.8234 16.9219 13.8234H19.2656ZM19.2656 11.0109C19.3828 11.0109 19.5 10.923 19.5 10.7766V10.3078C19.5 10.1906 19.3828 10.0734 19.2656 10.0734H11.2969C11.1504 10.0734 11.0625 10.1906 11.0625 10.3078V10.7766C11.0625 10.923 11.1504 11.0109 11.2969 11.0109H19.2656ZM5.48782 9.85706C5.15645 9.85706 4.88782 10.1257 4.88782 10.4571V13.4398C4.88782 13.7712 5.15645 14.0398 5.48782 14.0398H8.69659C9.02796 14.0398 9.29659 13.7712 9.29659 13.4398V10.4571C9.29659 10.1257 9.02796 9.85706 8.69659 9.85706H5.48782Z" fill="url(#paint0_angular_1319_39789)"/>
<defs>
<radialGradient id="paint0_angular_1319_39789" cx="0" cy="0" r="1" gradientUnits="userSpaceOnUse" gradientTransform="translate(12 11.9484) rotate(90) scale(6.5625 9.375)">
<stop stop-color="#3757D9"/>
<stop offset="1" stop-color="#9AA9EE"/>
</radialGradient>
</defs>
</svg>
