<svg width="24" height="24" viewBox="0 0 24 24" fill="none" xmlns="http://www.w3.org/2000/svg">
<path fill-rule="evenodd" clip-rule="evenodd" d="M8 18H16V18.8C16 18.9105 16.0895 19 16.2 19H16.8C16.9105 19 17 18.9105 17 18.8V18H18.9C19.5075 18 20 17.5075 20 16.9V13.5H20.5C20.7761 13.5 21 13.2761 21 13C21 12.7239 20.7761 12.5 20.5 12.5H14V13.7929L11.7071 11.5L14 9.20711V10.5H20.5C20.7761 10.5 21 10.2761 21 10C21 9.72386 20.7761 9.5 20.5 9.5H20V6.1C20 5.49249 19.5075 5 18.9 5H5.1C4.49249 5 4 5.49249 4 6.1V16.9C4 17.5075 4.49249 18 5.1 18H7V18.8C7 18.9105 7.08954 19 7.2 19H7.8C7.91046 19 8 18.9105 8 18.8V18ZM19 9.5H15V8.24142C15 7.91005 14.7314 7.64142 14.4 7.64142C14.2409 7.64142 14.0883 7.70464 13.9757 7.81716L10.7172 11.0757C10.4828 11.3101 10.4828 11.69 10.7172 11.9243L13.9757 15.1828C14.2101 15.4172 14.5899 15.4172 14.8243 15.1828C14.9368 15.0703 15 14.9177 15 14.7586V13.5H19V16.9C19 16.9552 18.9552 17 18.9 17H5.1C5.04477 17 5 16.9552 5 16.9V6.1C5 6.04477 5.04477 6 5.1 6H18.9C18.9552 6 19 6.04477 19 6.1V9.5Z" fill="black"/>
</svg>
