<svg width="24" height="24" viewBox="0 0 24 24" fill="none" xmlns="http://www.w3.org/2000/svg">
<path fill-rule="evenodd" clip-rule="evenodd" d="M14.5796 5.9241L11.4967 9.00707L10.6481 8.15854L13.7311 5.07557C15.1652 3.64148 17.4903 3.64148 18.9244 5.07557C20.3585 6.50967 20.3585 8.8348 18.9244 10.2689L15.8415 13.3519L14.9929 12.5033L18.0759 9.42037C19.0414 8.4549 19.0414 6.88957 18.0759 5.9241C17.1104 4.95863 15.5451 4.95863 14.5796 5.9241ZM8.15857 10.6481L9.0071 11.4966L5.9241 14.5796C4.95863 15.5451 4.95863 17.1104 5.9241 18.0759C6.88957 19.0414 8.4549 19.0414 9.42036 18.0759L12.5034 14.9929L13.3519 15.8414L10.2689 18.9244C8.83479 20.3585 6.50967 20.3585 5.07557 18.9244C3.64148 17.4903 3.64148 15.1652 5.07557 13.7311L8.15857 10.6481ZM7.49295 7.49297C7.23744 7.74848 7.23744 8.16275 7.49295 8.41826L15.3558 16.2811C15.6113 16.5366 16.0255 16.5366 16.2811 16.2811C16.5366 16.0256 16.5366 15.6113 16.2811 15.3558L8.41824 7.49297C8.16273 7.23746 7.74846 7.23746 7.49295 7.49297Z" fill="black"/>
</svg>
