<svg width="24" height="24" viewBox="0 0 24 24" fill="none" xmlns="http://www.w3.org/2000/svg">
<path d="M16.9316 5.64645C16.7363 5.45118 16.4197 5.45118 16.2245 5.64645C16.0292 5.84171 16.0292 6.15829 16.2245 6.35355L21.8709 12L16.2245 17.6464C16.0292 17.8417 16.0292 18.1583 16.2245 18.3536C16.4197 18.5488 16.7363 18.5488 16.9316 18.3536L22.6487 12.6364C23.0002 12.2849 23.0002 11.7151 22.6487 11.3636L16.9316 5.64645Z" fill="black"/>
<path fill-rule="evenodd" clip-rule="evenodd" d="M11.578 9H7.58L7.57803 9C4.85222 9 3.17353 9.70413 2.21348 11.0881C1.28988 12.4195 1.12406 14.2693 1.08781 16.2958C1.08079 16.6879 1.30451 17.0776 1.73012 17.1578C2.15295 17.2374 2.50352 16.9597 2.64338 16.595C2.74451 16.3313 2.85039 16.1253 2.99758 15.9521C3.14146 15.7827 3.34379 15.6227 3.66639 15.4825C4.3354 15.1918 5.48608 15.0001 7.57664 15L11.578 15V17.0344C11.578 18.2817 13.086 18.9063 13.968 18.0244L19.0023 12.9901C19.549 12.4433 19.549 11.5569 19.0023 11.0102L13.968 5.97585C13.086 5.09389 11.578 5.71853 11.578 6.9658V9ZM3.03514 11.6581C2.41058 12.5584 2.1878 13.8262 2.11363 15.4601C2.15161 15.4076 2.19213 15.3556 2.23554 15.3046C2.48912 15.0061 2.8211 14.7595 3.26784 14.5654C4.13736 14.1875 5.4651 14 7.57803 14L7.57942 14H12.578V17.0344C12.578 17.3908 13.0089 17.5693 13.2609 17.3173L18.2952 12.283C18.4514 12.1267 18.4514 11.8735 18.2952 11.7173L13.2609 6.68295C13.0089 6.43097 12.578 6.60943 12.578 6.9658V10L7.57803 10L7.57608 10C5.00739 10.0003 3.72788 10.6594 3.03514 11.6581Z" fill="black"/>
</svg>
