<svg width="24" height="24" viewBox="0 0 24 24" fill="none" xmlns="http://www.w3.org/2000/svg">
<path fill-rule="evenodd" clip-rule="evenodd" d="M12.3201 4.1159C12.108 3.93912 11.7927 3.96778 11.6159 4.17992C11.537 4.2746 11.3956 4.44549 11.2072 4.67504C10.8935 5.05741 10.5641 5.46327 10.2346 5.87516C9.28838 7.0579 8.53189 8.05079 8.08397 8.72266C6.83374 10.598 6 12.5434 6 14C6 17.0325 8.70567 20 12 20C15.2943 20 18 17.0325 18 14C18 12.5434 17.1663 10.598 15.916 8.72266C15.8707 8.65463 15.7233 8.43003 15.5436 8.1561C15.2511 7.71018 14.8728 7.13354 14.7091 6.88872C14.5927 6.71464 14.4821 6.55121 14.3754 6.39567C14.1129 6.01288 13.8753 5.68024 13.6566 5.39161L13.588 5.30167C13.4201 5.08245 13.1062 5.04086 12.887 5.20878C12.6678 5.3767 12.6262 5.69053 12.7941 5.90976L12.8596 5.99551C13.0677 6.27017 13.2965 6.59053 13.5508 6.96131C13.6551 7.11344 13.7635 7.27366 13.8779 7.44464C14.0379 7.68394 14.4102 8.25144 14.702 8.69625C14.8852 8.97548 15.0366 9.20637 15.084 9.27736C16.2337 11.002 17 12.7899 17 14C17 16.4998 14.7204 19 12 19C9.27962 19 7 16.4998 7 14C7 12.7899 7.76626 11.002 8.91603 9.27736C9.34311 8.63673 10.0866 7.66088 11.0154 6.49986C11.3422 6.09144 11.669 5.68871 11.9803 5.30936C12.1669 5.08188 12.3068 4.91293 12.3841 4.8201C12.5609 4.60797 12.5322 4.29268 12.3201 4.1159ZM8.36844 13.5176C8.10203 13.5903 7.94496 13.8652 8.01762 14.1316C8.28973 15.1293 8.74915 15.9563 9.39645 16.6036C10.0437 17.2509 10.8707 17.7103 11.8684 17.9824C12.1349 18.0551 12.4097 17.898 12.4824 17.6316C12.555 17.3652 12.398 17.0903 12.1316 17.0176C11.296 16.7897 10.6229 16.4158 10.1036 15.8965C9.58418 15.3771 9.21027 14.7041 8.98238 13.8685C8.90972 13.602 8.63485 13.445 8.36844 13.5176Z" fill="black"/>
</svg>
