<svg width="24" height="24" viewBox="0 0 24 24" fill="none" xmlns="http://www.w3.org/2000/svg">
<path fill-rule="evenodd" clip-rule="evenodd" d="M5.57143 19.9949C5.60253 19.9983 5.63433 20 5.66667 20H18.3333C18.3657 20 18.3975 19.9983 18.4286 19.9949C18.4519 19.9983 18.4757 20 18.5 20C18.7761 20 19 19.7761 19 19.5V18.5C19 18.2239 18.7761 18 18.5 18C18.2239 18 18 18.2239 18 18.5V19H6V18.5C6 18.2239 5.77614 18 5.5 18C5.22386 18 5 18.2239 5 18.5V19.5C5 19.7761 5.22386 20 5.5 20C5.52425 20 5.5481 19.9983 5.57143 19.9949ZM14.5 10.5C14.5 10.7761 14.7239 11 15 11H18V16.5H6V11H9C9.27614 11 9.5 10.7761 9.5 10.5C9.5 10.2239 9.27614 10 9 10H6C5.44772 10 5 10.4477 5 11L5 16.5C5 17.0523 5.44772 17.5 6 17.5H18C18.5523 17.5 19 17.0523 19 16.5V11C19 10.4477 18.5523 10 18 10H15C14.7239 10 14.5 10.2239 14.5 10.5ZM15.3536 7.14645C15.5488 7.34171 15.5488 7.65829 15.3536 7.85355C15.1583 8.04882 14.8417 8.04882 14.6464 7.85355L12.5 5.70711V14.5C12.5 14.7761 12.2761 15 12 15C11.7239 15 11.5 14.7761 11.5 14.5V5.70711L9.35355 7.85355C9.15829 8.04882 8.84171 8.04882 8.64645 7.85355C8.45118 7.65829 8.45118 7.34171 8.64645 7.14645L11.6464 4.14645C11.8417 3.95119 12.1583 3.95119 12.3536 4.14645L15.3536 7.14645Z" fill="black"/>
</svg>
