<svg width="24" height="24" viewBox="0 0 24 24" fill="none" xmlns="http://www.w3.org/2000/svg">
<path fill-rule="evenodd" clip-rule="evenodd" d="M18 7L4.99649 7C4.24276 6.9995 4 6.83713 4 6.5C4 6.16234 4.24352 6 5 6H18C18.2761 6 18.5 5.77614 18.5 5.5C18.5 5.22386 18.2761 5 18 5H5C3.79883 5 3.05208 5.47056 3.00262 6.4H3V6.5V7V18.1001C3 18.5971 3.40294 19.0001 3.9 19.0001H19.1C19.5971 19.0001 20 18.5971 20 18.1001L20 16C20 15.7239 19.7761 15.5 19.5 15.5C19.2239 15.5 19 15.7239 19 16L19 18.0001H4V8H4.99679L5 8H18L18.0005 8L19 8L19 10L14.9 10C14.4029 10 14 10.4029 14 10.9V14.1C14 14.5971 14.4029 15 14.9 15H19H19.5H20.1C20.5971 15 21 14.5971 21 14.1V10.9C21 10.4029 20.5971 10 20.1 10H20L20 7.9C20 7.40294 19.5971 7 19.1 7L18 7ZM19.1 11L19 11H15V14H19H19.5H20V11L19.1 11ZM17 12.5C17 12.7761 16.7761 13 16.5 13C16.2239 13 16 12.7761 16 12.5C16 12.2239 16.2239 12 16.5 12C16.7761 12 17 12.2239 17 12.5Z" fill="black"/>
</svg>
