<svg xmlns="http://www.w3.org/2000/svg" xmlns:xlink="http://www.w3.org/1999/xlink" viewBox="0 0 315 196"><defs><style>.cls-1{fill:url(#linear-gradient);}.cls-2{fill:none;stroke:#fff;stroke-linejoin:round;stroke-width:2px;stroke-dasharray:6 6;opacity:0.05;isolation:isolate;}.cls-3{fill:url(#linear-gradient-2);}.cls-4{fill:url(#linear-gradient-3);}.cls-5{fill:#fff;fill-rule:evenodd;}.cls-6{fill-opacity:0.18;}</style><linearGradient id="linear-gradient" x1="68.45" y1="237.5" x2="242.56" y2="-48.93" gradientTransform="matrix(1, 0, 0, -1, 0, 195.89)" gradientUnits="userSpaceOnUse"><stop offset="0" stop-color="#b05ce9"/><stop offset="1" stop-color="#7d34c8"/></linearGradient><linearGradient id="linear-gradient-2" x1="219.87" y1="165.31" x2="326.28" y2="40.07" xlink:href="#linear-gradient"/><linearGradient id="linear-gradient-3" x1="247.29" y1="114.17" x2="279.29" y2="81" xlink:href="#linear-gradient"/></defs><g id="Layer_2" data-name="Layer 2"><g id="ill-wallet"><path class="cls-1" d="M0,2A2,2,0,0,1,2,0H299a12,12,0,0,1,12,12V184a12,12,0,0,1-12,12H2a2,2,0,0,1-2-2Z"/><path class="cls-2" d="M0,13H294a6,6,0,0,1,6,6V177a6,6,0,0,1-6,6H0"/><path class="cls-3" d="M235,82a12,12,0,0,1,12-12h64a4,4,0,0,1,4,4v48a4,4,0,0,1-4,4H247a12,12,0,0,1-12-12Z"/><path class="cls-4" d="M263,82h0a16,16,0,0,1,16,16h0a16,16,0,0,1-16,16h0a16,16,0,0,1-16-16h0A16,16,0,0,1,263,82Z"/><path class="cls-5" d="M32.4,27.12l.19.4L50.88,63.64,32.4,45.39,14.12,63.64Z"/><path class="cls-6" d="M32.4,54.66l18.48,9.1L32.4,59.21,14.12,63.76Z"/></g></g></svg>