<?xml version="1.0" encoding="UTF-8"?><svg id="a" xmlns="http://www.w3.org/2000/svg" xmlns:xlink="http://www.w3.org/1999/xlink" viewBox="0 0 243.06 150"><defs><style>.e{fill:url(#d);}.f{fill:url(#c);}.g{fill:url(#b);}.h{fill:none;stroke:#738ed3;stroke-dasharray:0 0 5 5;}</style><linearGradient id="b" x1="51.27" y1="184.06" x2="186.17" y2="-31.66" gradientTransform="translate(0 152) scale(1 -1)" gradientUnits="userSpaceOnUse"><stop offset="0" stop-color="#5678cf"/><stop offset="1" stop-color="#193888"/></linearGradient><linearGradient id="c" x1="193.29" y1="106.45" x2="233.58" y2="48.93" gradientTransform="translate(0 152) scale(1 -1)" gradientUnits="userSpaceOnUse"><stop offset="0" stop-color="#5678cf"/><stop offset="1" stop-color="#193888"/></linearGradient><linearGradient id="d" x1="191.02" y1="89.24" x2="215.52" y2="64.76" gradientTransform="translate(0 152) scale(1 -1)" gradientUnits="userSpaceOnUse"><stop offset="0" stop-color="#193888"/><stop offset="1" stop-color="#5678cf"/></linearGradient></defs><path d="M0,4C0,1.79,1.79,0,4,0H228c6.63,0,12,5.37,12,12v126c0,6.63-5.37,12-12,12H4c-2.21,0-4-1.79-4-4V4Z" fill="#b"/><path d="M0,9H226c3.31,0,6,2.69,6,6v120c0,3.31-2.69,6-6,6H0" fill="none" stroke="#738ed3" stroke-dasharray="0 0 5 5"/><path d="M181.84,62.76c0-2.44,.97-4.77,2.69-6.49,1.72-1.72,4.06-2.69,6.49-2.69h48.98c.81,0,1.59,.32,2.16,.9,.57,.57,.9,1.35,.9,2.16v36.73c0,.81-.32,1.59-.9,2.16-.57,.57-1.35,.9-2.16,.9h-48.98c-2.44,0-4.77-.97-6.49-2.69-1.72-1.72-2.69-4.06-2.69-6.49v-24.49Z" fill="#c"/><path d="M203.27,62.76c3.25,0,6.36,1.29,8.66,3.59,2.3,2.3,3.59,5.41,3.59,8.66s-1.29,6.36-3.59,8.66c-2.3,2.3-5.41,3.59-8.66,3.59s-6.36-1.29-8.66-3.59c-2.3-2.3-3.59-5.41-3.59-8.66s1.29-6.36,3.59-8.66c2.3-2.3,5.41-3.59,8.66-3.59h0Z" fill="#d"/></svg>