<svg width="272" height="36" viewBox="0 0 272 36" fill="none" xmlns="http://www.w3.org/2000/svg">
<g clip-path="url(#clip0_1243_32769)">
<path d="M141.681 25.5073L135.891 15.6511C135.699 15.3184 135.605 14.9385 135.619 14.5549C135.601 14.0865 135.678 13.6194 135.845 13.1814C136.012 12.7434 136.265 12.3435 136.59 12.0058C136.916 11.6681 137.305 11.3995 137.737 11.216C138.168 11.0325 138.632 10.9379 139.101 10.9379C139.57 10.9379 140.034 11.0325 140.465 11.216C140.897 11.3995 141.286 11.6681 141.611 12.0058C141.937 12.3435 142.19 12.7434 142.357 13.1814C142.524 13.6194 142.601 14.0865 142.583 14.5549C142.574 15.0684 142.448 15.573 142.214 16.0302C142.009 16.4247 140.825 18.192 140.825 18.192L139.324 15.6307L139.703 15.1184C139.836 14.9595 139.913 14.7617 139.923 14.5549C139.923 14.4472 139.902 14.3407 139.861 14.2412C139.82 14.1418 139.759 14.0514 139.683 13.9753C139.607 13.8992 139.517 13.8388 139.417 13.7976C139.318 13.7564 139.211 13.7352 139.104 13.7352C138.996 13.7352 138.889 13.7564 138.79 13.7976C138.69 13.8388 138.6 13.8992 138.524 13.9753C138.448 14.0514 138.387 14.1418 138.346 14.2412C138.305 14.3407 138.284 14.4472 138.284 14.5549C138.284 14.7752 138.391 14.8981 138.53 15.144L141.999 20.9737C142.535 21.749 142.753 22.7008 142.608 23.6324C142.461 24.325 142.142 24.9696 141.681 25.5073Z" fill="#014EA2"/>
<path d="M139.636 28.8729L138.14 26.3423C137.996 26.6054 137.811 26.844 137.592 27.0492C137.357 27.1932 137.083 27.2595 136.808 27.2388H135.071C134.661 27.2388 134.41 26.8648 134.282 26.7265L131.633 22.3927C131.419 22.0254 131.319 21.6028 131.346 21.1786V15.4258C131.391 14.9633 131.591 14.5298 131.915 14.1963C132.073 14.0426 135.132 10.2006 135.409 9.85736C135.519 9.72063 135.658 9.60981 135.815 9.53278C135.973 9.45575 136.146 9.4144 136.321 9.41168H142.183C142.367 9.43365 142.544 9.49657 142.701 9.59585C142.858 9.69512 142.991 9.82823 143.09 9.98543C143.09 9.98543 146.513 14.1656 146.728 14.4166C146.955 14.6659 147.089 14.9864 147.107 15.3233V22.0136C147.111 22.3052 147.035 22.5924 146.887 22.8435C146.887 22.8435 144.566 26.706 144.412 26.9417C144.352 27.0351 144.268 27.1106 144.169 27.1602C144.07 27.2098 143.959 27.2317 143.848 27.2234H142.444C142.353 27.2164 142.264 27.187 142.186 27.1379C142.109 27.0888 142.044 27.0214 141.998 26.9417L137.279 18.858C136.86 19.3925 136.561 20.011 136.403 20.6714C136.226 21.4731 136.339 22.3114 136.721 23.0382L140.231 29.0522C140.324 29.2452 140.469 29.4084 140.651 29.5233C140.832 29.6382 141.041 29.7004 141.255 29.7028H145.437C145.811 29.7028 146.221 29.083 146.308 28.9037C146.308 28.9037 149.105 24.2932 149.382 23.8117C149.605 23.4218 149.703 22.9732 149.664 22.5259V14.3859C149.667 14.1854 149.627 13.9866 149.546 13.8034C149.464 13.6202 149.344 13.4571 149.192 13.3255L144.279 7.44456C144.171 7.28652 144.027 7.15719 143.858 7.06788C143.689 6.97857 143.501 6.93201 143.31 6.93228H134.851C134.638 6.94738 134.432 7.00944 134.247 7.11399C134.062 7.21854 133.902 7.36295 133.78 7.53676C133.78 7.53676 129.537 12.9412 129.255 13.3152C128.97 13.6637 128.805 14.0948 128.784 14.5447V22.3158C128.813 22.8239 128.991 23.3122 129.296 23.7195C129.296 23.7195 132.473 28.7961 132.729 29.1803C132.863 29.3486 133.035 29.4828 133.231 29.5718C133.427 29.6609 133.642 29.7022 133.857 29.6926H138.509C138.726 29.6822 138.935 29.6134 139.116 29.4934C139.296 29.3734 139.441 29.2068 139.534 29.0113L139.636 28.8729Z" fill="#014EA2"/>
<path d="M105.552 13.3665C105.382 13.3388 105.211 13.32 105.04 13.3102C104.522 13.3105 104.01 13.4171 103.535 13.6233C103.06 13.8295 102.632 14.1309 102.278 14.5089V13.5765H99.3523V26.6446H102.293V19.0322C102.293 17.0754 103.036 16.0713 104.481 16.0713C104.677 16.0733 104.873 16.0922 105.065 16.1277C105.399 15.2449 105.572 14.31 105.578 13.3665" fill="#014EA2"/>
<path d="M105.281 13.3307C105.363 13.458 105.394 13.6117 105.368 13.761C105.317 14.0018 105.245 14.2272 105.194 14.4628C105.178 14.532 105.148 14.5972 105.106 14.6542C105.063 14.7112 105.01 14.7588 104.948 14.7939C104.886 14.8291 104.818 14.8511 104.747 14.8584C104.677 14.8658 104.605 14.8585 104.538 14.8368C104.538 15.1186 104.574 15.3952 104.584 15.6718C104.667 15.7126 104.736 15.779 104.779 15.8613C104.888 15.9217 104.972 16.0201 105.014 16.138C106.039 16.3019 106.659 17.0191 106.659 19.2833V26.6447H109.605V19.1809C109.605 15.3952 108.145 13.4383 105.281 13.3307Z" fill="#014EA2"/>
<path d="M79.9328 16.0713C81.6749 16.0713 82.4947 17.4852 82.4947 20.4051C82.4947 22.8948 81.6544 24.155 79.9994 24.155C79.4549 24.1085 78.9274 23.9426 78.4545 23.669C77.9815 23.3954 77.5748 23.0208 77.2632 22.572V17.5313C77.6526 17.0497 78.6262 16.0713 79.9071 16.0713H79.9328ZM76.9968 6.1793L74.4348 7.5317V26.6446H77.3708V25.7123C78.1647 26.4559 79.2039 26.8824 80.2914 26.911C82.6945 26.911 85.5076 25.1795 85.5076 20.3232C85.5076 15.8664 83.6425 13.3101 80.4195 13.3101C79.2865 13.3534 78.2058 13.7983 77.3708 14.5652V6L76.9968 6.1793Z" fill="#014EA2"/>
<path d="M89.2224 22.3927C89.2224 21.3682 90.1293 20.7432 91.5794 20.7432C92.4836 20.7063 93.3839 20.8817 94.208 21.2555V22.7923C93.8757 23.2259 93.4527 23.5816 92.9686 23.8347C92.4845 24.0877 91.9509 24.232 91.4052 24.2574C90.0013 24.2574 89.2224 23.5915 89.2224 22.4235V22.3927ZM87.6853 14.5345L87.5008 14.6472L88.6742 16.937L88.8945 16.8192C89.8605 16.2858 90.953 16.0238 92.0559 16.061C93.0295 16.061 94.1875 16.3889 94.1875 17.9565V18.5661C93.3624 18.2889 92.4958 18.1555 91.6255 18.1716C88.3411 18.1716 86.3684 19.7802 86.3684 22.4798C86.3684 25.5945 88.6895 26.9673 90.9799 26.9673C92.1675 26.9267 93.303 26.4698 94.1875 25.6764V26.701H97.0979V17.7823C97.0979 14.9545 95.2891 13.3255 92.1277 13.3255C90.5651 13.2773 89.022 13.683 87.6853 14.4935" fill="#014EA2"/>
<path d="M15.8379 22.3928C15.8379 21.3682 16.7346 20.7433 18.1847 20.7433C19.0922 20.706 19.9958 20.8815 20.8235 21.2555V22.7924C20.4915 23.225 20.0693 23.5802 19.5862 23.8332C19.103 24.0862 18.5706 24.231 18.0258 24.2575C16.6116 24.2575 15.8379 23.5915 15.8379 22.4235V22.3928ZM14.3007 14.5345L14.1112 14.6472L15.2845 16.9371L15.5253 16.7578C16.493 16.2237 17.5873 15.9617 18.6919 15.9996C19.6655 15.9996 20.8235 16.3275 20.8235 17.895V18.5046C19.9981 18.2284 19.1317 18.095 18.2615 18.1102C14.9668 18.1102 12.9993 19.7187 12.9993 22.4184C12.9993 25.533 15.3204 26.9059 17.6108 26.9059C18.7984 26.8653 19.9338 26.4083 20.8183 25.615V26.6395H23.7287V17.7823C23.7287 14.9546 21.9149 13.3255 18.7637 13.3255C17.2112 13.2774 15.6777 13.6775 14.3469 14.4782" fill="#014EA2"/>
<path d="M35.0783 15.057C34.7079 14.4872 34.1933 14.0255 33.5868 13.7187C32.9803 13.4119 32.3034 13.2709 31.6248 13.3102C31.1068 13.31 30.5943 13.4163 30.1192 13.6225C29.6441 13.8287 29.2165 14.1304 28.863 14.5089V13.5766H25.9116V26.6447H28.863V19.0323C28.863 17.0754 29.5957 16.0713 31.0458 16.0713C32.3524 16.0713 33.2285 16.6195 33.2285 19.2833V26.6447H36.1902V19.0323C36.1902 17.0754 36.928 16.0713 38.3729 16.0713C39.6847 16.0713 40.5557 16.6195 40.5557 19.2833V26.6447H43.5071V19.1808C43.5071 15.2927 41.9699 13.3102 38.9519 13.3102C38.2135 13.2695 37.476 13.4069 36.8019 13.7109C36.1277 14.015 35.5365 14.4767 35.0783 15.057Z" fill="#014EA2"/>
<path d="M51.2081 16.0713C52.9554 16.0713 53.8008 17.4852 53.8008 20.4051C53.8008 22.8948 52.9554 24.155 51.3055 24.155C50.761 24.1085 50.2335 23.9426 49.7606 23.669C49.2876 23.3954 48.8809 23.0208 48.5693 22.572V17.5313C48.9639 17.0497 49.9323 16.0713 51.2081 16.0713ZM48.2619 6.1793L45.6897 7.53682V26.6446H48.6206V25.7123C49.4134 26.4543 50.4504 26.8807 51.5361 26.911C53.9443 26.911 56.7573 25.1795 56.7573 20.3232C56.7573 15.8664 54.8973 13.3101 51.6693 13.3101C50.5273 13.3473 49.4366 13.7926 48.5949 14.5652V6L48.2619 6.1793Z" fill="#014EA2"/>
<path d="M60.5286 22.3927C60.5286 21.3682 61.4252 20.7432 62.8804 20.7432C63.783 20.7057 64.6817 20.8812 65.5039 21.2555V22.7923C65.1736 23.2268 64.7518 23.5832 64.2683 23.8364C63.7848 24.0896 63.2515 24.2334 62.7062 24.2574C61.3023 24.2574 60.5286 23.5915 60.5286 22.4235V22.3927ZM58.9914 14.5345L58.8018 14.6472L59.9752 16.937L60.1955 16.8192C61.1632 16.2852 62.2574 16.0231 63.3621 16.061C64.3356 16.061 65.4885 16.3889 65.4885 17.9565V18.5661C64.6638 18.2874 63.7969 18.154 62.9265 18.1716C59.637 18.1716 57.6694 19.7802 57.6694 22.4798C57.6694 25.5945 59.9854 26.9673 62.2809 26.9673C63.4672 26.9277 64.6014 26.4705 65.4834 25.6764V26.701H68.3937V17.7823C68.3937 14.9545 66.585 13.3255 63.4287 13.3255C61.8661 13.2773 60.323 13.683 58.9863 14.4935" fill="#014EA2"/>
<path d="M0.707098 17.1163C0.707098 19.7392 2.65418 20.4512 5.61579 21.1838C8.20336 21.8293 8.69013 22.2954 8.69013 22.9101C8.69013 23.3046 8.69013 24.3496 5.98984 24.3496C4.66803 24.3431 3.39353 23.857 2.40311 22.9819L2.16228 22.7616L0 24.5289L0.286938 24.8209C1.77828 26.2254 3.76224 26.9871 5.8105 26.9417C9.52533 26.9417 11.662 25.4357 11.662 22.777C11.662 20.1183 9.38698 19.3447 6.64057 18.648C4.10937 17.9872 3.68408 17.6235 3.68408 17.0395C3.68408 16.2813 4.47316 15.8408 5.79 15.8408C6.96145 15.7855 8.10947 16.1816 8.99756 16.9473L9.23326 17.1573L11.3699 15.3183L11.0318 15.0365C9.6147 13.844 7.81079 13.2101 5.95909 13.2538C2.88475 13.2538 0.707098 14.8367 0.707098 17.1163Z" fill="#014EA2"/>
<path d="M119.653 26.6856L116.246 21.5321L114.811 23.2995V26.6856H111.87V7.57267L114.811 6.09732V17.101C114.811 17.7823 114.811 18.9349 114.77 19.483C115.073 19.0425 115.58 18.3355 115.964 17.8489L119.3 13.4587H122.774L118.362 19.0578L122.866 26.6856H119.653Z" fill="#014EA2"/>
<path d="M178.122 14.4526C178.161 14.0658 178.228 13.6823 178.322 13.3051C178.372 13.0602 178.453 12.8227 178.563 12.5981C178.629 12.4497 178.721 12.3144 178.834 12.1986C178.926 12.1154 179.025 12.0416 179.131 11.9783L189.185 6.57379L188.908 9.70378L180.556 14.386L179.639 15.2619" fill="#014EA2"/>
<path d="M191.301 24.2113V17.7823H188.739V22.444C188.739 23.7093 187.683 23.9808 186.951 23.9808H182.103C181.166 23.9808 180.689 23.4942 180.689 22.444V13.1155L178.127 14.473V23.0587C178.127 25.5228 179.664 26.7676 182.739 26.7676H186.669C187.527 26.777 188.37 26.5501 189.108 26.1119C190.194 26.6805 191.992 26.8598 193.381 26.8598C194.601 26.8733 195.81 26.6398 196.937 26.1734C198.423 26.5979 199.957 26.8286 201.502 26.8598C203.373 26.8598 204.684 26.3988 205.494 25.6764C205.882 25.2989 206.184 24.8422 206.379 24.3374C206.575 23.8326 206.659 23.2917 206.626 22.7514V17.7823H204.064V22.3262C204.064 24.0423 202.625 24.3753 201.528 24.3753C200.665 24.3936 199.803 24.2954 198.966 24.0833V17.7823H196.404V22.3262C196.404 23.9808 194.934 24.3753 193.842 24.3753C192.751 24.3753 191.654 24.1909 191.316 24.2011" fill="#014EA2"/>
<path d="M178.127 17.7824V22.3211C178.127 23.7709 177.102 24.2319 176.134 24.3446H161.403V26.8189H176.149C177.687 26.7318 178.814 26.3066 179.526 25.6765C179.914 25.299 180.216 24.8422 180.411 24.3375C180.607 23.8327 180.691 23.2917 180.658 22.7514V17.7824H178.127Z" fill="#014EA2"/>
<path d="M159.553 17.7824V22.3211C159.553 23.8067 160.619 24.2524 161.603 24.3446V26.8189C160.009 26.7369 158.856 26.3066 158.129 25.6663C157.739 25.2895 157.437 24.833 157.241 24.328C157.046 23.823 156.962 23.2816 156.996 22.7412V17.7824H159.553Z" fill="#014EA2"/>
<path d="M257.148 24.2113V17.7823H254.586V22.444C254.586 23.7093 253.525 23.9808 252.793 23.9808H247.997C247.054 23.9808 246.588 23.4941 246.588 22.444V8.505L244.026 9.86765V23.0587C244.026 25.5227 245.563 26.7675 248.637 26.7675H252.531C253.392 26.7783 254.24 26.5514 254.981 26.1118C256.067 26.6805 257.865 26.8598 259.249 26.8598C260.468 26.8746 261.678 26.641 262.805 26.1733C264.291 26.5968 265.825 26.8275 267.37 26.8598C269.24 26.8598 270.552 26.3987 271.362 25.6764C271.751 25.2997 272.053 24.8431 272.249 24.3381C272.444 23.8331 272.528 23.2917 272.494 22.7513V17.7823H269.932V22.3261C269.932 24.0423 268.482 24.3752 267.396 24.3752C266.532 24.3934 265.671 24.2952 264.834 24.0832V17.7823H262.236V22.3261C262.236 23.9808 260.776 24.3752 259.674 24.3752C258.572 24.3752 257.476 24.1908 257.138 24.2011" fill="#014EA2"/>
<path d="M236.652 16.5682C235.912 16.5325 235.176 16.6921 234.518 17.0312C233.86 17.3702 233.302 17.8766 232.902 18.4995C232.341 19.3532 231.989 20.3274 231.877 21.3426C231.825 21.9117 231.825 22.4844 231.877 23.0536C231.896 23.2233 231.861 23.3948 231.778 23.5437C231.694 23.6926 231.565 23.8115 231.411 23.8834C230.994 24.0009 230.56 24.0409 230.13 24.0013H226.717C225.692 24.0013 225.016 23.4275 225.016 22.2339V17.7515H222.428V22.4235C222.428 23.5044 221.916 24.0013 220.891 24.0013H215.972C215.024 24.0013 214.558 23.5249 214.558 22.4645V8.505L211.945 9.85741V23.0587C211.945 25.5227 213.482 26.7675 216.582 26.7675H220.789C221.851 26.8184 222.909 26.5981 223.863 26.1272C224.717 26.5654 225.665 26.7854 226.625 26.7675H229.991C231.564 26.7675 232.153 26.4602 232.732 25.743C233.639 27.3976 235.12 27.9663 236.857 27.9663C237.65 28.002 238.438 27.8175 239.132 27.4332C239.827 27.0489 240.401 26.4799 240.792 25.7891C241.386 24.7479 241.698 23.5705 241.699 22.3722C241.745 20.8623 241.285 19.3802 240.393 18.1614C239.45 17.0087 238.256 16.5836 236.668 16.5836L236.652 16.5682ZM236.78 25.6354C236.446 25.6503 236.113 25.5773 235.815 25.4236C235.518 25.2699 235.266 25.0409 235.084 24.7594C234.646 24.0059 234.441 23.1396 234.495 22.2698C234.442 21.4016 234.647 20.5372 235.084 19.7853C235.277 19.5156 235.531 19.2958 235.825 19.1442C236.12 18.9925 236.446 18.9134 236.778 18.9134C237.109 18.9134 237.436 18.9925 237.73 19.1442C238.025 19.2958 238.279 19.5156 238.471 19.7853C238.913 20.5356 239.12 21.4009 239.066 22.2698C239.12 23.1404 238.913 24.0074 238.471 24.7594C238.291 25.0412 238.04 25.2706 237.743 25.4244C237.447 25.5782 237.114 25.651 236.78 25.6354Z" fill="#014EA2"/>
<path d="M223.689 27.5667C223.331 27.5616 222.984 27.6894 222.715 27.9253C222.589 28.0301 222.486 28.1616 222.416 28.3104C222.346 28.4591 222.31 28.6215 222.31 28.7859C222.31 28.9504 222.346 29.1128 222.416 29.2615C222.486 29.4103 222.589 29.5418 222.715 29.6466C222.991 29.8766 223.34 30.0025 223.699 30.0025C224.058 30.0025 224.407 29.8766 224.683 29.6466C224.809 29.542 224.911 29.4104 224.98 29.2615C225.049 29.1126 225.084 28.9501 225.082 28.7859C225.082 28.6211 225.045 28.4585 224.974 28.3097C224.903 28.1609 224.8 28.0297 224.673 27.9253C224.404 27.6886 224.057 27.5607 223.699 27.5667" fill="#014EA2"/>
<path d="M201.984 27.5668C201.625 27.5599 201.275 27.6879 201.005 27.9254C200.878 28.0297 200.775 28.161 200.704 28.3098C200.633 28.4586 200.596 28.6212 200.596 28.786C200.594 28.9502 200.629 29.1126 200.698 29.2615C200.767 29.4105 200.869 29.542 200.995 29.6466C201.27 29.8821 201.622 30.008 201.984 30.0001C202.343 30.0079 202.692 29.8819 202.963 29.6466C203.091 29.543 203.194 29.4118 203.264 29.2627C203.334 29.1137 203.369 28.9507 203.368 28.786C203.366 28.6214 203.328 28.4591 203.258 28.3105C203.187 28.1618 203.084 28.0304 202.958 27.9254C202.689 27.6886 202.342 27.5607 201.984 27.5668Z" fill="#014EA2"/>
<path d="M190.02 14.4884C189.663 14.4811 189.317 14.6092 189.051 14.847C188.921 14.9491 188.816 15.0799 188.745 15.2292C188.674 15.3785 188.638 15.5423 188.641 15.7076C188.638 15.872 188.673 16.0348 188.742 16.1839C188.811 16.3329 188.914 16.4644 189.041 16.5682C189.312 16.8029 189.661 16.9273 190.02 16.9166C190.379 16.9266 190.73 16.8024 191.003 16.5682C191.131 16.4644 191.233 16.3329 191.302 16.1839C191.371 16.0348 191.406 15.872 191.403 15.7076C191.403 15.5437 191.368 15.3817 191.299 15.233C191.23 15.0843 191.129 14.9525 191.003 14.847C190.733 14.6074 190.381 14.4792 190.02 14.4884Z" fill="#014EA2"/>
<path d="M192.792 27.5668C192.432 27.5599 192.083 27.6879 191.813 27.9254C191.687 28.0307 191.586 28.1623 191.516 28.311C191.447 28.4597 191.411 28.6219 191.411 28.786C191.411 28.9501 191.447 29.1123 191.516 29.261C191.586 29.4097 191.687 29.5413 191.813 29.6466C192.09 29.8825 192.444 30.0083 192.807 30.0001C193.166 30.0074 193.515 29.8814 193.786 29.6466C193.913 29.5423 194.015 29.4109 194.085 29.262C194.155 29.1131 194.191 28.9505 194.191 28.786C194.189 28.6214 194.151 28.4591 194.081 28.3105C194.01 28.1618 193.908 28.0304 193.781 27.9254C193.512 27.6895 193.165 27.5617 192.807 27.5668" fill="#014EA2"/>
<path d="M196.706 27.5667C196.347 27.5589 195.997 27.6869 195.728 27.9253C195.603 28.0311 195.502 28.1629 195.433 28.3116C195.364 28.4602 195.328 28.6221 195.328 28.786C195.328 28.9498 195.364 29.1117 195.433 29.2603C195.502 29.409 195.603 29.5408 195.728 29.6466C196.004 29.8779 196.354 30.0047 196.714 30.0047C197.075 30.0047 197.424 29.8779 197.7 29.6466C197.826 29.5417 197.927 29.41 197.995 29.261C198.064 29.1121 198.098 28.9498 198.095 28.786C198.095 28.6215 198.059 28.459 197.989 28.3102C197.919 28.1614 197.817 28.0299 197.69 27.9253C197.421 27.6903 197.074 27.5626 196.717 27.5667" fill="#014EA2"/>
</g>
<defs>
<clipPath id="clip0_1243_32769">
<rect width="272" height="36" fill="white"/>
</clipPath>
</defs>
</svg>
