<svg width="50" height="50" viewBox="0 0 50 50" fill="none" xmlns="http://www.w3.org/2000/svg">
<path d="M30.1669 39.2259L17.9706 20.1807C17.5674 19.5377 17.3692 18.8037 17.3986 18.0624C17.3607 17.1574 17.5224 16.2546 17.8739 15.4083C18.2254 14.5619 18.7595 13.7893 19.4443 13.1368C20.129 12.4842 20.9504 11.9651 21.859 11.6105C22.7677 11.2559 23.7451 11.0731 24.7326 11.0731C25.7201 11.0731 26.6974 11.2559 27.6061 11.6105C28.5148 11.9651 29.3361 12.4842 30.0208 13.1368C30.7056 13.7893 31.2397 14.5619 31.5912 15.4083C31.9427 16.2546 32.1044 17.1574 32.0665 18.0624C32.048 19.0546 31.7822 20.0297 31.2894 20.9132C30.8577 21.6754 28.3645 25.0905 28.3645 25.0905L25.2021 20.1411L26.0008 19.1512C26.2803 18.8441 26.4432 18.4619 26.4649 18.0624C26.4649 17.8544 26.4202 17.6484 26.3334 17.4563C26.2466 17.2641 26.1194 17.0895 25.9591 16.9424C25.7987 16.7954 25.6083 16.6787 25.3988 16.5991C25.1893 16.5195 24.9648 16.4786 24.738 16.4786C24.5112 16.4786 24.2866 16.5195 24.0771 16.5991C23.8676 16.6787 23.6772 16.7954 23.5169 16.9424C23.3565 17.0895 23.2293 17.2641 23.1425 17.4563C23.0557 17.6484 23.0111 17.8544 23.0111 18.0624C23.0111 18.488 23.2377 18.7256 23.5291 19.2007L30.8361 30.4655C31.9664 31.9637 32.4261 33.8028 32.1205 35.603C31.8097 36.9414 31.1381 38.187 30.1669 39.2259Z" fill="#014EA2"/>
<path d="M25.8599 45.7297L22.7083 40.8397C22.4044 41.3481 22.0146 41.8092 21.5535 42.2058C21.0586 42.4839 20.4808 42.612 19.9021 42.572H16.2432C15.3798 42.572 14.8509 41.8494 14.5811 41.5821L9.001 33.2078C8.55011 32.4981 8.33971 31.6815 8.39658 30.8618L8.39658 19.7455C8.49073 18.8519 8.91319 18.0142 9.59464 17.3698C9.92923 17.0728 16.3727 9.64873 16.9556 8.98551C17.1871 8.7213 17.4793 8.50716 17.8114 8.35831C18.1434 8.20946 18.5072 8.12956 18.8767 8.12432L31.2241 8.12432C31.6125 8.16676 31.9857 8.28835 32.3163 8.48018C32.6468 8.67201 32.9264 8.92922 33.1345 9.23298C33.1345 9.23298 40.3443 17.3104 40.7977 17.7954C41.2767 18.2772 41.5589 18.8964 41.5964 19.5475V32.4753C41.6057 33.0388 41.4451 33.5938 41.1323 34.0789C41.1323 34.0789 36.243 41.5425 35.9192 41.9979C35.7932 42.1784 35.6164 42.3243 35.4074 42.4202C35.1984 42.516 34.9649 42.5582 34.7319 42.5423H31.7746C31.5815 42.5287 31.395 42.4719 31.2314 42.377C31.0677 42.2821 30.9318 42.152 30.8356 41.9979L20.8951 26.3776C20.0123 27.4104 19.3828 28.6056 19.0494 29.8818C18.6771 31.4309 18.9141 33.0508 19.7186 34.455L27.1119 46.0762C27.3087 46.4491 27.6149 46.7643 27.9962 46.9864C28.3776 47.2085 28.8189 47.3286 29.2706 47.3333H38.0778C38.8657 47.3333 39.7292 46.1356 39.9126 45.7891C39.9126 45.7891 45.8057 36.8802 46.3885 35.9497C46.8579 35.1964 47.065 34.3295 46.9822 33.4651V17.736C46.9898 17.3487 46.9049 16.9645 46.7333 16.6105C46.5618 16.2566 46.3078 15.9413 45.9892 15.687L35.6385 4.32319C35.4127 4.01782 35.1086 3.76791 34.753 3.59534C34.3973 3.42276 34.001 3.3328 33.5986 3.33332L15.7791 3.33332C15.3322 3.36248 14.898 3.48242 14.5079 3.68443C14.1177 3.88645 13.7814 4.16549 13.5233 4.50137C13.5233 4.50137 4.58659 14.9446 3.99297 15.6672C3.39222 16.3406 3.04403 17.1737 3 18.0429L3 33.0593C3.06106 34.0411 3.4365 34.9845 4.07932 35.7716C4.07932 35.7716 10.7711 45.5812 11.3108 46.3236C11.5932 46.6489 11.9556 46.9081 12.3684 47.0802C12.7811 47.2522 13.2323 47.3322 13.6852 47.3135H23.4854C23.9414 47.2935 24.3829 47.1605 24.763 46.9286C25.1431 46.6968 25.4476 46.3748 25.6441 45.997L25.8599 45.7297Z" fill="#014EA2"/>
</svg>
