<svg width="220" height="108" viewBox="0 0 220 108" fill="none" xmlns="http://www.w3.org/2000/svg">
<g clip-path="url(#clip0_405_3943)">
<path d="M39.5707 59.5623C39.5707 58.2773 40.6801 57.4447 42.4716 57.4447C43.8475 57.4447 44.8734 57.6513 45.7304 58.0893V60.0313C45.0444 60.9486 43.7421 61.9092 42.2728 61.9092C40.527 61.9092 39.5707 61.056 39.5707 59.554V59.5623ZM37.6957 49.4349L37.4611 49.5795L38.9145 52.5194L39.183 52.3686C40.3441 51.6889 41.5451 51.3914 43.0959 51.3914C44.2889 51.3914 45.7304 51.819 45.7304 53.8272V54.6102C44.7108 54.2548 43.6402 54.0836 42.565 54.104C38.497 54.104 36.0653 56.17 36.0653 59.6408C36.0653 63.6385 38.9305 65.4007 41.7657 65.4007C43.1774 65.4007 44.5692 64.7644 45.7304 63.748V65.066H49.3252V53.6598C49.3252 50.0258 47.0844 47.935 43.1913 47.935C41.0201 47.935 39.2864 48.4122 37.6957 49.4349Z" fill="#014EA2"/>
<path d="M63.3446 50.1766C62.4181 48.7304 61.0481 47.935 59.0777 47.935C58.4375 47.9341 57.804 48.0698 57.2164 48.3339C56.6288 48.5979 56.0997 48.9846 55.6619 49.47V48.2759H52.0114V65.0619H55.6579V55.2795C55.6579 52.7673 56.5626 51.4823 58.36 51.4823C59.9725 51.4823 61.0541 52.1847 61.0541 55.6018V65.0619H64.7145V55.2795C64.7145 52.7673 65.6252 51.4823 67.4126 51.4823C69.0311 51.4823 70.1048 52.1847 70.1048 55.6018V65.0619H73.7533V55.4717C73.7533 50.4803 71.8545 47.935 68.1244 47.935C65.7305 47.935 64.46 48.8378 63.3446 50.1766Z" fill="#014EA2"/>
<path d="M83.2791 51.4823C85.4344 51.4823 86.4783 53.2921 86.4783 57.0418C86.4783 60.242 85.4344 61.8617 83.4004 61.8617C82.0325 61.8617 80.7123 60.8184 80.0203 59.8309C80.0203 59.8309 80.0203 53.5813 80.0203 53.3561C80.5015 52.7363 81.6985 51.4823 83.2791 51.4823ZM79.6485 38.7766L76.4673 40.512V65.0619H80.0899V63.8595C80.9429 64.6446 82.1796 65.4007 83.6947 65.4007C86.6652 65.4007 90.1407 63.1757 90.1407 56.9303C90.1407 51.2075 87.8423 47.9267 83.8538 47.9267C82.5236 47.9267 81.3068 48.5073 80.0899 49.5361V38.5452L79.6485 38.7766Z" fill="#014EA2"/>
<path d="M94.7913 59.5623C94.7913 58.2773 95.9048 57.4447 97.6982 57.4447C99.0641 57.4447 100.084 57.6513 100.943 58.0893V60.0313C100.265 60.9486 98.9548 61.9092 97.4835 61.9092C95.7497 61.9092 94.7913 61.056 94.7913 59.554V59.5623ZM92.9144 49.4308L92.6817 49.5754L94.1312 52.5153L94.3996 52.3644C95.5608 51.6847 96.7657 51.3872 98.3126 51.3872C99.5155 51.3872 100.943 51.8149 100.943 53.823V54.606C99.9266 54.2493 98.8584 54.078 97.7857 54.0999C93.7176 54.0999 91.288 56.1658 91.288 59.6367C91.288 63.6343 94.1511 65.3966 96.9844 65.3966C98.3961 65.3966 99.7819 64.7603 100.943 63.7438V65.0619H104.538V53.6598C104.538 50.0258 102.303 47.935 98.404 47.935C96.2467 47.935 94.499 48.4122 92.9144 49.4349" fill="#014EA2"/>
<path d="M20.8748 52.8189C20.8748 56.1927 23.2767 57.1017 26.9371 58.0479C30.1383 58.8743 30.7149 59.4755 30.7149 60.2647C30.7149 60.7667 30.7149 62.1117 27.3825 62.1117C25.7441 62.1071 24.1635 61.482 22.9367 60.3535L22.6404 60.0705L20 62.3451L20.3579 62.717C22.0658 64.4648 24.4895 65.4462 27.1777 65.4462C31.7667 65.4462 34.4091 63.5103 34.4091 60.0953C34.4091 56.6802 31.5977 55.6844 28.2076 54.794C25.0781 53.947 24.5512 53.4718 24.5512 52.728C24.5512 51.755 25.5274 51.1868 27.1578 51.1868C28.7882 51.1868 30.0269 51.631 31.1165 52.6123L31.4108 52.8789L34.0532 50.5092L33.6357 50.1518C31.7985 48.594 29.8082 47.8627 27.3666 47.8627C23.5491 47.8627 20.8748 49.8956 20.8748 52.821" fill="#014EA2"/>
<path d="M126.174 59.5437C126.193 60.3998 126.019 61.2485 125.667 62.0229C125.336 62.7293 124.846 63.3428 124.24 63.812C123.583 64.3115 122.841 64.6774 122.053 64.8905C121.161 65.1369 120.241 65.2578 119.319 65.2499C118.751 65.2519 118.184 65.2063 117.623 65.1136C117.134 65.0323 116.65 64.915 116.177 64.7624C115.812 64.647 115.455 64.502 115.112 64.3285C114.887 64.2229 114.678 64.0837 114.491 63.9153C114.339 63.7453 114.234 63.5353 114.189 63.3079C114.105 62.9049 114.069 62.4928 114.082 62.0807C114.079 61.7945 114.09 61.5083 114.117 61.2234C114.133 61.0473 114.169 60.8738 114.225 60.7069C114.253 60.6021 114.316 60.5109 114.402 60.4486C114.483 60.4029 114.575 60.3808 114.668 60.3846C114.875 60.413 115.073 60.4916 115.245 60.6139C115.499 60.7695 115.816 60.9389 116.195 61.1221C116.624 61.3256 117.066 61.4981 117.517 61.6386C118.074 61.8057 118.65 61.8865 119.229 61.8783C119.591 61.8832 119.952 61.8395 120.303 61.7481C120.593 61.6736 120.869 61.5493 121.12 61.3804C121.343 61.2288 121.524 61.0185 121.643 60.7709C121.765 60.507 121.826 60.2167 121.82 59.9239C121.827 59.5758 121.711 59.2373 121.492 58.9735C121.247 58.6879 120.952 58.453 120.623 58.2814C120.227 58.0697 119.818 57.8847 119.398 57.7277C118.942 57.5569 118.475 57.3662 117.997 57.1554C117.515 56.9459 117.046 56.7058 116.593 56.4365C116.14 56.1688 115.728 55.8333 115.37 55.4407C114.996 55.0288 114.701 54.5473 114.499 54.0214C114.266 53.3859 114.155 52.7095 114.171 52.0298C114.163 51.2822 114.314 50.5419 114.614 49.8626C114.91 49.205 115.347 48.6273 115.893 48.1747C116.497 47.6806 117.187 47.3111 117.925 47.0859C118.795 46.8144 119.699 46.6807 120.607 46.6892C121.092 46.6886 121.575 46.7252 122.055 46.7987C122.482 46.8647 122.906 46.9571 123.323 47.0756C123.653 47.1656 123.976 47.2837 124.288 47.4288C124.485 47.52 124.672 47.6314 124.848 47.7615C124.945 47.8362 125.026 47.9304 125.087 48.0383C125.139 48.1429 125.175 48.2551 125.194 48.3709C125.216 48.499 125.238 48.6602 125.256 48.8502C125.274 49.0403 125.282 49.2779 125.282 49.5589C125.282 49.8915 125.282 50.1621 125.256 50.3708C125.245 50.5399 125.215 50.7071 125.166 50.8687C125.14 50.9702 125.08 51.0589 124.997 51.1187C124.922 51.1633 124.836 51.1854 124.749 51.1827C124.571 51.1572 124.401 51.0909 124.252 50.9885C124.026 50.8604 123.745 50.7227 123.409 50.5753C123.027 50.4123 122.636 50.2743 122.238 50.1621C121.743 50.0255 121.232 49.9601 120.721 49.9679C120.367 49.9621 120.015 50.0052 119.673 50.096C119.408 50.1666 119.161 50.2925 118.945 50.4658C118.763 50.6163 118.617 50.8087 118.519 51.0278C118.424 51.245 118.376 51.4812 118.378 51.7199C118.368 52.0723 118.488 52.4154 118.714 52.6785C118.969 52.9596 119.27 53.1906 119.603 53.3603C120.007 53.575 120.425 53.76 120.854 53.9139C121.321 54.0875 121.794 54.2734 122.273 54.4759C122.76 54.6833 123.234 54.9206 123.693 55.1866C124.155 55.4534 124.577 55.7888 124.946 56.1824C125.322 56.5923 125.623 57.0706 125.832 57.5934C126.072 58.2128 126.188 58.8763 126.174 59.5437Z" fill="#014EA2"/>
<path d="M154.71 64.1921C154.712 64.3089 154.674 64.4227 154.605 64.5144C154.509 64.6235 154.386 64.7028 154.249 64.7437C154.03 64.8168 153.804 64.8633 153.575 64.8821C153.215 64.917 152.853 64.9329 152.491 64.9297C152.124 64.9331 151.757 64.9172 151.392 64.8821C151.16 64.8625 150.93 64.816 150.708 64.7437C150.57 64.7067 150.447 64.6266 150.354 64.5144C150.288 64.4209 150.254 64.3077 150.256 64.1921V54.4345C150.26 53.9261 150.21 53.4189 150.105 52.9222C150.017 52.5059 149.858 52.1092 149.636 51.7508C149.438 51.4369 149.17 51.1775 148.855 50.9947C148.508 50.8122 148.124 50.7227 147.735 50.7344C147.143 50.7568 146.575 50.9836 146.121 51.3789C145.46 51.9315 144.864 52.5633 144.345 53.261V64.1983C144.347 64.3155 144.309 64.4295 144.238 64.5206C144.14 64.6315 144.014 64.7111 143.874 64.7499C143.652 64.8221 143.424 64.8685 143.192 64.8883C142.838 64.923 142.482 64.9388 142.126 64.9359C141.765 64.9391 141.403 64.9232 141.043 64.8883C140.811 64.8685 140.583 64.8221 140.361 64.7499C140.221 64.7116 140.094 64.632 139.997 64.5206C139.926 64.4295 139.888 64.3155 139.89 64.1983V54.4345C139.895 53.9261 139.844 53.4187 139.738 52.9222C139.657 52.5083 139.508 52.112 139.297 51.7508C139.099 51.4319 138.825 51.1714 138.502 50.9947C138.156 50.8133 137.773 50.7239 137.386 50.7344C136.788 50.7551 136.214 50.9819 135.754 51.3789C135.097 51.9298 134.506 52.5618 133.996 53.261V64.1983C133.999 64.3152 133.961 64.4293 133.891 64.5206C133.793 64.631 133.667 64.7104 133.527 64.7499C133.305 64.8219 133.075 64.8684 132.843 64.8883C132.123 64.9517 131.398 64.9517 130.678 64.8883C130.446 64.8684 130.216 64.8219 129.994 64.7499C129.854 64.7104 129.728 64.631 129.63 64.5206C129.56 64.4289 129.523 64.3151 129.525 64.1983V47.7408C129.523 47.6261 129.553 47.5133 129.612 47.4164C129.695 47.3087 129.806 47.2289 129.932 47.1871C130.125 47.116 130.325 47.0696 130.529 47.0487C130.832 47.0148 131.138 46.9996 131.443 47.0032C131.757 46.9996 132.071 47.0148 132.384 47.0487C132.581 47.0665 132.775 47.1131 132.96 47.1871C133.077 47.2332 133.178 47.3127 133.253 47.4164C133.313 47.5127 133.345 47.6257 133.342 47.7408V49.6394C134.093 48.76 134.977 48.0134 135.959 47.4288C136.792 46.9469 137.729 46.6931 138.683 46.6913C139.275 46.6827 139.865 46.7521 140.44 46.8979C140.932 47.0308 141.401 47.2397 141.832 47.5176C142.231 47.7736 142.587 48.0945 142.888 48.468C143.188 48.8452 143.439 49.262 143.634 49.7076C144.065 49.2183 144.53 48.7619 145.025 48.342C145.445 47.9869 145.896 47.6749 146.373 47.4102C146.796 47.1788 147.243 46.9999 147.706 46.8772C148.149 46.7598 148.604 46.7008 149.062 46.7016C149.979 46.6719 150.89 46.8613 151.726 47.2553C152.418 47.5992 153.018 48.1151 153.474 48.7572C153.931 49.4239 154.254 50.1802 154.422 50.9802C154.614 51.8614 154.71 52.7624 154.706 53.666L154.71 64.1921Z" fill="#014EA2"/>
<path d="M172.585 64.2458C172.589 64.3243 172.575 64.4028 172.544 64.4746C172.514 64.5464 172.467 64.6097 172.408 64.659C172.24 64.7748 172.048 64.8458 171.847 64.8656C171.473 64.9151 171.097 64.9365 170.72 64.9297C170.332 64.9379 169.944 64.9165 169.559 64.8656C169.372 64.8486 169.193 64.777 169.044 64.659C168.991 64.6055 168.951 64.5409 168.925 64.4696C168.899 64.3983 168.888 64.3219 168.893 64.2458V62.9381C168.262 63.647 167.506 64.2229 166.666 64.6342C165.793 65.0481 164.842 65.2555 163.882 65.2416C163.098 65.2501 162.317 65.1352 161.566 64.9007C160.897 64.6942 160.274 64.3491 159.737 63.8863C159.22 63.4332 158.812 62.8618 158.544 62.217C158.247 61.4824 158.102 60.6913 158.118 59.8949C158.098 59.0281 158.284 58.1694 158.659 57.3951C159.037 56.6708 159.595 56.0657 160.275 55.6431C161.1 55.1374 162.004 54.7876 162.946 54.6101C164.169 54.3748 165.412 54.2641 166.656 54.2796H168.201V53.292C168.207 52.8354 168.156 52.3798 168.05 51.9368C167.963 51.5764 167.792 51.2437 167.553 50.9678C167.299 50.6957 166.981 50.4982 166.63 50.3955C166.165 50.2625 165.683 50.2005 165.2 50.2117C164.529 50.2031 163.86 50.29 163.212 50.4699C162.682 50.6204 162.163 50.8117 161.659 51.0422C161.199 51.2502 160.821 51.4402 160.524 51.6124C160.302 51.7588 160.049 51.8474 159.786 51.8706C159.66 51.8724 159.537 51.827 159.44 51.7426C159.33 51.6416 159.245 51.5148 159.192 51.3727C159.12 51.1833 159.069 50.9857 159.041 50.7839C159.005 50.5274 158.988 50.2684 158.989 50.0092C158.98 49.7049 159.01 49.4007 159.077 49.1043C159.138 48.878 159.255 48.6717 159.415 48.5052C159.673 48.2627 159.966 48.0634 160.283 47.9143C160.754 47.6775 161.24 47.4772 161.739 47.3152C162.333 47.1215 162.94 46.971 163.554 46.8648C164.226 46.7461 164.907 46.6873 165.588 46.6892C166.66 46.6688 167.73 46.7959 168.769 47.0673C169.571 47.2757 170.315 47.673 170.945 48.2283C171.525 48.7738 171.954 49.4718 172.185 50.2489C172.466 51.1982 172.6 52.1876 172.583 53.1805L172.585 64.2458ZM168.211 57.2009H166.497C165.877 57.1911 165.258 57.2472 164.65 57.3682C164.209 57.4497 163.787 57.6188 163.407 57.8661C163.109 58.0631 162.867 58.34 162.707 58.6677C162.554 59.0044 162.477 59.3736 162.484 59.7461C162.469 60.0482 162.518 60.3499 162.627 60.6304C162.736 60.9109 162.902 61.1633 163.115 61.37C163.534 61.7625 164.119 61.9588 164.862 61.9588C165.473 61.9641 166.073 61.7916 166.594 61.4609C167.196 61.0651 167.738 60.5776 168.201 60.0147L168.211 57.2009Z" fill="#014EA2"/>
<path d="M187.215 49.2717C187.215 49.7138 187.203 50.0753 187.179 50.3584C187.165 50.5833 187.129 50.8062 187.072 51.0236C187.043 51.151 186.978 51.2664 186.885 51.3542C186.8 51.4191 186.697 51.4519 186.592 51.4471C186.484 51.4446 186.376 51.423 186.274 51.3831L185.877 51.2447C185.728 51.1951 185.564 51.1496 185.388 51.1063C185.195 51.0614 184.998 51.0399 184.801 51.0422C184.546 51.0438 184.293 51.0964 184.057 51.1972C183.778 51.3213 183.518 51.4862 183.284 51.6868C182.974 51.9501 182.692 52.2473 182.443 52.5731C182.107 53.0083 181.795 53.4636 181.51 53.9366V64.1921C181.512 64.3089 181.475 64.4227 181.405 64.5144C181.307 64.6248 181.181 64.7043 181.041 64.7437C180.819 64.8158 180.589 64.8622 180.357 64.8822C179.637 64.9455 178.912 64.9455 178.192 64.8822C177.96 64.8625 177.73 64.8161 177.508 64.7437C177.368 64.7043 177.242 64.6248 177.144 64.5144C177.073 64.4233 177.035 64.3093 177.037 64.1921V47.7408C177.034 47.6258 177.066 47.5127 177.126 47.4164C177.208 47.3082 177.32 47.2283 177.446 47.1871C177.639 47.1161 177.839 47.0696 178.043 47.0487C178.347 47.0148 178.652 46.9996 178.957 47.0032C179.271 46.9996 179.585 47.0148 179.898 47.0487C180.095 47.0667 180.289 47.1133 180.474 47.1871C180.591 47.2338 180.692 47.3132 180.767 47.4164C180.827 47.5127 180.859 47.6258 180.856 47.7408V49.7882C181.209 49.2509 181.601 48.7419 182.027 48.2655C182.343 47.9113 182.695 47.5927 183.075 47.3152C183.377 47.0951 183.714 46.9302 184.069 46.8276C184.393 46.7358 184.728 46.6892 185.063 46.6892C185.229 46.6895 185.395 46.6984 185.56 46.7161C185.746 46.7358 185.93 46.7668 186.111 46.809C186.28 46.8456 186.446 46.8946 186.608 46.9557C186.721 46.9936 186.827 47.0532 186.918 47.1313C186.98 47.1885 187.029 47.259 187.062 47.3379C187.098 47.4369 187.124 47.5393 187.141 47.6437C187.171 47.8358 187.189 48.0297 187.195 48.2242C187.215 48.4783 187.215 48.8275 187.215 49.2717Z" fill="#014EA2"/>
<path d="M199.343 62.5683C199.353 62.9839 199.32 63.3994 199.246 63.8079C199.211 64.0298 199.122 64.2388 198.987 64.4152C198.853 64.5518 198.693 64.6586 198.518 64.7293C198.283 64.8308 198.039 64.9109 197.79 64.9689C197.492 65.0403 197.189 65.0928 196.884 65.1259C196.554 65.1636 196.222 65.1822 195.89 65.1817C195.107 65.1977 194.327 65.0791 193.581 64.8305C192.963 64.6186 192.408 64.2467 191.967 63.75C191.519 63.2233 191.197 62.5949 191.026 61.9154C190.811 61.0606 190.709 60.1792 190.724 59.2958V50.8749H188.825C188.601 50.8749 188.428 50.7302 188.31 50.441C188.168 49.974 188.108 49.484 188.133 48.9948C188.13 48.6926 188.145 48.3904 188.177 48.0899C188.196 47.891 188.24 47.6956 188.31 47.5094C188.355 47.3882 188.432 47.2828 188.533 47.2057C188.625 47.1424 188.733 47.1099 188.843 47.1127H190.724V43.4436C190.723 43.325 190.757 43.209 190.821 43.1109C190.914 42.9929 191.038 42.9059 191.177 42.861C191.401 42.7828 191.634 42.7336 191.869 42.7143C192.16 42.6833 192.517 42.6688 192.943 42.6688C193.368 42.6688 193.738 42.6833 194.035 42.7143C194.268 42.733 194.497 42.7823 194.719 42.861C194.856 42.9091 194.979 42.9956 195.072 43.1109C195.143 43.2062 195.181 43.3233 195.18 43.4436V47.1127H198.624C198.734 47.1106 198.842 47.143 198.934 47.2057C199.034 47.2828 199.111 47.3882 199.156 47.5094C199.225 47.6958 199.27 47.8911 199.288 48.0899C199.321 48.3903 199.336 48.6925 199.333 48.9948C199.359 49.484 199.299 49.974 199.156 50.441C199.037 50.7302 198.866 50.8749 198.641 50.8749H195.18V58.6037C195.18 59.5003 195.316 60.1731 195.587 60.6221C195.86 61.0725 196.345 61.2956 197.043 61.2956C197.258 61.2982 197.472 61.2767 197.683 61.2316C197.854 61.1935 198.023 61.1438 198.188 61.0828C198.335 61.0291 198.46 60.9795 198.562 60.9362C198.648 60.8961 198.742 60.8743 198.836 60.8721C198.907 60.8735 198.976 60.8957 199.035 60.9362C199.113 61.0007 199.166 61.0924 199.184 61.1944C199.229 61.3666 199.262 61.542 199.282 61.7192C199.321 62.0004 199.341 62.2841 199.343 62.5683Z" fill="#014EA2"/>
<path d="M109.87 34H108.876V73.6667H109.87V34Z" fill="#EC008C"/>
</g>
<defs>
<clipPath id="clip0_405_3943">
<rect width="179.333" height="39.6667" fill="white" transform="translate(20 34)"/>
</clipPath>
</defs>
</svg>
