<svg width="40" height="40" viewBox="0 0 40 40" fill="none" xmlns="http://www.w3.org/2000/svg">
<path fill-rule="evenodd" clip-rule="evenodd" d="M36 31.5294V29H35.36V30.4706C35.1466 30.206 34.8419 30.0589 34.4457 30.0589C33.6228 30.0589 32.9829 30.6765 32.9829 31.5294C32.9829 32.3823 33.6228 33 34.4457 33C34.8724 33 35.1772 32.853 35.36 32.5883V32.9412H36V31.5294ZM17.1048 30.1177H18.1409V30.6764H17.1048V31.9411C17.1048 32.2354 17.2267 32.4118 17.5314 32.4118C17.6839 32.4118 17.8971 32.3823 18.0799 32.2647L18.2629 32.7942C18.0494 32.9118 17.7448 33 17.4705 33C16.739 33 16.4647 32.6178 16.4647 31.9706V30.6764H15.8858V30.1177H16.4648V29.2647H17.1048V30.1177ZM8.66296 31.1765V32.9412H7.96187V31.3823C7.96187 30.9118 7.74863 30.647 7.32188 30.647C6.92566 30.647 6.62107 30.8824 6.62107 31.3823V32.9412H5.98108V31.3823C5.98108 30.9118 5.76756 30.647 5.34108 30.647C4.91432 30.647 4.64 30.8824 4.64 31.3823V32.9412H4V30.1177H4.64V30.4706C4.88392 30.147 5.18851 30.0589 5.49337 30.0589C5.95053 30.0589 6.25526 30.2353 6.4685 30.5589C6.74283 30.1765 7.13904 30.0589 7.50471 30.0589C8.2362 30.0589 8.66296 30.4999 8.66296 31.1765ZM23.5657 30.0587C23.2001 30.0587 22.9563 30.2353 22.8038 30.4706V30.1177H22.1638V32.9412H22.8038V31.353C22.8038 30.8824 23.0171 30.6177 23.4133 30.6177C23.5352 30.6177 23.6876 30.6472 23.8095 30.6765L23.9923 30.0883C23.8705 30.0589 23.6876 30.0589 23.5657 30.0589V30.0587ZM14.179 30.0589C14.6362 30.0589 15.0628 30.147 15.3677 30.3529L15.0933 30.853C14.9105 30.7647 14.5448 30.6177 14.179 30.6177C13.8437 30.6177 13.6305 30.7353 13.6305 30.9412C13.6305 31.1177 13.8437 31.1764 14.1181 31.2059L14.4228 31.2353C15.0324 31.3235 15.4286 31.5882 15.4286 32.0883C15.4286 32.6178 14.9409 33 14.0875 33C13.6305 33 13.1733 32.8824 12.8381 32.6471L13.1428 32.1766C13.3562 32.3235 13.6914 32.4706 14.1181 32.4706C14.5448 32.4706 14.7886 32.3235 14.7886 32.1177C14.7886 31.9706 14.6058 31.8823 14.2705 31.8236L13.9658 31.7942C13.3258 31.7059 12.9601 31.4413 12.9601 30.9706C12.9601 30.4118 13.4477 30.0589 14.179 30.0589ZM32.3734 30.0589C32.0076 30.0589 31.7638 30.2353 31.6114 30.4706V30.1177H30.9714V32.9412H31.6114V31.353C31.6114 30.8824 31.8247 30.6177 32.2208 30.6177C32.3429 30.6177 32.4953 30.6472 32.6172 30.6765L32.8 30.0883C32.6781 30.0589 32.4953 30.0589 32.3734 30.0589ZM25.76 33C24.8152 33 24.2057 32.3823 24.2057 31.5294C24.2057 30.6765 24.8152 30.0589 25.76 30.0589C26.1867 30.0589 26.4914 30.147 26.7961 30.3824L26.4914 30.8824C26.2476 30.7058 26.0038 30.6177 25.7295 30.6177C25.2114 30.647 24.8457 31.0001 24.8457 31.5294C24.8457 32.0883 25.2114 32.4412 25.7295 32.4412C26.0038 32.4412 26.2476 32.353 26.4914 32.1766L26.7961 32.6766C26.4914 32.9118 26.1867 33 25.76 33ZM30.1181 31.5294V30.1177H29.4781V30.4706C29.2648 30.206 28.96 30.0589 28.5638 30.0589C27.741 30.0589 27.101 30.6765 27.101 31.5294C27.101 32.3823 27.741 33 28.5638 33C28.9904 33 29.2953 32.853 29.4781 32.5883V32.9412H30.1181V31.5294ZM28.6552 30.6177C28.1067 30.6177 27.7714 31.0294 27.7714 31.5294C27.7714 32.0294 28.1067 32.4117 28.6552 32.4412C29.1733 32.4412 29.5391 32.0294 29.5391 31.5294C29.5391 31.0001 29.1733 30.6177 28.6552 30.6177ZM20.1218 30.0589C19.2685 30.0589 18.659 30.6471 18.659 31.5294C18.659 32.4118 19.2684 33 20.1524 33C20.579 33 21.0057 32.8824 21.341 32.6178L21.0361 32.1766C20.7924 32.353 20.4876 32.4706 20.1829 32.4706C19.7867 32.4706 19.3905 32.2942 19.299 31.794H21.4629V31.5589C21.4934 30.647 20.9448 30.0589 20.1218 30.0589ZM20.8533 31.2648C20.7925 30.8236 20.518 30.5882 20.122 30.5882C19.6648 30.5882 19.3905 30.8824 19.3295 31.2648H20.8533ZM34.5372 30.6177C33.9885 30.6177 33.6534 31.0294 33.6534 31.5294C33.6534 32.0294 33.9885 32.4117 34.5372 32.4412C35.0553 32.4412 35.4209 32.0294 35.4209 31.5294C35.4209 31.0001 35.0553 30.6177 34.5372 30.6177ZM12.259 31.5294V30.1177H11.619V30.4706C11.4056 30.206 11.1009 30.0589 10.7047 30.0589C9.88187 30.0589 9.24187 30.6765 9.24187 31.5294C9.24187 32.3823 9.88187 33 10.7047 33C11.1315 33 11.4362 32.853 11.619 32.5883V32.9412H12.259V31.5294ZM10.7656 30.6177C10.2171 30.6177 9.88187 31.0294 9.88187 31.5294C9.88187 32.0294 10.2171 32.4117 10.7656 32.4412C11.2838 32.4412 11.6496 32.0294 11.6496 31.5294C11.6496 31.0001 11.2838 30.6177 10.7656 30.6177Z" fill="black"/>
<path d="M15 8H25V25H15V8Z" fill="#FF5F00"/>
<path d="M15.763 17C15.763 13.4862 17.4331 10.3694 20 8.35272C18.1135 6.88608 15.7321 6 13.1342 6C6.97933 6 2 10.9194 2 17C2 23.0805 6.97933 28 13.1341 28C15.732 28 18.1134 27.1139 20 25.6471C17.4331 23.661 15.763 20.5138 15.763 17Z" fill="#EB001B"/>
<path d="M37.9999 17C37.9999 23.0805 33.0206 28 26.8659 28C24.268 28 21.8866 27.1139 20 25.6471C22.5979 23.6306 24.2371 20.5138 24.2371 17C24.2371 13.4862 22.5669 10.3694 20 8.35272C21.8864 6.88608 24.268 6 26.8659 6C33.0206 6 38 10.95 38 17H37.9999Z" fill="#F79E1B"/>
</svg>
