<svg width="18" height="14" viewBox="0 0 18 14" fill="none" xmlns="http://www.w3.org/2000/svg">
<path fill-rule="evenodd" clip-rule="evenodd" d="M15 2L1.99649 2C1.24276 1.9995 1 1.83713 1 1.5C1 1.16234 1.24352 1 2 1H15C15.2761 1 15.5 0.776142 15.5 0.5C15.5 0.223858 15.2761 0 15 0H2C0.798825 0 0.0520817 0.470562 0.00262062 1.4H0V1.5V2V13.1001C0 13.5971 0.402944 14.0001 0.9 14.0001H16.1C16.5971 14.0001 17 13.5971 17 13.1001L17 11C17 10.7239 16.7761 10.5 16.5 10.5C16.2239 10.5 16 10.7239 16 11L16 13.0001H1V3H1.99679L2 3H15L15.0005 3L16 3L16 5L11.9 5C11.4029 5 11 5.40294 11 5.9V9.1C11 9.59706 11.4029 10 11.9 10H16H16.5H17.1C17.5971 10 18 9.59706 18 9.1V5.9C18 5.40294 17.5971 5 17.1 5H17L17 2.9C17 2.40294 16.5971 2 16.1 2L15 2ZM16.1 6L16 6H12V9H16H16.5H17V6L16.1 6ZM14 7.5C14 7.77614 13.7761 8 13.5 8C13.2239 8 13 7.77614 13 7.5C13 7.22386 13.2239 7 13.5 7C13.7761 7 14 7.22386 14 7.5Z" fill="white"/>
</svg>
