<svg width="24" height="24" viewBox="0 0 24 24" fill="none" xmlns="http://www.w3.org/2000/svg">
<path fill-rule="evenodd" clip-rule="evenodd" d="M18.6876 17.585C18.6923 17.5807 18.6967 17.5766 18.7008 17.5726C18.7008 17.5726 18.698 17.5757 18.6962 17.5788L18.6876 17.585ZM17.8385 14.8522C17.1549 13.4851 15.0973 11.5857 14.7429 11.5857C14.763 11.5857 14.7356 11.5972 14.657 11.6469C14.7239 11.6046 14.3119 11.8762 14.1606 11.9627C13.5848 12.2917 12.9408 12.4714 12.0857 12.4714C9.54106 12.4714 8.04286 10.4284 8.04286 7.1C8.04286 4.98084 9.67179 3.5 12.0857 3.5C14.4996 3.5 16.1286 4.98084 16.1286 7.1C16.1286 8.35165 15.9691 9.30837 15.6329 9.98075C15.5094 10.2277 15.2091 10.3279 14.9621 10.2044C14.7151 10.0809 14.615 9.78053 14.7385 9.53354C14.9928 9.02496 15.1286 8.21026 15.1286 7.1C15.1286 5.55552 13.9675 4.5 12.0857 4.5C10.2039 4.5 9.04286 5.55552 9.04286 7.1C9.04286 9.93132 10.1723 11.4714 12.0857 11.4714C12.7622 11.4714 13.2362 11.3392 13.6644 11.0944C13.783 11.0267 14.1656 10.7744 14.123 10.8014C14.3498 10.6581 14.523 10.5857 14.7429 10.5857C15.5694 10.5857 17.8981 12.7353 18.7329 14.405C19.4773 15.8937 19.6714 16.7674 19.6714 17.7286C19.6714 18.8436 16.0372 20 12.0857 20C8.13425 20 4.5 18.8436 4.5 17.7286C4.5 16.7674 4.69416 15.8937 5.4385 14.405C6.06475 13.1525 7.0015 12.0596 8.24286 11.1286C8.46377 10.9629 8.77717 11.0077 8.94286 11.2286C9.10854 11.4495 9.06377 11.7629 8.84286 11.9286C7.72231 12.769 6.88763 13.7428 6.33293 14.8522C5.69582 16.1264 5.51843 16.8402 5.5014 17.6003C5.55487 17.6454 5.63493 17.7008 5.73748 17.761C6.04327 17.9405 6.49132 18.1313 7.03374 18.3039C8.39609 18.7374 10.1378 19 12.0857 19C14.0337 19 15.7753 18.7374 17.1377 18.3039C17.6801 18.1313 18.1282 17.9405 18.434 17.761C18.5365 17.7008 18.6166 17.6454 18.67 17.6003C18.653 16.8402 18.4756 16.1264 17.8385 14.8522Z" fill="#1B7BBD"/>
</svg>
