<svg width="24" height="24" viewBox="0 0 24 24" fill="none" xmlns="http://www.w3.org/2000/svg">
<path fill-rule="evenodd" clip-rule="evenodd" d="M1.21265 7.0058C1.21265 5.90123 2.10808 5.0058 3.21265 5.0058H4.38761V7.0058H3.21265V18.0556H4.38761V20.0556H3.21265C2.10808 20.0556 1.21265 19.1601 1.21265 18.0556V7.0058Z" fill="#808080"/>
<path fill-rule="evenodd" clip-rule="evenodd" d="M22.7874 7.0058C22.7874 5.90123 21.8919 5.0058 20.7874 5.0058H19.6124V7.0058H20.7874V18.0556H19.6124V20.0556H20.7874C21.8919 20.0556 22.7874 19.1601 22.7874 18.0556V7.0058Z" fill="#808080"/>
<path fill-rule="evenodd" clip-rule="evenodd" d="M6.98409 2.43781C6.10044 2.43781 5.38409 3.15415 5.38409 4.0378V21.0235C5.38409 21.9071 6.10044 22.6235 6.98409 22.6235H17.0159C17.8996 22.6235 18.6159 21.9071 18.6159 21.0235V4.03781C18.6159 3.15415 17.8996 2.43781 17.0159 2.43781H6.98409ZM8.24067 5.3255C7.9093 5.3255 7.64067 5.59413 7.64067 5.9255V17.283C7.64067 17.6144 7.9093 17.883 8.24067 17.883H15.7594C16.0908 17.883 16.3594 17.6144 16.3594 17.283V5.9255C16.3594 5.59413 16.0908 5.3255 15.7594 5.3255H8.24067Z" fill="#808080"/>
</svg>
