<svg width="24" height="24" viewBox="0 0 24 24" fill="none" xmlns="http://www.w3.org/2000/svg">
<path d="M22.3359 7.43359L20.0508 3.77734C19.8398 3.46094 19.4883 3.25 19.1016 3.25H4.89844C4.51172 3.25 4.125 3.46094 3.91406 3.77734L1.66406 7.43359C0.46875 9.33203 1.52344 11.9336 3.70312 12.2148C3.87891 12.25 4.01953 12.25 4.19531 12.25C5.25 12.25 6.16406 11.793 6.79688 11.0898C7.42969 11.793 8.34375 12.25 9.39844 12.25C10.418 12.25 11.332 11.793 11.9648 11.0898C12.5977 11.793 13.5469 12.25 14.5664 12.25C15.6211 12.25 16.5352 11.793 17.168 11.0898C17.8008 11.793 18.7148 12.25 19.7695 12.25C19.9453 12.25 20.0859 12.25 20.2617 12.2148C22.4414 11.9336 23.4961 9.33203 22.3359 7.43359ZM19.7695 13.375C19.418 13.375 19.0664 13.3398 18.75 13.2695V16.75H5.25V13.2695C4.89844 13.3398 4.54688 13.375 4.19531 13.375C3.98438 13.375 3.77344 13.375 3.5625 13.3398C3.35156 13.3047 3.17578 13.2695 3 13.2344V20.125C3 20.7578 3.49219 21.25 4.125 21.25H19.875C20.4727 21.25 21 20.7578 21 20.125V13.2344C20.7891 13.2695 20.6133 13.3398 20.4023 13.3398C20.1914 13.375 19.9805 13.375 19.7695 13.375Z" fill="#808080"/>
</svg>
