<svg width="24" height="24" viewBox="0 0 24 24" fill="none" xmlns="http://www.w3.org/2000/svg">
<path d="M12 17.875C16.0078 17.875 19.3125 14.6055 19.3125 10.5625C19.3125 6.55469 16.0078 3.25 12 3.25C7.95703 3.25 4.6875 6.55469 4.6875 10.5625C4.6875 14.6055 7.95703 17.875 12 17.875ZM11.1914 6.69531V6.09766C11.1914 5.78125 11.4727 5.5 11.7891 5.5H12.1758C12.4922 5.5 12.7734 5.78125 12.7734 6.09766V6.69531C13.3008 6.73047 13.8281 6.90625 14.2852 7.22266C14.4609 7.39844 14.4961 7.67969 14.3203 7.85547L13.7578 8.38281C13.6172 8.52344 13.4062 8.52344 13.2656 8.41797C13.0547 8.3125 12.8438 8.24219 12.6328 8.24219H11.2617C10.9453 8.24219 10.6992 8.52344 10.6992 8.875C10.6992 9.15625 10.875 9.4375 11.1211 9.50781L13.3008 10.1758C14.2148 10.4219 14.8477 11.3008 14.8477 12.2852C14.8477 13.4805 13.8984 14.4297 12.7734 14.4648V15.0625C12.7734 15.3789 12.4922 15.625 12.1758 15.625H11.7891C11.4727 15.625 11.1914 15.3789 11.1914 15.0625V14.4648C10.6641 14.4297 10.1367 14.2539 9.67969 13.9023C9.50391 13.7617 9.46875 13.4805 9.64453 13.3047L10.207 12.7773C10.3477 12.6367 10.5586 12.6367 10.6992 12.7422C10.9102 12.8477 11.1211 12.918 11.332 12.918H12.7031C13.0195 12.918 13.2656 12.6367 13.2656 12.2852C13.2656 11.9688 13.0898 11.7227 12.8438 11.6523L10.6641 10.9844C9.75 10.7383 9.11719 9.85938 9.11719 8.875C9.11719 7.67969 10.0664 6.73047 11.1914 6.69531ZM19.875 15.625H18.7148C18.0117 16.5391 17.1328 17.3125 16.1484 17.875H18.3984C18.5742 17.875 18.7148 18.0156 18.7148 18.1562V18.7188C18.7148 18.8945 18.5742 19 18.3984 19H5.56641C5.39062 19 5.25 18.8945 5.25 18.7188V18.1562C5.25 18.0156 5.39062 17.875 5.56641 17.875H7.81641C6.83203 17.3125 5.95312 16.5391 5.25 15.625H4.125C3.49219 15.625 3 16.1523 3 16.75V20.125C3 20.7578 3.49219 21.25 4.125 21.25H19.875C20.4727 21.25 21 20.7578 21 20.125V16.75C21 16.1523 20.4727 15.625 19.875 15.625Z" fill="#808080"/>
</svg>
