<svg width="24" height="24" viewBox="0 0 24 24" fill="none" xmlns="http://www.w3.org/2000/svg">
<path d="M4.125 19C4.125 19.6328 4.61719 20.125 5.25 20.125H10.875V14.5H4.125V19ZM13.125 20.125H18.75C19.3477 20.125 19.875 19.6328 19.875 19V14.5H13.125V20.125ZM19.875 8.875H18.3633C18.6094 8.45312 18.75 7.99609 18.75 7.46875C18.75 5.78125 17.3438 4.375 15.6562 4.375C14.1797 4.375 13.2305 5.14844 12.0352 6.80078C10.8047 5.14844 9.85547 4.375 8.41406 4.375C6.69141 4.375 5.32031 5.78125 5.32031 7.46875C5.32031 7.99609 5.42578 8.45312 5.67188 8.875H4.125C3.49219 8.875 3 9.40234 3 10V12.8125C3 13.1289 3.24609 13.375 3.5625 13.375H20.4375C20.7188 13.375 21 13.1289 21 12.8125V10C21 9.40234 20.4727 8.875 19.875 8.875ZM8.37891 8.875C7.60547 8.875 6.97266 8.27734 6.97266 7.46875C6.97266 6.69531 7.60547 6.0625 8.37891 6.0625C9.08203 6.0625 9.60938 6.20312 11.4375 8.875H8.37891ZM15.6562 8.875H12.5977C14.4258 6.20312 14.918 6.0625 15.6562 6.0625C16.4297 6.0625 17.0625 6.69531 17.0625 7.46875C17.0625 8.27734 16.4297 8.875 15.6562 8.875Z" fill="#808080"/>
</svg>
