<svg width="24" height="24" viewBox="0 0 24 24" fill="none" xmlns="http://www.w3.org/2000/svg">
<path d="M14.5312 12.25C14.5312 10.8789 13.3711 9.71875 12 9.71875C10.5938 9.71875 9.46875 10.8789 9.46875 12.25C9.46875 13.6562 10.5938 14.7812 12 14.7812C13.3711 14.7812 14.5312 13.6562 14.5312 12.25ZM18.1875 9.71875C16.7812 9.71875 15.6562 10.8789 15.6562 12.25C15.6562 13.6562 16.7812 14.7812 18.1875 14.7812C19.5586 14.7812 20.7188 13.6562 20.7188 12.25C20.7188 10.8789 19.5586 9.71875 18.1875 9.71875ZM5.8125 9.71875C4.40625 9.71875 3.28125 10.8789 3.28125 12.25C3.28125 13.6562 4.40625 14.7812 5.8125 14.7812C7.18359 14.7812 8.34375 13.6562 8.34375 12.25C8.34375 10.8789 7.18359 9.71875 5.8125 9.71875Z" fill="#808080"/>
</svg>
