<svg width="24" height="24" viewBox="0 0 24 24" fill="none" xmlns="http://www.w3.org/2000/svg">
<path d="M12 3.53125C7.18359 3.53125 3.28125 7.43359 3.28125 12.25C3.28125 17.0664 7.18359 20.9688 12 20.9688C16.8164 20.9688 20.7188 17.0664 20.7188 12.25C20.7188 7.43359 16.8164 3.53125 12 3.53125ZM15.2344 14.5352L14.5312 15.4141C14.4258 15.5547 14.25 15.6602 14.0742 15.6602C13.9688 15.6602 13.8281 15.5898 13.7578 15.5195L11.4023 13.7617C11.0859 13.5508 10.875 13.0586 10.875 12.6719V7.1875C10.875 6.90625 11.1211 6.625 11.4375 6.625H12.5625C12.8438 6.625 13.125 6.90625 13.125 7.1875V12.25L15.1641 13.7617C15.2695 13.8672 15.375 14.043 15.375 14.1836C15.375 14.3242 15.3047 14.4648 15.2344 14.5352Z" fill="#808080"/>
</svg>
