<svg width="24" height="24" viewBox="0 0 24 24" fill="none" xmlns="http://www.w3.org/2000/svg">
<path d="M12 7.29297L4.30078 14.0781C4.23047 14.1484 4.16016 14.1484 4.125 14.2188V20.6875C4.125 21.0039 4.37109 21.25 4.6875 21.25H9.1875C9.46875 21.25 9.75 21.0039 9.75 20.6875V16.1875C9.75 15.9062 9.99609 15.625 10.3125 15.625H13.6875C13.9688 15.625 14.25 15.9062 14.25 16.1875V20.6875C14.25 21.0039 14.4961 21.25 14.8125 21.25H19.3125C19.5938 21.25 19.875 21.0039 19.875 20.6875V14.2188C19.8047 14.1484 19.7344 14.1484 19.6641 14.0781L12 7.29297ZM21.9141 11.582L12.9141 3.63672C12.7031 3.42578 12.2812 3.25 12 3.25C11.6836 3.25 11.2617 3.42578 11.0508 3.63672L2.05078 11.582C1.94531 11.6523 1.83984 11.8633 1.83984 12.0039C1.83984 12.1094 1.91016 12.2852 2.01562 12.3555L2.75391 13.1992C2.85938 13.3047 3.03516 13.4102 3.17578 13.4102C3.28125 13.4102 3.45703 13.3398 3.5625 13.2344L11.6133 6.13281C11.6836 6.0625 11.8594 5.99219 12 5.99219C12.1055 5.99219 12.2812 6.0625 12.3516 6.13281L20.4023 13.2344C20.5078 13.3398 20.6836 13.375 20.7891 13.375C20.9297 13.375 21.1055 13.3047 21.2109 13.1992L21.9492 12.3555C22.0547 12.2852 22.125 12.1094 22.125 12.0039C22.125 11.8633 22.0195 11.6523 21.9141 11.582Z" fill="#808080"/>
</svg>
