<svg width="24" height="24" viewBox="0 0 24 24" fill="none" xmlns="http://www.w3.org/2000/svg">
<path d="M14.25 15.0625C14.25 15.3789 13.9688 15.625 13.6875 15.625H10.3125C9.99609 15.625 9.75 15.3789 9.75 15.0625V13.375H3V18.4375C3 19.3516 3.77344 20.125 4.6875 20.125H19.3125C20.1914 20.125 21 19.3516 21 18.4375V13.375H14.25V15.0625ZM19.3125 7.75H16.5V6.0625C16.5 5.18359 15.6914 4.375 14.8125 4.375H9.1875C8.27344 4.375 7.5 5.18359 7.5 6.0625V7.75H4.6875C3.77344 7.75 3 8.55859 3 9.4375V12.25H21V9.4375C21 8.55859 20.1914 7.75 19.3125 7.75ZM14.25 7.75H9.75V6.625H14.25V7.75Z" fill="#808080"/>
</svg>
