<svg width="24" height="24" viewBox="0 0 24 24" fill="none" xmlns="http://www.w3.org/2000/svg">
<path d="M3 9.15625C3 9.64844 3.35156 10 3.84375 10H17.2383L16.1836 10.9844C15.832 11.3359 15.832 11.8633 16.1836 12.2148L16.5352 12.5664C16.8867 12.918 17.4141 12.918 17.7305 12.5664L20.6484 9.68359C21.1055 9.26172 21.1055 8.52344 20.6484 8.10156L17.7305 5.21875C17.4141 4.86719 16.8867 4.86719 16.5352 5.21875L16.1836 5.57031C15.832 5.92188 15.832 6.44922 16.1836 6.80078L17.2383 7.75H3.84375C3.35156 7.75 3 8.13672 3 8.59375V9.15625ZM20.1562 14.5H6.72656L7.78125 13.5508C8.13281 13.1992 8.13281 12.6719 7.78125 12.3203L7.42969 11.9688C7.07812 11.6172 6.55078 11.6172 6.23438 11.9688L3.31641 14.8516C2.85938 15.2734 2.85938 16.0117 3.31641 16.4336L6.23438 19.3164C6.55078 19.668 7.07812 19.668 7.42969 19.3164L7.78125 18.9648C8.13281 18.6133 8.13281 18.0859 7.78125 17.7344L6.72656 16.75H20.1562C20.6133 16.75 21 16.3984 21 15.9062V15.3438C21 14.8867 20.6133 14.5 20.1562 14.5Z" fill="#808080"/>
</svg>
