<svg width="40" height="40" viewBox="0 0 40 40" fill="none" xmlns="http://www.w3.org/2000/svg">
<rect width="40" height="40" rx="20" fill="#6AB941" fill-opacity="0.12"/>
<path d="M24 20C24.2708 20 24.5052 20.099 24.7031 20.2969C24.901 20.4948 25 20.7292 25 21C25 21.2708 24.901 21.5052 24.7031 21.7031C24.5052 21.901 24.2708 22 24 22C23.7291 22 23.4948 21.901 23.2968 21.7031C23.0989 21.5052 23 21.2708 23 21C23 20.7292 23.0989 20.4948 23.2968 20.2969C23.4948 20.099 23.7291 20 24 20Z" fill="#6AB941"/>
<path fill-rule="evenodd" clip-rule="evenodd" d="M26.5 15C26.9166 15 27.2708 15.1458 27.5625 15.4375C27.8541 15.7292 28 16.0833 28 16.5V25C28 25.5625 27.8073 26.0364 27.4218 26.4218C27.0364 26.8073 26.5625 27 26 27H15C14.1667 27 13.4583 26.7083 12.875 26.125C12.2917 25.5416 12 24.8333 12 24V16C12 15.1667 12.2917 14.4583 12.875 13.875C13.4583 13.2917 14.1667 13 15 13H24.5C24.9166 13 25.2708 13.1458 25.5625 13.4375C25.8541 13.7292 26 14.0833 26 14.5V15H26.5ZM26.7031 25.7031C26.901 25.5052 27 25.2708 27 25V16.5C27 16.3542 26.9531 16.2344 26.8593 16.1406C26.7656 16.0469 26.6458 16 26.5 16H15.5C15.3542 16 15.2344 15.9531 15.1406 15.8594C15.0469 15.7656 15 15.6458 15 15.5C15 15.3542 15.0469 15.2344 15.1406 15.1406C15.2344 15.0469 15.3542 15 15.5 15H25V14.5C25 14.3542 24.9531 14.2344 24.8593 14.1406C24.7656 14.0469 24.6458 14 24.5 14H15C14.4583 14 13.9896 14.1979 13.5937 14.5937C13.1979 14.9896 13 15.4583 13 16V24C13 24.5416 13.1979 25.0104 13.5937 25.4062C13.9896 25.8021 14.4583 26 15 26H26C26.2708 26 26.5052 25.901 26.7031 25.7031Z" fill="#6AB941"/>
</svg>
