<svg width="18" height="19" viewBox="0 0 18 19" fill="none" xmlns="http://www.w3.org/2000/svg">
<path d="M9.00006 14.875C13.0079 14.875 16.3126 11.6055 16.3126 7.5625C16.3126 3.55469 13.0079 0.25 9.00006 0.25C4.95709 0.25 1.68756 3.55469 1.68756 7.5625C1.68756 11.6055 4.95709 14.875 9.00006 14.875ZM8.19147 3.69531V3.09766C8.19147 2.78125 8.47272 2.5 8.78912 2.5H9.17584C9.49225 2.5 9.7735 2.78125 9.7735 3.09766V3.69531C10.3008 3.73047 10.8282 3.90625 11.2852 4.22266C11.461 4.39844 11.4962 4.67969 11.3204 4.85547L10.7579 5.38281C10.6172 5.52344 10.4063 5.52344 10.2657 5.41797C10.0547 5.3125 9.84381 5.24219 9.63287 5.24219H8.26178C7.94537 5.24219 7.69928 5.52344 7.69928 5.875C7.69928 6.15625 7.87506 6.4375 8.12115 6.50781L10.3008 7.17578C11.2149 7.42188 11.8477 8.30078 11.8477 9.28516C11.8477 10.4805 10.8985 11.4297 9.7735 11.4648V12.0625C9.7735 12.3789 9.49225 12.625 9.17584 12.625H8.78912C8.47272 12.625 8.19147 12.3789 8.19147 12.0625V11.4648C7.66412 11.4297 7.13678 11.2539 6.67975 10.9023C6.50397 10.7617 6.46881 10.4805 6.64459 10.3047L7.20709 9.77734C7.34772 9.63672 7.55865 9.63672 7.69928 9.74219C7.91022 9.84766 8.12115 9.91797 8.33209 9.91797H9.70319C10.0196 9.91797 10.2657 9.63672 10.2657 9.28516C10.2657 8.96875 10.0899 8.72266 9.84381 8.65234L7.66412 7.98438C6.75006 7.73828 6.11725 6.85938 6.11725 5.875C6.11725 4.67969 7.06647 3.73047 8.19147 3.69531ZM16.8751 12.625H15.7149C15.0118 13.5391 14.1329 14.3125 13.1485 14.875H15.3985C15.5743 14.875 15.7149 15.0156 15.7149 15.1562V15.7188C15.7149 15.8945 15.5743 16 15.3985 16H2.56647C2.39069 16 2.25006 15.8945 2.25006 15.7188V15.1562C2.25006 15.0156 2.39069 14.875 2.56647 14.875H4.81647C3.83209 14.3125 2.95319 13.5391 2.25006 12.625H1.12506C0.492249 12.625 6.10352e-05 13.1523 6.10352e-05 13.75V17.125C6.10352e-05 17.7578 0.492249 18.25 1.12506 18.25H16.8751C17.4727 18.25 18.0001 17.7578 18.0001 17.125V13.75C18.0001 13.1523 17.4727 12.625 16.8751 12.625Z" fill="#808080"/>
</svg>
