<svg width="57" height="40" viewBox="0 0 57 40" fill="none" xmlns="http://www.w3.org/2000/svg">
    <path fill-rule="evenodd" clip-rule="evenodd"
        d="M11.9858 17.8221C11.9973 18.4416 12.3323 19.0822 13.0025 20.3635L16.7967 27.6178L16.5512 26.1049C16.1918 23.8907 16.0121 22.7836 16.313 21.8698C16.5667 21.0998 17.0517 20.4268 17.702 19.9427C18.4736 19.3681 19.5807 19.1884 21.795 18.829L25.5791 18.2148C24.7463 15.2916 26.046 12.0874 28.8454 10.6232C32.0506 8.94685 36.0078 10.1861 37.6841 13.3912C38.143 14.2685 38.3834 15.2021 38.4248 16.1298L48.6322 14.473C49.9174 14.2644 50.8296 14.1164 51.5475 14.0877C51.3789 13.6747 51.1168 13.1735 50.7593 12.49L45.8826 3.1661C45.2124 1.88484 44.8774 1.24422 44.3751 0.881467C43.9141 0.548512 43.3575 0.374198 42.7889 0.384728C42.1695 0.396201 41.5289 0.731268 40.2476 1.4014L14.7672 14.7285C13.4859 15.3987 12.8453 15.7337 12.4825 16.236C12.1496 16.697 11.9753 17.2536 11.9858 17.8221ZM35.0173 16.6829L34.4575 15.6126L34.6681 15.5024L35.9069 16.2813L36.8504 15.7878L35.2516 14.9156C35.4977 14.5383 35.5275 14.1714 35.341 13.8148C35.0238 13.2083 34.4468 13.1239 33.6101 13.5615L32.6013 14.0891L34.0408 16.8414L35.0173 16.6829ZM33.2929 16.9628L32.034 16.1426L32.2833 14.2555L31.3736 14.7313L31.2205 16.0129C31.1867 16.2594 31.1705 16.4351 31.1717 16.54L30.4722 15.2027L29.6362 15.64L30.56 17.4063L31.5474 17.2461L31.7132 16.9755L31.9953 17.1734L33.2929 16.9628ZM29.8276 17.5252C29.8332 17.3196 29.7765 17.1031 29.6577 16.8759C29.4939 16.5628 29.2701 16.3724 28.9861 16.3046C28.7021 16.2367 28.3656 16.3045 27.9767 16.5079L26.9111 17.0653L27.3611 17.9256L28.3376 17.7671L28.0943 17.302L28.3091 17.1897C28.5394 17.0692 28.7088 17.1129 28.8175 17.3207C28.8821 17.4442 28.8956 17.5606 28.8579 17.6697C28.8564 17.6743 28.8547 17.6789 28.853 17.6834L29.8276 17.5252ZM34.1304 14.9871L34.2862 14.9056C34.5768 14.7536 34.655 14.5491 34.5206 14.2922C34.4097 14.0802 34.2118 14.0487 33.9268 14.1978L33.7625 14.2837L34.1304 14.9871Z"
        fill="black" />
    <path fill-rule="evenodd" clip-rule="evenodd"
        d="M11.9858 17.8221C11.9973 18.4416 12.3323 19.0822 13.0025 20.3635L16.7967 27.6178L16.5512 26.1049C16.1918 23.8907 16.0121 22.7836 16.313 21.8698C16.5667 21.0998 17.0517 20.4268 17.702 19.9427C18.4736 19.3681 19.5807 19.1884 21.795 18.829L25.5791 18.2148C24.7463 15.2916 26.046 12.0874 28.8454 10.6232C32.0506 8.94685 36.0078 10.1861 37.6841 13.3912C38.143 14.2685 38.3834 15.2021 38.4248 16.1298L48.6322 14.473C49.9174 14.2644 50.8296 14.1164 51.5475 14.0877C51.3789 13.6747 51.1168 13.1735 50.7593 12.49L45.8826 3.1661C45.2124 1.88484 44.8774 1.24422 44.3751 0.881467C43.9141 0.548512 43.3575 0.374198 42.7889 0.384728C42.1695 0.396201 41.5289 0.731268 40.2476 1.4014L14.7672 14.7285C13.4859 15.3987 12.8453 15.7337 12.4825 16.236C12.1496 16.697 11.9753 17.2536 11.9858 17.8221ZM35.0173 16.6829L34.4575 15.6126L34.6681 15.5024L35.9069 16.2813L36.8504 15.7878L35.2516 14.9156C35.4977 14.5383 35.5275 14.1714 35.341 13.8148C35.0238 13.2083 34.4468 13.1239 33.6101 13.5615L32.6013 14.0891L34.0408 16.8414L35.0173 16.6829ZM33.2929 16.9628L32.034 16.1426L32.2833 14.2555L31.3736 14.7313L31.2205 16.0129C31.1867 16.2594 31.1705 16.4351 31.1717 16.54L30.4722 15.2027L29.6362 15.64L30.56 17.4063L31.5474 17.2461L31.7132 16.9755L31.9953 17.1734L33.2929 16.9628ZM29.8276 17.5252C29.8332 17.3196 29.7765 17.1031 29.6577 16.8759C29.4939 16.5628 29.2701 16.3724 28.9861 16.3046C28.7021 16.2367 28.3656 16.3045 27.9767 16.5079L26.9111 17.0653L27.3611 17.9256L28.3376 17.7671L28.0943 17.302L28.3091 17.1897C28.5394 17.0692 28.7088 17.1129 28.8175 17.3207C28.8821 17.4442 28.8956 17.5606 28.8579 17.6697C28.8564 17.6743 28.8547 17.6789 28.853 17.6834L29.8276 17.5252ZM34.1304 14.9871L34.2862 14.9056C34.5768 14.7536 34.655 14.5491 34.5206 14.2922C34.4097 14.0802 34.2118 14.0487 33.9268 14.1978L33.7625 14.2837L34.1304 14.9871Z"
        fill="url(#paint0_linear_1243_32046)" />
    <path fill-rule="evenodd" clip-rule="evenodd"
        d="M17.8524 25.1123C17.6181 23.6855 17.5009 22.9721 17.6844 22.3803C17.8528 21.8372 18.1929 21.3634 18.6537 21.0301C19.1557 20.667 19.8691 20.5499 21.2959 20.3156L49.6711 15.6556C51.0979 15.4213 51.8113 15.3041 52.4031 15.4876C52.9462 15.656 53.4201 15.9961 53.7533 16.4569C54.1164 16.9589 54.2335 17.6723 54.4679 19.0991L56.173 29.4822C56.4074 30.909 56.5245 31.6224 56.3411 32.2142C56.1727 32.7574 55.8325 33.2312 55.3718 33.5644C54.8697 33.9275 54.1563 34.0447 52.7295 34.279L24.3544 38.9389C22.9275 39.1733 22.2141 39.2904 21.6224 39.107C21.0792 38.9386 20.6054 38.5984 20.2721 38.1377C19.9091 37.6357 19.7919 36.9222 19.5576 35.4954L17.8524 25.1123ZM43.4755 26.236C44.0616 29.8052 41.6434 33.1738 38.0742 33.76C34.505 34.3461 31.1364 31.9279 30.5502 28.3587C29.964 24.7895 32.3823 21.4209 35.9515 20.8347C39.5207 20.2485 42.8893 22.6668 43.4755 26.236ZM34.7611 27.0265C34.824 27.4095 34.7593 27.7244 34.567 27.9712C34.376 28.2161 34.0726 28.3727 33.6567 28.441L33.3964 28.4837L33.5832 29.6211L32.6569 29.7732L32.0938 26.3446L33.2804 26.1497C33.7135 26.0786 34.0542 26.1198 34.3026 26.2733C34.551 26.4268 34.7038 26.6778 34.7611 27.0265ZM33.2724 27.7286L33.4412 27.7008C33.5804 27.678 33.6842 27.6208 33.7527 27.5293C33.8227 27.4375 33.8464 27.3228 33.8238 27.1852C33.7858 26.9538 33.6386 26.8592 33.3822 26.9013L33.143 26.9406L33.2724 27.7286ZM38.6206 28.7938L37.5747 28.9656L36.6816 27.766L36.4342 27.9752L36.6225 29.122L35.6915 29.2749L35.1284 25.8463L36.0595 25.6934L36.304 27.1825C36.3358 27.0826 36.4064 26.9209 36.5158 26.6974L37.0632 25.5285L38.0763 25.3621L37.2474 27.0758L38.6206 28.7938ZM39.9198 28.5805L39.7149 27.3329L39.9495 27.2943L40.8814 28.4226L41.932 28.25L40.6876 26.9202C41.0397 26.6392 41.1831 26.3002 41.1179 25.9031C41.0069 25.2277 40.4856 24.9665 39.5538 25.1195L38.4304 25.304L38.9935 28.7326L39.9198 28.5805ZM39.7741 26.6078L39.6006 26.6363L39.4719 25.8531L39.6548 25.823C39.9722 25.7709 40.1503 25.8629 40.1891 26.0989C40.2361 26.3851 40.0977 26.5547 39.7741 26.6078Z"
        fill="black" />
    <path fill-rule="evenodd" clip-rule="evenodd"
        d="M17.8524 25.1123C17.6181 23.6855 17.5009 22.9721 17.6844 22.3803C17.8528 21.8372 18.1929 21.3634 18.6537 21.0301C19.1557 20.667 19.8691 20.5499 21.2959 20.3156L49.6711 15.6556C51.0979 15.4213 51.8113 15.3041 52.4031 15.4876C52.9462 15.656 53.4201 15.9961 53.7533 16.4569C54.1164 16.9589 54.2335 17.6723 54.4679 19.0991L56.173 29.4822C56.4074 30.909 56.5245 31.6224 56.3411 32.2142C56.1727 32.7574 55.8325 33.2312 55.3718 33.5644C54.8697 33.9275 54.1563 34.0447 52.7295 34.279L24.3544 38.9389C22.9275 39.1733 22.2141 39.2904 21.6224 39.107C21.0792 38.9386 20.6054 38.5984 20.2721 38.1377C19.9091 37.6357 19.7919 36.9222 19.5576 35.4954L17.8524 25.1123ZM43.4755 26.236C44.0616 29.8052 41.6434 33.1738 38.0742 33.76C34.505 34.3461 31.1364 31.9279 30.5502 28.3587C29.964 24.7895 32.3823 21.4209 35.9515 20.8347C39.5207 20.2485 42.8893 22.6668 43.4755 26.236ZM34.7611 27.0265C34.824 27.4095 34.7593 27.7244 34.567 27.9712C34.376 28.2161 34.0726 28.3727 33.6567 28.441L33.3964 28.4837L33.5832 29.6211L32.6569 29.7732L32.0938 26.3446L33.2804 26.1497C33.7135 26.0786 34.0542 26.1198 34.3026 26.2733C34.551 26.4268 34.7038 26.6778 34.7611 27.0265ZM33.2724 27.7286L33.4412 27.7008C33.5804 27.678 33.6842 27.6208 33.7527 27.5293C33.8227 27.4375 33.8464 27.3228 33.8238 27.1852C33.7858 26.9538 33.6386 26.8592 33.3822 26.9013L33.143 26.9406L33.2724 27.7286ZM38.6206 28.7938L37.5747 28.9656L36.6816 27.766L36.4342 27.9752L36.6225 29.122L35.6915 29.2749L35.1284 25.8463L36.0595 25.6934L36.304 27.1825C36.3358 27.0826 36.4064 26.9209 36.5158 26.6974L37.0632 25.5285L38.0763 25.3621L37.2474 27.0758L38.6206 28.7938ZM39.9198 28.5805L39.7149 27.3329L39.9495 27.2943L40.8814 28.4226L41.932 28.25L40.6876 26.9202C41.0397 26.6392 41.1831 26.3002 41.1179 25.9031C41.0069 25.2277 40.4856 24.9665 39.5538 25.1195L38.4304 25.304L38.9935 28.7326L39.9198 28.5805ZM39.7741 26.6078L39.6006 26.6363L39.4719 25.8531L39.6548 25.823C39.9722 25.7709 40.1503 25.8629 40.1891 26.0989C40.2361 26.3851 40.0977 26.5547 39.7741 26.6078Z"
        fill="url(#paint1_linear_1243_32046)" />
    <path fill-rule="evenodd" clip-rule="evenodd"
        d="M10.2935 19.9126C10.7225 20.7077 10.4227 21.7045 9.62377 22.1388L2.93598 25.7752C2.13706 26.2095 1.14159 25.9171 0.712554 25.122C0.283515 24.3269 0.583367 23.3302 1.38229 22.8958L8.07008 19.2595C8.86901 18.8251 9.86447 19.1175 10.2935 19.9126Z"
        fill="black" />
    <path fill-rule="evenodd" clip-rule="evenodd"
        d="M10.2935 19.9126C10.7225 20.7077 10.4227 21.7045 9.62377 22.1388L2.93598 25.7752C2.13706 26.2095 1.14159 25.9171 0.712554 25.122C0.283515 24.3269 0.583367 23.3302 1.38229 22.8958L8.07008 19.2595C8.86901 18.8251 9.86447 19.1175 10.2935 19.9126Z"
        fill="url(#paint2_linear_1243_32046)" />
    <path fill-rule="evenodd" clip-rule="evenodd"
        d="M10.0308 26.8849C10.4599 27.68 10.16 28.6767 9.36107 29.1111L2.67329 32.7474C1.87436 33.1818 0.878898 32.8894 0.449858 32.0943C0.0208192 31.2992 0.320672 30.3025 1.1196 29.8681L7.80738 26.2318C8.60631 25.7974 9.60177 26.0898 10.0308 26.8849Z"
        fill="black" />
    <path fill-rule="evenodd" clip-rule="evenodd"
        d="M10.0308 26.8849C10.4599 27.68 10.16 28.6767 9.36107 29.1111L2.67329 32.7474C1.87436 33.1818 0.878898 32.8894 0.449858 32.0943C0.0208192 31.2992 0.320672 30.3025 1.1196 29.8681L7.80738 26.2318C8.60631 25.7974 9.60177 26.0898 10.0308 26.8849Z"
        fill="url(#paint3_linear_1243_32046)" />
    <path fill-rule="evenodd" clip-rule="evenodd"
        d="M15.858 30.7823C16.287 31.5774 15.9871 32.5741 15.1882 33.0085L8.50044 36.6448C7.70151 37.0792 6.70605 36.7868 6.27701 35.9917C5.84797 35.1966 6.14782 34.1999 6.94675 33.7655L13.6345 30.1292C14.4335 29.6948 15.4289 29.9872 15.858 30.7823Z"
        fill="black" />
    <path fill-rule="evenodd" clip-rule="evenodd"
        d="M15.858 30.7823C16.287 31.5774 15.9871 32.5741 15.1882 33.0085L8.50044 36.6448C7.70151 37.0792 6.70605 36.7868 6.27701 35.9917C5.84797 35.1966 6.14782 34.1999 6.94675 33.7655L13.6345 30.1292C14.4335 29.6948 15.4289 29.9872 15.858 30.7823Z"
        fill="url(#paint4_linear_1243_32046)" />
    <defs>
        <linearGradient id="paint0_linear_1243_32046" x1="14.4139" y1="-3.05183" x2="25.3686"
            y2="47.818" gradientUnits="userSpaceOnUse">
            <stop stop-color="#A9E0FF" />
            <stop offset="1" stop-color="#2DE2E2" />
        </linearGradient>
        <linearGradient id="paint1_linear_1243_32046" x1="19.0376" y1="18.2733" x2="30.5166"
            y2="52.847" gradientUnits="userSpaceOnUse">
            <stop stop-color="#A9E0FF" />
            <stop offset="1" stop-color="#2DE2E2" />
        </linearGradient>
        <linearGradient id="paint2_linear_1243_32046" x1="1.54646" y1="17.7069" x2="3.92446"
            y2="31.3724" gradientUnits="userSpaceOnUse">
            <stop stop-color="#A9E0FF" />
            <stop offset="1" stop-color="#2DE2E2" />
        </linearGradient>
        <linearGradient id="paint3_linear_1243_32046" x1="1.28377" y1="24.6792" x2="3.66176"
            y2="38.3446" gradientUnits="userSpaceOnUse">
            <stop stop-color="#A9E0FF" />
            <stop offset="1" stop-color="#2DE2E2" />
        </linearGradient>
        <linearGradient id="paint4_linear_1243_32046" x1="7.11092" y1="28.5765" x2="9.48891"
            y2="42.242" gradientUnits="userSpaceOnUse">
            <stop stop-color="#A9E0FF" />
            <stop offset="1" stop-color="#2DE2E2" />
        </linearGradient>
    </defs>
</svg>
