<svg width="28" height="28" viewBox="0 0 28 28" fill="none" xmlns="http://www.w3.org/2000/svg">
<path d="M5.60001 8.07101L8.14311 12.6166V15.3893L5.60298 19.926L5.60001 8.07101Z" fill="#5B57A2"/>
<path d="M15.3645 10.9625L17.7474 9.50199L22.6243 9.49744L15.3645 13.9449V10.9625Z" fill="#D90751"/>
<path d="M15.351 8.04423L15.3645 14.0625L12.8154 12.4962V3.5L15.3512 8.04423H15.351Z" fill="#FAB718"/>
<path d="M22.6244 9.49743L17.7473 9.50198L15.351 8.04423L12.8154 3.5L22.6242 9.49743H22.6244Z" fill="#ED6F26"/>
<path d="M15.3645 19.9512V17.0313L12.8154 15.4948L12.8168 24.5L15.3645 19.9512Z" fill="#63B22F"/>
<path d="M17.7415 18.504L8.14293 12.6166L5.60001 8.07101L22.614 18.498L17.7413 18.504H17.7415Z" fill="#1487C9"/>
<path d="M12.817 24.5L15.3643 19.9512L17.7413 18.504L22.6139 18.498L12.817 24.5Z" fill="#017F36"/>
<path d="M5.60298 19.926L12.8363 15.495L10.4045 14.003L8.14311 15.3893L5.60298 19.926Z" fill="#984995"/>
</svg>
