<svg width="22" height="19" viewBox="0 0 22 19" fill="none" xmlns="http://www.w3.org/2000/svg">
<path d="M21.3359 4.43359L19.0508 0.777344C18.8398 0.460938 18.4883 0.25 18.1016 0.25H3.89844C3.51172 0.25 3.125 0.460938 2.91406 0.777344L0.664062 4.43359C-0.53125 6.33203 0.523438 8.93359 2.70312 9.21484C2.87891 9.25 3.01953 9.25 3.19531 9.25C4.25 9.25 5.16406 8.79297 5.79688 8.08984C6.42969 8.79297 7.34375 9.25 8.39844 9.25C9.41797 9.25 10.332 8.79297 10.9648 8.08984C11.5977 8.79297 12.5469 9.25 13.5664 9.25C14.6211 9.25 15.5352 8.79297 16.168 8.08984C16.8008 8.79297 17.7148 9.25 18.7695 9.25C18.9453 9.25 19.0859 9.25 19.2617 9.21484C21.4414 8.93359 22.4961 6.33203 21.3359 4.43359ZM18.7695 10.375C18.418 10.375 18.0664 10.3398 17.75 10.2695V13.75H4.25V10.2695C3.89844 10.3398 3.54688 10.375 3.19531 10.375C2.98438 10.375 2.77344 10.375 2.5625 10.3398C2.35156 10.3047 2.17578 10.2695 2 10.2344V17.125C2 17.7578 2.49219 18.25 3.125 18.25H18.875C19.4727 18.25 20 17.7578 20 17.125V10.2344C19.7891 10.2695 19.6133 10.3398 19.4023 10.3398C19.1914 10.375 18.9805 10.375 18.7695 10.375Z" fill="#808080"/>
</svg>
