<svg width="18" height="16" viewBox="0 0 18 16" fill="none" xmlns="http://www.w3.org/2000/svg">
<path fill-rule="evenodd" clip-rule="evenodd" d="M4.99999 15V14H0.999998V5.99999H13V6.99998H14V5.99999C14 5.44799 13.552 4.99999 13 4.99999H9.99998V2.99999C9.99998 1.34399 8.65598 0 6.99998 0C5.34398 0 3.99999 1.34399 3.99999 2.99999V4.99999H0.999998C0.447997 4.99999 0 5.44799 0 5.99999V14C0 14.552 0.447997 15 0.999998 15H4.99999ZM8.99998 4.99999H4.99999V2.99999C4.99999 1.89599 5.89598 0.999998 6.99998 0.999998C8.10398 0.999998 8.99998 1.89599 8.99998 2.99999V4.99999ZM18 15C18 15.552 17.552 16 17 16H6.99998C6.44798 16 5.99999 15.552 5.99999 15V8.99998C5.99999 8.44798 6.44798 7.99998 6.99998 7.99998H17C17.552 7.99998 18 8.44798 18 8.99998V15ZM17 15H6.99998V8.99998H17V15ZM15 11C14.998 12.6561 13.6523 14.0002 11.9962 14.0002C11.8879 14.0002 11.7127 13.9888 11.6053 13.9747C10.0937 13.7812 8.99998 12.4203 8.99998 10.8956V10.25C8.99998 10.112 9.11198 9.99998 9.24998 9.99998H9.74998C9.88798 9.99998 9.99998 10.112 9.99998 10.25V10.9112C9.99998 11.9553 10.7615 12.8893 11.8006 12.9903C11.8549 12.9957 11.9432 13 11.9978 13C13.1018 13 13.9988 12.104 14 11V10.25C14 10.112 14.112 9.99998 14.25 9.99998H14.75C14.888 9.99998 15 10.112 15 10.25V11Z" fill="#CB11AB"/>
</svg>
