<svg width="23" height="7" viewBox="0 0 23 7" fill="none" xmlns="http://www.w3.org/2000/svg">
<path d="M0.7603 5.99999H1.63814V3.46306H4.10973V2.71022H1.63814V0.937492H4.36825V0.18181H0.7603V5.99999Z" fill="#CB11AB"/>
<path d="M10.5018 3.0909C10.5018 1.23011 9.38814 0.102264 7.88246 0.102264C6.3711 0.102264 5.2603 1.23011 5.2603 3.0909C5.2603 4.94886 6.3711 6.07954 7.88246 6.07954C9.38814 6.07954 10.5018 4.9517 10.5018 3.0909ZM9.63246 3.0909C9.63246 4.50851 8.88246 5.2784 7.88246 5.2784C6.87962 5.2784 6.13246 4.50851 6.13246 3.0909C6.13246 1.67329 6.87962 0.903401 7.88246 0.903401C8.88246 0.903401 9.63246 1.67329 9.63246 3.0909Z" fill="#CB11AB"/>
<path d="M16.6502 3.0909C16.6502 1.23011 15.5366 0.102264 14.0309 0.102264C12.5195 0.102264 11.4087 1.23011 11.4087 3.0909C11.4087 4.94886 12.5195 6.07954 14.0309 6.07954C15.5366 6.07954 16.6502 4.9517 16.6502 3.0909ZM15.7809 3.0909C15.7809 4.50851 15.0309 5.2784 14.0309 5.2784C13.0281 5.2784 12.2809 4.50851 12.2809 3.0909C12.2809 1.67329 13.0281 0.903401 14.0309 0.903401C15.0309 0.903401 15.7809 1.67329 15.7809 3.0909Z" fill="#CB11AB"/>
<path d="M19.6282 5.99999C21.4009 5.99999 22.4265 4.90056 22.4265 3.08238C22.4265 1.27272 21.4009 0.18181 19.6879 0.18181H17.7447V5.99999H19.6282ZM18.6225 5.23295V0.948855H19.6339C20.9066 0.948855 21.5629 1.71022 21.5629 3.08238C21.5629 4.46022 20.9066 5.23295 19.5799 5.23295H18.6225Z" fill="#CB11AB"/>
</svg>
