<svg width="24" height="24" viewBox="0 0 24 24" fill="none" xmlns="http://www.w3.org/2000/svg">
<path fill-rule="evenodd" clip-rule="evenodd" d="M21.8435 18C21.9672 18 22.0724 17.9567 22.159 17.8701C22.2455 17.7835 22.2888 17.6784 22.2888 17.5547V17.2578C22.2888 17.1341 22.2455 17.029 22.159 16.9424C22.0724 16.8558 21.9672 16.8125 21.8435 16.8125H4.47638V4.19534C4.47638 4.07164 4.43308 3.9665 4.34649 3.87991C4.25991 3.79332 4.15476 3.75003 4.03107 3.75003H3.73419C3.61049 3.75003 3.50535 3.79332 3.41876 3.87991C3.33217 3.9665 3.28888 4.07164 3.28888 4.19534V17.5547C3.28888 17.6784 3.33217 17.7835 3.41876 17.8701C3.50535 17.9567 3.61049 18 3.73419 18H21.8435ZM21.1013 15.625L17.7615 7.57229C17.6873 7.44859 17.5883 7.36819 17.4646 7.33108C17.3409 7.29397 17.2172 7.31252 17.0935 7.38674L13.9764 9.39064L10.785 6.23635C10.686 6.16213 10.5685 6.12502 10.4324 6.12502C10.2963 6.12502 10.1912 6.1745 10.117 6.27346L5.66387 12.0625V15.625H21.1013ZM19.3201 14.4375H6.85137V12.4707L10.5252 7.6094L13.8279 10.9121L17.0193 8.79689L19.3201 14.4375Z" fill="#CB11AB"/>
</svg>
