<svg width="72" height="72" viewBox="0 0 72 72" fill="none" xmlns="http://www.w3.org/2000/svg">
<rect width="72" height="72" rx="24" fill="#EBEBEB"/>
<path d="M21.6 25.836L25.9596 33.6285V38.3817L21.6051 46.1589L21.6 25.836Z" fill="#5B57A2"/>
<path d="M38.3391 30.7929L42.4241 28.2891L50.7845 28.2813L38.3391 35.9055V30.7929Z" fill="#D90751"/>
<path d="M38.316 25.7901L38.3391 36.1071L33.9693 33.4221V18L38.3163 25.7901H38.316Z" fill="#FAB718"/>
<path d="M50.7846 28.2813L42.4239 28.2891L38.316 25.7901L33.9693 18L50.7843 28.2813H50.7846Z" fill="#ED6F26"/>
<path d="M38.3391 46.2021V41.1966L33.9693 38.5626L33.9717 54L38.3391 46.2021Z" fill="#63B22F"/>
<path d="M42.414 43.7211L25.9593 33.6285L21.6 25.836L50.7669 43.7109L42.4137 43.7211H42.414Z" fill="#1487C9"/>
<path d="M33.972 54L38.3388 46.2021L42.4137 43.7211L50.7666 43.7109L33.972 54Z" fill="#017F36"/>
<path d="M21.605 46.1589L34.0049 38.5629L29.8361 36.0051L25.9595 38.3817L21.605 46.1589Z" fill="#984995"/>
</svg>
