<svg width="252" height="30" viewBox="0 0 252 30" fill="none" xmlns="http://www.w3.org/2000/svg">
<path fill-rule="evenodd" clip-rule="evenodd" d="M7.89995 29.1L0.199951 0.700012H5.29995L11.2 22.5L17.5 0.700012H22.2L28.5999 22.6L34.5 0.700012H39.5999L31.9 29.1H26.0999L20 7.90001L13.7999 29.1H7.89995ZM42.9 0.700012H47.6999V29.1H42.9V0.700012ZM57.9 24.6H69.5V29.1H53.1999V0.700012H57.9V24.6ZM84.3 0.800011C88.2 0.800011 91.4999 2.20001 94.0999 4.90001C96.6999 7.60001 98 11 98 15C98 18.9 96.6999 22.3 94.0999 25.1C91.4999 27.8 88.2 29.2 84.3 29.2H73.0999V0.700012L84.3 0.800011ZM84.3 24.7C87 24.7 89.2 23.8 90.8999 22C92.5999 20.2 93.5 17.8 93.5 15C93.5 12.2 92.5999 9.90001 90.8999 8.00001C89.2 6.20001 87 5.30001 84.3 5.30001H77.8V24.7H84.3ZM123.3 21C123.3 23.3 122.5 25.2 120.8 26.8C119.1 28.3 117.1 29.1 114.7 29.1H102.4V0.700012H113.8C116.2 0.700012 118.1 1.50001 119.8 3.00001C121.5 4.50001 122.3 6.40001 122.3 8.60001C122.3 11.1 121.3 13 119.4 14.4C121.8 15.7 123.3 18.1 123.3 21ZM107.2 5.10001V12.6H113.9C116 12.6 117.6 11 117.6 8.80001C117.6 6.70001 116 5.00001 113.9 5.00001L107.2 5.10001ZM114.7 24.7C116.9 24.7 118.6 23 118.6 20.8C118.6 18.6 116.9 16.9 114.7 16.9H107.1V24.8L114.7 24.7ZM132.5 24.6H145.2V29.1H127.8V0.700012H145V5.20001H132.5V12.6H144V17H132.5V24.6ZM165.7 29.1L159.6 18.8H154.1V29.1H149.4V0.700012H160.9C163.5 0.700012 165.7 1.60001 167.4 3.40001C169.2 5.10001 170.1 7.30001 170.1 9.80001C170.1 13.4 167.8 16.7 164.4 18L170.9 29H165.7V29.1ZM154.1 5.10001V14.6H160.8C163.3 14.6 165.3 12.5 165.3 9.80001C165.3 7.20001 163.3 5.00001 160.8 5.00001L154.1 5.10001ZM190.8 29.1L184.7 18.8H179.2V29.1H174.5V0.700012H186C188.6 0.700012 190.8 1.60001 192.5 3.40001C194.3 5.10001 195.2 7.30001 195.2 9.80001C195.2 13.4 192.9 16.7 189.5 18L196.1 29H190.8V29.1ZM179.2 5.10001V14.6H185.9C188.4 14.6 190.4 12.5 190.4 9.80001C190.4 7.20001 188.4 5.00001 185.9 5.00001L179.2 5.10001ZM199.5 0.700012H204.2V29.1H199.5V0.700012ZM214.4 24.6H227.1V29.1H209.7V0.700012H226.9V5.20001H214.4V12.6H225.9V17H214.4V24.6ZM230.4 22.7L234.4 20.3C235.6 23.5 237.9 25.1 241.5 25.1C245.1 25.1 246.8 23.6 246.8 21.3C246.8 20.1 246.3 19.3 245.4 18.7C244.5 18.1 242.8 17.4 240.3 16.7C237.6 15.9 236.2 15.4 234.3 14.1C232.5 12.8 231.5 10.9 231.5 8.40001C231.5 5.90001 232.4 3.90001 234.2 2.40001C236 0.900009 238.1 0.200012 240.7 0.200012C245.3 0.200012 248.8 2.60001 250.7 6.50001L246.8 8.80001C245.6 6.20001 243.6 4.90001 240.8 4.90001C238.1 4.90001 236.3 6.30001 236.3 8.40001C236.3 10.5 237.7 11.5 242.1 12.8C243.2 13.1 244 13.4 244.5 13.6C245 13.7 245.7 14.1 246.6 14.4C247.5 14.7 248.2 15.2 248.7 15.6C250.2 16.8 251.8 18.7 251.6 21.4C251.6 24 250.7 26 248.8 27.5C247 29 244.5 29.7 241.5 29.7C235.9 29.6 231.9 27 230.4 22.7Z" fill="white"/>
</svg>
