<svg width="40" height="40" viewBox="0 0 40 40" fill="none" xmlns="http://www.w3.org/2000/svg">
<path fill-rule="evenodd" clip-rule="evenodd" d="M20.6342 18.0631C20.6126 19.8335 22.1561 20.8215 23.3189 21.4088C24.5136 22.0115 24.9149 22.398 24.9104 22.9369C24.9012 23.7618 23.9573 24.1258 23.0738 24.14C21.5325 24.1648 20.6365 23.7086 19.924 23.3635L19.3688 26.0569C20.0836 26.3985 21.4071 26.6963 22.7797 26.7093C26.0013 26.7093 28.1092 25.0606 28.1206 22.5044C28.1331 19.2603 23.792 19.0806 23.8217 17.6305C23.8319 17.1909 24.2366 16.7217 25.1235 16.6024C25.5624 16.5421 26.7743 16.496 28.148 17.1519L28.6872 14.546C27.9485 14.2671 26.9988 14 25.8167 14C22.7843 14 20.6513 15.6711 20.6342 18.0631ZM33.8685 14.2245C33.2802 14.2245 32.7843 14.5803 32.5632 15.1263L27.961 26.5178H31.1804L31.821 24.6825H35.7552L36.1268 26.5178H38.9643L36.4882 14.2245H33.8685ZM34.3188 17.5455L35.2479 22.1616H32.7034L34.3188 17.5455ZM16.7309 14.2245L14.1932 26.5178H17.261L19.7975 14.2245H16.7309ZM12.1925 14.2245L8.99938 22.5918L7.70776 15.4773C7.55614 14.6831 6.95764 14.2245 6.29302 14.2245H1.07296L1 14.5814C2.0716 14.8225 3.28912 15.2114 4.0267 15.6274C4.47814 15.8814 4.60696 16.1036 4.75516 16.7075L7.2016 26.5178H10.4438L15.4142 14.2245H12.1925Z" fill="url(#paint0_linear)"/>
<defs>
<linearGradient id="paint0_linear" x1="22.1613" y1="33.0639" x2="29.2043" y2="9.61012" gradientUnits="userSpaceOnUse">
<stop stop-color="#222357"/>
<stop offset="1" stop-color="#254AA4"/>
</linearGradient>
</defs>
</svg>
