<svg xmlns="http://www.w3.org/2000/svg" xmlns:xlink="http://www.w3.org/1999/xlink" viewBox="0 0 241.06 150"><defs><clipPath id="a"><rect width="241.06" height="150" style="fill:none"/></clipPath><linearGradient id="b" x1="50.32" y1="328.27" x2="185.71" y2="542.97" gradientTransform="translate(0 -360)" gradientUnits="userSpaceOnUse"><stop offset="0" stop-color="#d2a7ff"/><stop offset="1" stop-color="#7d34c8"/></linearGradient><linearGradient id="c" x1="191.28" y1="405.56" x2="231.57" y2="463.08" xlink:href="#b"/><linearGradient id="d" x1="189.01" y1="422.77" x2="213.51" y2="447.25" gradientTransform="translate(0 -360)" gradientUnits="userSpaceOnUse"><stop offset="0" stop-color="#7d34c8"/><stop offset="1" stop-color="#d2a7ff"/></linearGradient></defs><g style="clip-path:url(#a)"><path d="M0,3.06A3.07,3.07,0,0,1,3.06,0H228.82A9.18,9.18,0,0,1,238,9.18V140.82a9.18,9.18,0,0,1-9.18,9.18H3.06A3.07,3.07,0,0,1,0,146.94Z" style="fill:url(#b)"/><path d="M2.25,10.71H0V9.18H2.25Zm9,0H6.75V9.18h4.5Zm9,0h-4.5V9.18h4.5Zm9,0h-4.5V9.18h4.5Zm9,0h-4.5V9.18h4.51Zm9,0h-4.5V9.18h4.5Zm9,0h-4.5V9.18h4.5Zm9,0h-4.5V9.18h4.5Zm9,0h-4.5V9.18h4.48Zm9,0h-4.5V9.18h4.5Zm9,0h-4.5V9.18h4.5Zm9,0h-4.5V9.18h4.5Zm9,0h-4.5V9.18h4.5Zm9,0h-4.5V9.18h4.5Zm9,0h-4.48V9.18h4.49Zm9,0h-4.5V9.18h4.5Zm9,0h-4.5V9.18h4.5Zm9,0h-4.47V9.18h4.5Zm9,0h-4.5V9.18h4.5Zm9,0h-4.49V9.18h4.5Zm9,0h-4.5V9.18h4.5Zm9,0h-4.5V9.18h4.5Zm9,0h-4.5V9.18h4.5Zm9,0h-4.5V9.18h4.5Zm9,0h-4.49V9.18h4.5Zm6.76,0h-2.25V9.18H225a5.46,5.46,0,0,1,2,.41L226.45,11a3.79,3.79,0,0,0-1.45-.29Zm3.83,3.83a3.84,3.84,0,0,0-.29-1.46l1.41-.59a5.46,5.46,0,0,1,.41,2v2.3h-1.53Zm0,11.63V21.52h1.53v4.65Zm0,9.3V30.82h1.53v4.65Zm0,9.3V40.12h1.53v4.65Zm0,9.3V49.42h1.53v4.65Zm0,9.31V58.72h1.53v4.66Zm0,9.32V68h1.53v4.7Zm0,9.3V77.3h1.53v4.64Zm0,9.31V86.66h1.53v4.65Zm0,9.3V96h1.53v4.65Zm0,9.3v-4.68h1.53v4.65Zm0,9.3v-4.65h1.53v4.65Zm0,9.3v-4.65h1.53v4.65Zm0,7v-2.3h1.53v2.3a5.46,5.46,0,0,1-.41,2l-1.41-.59a4,4,0,0,0,.29-1.49ZM225,139.32a3.84,3.84,0,0,0,1.46-.29l.59,1.41a5.51,5.51,0,0,1-2,.38H222.8v-1.53Zm-225,0H2.25v1.53H0Zm6.75,0h4.5v1.53H6.75Zm9,0h4.5v1.53h-4.5Zm9,0h4.5v1.53h-4.5Zm9,0h4.51v1.53H33.75Zm9,0h4.5v1.53h-4.5Zm9,0h4.5v1.53h-4.5Zm9,0h4.5v1.53h-4.5Zm9,0h4.48v1.53H69.75Zm9,0h4.5v1.53h-4.5Zm9,0h4.5v1.53h-4.5Zm9,0h4.5v1.53h-4.5Zm9,0h4.5v1.53h-4.5Zm9,0h4.5v1.53h-4.5Zm9,0h4.49v1.53h-4.49Zm9,0h4.5v1.53h-4.5Zm9,0h4.5v1.53h-4.5Zm9,0h4.5v1.53h-4.5Zm9,0h4.5v1.53h-4.5Zm9,0h4.5v1.53h-4.52Zm9,0h4.5v1.53h-4.5Zm9,0h4.5v1.53h-4.5Zm9,0h4.5v1.53h-4.5Zm9,0h4.5v1.53h-4.5Zm9,0h4.5v1.53h-4.49Z" style="fill:#fff;fill-opacity:0.3199999928474426;fill-rule:evenodd"/><path d="M179.84,62.76A9.17,9.17,0,0,1,189,53.57h49a3.07,3.07,0,0,1,3.06,3.06V93.37A3.07,3.07,0,0,1,238,96.43H189a9.18,9.18,0,0,1-9.18-9.18h0Z" style="fill:url(#c)"/><path d="M201.27,62.76a12.24,12.24,0,1,1-8.66,3.58A12.24,12.24,0,0,1,201.27,62.76Z" style="fill:url(#d)"/></g></svg>