<svg width="48" height="48" viewBox="0 0 48 48" fill="none" xmlns="http://www.w3.org/2000/svg">
<rect width="48" height="48" rx="24" fill="#FFECEC"/>
<path fill-rule="evenodd" clip-rule="evenodd" d="M34.8 17.1998L13.2 17.1998V30.7998L34.8 30.7998V17.1998ZM13.2 15.9998C12.5373 15.9998 12 16.537 12 17.1998V30.7998C12 31.4625 12.5373 31.9998 13.2 31.9998H34.8C35.4627 31.9998 36 31.4625 36 30.7998V17.1998C36 16.537 35.4627 15.9998 34.8 15.9998H13.2ZM18.7812 22.6707C19.4261 22.6707 19.9489 22.1479 19.9489 21.5029C19.9489 20.858 19.4261 20.3352 18.7812 20.3352C18.1362 20.3352 17.6134 20.858 17.6134 21.5029C17.6134 22.1479 18.1362 22.6707 18.7812 22.6707ZM18.7812 23.8707C20.0889 23.8707 21.1489 22.8106 21.1489 21.5029C21.1489 20.1953 20.0889 19.1352 18.7812 19.1352C17.4735 19.1352 16.4134 20.1953 16.4134 21.5029C16.4134 22.8106 17.4735 23.8707 18.7812 23.8707ZM21.6355 28.1698C21.6355 28.5261 21.8956 28.8642 22.2518 28.8642H22.29C22.571 28.8642 22.8157 28.6618 22.8301 28.3812C22.8337 28.3112 22.8355 28.2407 22.8355 28.1698C22.8355 25.9307 21.0204 24.1156 18.7814 24.1156C16.5423 24.1156 14.7272 25.9307 14.7272 28.1698C14.7272 28.2407 14.729 28.3112 14.7326 28.3812C14.747 28.6618 14.9917 28.8642 15.2728 28.8642H15.3109C15.6672 28.8642 15.9272 28.5261 15.9272 28.1698C15.9272 26.5935 17.2051 25.3156 18.7814 25.3156C20.3577 25.3156 21.6355 26.5935 21.6355 28.1698ZM24.6949 19.7628C24.6949 19.4314 24.9636 19.1628 25.2949 19.1628H32.6867C33.0181 19.1628 33.2867 19.4314 33.2867 19.7628C33.2867 20.0941 33.0181 20.3628 32.6867 20.3628H25.2949C24.9636 20.3628 24.6949 20.0941 24.6949 19.7628ZM25.2949 21.9766C24.9636 21.9766 24.6949 22.2452 24.6949 22.5766C24.6949 22.908 24.9636 23.1766 25.2949 23.1766H32.6867C33.0181 23.1766 33.2867 22.908 33.2867 22.5766C33.2867 22.2452 33.0181 21.9766 32.6867 21.9766H25.2949ZM24.6949 25.3904C24.6949 25.059 24.9636 24.7904 25.2949 24.7904H32.6867C33.0181 24.7904 33.2867 25.059 33.2867 25.3904C33.2867 25.7218 33.0181 25.9904 32.6867 25.9904H25.2949C24.9636 25.9904 24.6949 25.7218 24.6949 25.3904ZM25.2949 27.6055C24.9636 27.6055 24.6949 27.8741 24.6949 28.2055C24.6949 28.5369 24.9636 28.8055 25.2949 28.8055H32.6867C33.0181 28.8055 33.2867 28.5369 33.2867 28.2055C33.2867 27.8741 33.0181 27.6055 32.6867 27.6055H25.2949Z" fill="#F1593B"/>
<rect x="32.9211" y="12.6768" width="3" height="28.6302" rx="1.5" transform="rotate(45 32.9211 12.6768)" fill="white"/>
<rect x="32.9211" y="12.6768" width="3" height="28.6302" rx="1.5" transform="rotate(45 32.9211 12.6768)" fill="white"/>
<rect x="32.9211" y="12.6768" width="3" height="28.6302" rx="1.5" transform="rotate(45 32.9211 12.6768)" fill="white"/>
<rect x="32.876" y="13.9729" width="1.23122" height="26.7331" rx="0.615611" transform="rotate(45 32.876 13.9729)" fill="#F1593B"/>
</svg>
